<svg width="114" height="11" viewBox="0 0 114 11" fill="none" xmlns="http://www.w3.org/2000/svg">
<g id="Group 25">
<path id="Polygon 3" d="M8.33703 0.282227L10.7092 3.64566L16.2444 4.1081L12.1777 6.65148L13.2238 10.3016L8.33703 8.50893L3.45029 10.3016L4.49632 6.65148L0.429688 4.10964L5.96483 3.6472L8.33703 0.282227Z" fill="black"/>
<path id="Polygon 4" d="M32.6245 0.282227L35.1661 3.64566L41.0967 4.1081L36.7374 6.65148L37.8603 10.3016L32.6245 8.50893L27.3887 10.3016L28.5127 6.65148L24.1523 4.10964L30.0829 3.6472L32.6245 0.282227Z" fill="black"/>
<path id="Polygon 5" d="M56.9073 0.282227L59.2795 3.64566L64.8147 4.1081L60.7481 6.65148L61.7941 10.3016L56.9073 8.50893L52.0206 10.3016L53.0666 6.65148L49 4.10964L54.5351 3.6472L56.9073 0.282227Z" fill="black"/>
<path id="Polygon 6" d="M81.1948 0.282227L83.7365 3.64566L89.667 4.1081L85.3078 6.65148L86.4306 10.3016L81.1948 8.50893L75.959 10.3016L77.083 6.65148L72.7227 4.10964L78.6532 3.6472L81.1948 0.282227Z" fill="black"/>
<path id="Polygon 7" d="M105.482 0.282227L107.854 3.64566L113.389 4.1081L109.322 6.65148L110.368 10.3016L105.482 8.50893L100.595 10.3016L101.641 6.65148L97.5742 4.10964L103.109 3.6472L105.482 0.282227Z" fill="black"/>
</g>
</svg>
