<svg width="24" height="22" viewBox="0 0 24 22" fill="none" xmlns="http://www.w3.org/2000/svg">
<path d="M11.5647 21.4339C11.3997 21.269 11.2689 21.0732 11.1796 20.8577C11.0903 20.6422 11.0443 20.4112 11.0443 20.1779C11.0443 19.9446 11.0903 19.7136 11.1796 19.4981C11.2689 19.2826 11.3997 19.0868 11.5647 18.9219L17.2527 13.2309H2.39369C1.92253 13.2309 1.47067 13.0437 1.13751 12.7106C0.804354 12.3774 0.617188 11.9256 0.617188 11.4544C0.617187 10.9832 0.804354 10.5314 1.13751 10.1982C1.47067 9.86507 1.92253 9.6779 2.39369 9.6779H17.2537L11.5647 3.9869C11.3986 3.82276 11.267 3.62712 11.1775 3.41144C11.0881 3.19576 11.0426 2.96439 11.0437 2.7309C11.0431 2.37949 11.1469 2.03583 11.3418 1.74346C11.5368 1.45108 11.8141 1.22315 12.1387 1.08853C12.4633 0.953915 12.8206 0.918676 13.1652 0.98728C13.5099 1.05588 13.8264 1.22524 14.0747 1.4739L22.7977 10.1979C22.8814 10.2798 22.9558 10.3707 23.0197 10.4689C23.0442 10.5047 23.0656 10.5425 23.0837 10.5819C23.086 10.5873 23.089 10.5923 23.0927 10.5969L23.1047 10.6179C23.1341 10.669 23.1605 10.7217 23.1837 10.7759C23.2039 10.8255 23.2213 10.8763 23.2357 10.9279L23.2427 10.9549C23.2442 10.961 23.2462 10.9671 23.2487 10.9729C23.2642 11.0166 23.2762 11.0614 23.2847 11.1069C23.3306 11.3359 23.3306 11.5718 23.2847 11.8009C23.2758 11.8473 23.2637 11.8931 23.2487 11.9379C23.245 11.9443 23.2429 11.9515 23.2427 11.9589L23.2357 11.9799C23.2237 12.0199 23.2087 12.0709 23.1867 12.1319C23.1627 12.1862 23.1353 12.239 23.1047 12.2899L23.0927 12.3109C23.089 12.3155 23.086 12.3205 23.0837 12.3259C23.0666 12.3645 23.0458 12.4013 23.0217 12.4359C22.956 12.5345 22.8807 12.6263 22.7967 12.7099L14.0747 21.4339C13.9099 21.5988 13.7143 21.7296 13.499 21.8189C13.2836 21.9081 13.0528 21.9541 12.8197 21.9541C12.5866 21.9541 12.3558 21.9081 12.1404 21.8189C11.9251 21.7296 11.7294 21.5988 11.5647 21.4339Z" fill="#8DE1DD"/>
</svg>
