<svg width="54" height="54" viewBox="0 0 54 54" fill="none" xmlns="http://www.w3.org/2000/svg">
<mask id="mask0_2197_97" style="mask-type:luminance" maskUnits="userSpaceOnUse" x="0" y="0" width="54" height="54">
<path d="M53.9766 0.723633H0.976562V53.7236H53.9766V0.723633Z" fill="white"/>
</mask>
<g mask="url(#mask0_2197_97)">
<path d="M34.9297 23.0835C34.9297 25.2798 34.0572 27.3861 32.5042 28.9391C30.9512 30.492 28.8449 31.3645 26.6487 31.3645H16.7107L8.42969 37.1645L10.9137 31.3645H10.0857C7.88943 31.3645 5.78312 30.492 4.23014 28.9391C2.67715 27.3861 1.80469 25.2798 1.80469 23.0835V14.8015C1.80469 12.6053 2.67715 10.4989 4.23014 8.94596C5.78312 7.39297 7.88943 6.52051 10.0857 6.52051H26.6487C28.8449 6.52051 30.9512 7.39297 32.5042 8.94596C34.0572 10.4989 34.9297 12.6053 34.9297 14.8015V23.0835Z" stroke="#80DED9" stroke-width="2" stroke-linecap="round" stroke-linejoin="round"/>
<path d="M38.2419 19.7705H44.8669C47.0632 19.7705 49.1695 20.643 50.7225 22.196C52.2755 23.7489 53.1479 25.8553 53.1479 28.0515V36.3325C53.1479 38.5288 52.2755 40.6351 50.7225 42.1881C49.1695 43.741 47.0632 44.6135 44.8669 44.6135H44.0359L46.5199 50.4135L38.2389 44.6135H31.6169C29.4209 44.6135 27.3147 43.7412 25.7617 42.1884C24.2088 40.6356 23.3362 38.5296 23.3359 36.3335V34.6765" stroke="#80DED9" stroke-width="2" stroke-linecap="round" stroke-linejoin="round"/>
<path d="M37.9766 27.7236V34.7236" stroke="#80DED9" stroke-width="2" stroke-linecap="round" stroke-linejoin="round"/>
<path d="M18.3669 21.4264V20.5984C18.3669 19.1714 20.8509 18.5634 20.8509 16.4574C20.874 16.1252 20.8256 15.792 20.709 15.4801C20.5923 15.1683 20.4101 14.8851 20.1747 14.6496C19.9392 14.4142 19.656 14.232 19.3442 14.1153C19.0323 13.9987 18.6991 13.9503 18.3669 13.9734C17.6998 13.9863 17.0648 14.2618 16.5997 14.7402C16.1346 15.2186 15.877 15.8612 15.8829 16.5284" stroke="#80DED9" stroke-width="2" stroke-linecap="round" stroke-linejoin="round"/>
</g>
</svg>
