<svg width="24" height="22" viewBox="0 0 24 22" fill="none" xmlns="http://www.w3.org/2000/svg">
<path d="M12.0681 21.4339C12.2342 21.2698 12.3658 21.0741 12.4553 20.8585C12.5448 20.6428 12.5903 20.4114 12.5891 20.1779C12.5903 19.9444 12.5448 19.7131 12.4553 19.4974C12.3658 19.2817 12.2342 19.0861 12.0681 18.9219L6.38013 13.2309L21.2391 13.2309C21.7103 13.2309 22.1621 13.0437 22.4953 12.7106C22.8285 12.3774 23.0156 11.9256 23.0156 11.4544C23.0156 10.9833 22.8285 10.5314 22.4953 10.1982C22.1621 9.86508 21.7103 9.67792 21.2391 9.67792L6.37913 9.67792L12.0671 3.98692C12.2382 3.82351 12.375 3.62755 12.4693 3.41055C12.5636 3.19356 12.6137 2.95991 12.6164 2.72331C12.6192 2.48672 12.5747 2.25196 12.4854 2.03281C12.3962 1.81367 12.2641 1.61456 12.0969 1.44719C11.9296 1.27981 11.7306 1.14754 11.5116 1.05815C11.2925 0.968754 11.0578 0.924034 10.8212 0.926617C10.5846 0.929199 10.3509 0.979034 10.1338 1.07319C9.91674 1.16735 9.72067 1.30393 9.55713 1.47492L0.833126 10.1989C0.74943 10.2809 0.674984 10.3717 0.611126 10.4699C0.586596 10.5057 0.565182 10.5435 0.547125 10.5829C0.544794 10.5883 0.541769 10.5933 0.538126 10.5979L0.526125 10.6189C0.49671 10.67 0.470331 10.7227 0.447124 10.7769C0.426874 10.8265 0.409512 10.8773 0.395124 10.9289L0.390125 10.9539C0.388592 10.9601 0.386585 10.9661 0.384125 10.9719C0.36862 11.0156 0.356585 11.0604 0.348125 11.1059C0.30217 11.335 0.30217 11.5709 0.348125 11.7999C0.357058 11.8463 0.369083 11.8921 0.384125 11.9369C0.387251 11.9421 0.389292 11.9479 0.390125 11.9539L0.397125 11.9749C0.409124 12.0149 0.424126 12.0659 0.446125 12.1269C0.47011 12.1813 0.497499 12.234 0.528126 12.2849L0.540125 12.3059C0.543768 12.3105 0.546795 12.3155 0.549126 12.3209C0.566217 12.3595 0.586981 12.3963 0.611126 12.4309C0.676771 12.5295 0.752148 12.6213 0.836124 12.7049L9.55813 21.4339C9.72288 21.5988 9.91852 21.7296 10.1339 21.8189C10.3492 21.9082 10.58 21.9541 10.8131 21.9541C11.0462 21.9541 11.2771 21.9082 11.4924 21.8189C11.7077 21.7296 11.9034 21.5988 12.0681 21.4339Z" fill="#8DE1DD"/>
</svg>
