<svg width="18" height="18" viewBox="0 0 18 18" fill="none" xmlns="http://www.w3.org/2000/svg">
<g clip-path="url(#clip0_1462_9856)">
<path fill-rule="evenodd" clip-rule="evenodd" d="M8.98781 9.75C7.52306 9.75 -0.0234375 3.66825 -0.0234375 3.66825V3C-0.0234375 2.172 0.648562 1.5 1.47806 1.5H16.4976C17.3278 1.5 17.9998 2.172 17.9998 3L17.9878 3.75C17.9878 3.75 10.5231 9.75 8.98781 9.75ZM8.98781 11.8125C10.5936 11.8125 17.9878 6 17.9878 6L17.9998 15C17.9998 15.828 17.3278 16.5 16.4976 16.5H1.47806C0.649312 16.5 -0.0234375 15.828 -0.0234375 15L-0.0114375 6C-0.0121875 6 7.52306 11.8125 8.98781 11.8125Z" fill="black"/>
</g>
<defs>
<clipPath id="clip0_1462_9856">
<rect width="18" height="18" fill="white"/>
</clipPath>
</defs>
</svg>
