<svg width="13" height="13" viewBox="0 0 13 13" fill="none" xmlns="http://www.w3.org/2000/svg">
<path id="Combined-Shape" d="M0.283309 12.5441C0.15516 12.4159 0.0777534 12.2457 0.0654043 12.0648C0.0530552 11.884 0.106599 11.7049 0.216134 11.5605L0.281894 11.4848L9.6058 2.1609L2.88334 2.17433C2.69433 2.1743 2.51231 2.1029 2.37368 1.97443C2.23505 1.84595 2.15004 1.66988 2.13565 1.48142C2.12127 1.29296 2.17857 1.10602 2.29609 0.957992C2.41361 0.809965 2.58269 0.711766 2.7695 0.683041L2.8798 0.674556L11.4174 0.656172C11.4707 0.656197 11.5238 0.661886 11.5758 0.673143L11.6218 0.685163L11.6621 0.697184L11.7186 0.719811L11.7604 0.738904L11.8113 0.767188L11.8452 0.789816L11.8933 0.826584L11.9258 0.859111L11.9675 0.90083L11.9987 0.931943L11.947 0.880324C11.98 0.913314 12.0098 0.949296 12.0361 0.987805L12.0595 1.01397C12.0722 1.03377 12.0828 1.05286 12.0927 1.07407L12.109 1.10589C12.1189 1.12852 12.1273 1.14973 12.1344 1.17236L12.1443 1.20489L12.1578 1.25933L12.1641 1.29964L12.1655 1.31095C12.1699 1.34401 12.172 1.37732 12.1719 1.41066L12.1521 9.94685C12.152 10.1367 12.0799 10.3194 11.9504 10.4582C11.8209 10.5969 11.6436 10.6814 11.4542 10.6946C11.2648 10.7078 11.0775 10.6487 10.93 10.5292C10.7825 10.4097 10.6858 10.2388 10.6594 10.0508L10.6516 9.93978L10.6643 3.21943L1.34185 12.5419C1.20156 12.6822 1.01141 12.7612 0.813016 12.7616C0.614623 12.762 0.424154 12.6838 0.283309 12.5441Z" fill="#2A9BED"/>
</svg>
