<svg width="20" height="18" viewBox="0 0 20 18" fill="none" xmlns="http://www.w3.org/2000/svg">
<g id="Group 139328">
<g id="Clip path group">
<mask id="mask0_2197_2282" style="mask-type:luminance" maskUnits="userSpaceOnUse" x="0" y="0" width="20" height="18">
<g id="clip-path">
<path id="Rectangle 15" d="M19.3848 0.0888672H0.550781V17.4459H19.3848V0.0888672Z" fill="white"/>
</g>
</mask>
<g mask="url(#mask0_2197_2282)">
<g id="Group 26">
<path id="Path 20044" d="M0.550781 8.76667C0.550781 9.06053 0.667517 9.34235 0.875307 9.55015C1.0831 9.75794 1.36492 9.87467 1.65878 9.87467H15.6028L9.92278 15.5547C9.81989 15.6576 9.73827 15.7797 9.68259 15.9141C9.62691 16.0486 9.59824 16.1927 9.59824 16.3382C9.59824 16.4837 9.62691 16.6278 9.68259 16.7622C9.73827 16.8966 9.81989 17.0188 9.92278 17.1217C10.0257 17.2246 10.1478 17.3062 10.2823 17.3619C10.4167 17.4175 10.5608 17.4462 10.7063 17.4462C10.8518 17.4462 10.9959 17.4175 11.1303 17.3619C11.2647 17.3062 11.3869 17.2246 11.4898 17.1217L19.0588 9.55267C19.1109 9.50073 19.1578 9.44379 19.1988 9.38267C19.2158 9.35667 19.2278 9.32867 19.2428 9.30167C19.2643 9.2662 19.2837 9.22946 19.3008 9.19167C19.3141 9.15563 19.3254 9.11891 19.3348 9.08167C19.3448 9.04967 19.3568 9.01867 19.3638 8.98167C19.3923 8.83841 19.3923 8.69093 19.3638 8.54767C19.3568 8.51467 19.3448 8.48367 19.3348 8.44767C19.3255 8.41041 19.3141 8.37369 19.3008 8.33767C19.2837 8.29988 19.2643 8.26314 19.2428 8.22767C19.2278 8.20067 19.2158 8.17267 19.1988 8.14667C19.1579 8.08548 19.111 8.02853 19.0588 7.97667L11.4898 0.413671C11.2805 0.214012 11.0014 0.104129 10.7121 0.107497C10.4229 0.110865 10.1464 0.227219 9.9418 0.431698C9.73719 0.636176 9.62066 0.912565 9.6171 1.20181C9.61355 1.49106 9.72326 1.77023 9.92278 1.97967L15.6018 7.65867H1.65878C1.36492 7.65867 1.0831 7.77541 0.875307 7.9832C0.667517 8.19099 0.550781 8.47281 0.550781 8.76667Z" fill="black"/>
</g>
</g>
</g>
</g>
</svg>
