<svg width="63" height="81" viewBox="0 0 63 81" fill="none" xmlns="http://www.w3.org/2000/svg">
<path fill-rule="evenodd" clip-rule="evenodd" d="M0.223633 76.7402V4.25902C0.223633 2.40442 1.85003 0.899612 3.8545 0.899612H35.5955L62.7735 26.0456V76.7402C62.7735 78.5948 61.1471 80.0996 59.1426 80.0996H3.8545C1.85003 80.0996 0.223633 78.5948 0.223633 76.7402Z" fill="#2C7998"/>
<path fill-rule="evenodd" clip-rule="evenodd" d="M35.5977 0.89892L62.7757 26.0449H39.2285C37.2241 26.0449 35.5977 24.5401 35.5977 22.6855V0.89892Z" fill="#175772"/>
<path d="M18.0794 62.2709C18.0794 63.3468 17.6562 64.2158 16.8097 64.8736C16.0844 65.4456 15.0263 65.7338 13.6353 65.7404H11.7902V70.9434H9.95215V58.8125H13.6353C15.0263 58.8125 16.0844 59.0985 16.8097 59.6705C17.6562 60.3525 18.0794 61.2193 18.0794 62.2709ZM15.3806 63.8946C15.9109 63.5294 16.1772 62.9881 16.1772 62.2709C16.1772 61.5559 15.9109 61.0235 15.3806 60.6759C14.8979 60.3613 14.2654 60.2029 13.4879 60.2029H11.7902V64.35H13.4879C14.2726 64.35 14.9027 64.1982 15.3806 63.8946Z" fill="#E6E6E6"/>
<path d="M28.8862 60.3921C30.2416 61.5427 30.9192 63.0366 30.9192 64.878C30.9192 66.7172 30.2416 68.2132 28.8862 69.3638C27.645 70.4154 26.0115 70.9434 23.988 70.9434H20.0361V58.8125H23.988C26.0162 58.8125 27.6498 59.3383 28.8862 60.3921ZM29.036 64.8736C29.036 63.4656 28.5177 62.3061 27.4762 61.3953C26.6178 60.6473 25.4551 60.2711 23.988 60.2711H21.8742V69.465H23.988C25.4598 69.465 26.6226 69.091 27.4762 68.3408C28.5177 67.4256 29.036 66.2706 29.036 64.8736Z" fill="#E6E6E6"/>
<path d="M40.341 58.8125V60.2381H34.9054V64.2818H40.0176V65.7052H34.9054V70.9434H33.0674V58.8125H40.341Z" fill="#E6E6E6"/>
</svg>
