<svg width="34" height="34" viewBox="0 0 34 34" fill="none" xmlns="http://www.w3.org/2000/svg">
<g clip-path="url(#clip0_1462_11905)">
<path d="M16.9997 31.1673C9.17543 31.1673 2.83301 24.8249 2.83301 17.0007C2.83301 9.1764 9.17543 2.83398 16.9997 2.83398C24.8239 2.83398 31.1663 9.1764 31.1663 17.0007C31.1663 24.8249 24.8239 31.1673 16.9997 31.1673ZM15.583 21.2507V24.084H18.4163V21.2507H15.583ZM18.4163 18.9202C19.5549 18.5771 20.5323 17.8364 21.1706 16.8331C21.8088 15.8298 22.0655 14.6306 21.8939 13.454C21.7222 12.2773 21.1337 11.2014 20.2354 10.4223C19.3371 9.64316 18.1888 9.21258 16.9997 9.20898C15.8534 9.2089 14.7424 9.60587 13.8558 10.3324C12.9691 11.0589 12.3615 12.0701 12.1363 13.1941L14.9158 13.7508C14.9946 13.3562 15.184 12.9921 15.4617 12.7008C15.7394 12.4096 16.0942 12.2032 16.4846 12.1057C16.8751 12.0081 17.2852 12.0235 17.6672 12.1499C18.0493 12.2764 18.3876 12.5087 18.6428 12.8199C18.8979 13.1311 19.0595 13.5084 19.1086 13.9078C19.1578 14.3073 19.0925 14.7125 18.9204 15.0762C18.7482 15.44 18.4763 15.7474 18.1363 15.9627C17.7963 16.178 17.4021 16.2923 16.9997 16.2923C16.624 16.2923 16.2636 16.4416 15.9979 16.7073C15.7323 16.9729 15.583 17.3333 15.583 17.709V19.834H18.4163V18.9202Z" fill="black"/>
</g>
<defs>
<clipPath id="clip0_1462_11905">
<rect width="34" height="34" fill="white"/>
</clipPath>
</defs>
</svg>
