<svg width="674" height="395" viewBox="0 0 674 395" fill="none" xmlns="http://www.w3.org/2000/svg">
<g filter="url(#filter0_d_2384_59)">
<rect x="15" y="5" width="644" height="365" rx="20" fill="white"/>
</g>
<rect x="374" y="84" width="63" height="24" rx="10" fill="#A290FC"/>
<rect x="374" y="142" width="63" height="24" rx="10" fill="#FDCE63"/>
<rect x="374" y="200" width="63" height="24" rx="10" fill="#6DCCFB"/>
<rect x="374" y="258" width="63" height="24" rx="10" fill="#EFF9FE"/>
<path d="M459.403 103L455.426 88.4545H457.216L460.256 100.301H460.398L463.494 88.4545H465.483L468.58 100.301H468.722L471.761 88.4545H473.551L469.574 103H467.756L464.545 91.4091H464.432L461.222 103H459.403ZM478.935 103.227C477.95 103.227 477.086 102.993 476.342 102.524C475.604 102.055 475.026 101.4 474.609 100.557C474.197 99.714 473.991 98.7292 473.991 97.6023C473.991 96.4659 474.197 95.474 474.609 94.6264C475.026 93.7789 475.604 93.1207 476.342 92.652C477.086 92.1832 477.95 91.9489 478.935 91.9489C479.92 91.9489 480.781 92.1832 481.52 92.652C482.263 93.1207 482.841 93.7789 483.253 94.6264C483.67 95.474 483.878 96.4659 483.878 97.6023C483.878 98.7292 483.67 99.714 483.253 100.557C482.841 101.4 482.263 102.055 481.52 102.524C480.781 102.993 479.92 103.227 478.935 103.227ZM478.935 101.722C479.683 101.722 480.298 101.53 480.781 101.146C481.264 100.763 481.622 100.259 481.854 99.6335C482.086 99.0085 482.202 98.3314 482.202 97.6023C482.202 96.8731 482.086 96.1937 481.854 95.5639C481.622 94.9342 481.264 94.4252 480.781 94.0369C480.298 93.6487 479.683 93.4545 478.935 93.4545C478.187 93.4545 477.571 93.6487 477.088 94.0369C476.605 94.4252 476.248 94.9342 476.016 95.5639C475.784 96.1937 475.668 96.8731 475.668 97.6023C475.668 98.3314 475.784 99.0085 476.016 99.6335C476.248 100.259 476.605 100.763 477.088 101.146C477.571 101.53 478.187 101.722 478.935 101.722ZM486.436 103V92.0909H488.056V93.7386H488.169C488.368 93.1989 488.728 92.7609 489.249 92.4247C489.77 92.0885 490.357 91.9205 491.01 91.9205C491.133 91.9205 491.287 91.9228 491.472 91.9276C491.657 91.9323 491.796 91.9394 491.891 91.9489V93.6534C491.834 93.6392 491.704 93.6179 491.5 93.5895C491.301 93.5563 491.091 93.5398 490.868 93.5398C490.338 93.5398 489.864 93.651 489.448 93.8736C489.036 94.0914 488.709 94.3944 488.468 94.7827C488.231 95.1662 488.113 95.6042 488.113 96.0966V103H486.436ZM495.44 99.0227L495.412 96.9489H495.753L500.526 92.0909H502.599L497.514 97.233H497.372L495.44 99.0227ZM493.878 103V88.4545H495.554V103H493.878ZM500.81 103L496.548 97.6023L497.741 96.4375L502.94 103H500.81ZM510.382 103V92.0909H512.058V103H510.382ZM511.234 90.2727C510.907 90.2727 510.626 90.1615 510.389 89.9389C510.157 89.7164 510.041 89.4489 510.041 89.1364C510.041 88.8239 510.157 88.5563 510.389 88.3338C510.626 88.1113 510.907 88 511.234 88C511.561 88 511.84 88.1113 512.072 88.3338C512.309 88.5563 512.427 88.8239 512.427 89.1364C512.427 89.4489 512.309 89.7164 512.072 89.9389C511.84 90.1615 511.561 90.2727 511.234 90.2727ZM516.804 96.4375V103H515.128V92.0909H516.747V93.7955H516.889C517.145 93.2415 517.533 92.7964 518.054 92.4602C518.575 92.1193 519.247 91.9489 520.071 91.9489C520.81 91.9489 521.456 92.1004 522.01 92.4034C522.564 92.7017 522.995 93.1562 523.303 93.767C523.61 94.3731 523.764 95.1402 523.764 96.0682V103H522.088V96.1818C522.088 95.3248 521.866 94.6572 521.42 94.179C520.975 93.696 520.365 93.4545 519.588 93.4545C519.053 93.4545 518.575 93.5705 518.153 93.8026C517.737 94.0346 517.408 94.3731 517.166 94.8182C516.925 95.2633 516.804 95.803 516.804 96.4375ZM532.452 107.091V92.0909H534.071V93.8239H534.27C534.393 93.6345 534.564 93.393 534.782 93.0994C535.004 92.8011 535.321 92.536 535.733 92.304C536.15 92.0672 536.713 91.9489 537.424 91.9489C538.342 91.9489 539.152 92.1785 539.853 92.6378C540.553 93.0971 541.1 93.7481 541.493 94.5909C541.886 95.4337 542.083 96.428 542.083 97.5739C542.083 98.7292 541.886 99.7306 541.493 100.578C541.1 101.421 540.556 102.074 539.86 102.538C539.164 102.998 538.361 103.227 537.452 103.227C536.751 103.227 536.19 103.111 535.769 102.879C535.347 102.643 535.023 102.375 534.796 102.077C534.569 101.774 534.393 101.523 534.27 101.324H534.128V107.091H532.452ZM534.1 97.5455C534.1 98.3693 534.221 99.0961 534.462 99.7259C534.703 100.351 535.056 100.841 535.52 101.196C535.984 101.546 536.552 101.722 537.225 101.722C537.926 101.722 538.51 101.537 538.979 101.168C539.453 100.794 539.808 100.292 540.044 99.6619C540.286 99.0275 540.407 98.322 540.407 97.5455C540.407 96.7784 540.288 96.0871 540.051 95.4716C539.819 94.8513 539.467 94.3613 538.993 94.0014C538.525 93.6368 537.935 93.4545 537.225 93.4545C536.543 93.4545 535.97 93.6274 535.506 93.973C535.042 94.3139 534.692 94.7921 534.455 95.4077C534.218 96.0185 534.1 96.7311 534.1 97.5455ZM544.64 103V92.0909H546.259V93.7386H546.373C546.571 93.1989 546.931 92.7609 547.452 92.4247C547.973 92.0885 548.56 91.9205 549.213 91.9205C549.337 91.9205 549.49 91.9228 549.675 91.9276C549.86 91.9323 549.999 91.9394 550.094 91.9489V93.6534C550.037 93.6392 549.907 93.6179 549.703 93.5895C549.505 93.5563 549.294 93.5398 549.071 93.5398C548.541 93.5398 548.068 93.651 547.651 93.8736C547.239 94.0914 546.912 94.3944 546.671 94.7827C546.434 95.1662 546.316 95.6042 546.316 96.0966V103H544.64ZM556.181 103.227C555.196 103.227 554.332 102.993 553.588 102.524C552.85 102.055 552.272 101.4 551.855 100.557C551.444 99.714 551.238 98.7292 551.238 97.6023C551.238 96.4659 551.444 95.474 551.855 94.6264C552.272 93.7789 552.85 93.1207 553.588 92.652C554.332 92.1832 555.196 91.9489 556.181 91.9489C557.166 91.9489 558.027 92.1832 558.766 92.652C559.509 93.1207 560.087 93.7789 560.499 94.6264C560.916 95.474 561.124 96.4659 561.124 97.6023C561.124 98.7292 560.916 99.714 560.499 100.557C560.087 101.4 559.509 102.055 558.766 102.524C558.027 102.993 557.166 103.227 556.181 103.227ZM556.181 101.722C556.929 101.722 557.544 101.53 558.027 101.146C558.51 100.763 558.868 100.259 559.1 99.6335C559.332 99.0085 559.448 98.3314 559.448 97.6023C559.448 96.8731 559.332 96.1937 559.1 95.5639C558.868 94.9342 558.51 94.4252 558.027 94.0369C557.544 93.6487 556.929 93.4545 556.181 93.4545C555.433 93.4545 554.817 93.6487 554.334 94.0369C553.851 94.4252 553.494 94.9342 553.262 95.5639C553.03 96.1937 552.914 96.8731 552.914 97.6023C552.914 98.3314 553.03 99.0085 553.262 99.6335C553.494 100.259 553.851 100.763 554.334 101.146C554.817 101.53 555.433 101.722 556.181 101.722ZM568.086 107.318C567.276 107.318 566.58 107.214 565.998 107.006C565.415 106.802 564.93 106.532 564.542 106.196C564.158 105.865 563.853 105.509 563.626 105.131L564.961 104.193C565.112 104.392 565.304 104.619 565.536 104.875C565.768 105.135 566.085 105.36 566.488 105.55C566.895 105.744 567.428 105.841 568.086 105.841C568.967 105.841 569.693 105.628 570.266 105.202C570.839 104.776 571.126 104.108 571.126 103.199V100.983H570.984C570.861 101.182 570.685 101.428 570.458 101.722C570.236 102.01 569.914 102.268 569.492 102.496C569.076 102.718 568.512 102.83 567.802 102.83C566.921 102.83 566.13 102.621 565.43 102.205C564.734 101.788 564.182 101.182 563.775 100.386C563.372 99.5909 563.171 98.625 563.171 97.4886C563.171 96.3712 563.368 95.3982 563.761 94.5696C564.154 93.7363 564.701 93.0923 565.401 92.6378C566.102 92.1785 566.912 91.9489 567.83 91.9489C568.54 91.9489 569.104 92.0672 569.521 92.304C569.942 92.536 570.264 92.8011 570.487 93.0994C570.714 93.393 570.889 93.6345 571.012 93.8239H571.183V92.0909H572.802V103.312C572.802 104.25 572.589 105.012 572.163 105.599C571.741 106.191 571.173 106.625 570.458 106.899C569.748 107.179 568.957 107.318 568.086 107.318ZM568.029 101.324C568.701 101.324 569.27 101.17 569.734 100.862C570.198 100.554 570.55 100.112 570.792 99.5341C571.033 98.9564 571.154 98.2652 571.154 97.4602C571.154 96.6742 571.036 95.9806 570.799 95.3793C570.562 94.7779 570.212 94.3068 569.748 93.9659C569.284 93.625 568.711 93.4545 568.029 93.4545C567.319 93.4545 566.727 93.6345 566.254 93.9943C565.785 94.3542 565.432 94.8371 565.195 95.4432C564.963 96.0492 564.847 96.7216 564.847 97.4602C564.847 98.2178 564.966 98.8878 565.202 99.4702C565.444 100.048 565.799 100.502 566.268 100.834C566.741 101.161 567.328 101.324 568.029 101.324ZM575.87 103V92.0909H577.489V93.7386H577.603C577.802 93.1989 578.162 92.7609 578.683 92.4247C579.203 92.0885 579.79 91.9205 580.444 91.9205C580.567 91.9205 580.721 91.9228 580.906 91.9276C581.09 91.9323 581.23 91.9394 581.325 91.9489V93.6534C581.268 93.6392 581.138 93.6179 580.934 93.5895C580.735 93.5563 580.524 93.5398 580.302 93.5398C579.772 93.5398 579.298 93.651 578.881 93.8736C578.469 94.0914 578.143 94.3944 577.901 94.7827C577.665 95.1662 577.546 95.6042 577.546 96.0966V103H575.87ZM587.553 103.227C586.502 103.227 585.595 102.995 584.833 102.531C584.076 102.062 583.491 101.409 583.079 100.571C582.672 99.7282 582.468 98.7481 582.468 97.6307C582.468 96.5133 582.672 95.5284 583.079 94.6761C583.491 93.8191 584.064 93.1515 584.798 92.6733C585.536 92.1903 586.398 91.9489 587.383 91.9489C587.951 91.9489 588.512 92.0436 589.066 92.233C589.62 92.4223 590.124 92.7301 590.579 93.1562C591.033 93.5777 591.396 94.1364 591.665 94.8324C591.935 95.5284 592.07 96.3854 592.07 97.4034V98.1136H583.661V96.6648H590.366C590.366 96.0492 590.243 95.5 589.996 95.017C589.755 94.5341 589.409 94.1529 588.96 93.8736C588.514 93.5942 587.989 93.4545 587.383 93.4545C586.715 93.4545 586.138 93.6203 585.65 93.9517C585.167 94.2784 584.795 94.7045 584.535 95.2301C584.274 95.7557 584.144 96.3191 584.144 96.9205V97.8864C584.144 98.7102 584.286 99.4086 584.57 99.9815C584.859 100.55 585.259 100.983 585.771 101.281C586.282 101.575 586.876 101.722 587.553 101.722C587.994 101.722 588.391 101.66 588.746 101.537C589.106 101.409 589.416 101.22 589.677 100.969C589.937 100.713 590.138 100.396 590.281 100.017L591.9 100.472C591.729 101.021 591.443 101.504 591.04 101.92C590.638 102.332 590.141 102.654 589.549 102.886C588.957 103.114 588.292 103.227 587.553 103.227ZM602.347 94.5341L600.842 94.9602C600.747 94.7093 600.607 94.4654 600.423 94.2287C600.243 93.9872 599.996 93.7884 599.684 93.6321C599.371 93.4759 598.971 93.3977 598.484 93.3977C597.816 93.3977 597.26 93.5516 596.815 93.8594C596.374 94.1624 596.154 94.5483 596.154 95.017C596.154 95.4337 596.306 95.7628 596.609 96.0043C596.912 96.2457 597.385 96.447 598.029 96.608L599.648 97.0057C600.624 97.2424 601.351 97.6046 601.829 98.0923C602.307 98.5753 602.546 99.1979 602.546 99.9602C602.546 100.585 602.366 101.144 602.006 101.636C601.651 102.129 601.154 102.517 600.515 102.801C599.876 103.085 599.132 103.227 598.285 103.227C597.172 103.227 596.251 102.986 595.522 102.503C594.793 102.02 594.331 101.314 594.137 100.386L595.728 99.9886C595.879 100.576 596.166 101.016 596.587 101.31C597.013 101.603 597.57 101.75 598.256 101.75C599.038 101.75 599.658 101.584 600.117 101.253C600.581 100.917 600.813 100.514 600.813 100.045C600.813 99.6667 600.681 99.3494 600.415 99.0938C600.15 98.8333 599.743 98.6392 599.194 98.5114L597.376 98.0852C596.377 97.8485 595.643 97.4815 595.174 96.9844C594.71 96.4825 594.478 95.8551 594.478 95.1023C594.478 94.4867 594.651 93.9422 594.996 93.4688C595.347 92.9953 595.823 92.6236 596.424 92.3537C597.03 92.0838 597.717 91.9489 598.484 91.9489C599.563 91.9489 600.411 92.1856 601.026 92.6591C601.647 93.1326 602.087 93.7576 602.347 94.5341ZM612.797 94.5341L611.291 94.9602C611.196 94.7093 611.056 94.4654 610.872 94.2287C610.692 93.9872 610.446 93.7884 610.133 93.6321C609.821 93.4759 609.421 93.3977 608.933 93.3977C608.265 93.3977 607.709 93.5516 607.264 93.8594C606.824 94.1624 606.603 94.5483 606.603 95.017C606.603 95.4337 606.755 95.7628 607.058 96.0043C607.361 96.2457 607.834 96.447 608.478 96.608L610.098 97.0057C611.073 97.2424 611.8 97.6046 612.278 98.0923C612.756 98.5753 612.995 99.1979 612.995 99.9602C612.995 100.585 612.815 101.144 612.456 101.636C612.1 102.129 611.603 102.517 610.964 102.801C610.325 103.085 609.582 103.227 608.734 103.227C607.621 103.227 606.7 102.986 605.971 102.503C605.242 102.02 604.78 101.314 604.586 100.386L606.177 99.9886C606.329 100.576 606.615 101.016 607.037 101.31C607.463 101.603 608.019 101.75 608.706 101.75C609.487 101.75 610.107 101.584 610.566 101.253C611.03 100.917 611.262 100.514 611.262 100.045C611.262 99.6667 611.13 99.3494 610.865 99.0938C610.6 98.8333 610.192 98.6392 609.643 98.5114L607.825 98.0852C606.826 97.8485 606.092 97.4815 605.623 96.9844C605.159 96.4825 604.927 95.8551 604.927 95.1023C604.927 94.4867 605.1 93.9422 605.446 93.4688C605.796 92.9953 606.272 92.6236 606.873 92.3537C607.479 92.0838 608.166 91.9489 608.933 91.9489C610.012 91.9489 610.86 92.1856 611.475 92.6591C612.096 93.1326 612.536 93.7576 612.797 94.5341Z" fill="black"/>
<path d="M459.403 161L455.426 146.455H457.216L460.256 158.301H460.398L463.494 146.455H465.483L468.58 158.301H468.722L471.761 146.455H473.551L469.574 161H467.756L464.545 149.409H464.432L461.222 161H459.403ZM478.935 161.227C477.95 161.227 477.086 160.993 476.342 160.524C475.604 160.055 475.026 159.4 474.609 158.557C474.197 157.714 473.991 156.729 473.991 155.602C473.991 154.466 474.197 153.474 474.609 152.626C475.026 151.779 475.604 151.121 476.342 150.652C477.086 150.183 477.95 149.949 478.935 149.949C479.92 149.949 480.781 150.183 481.52 150.652C482.263 151.121 482.841 151.779 483.253 152.626C483.67 153.474 483.878 154.466 483.878 155.602C483.878 156.729 483.67 157.714 483.253 158.557C482.841 159.4 482.263 160.055 481.52 160.524C480.781 160.993 479.92 161.227 478.935 161.227ZM478.935 159.722C479.683 159.722 480.298 159.53 480.781 159.146C481.264 158.763 481.622 158.259 481.854 157.634C482.086 157.009 482.202 156.331 482.202 155.602C482.202 154.873 482.086 154.194 481.854 153.564C481.622 152.934 481.264 152.425 480.781 152.037C480.298 151.649 479.683 151.455 478.935 151.455C478.187 151.455 477.571 151.649 477.088 152.037C476.605 152.425 476.248 152.934 476.016 153.564C475.784 154.194 475.668 154.873 475.668 155.602C475.668 156.331 475.784 157.009 476.016 157.634C476.248 158.259 476.605 158.763 477.088 159.146C477.571 159.53 478.187 159.722 478.935 159.722ZM486.436 161V150.091H488.056V151.739H488.169C488.368 151.199 488.728 150.761 489.249 150.425C489.77 150.089 490.357 149.92 491.01 149.92C491.133 149.92 491.287 149.923 491.472 149.928C491.657 149.932 491.796 149.939 491.891 149.949V151.653C491.834 151.639 491.704 151.618 491.5 151.589C491.301 151.556 491.091 151.54 490.868 151.54C490.338 151.54 489.864 151.651 489.448 151.874C489.036 152.091 488.709 152.394 488.468 152.783C488.231 153.166 488.113 153.604 488.113 154.097V161H486.436ZM495.44 157.023L495.412 154.949H495.753L500.526 150.091H502.599L497.514 155.233H497.372L495.44 157.023ZM493.878 161V146.455H495.554V161H493.878ZM500.81 161L496.548 155.602L497.741 154.438L502.94 161H500.81ZM510.382 161V150.091H512.058V161H510.382ZM511.234 148.273C510.907 148.273 510.626 148.161 510.389 147.939C510.157 147.716 510.041 147.449 510.041 147.136C510.041 146.824 510.157 146.556 510.389 146.334C510.626 146.111 510.907 146 511.234 146C511.561 146 511.84 146.111 512.072 146.334C512.309 146.556 512.427 146.824 512.427 147.136C512.427 147.449 512.309 147.716 512.072 147.939C511.84 148.161 511.561 148.273 511.234 148.273ZM516.804 154.438V161H515.128V150.091H516.747V151.795H516.889C517.145 151.241 517.533 150.796 518.054 150.46C518.575 150.119 519.247 149.949 520.071 149.949C520.81 149.949 521.456 150.1 522.01 150.403C522.564 150.702 522.995 151.156 523.303 151.767C523.61 152.373 523.764 153.14 523.764 154.068V161H522.088V154.182C522.088 153.325 521.866 152.657 521.42 152.179C520.975 151.696 520.365 151.455 519.588 151.455C519.053 151.455 518.575 151.571 518.153 151.803C517.737 152.035 517.408 152.373 517.166 152.818C516.925 153.263 516.804 153.803 516.804 154.438ZM532.452 165.091V150.091H534.071V151.824H534.27C534.393 151.634 534.564 151.393 534.782 151.099C535.004 150.801 535.321 150.536 535.733 150.304C536.15 150.067 536.713 149.949 537.424 149.949C538.342 149.949 539.152 150.179 539.853 150.638C540.553 151.097 541.1 151.748 541.493 152.591C541.886 153.434 542.083 154.428 542.083 155.574C542.083 156.729 541.886 157.731 541.493 158.578C541.1 159.421 540.556 160.074 539.86 160.538C539.164 160.998 538.361 161.227 537.452 161.227C536.751 161.227 536.19 161.111 535.769 160.879C535.347 160.643 535.023 160.375 534.796 160.077C534.569 159.774 534.393 159.523 534.27 159.324H534.128V165.091H532.452ZM534.1 155.545C534.1 156.369 534.221 157.096 534.462 157.726C534.703 158.351 535.056 158.841 535.52 159.196C535.984 159.546 536.552 159.722 537.225 159.722C537.926 159.722 538.51 159.537 538.979 159.168C539.453 158.794 539.808 158.292 540.044 157.662C540.286 157.027 540.407 156.322 540.407 155.545C540.407 154.778 540.288 154.087 540.051 153.472C539.819 152.851 539.467 152.361 538.993 152.001C538.525 151.637 537.935 151.455 537.225 151.455C536.543 151.455 535.97 151.627 535.506 151.973C535.042 152.314 534.692 152.792 534.455 153.408C534.218 154.018 534.1 154.731 534.1 155.545ZM544.64 161V150.091H546.259V151.739H546.373C546.571 151.199 546.931 150.761 547.452 150.425C547.973 150.089 548.56 149.92 549.213 149.92C549.337 149.92 549.49 149.923 549.675 149.928C549.86 149.932 549.999 149.939 550.094 149.949V151.653C550.037 151.639 549.907 151.618 549.703 151.589C549.505 151.556 549.294 151.54 549.071 151.54C548.541 151.54 548.068 151.651 547.651 151.874C547.239 152.091 546.912 152.394 546.671 152.783C546.434 153.166 546.316 153.604 546.316 154.097V161H544.64ZM556.181 161.227C555.196 161.227 554.332 160.993 553.588 160.524C552.85 160.055 552.272 159.4 551.855 158.557C551.444 157.714 551.238 156.729 551.238 155.602C551.238 154.466 551.444 153.474 551.855 152.626C552.272 151.779 552.85 151.121 553.588 150.652C554.332 150.183 555.196 149.949 556.181 149.949C557.166 149.949 558.027 150.183 558.766 150.652C559.509 151.121 560.087 151.779 560.499 152.626C560.916 153.474 561.124 154.466 561.124 155.602C561.124 156.729 560.916 157.714 560.499 158.557C560.087 159.4 559.509 160.055 558.766 160.524C558.027 160.993 557.166 161.227 556.181 161.227ZM556.181 159.722C556.929 159.722 557.544 159.53 558.027 159.146C558.51 158.763 558.868 158.259 559.1 157.634C559.332 157.009 559.448 156.331 559.448 155.602C559.448 154.873 559.332 154.194 559.1 153.564C558.868 152.934 558.51 152.425 558.027 152.037C557.544 151.649 556.929 151.455 556.181 151.455C555.433 151.455 554.817 151.649 554.334 152.037C553.851 152.425 553.494 152.934 553.262 153.564C553.03 154.194 552.914 154.873 552.914 155.602C552.914 156.331 553.03 157.009 553.262 157.634C553.494 158.259 553.851 158.763 554.334 159.146C554.817 159.53 555.433 159.722 556.181 159.722ZM568.086 165.318C567.276 165.318 566.58 165.214 565.998 165.006C565.415 164.802 564.93 164.532 564.542 164.196C564.158 163.865 563.853 163.509 563.626 163.131L564.961 162.193C565.112 162.392 565.304 162.619 565.536 162.875C565.768 163.135 566.085 163.36 566.488 163.55C566.895 163.744 567.428 163.841 568.086 163.841C568.967 163.841 569.693 163.628 570.266 163.202C570.839 162.776 571.126 162.108 571.126 161.199V158.983H570.984C570.861 159.182 570.685 159.428 570.458 159.722C570.236 160.01 569.914 160.268 569.492 160.496C569.076 160.718 568.512 160.83 567.802 160.83C566.921 160.83 566.13 160.621 565.43 160.205C564.734 159.788 564.182 159.182 563.775 158.386C563.372 157.591 563.171 156.625 563.171 155.489C563.171 154.371 563.368 153.398 563.761 152.57C564.154 151.736 564.701 151.092 565.401 150.638C566.102 150.179 566.912 149.949 567.83 149.949C568.54 149.949 569.104 150.067 569.521 150.304C569.942 150.536 570.264 150.801 570.487 151.099C570.714 151.393 570.889 151.634 571.012 151.824H571.183V150.091H572.802V161.312C572.802 162.25 572.589 163.012 572.163 163.599C571.741 164.191 571.173 164.625 570.458 164.899C569.748 165.179 568.957 165.318 568.086 165.318ZM568.029 159.324C568.701 159.324 569.27 159.17 569.734 158.862C570.198 158.554 570.55 158.112 570.792 157.534C571.033 156.956 571.154 156.265 571.154 155.46C571.154 154.674 571.036 153.981 570.799 153.379C570.562 152.778 570.212 152.307 569.748 151.966C569.284 151.625 568.711 151.455 568.029 151.455C567.319 151.455 566.727 151.634 566.254 151.994C565.785 152.354 565.432 152.837 565.195 153.443C564.963 154.049 564.847 154.722 564.847 155.46C564.847 156.218 564.966 156.888 565.202 157.47C565.444 158.048 565.799 158.502 566.268 158.834C566.741 159.161 567.328 159.324 568.029 159.324ZM575.87 161V150.091H577.489V151.739H577.603C577.802 151.199 578.162 150.761 578.683 150.425C579.203 150.089 579.79 149.92 580.444 149.92C580.567 149.92 580.721 149.923 580.906 149.928C581.09 149.932 581.23 149.939 581.325 149.949V151.653C581.268 151.639 581.138 151.618 580.934 151.589C580.735 151.556 580.524 151.54 580.302 151.54C579.772 151.54 579.298 151.651 578.881 151.874C578.469 152.091 578.143 152.394 577.901 152.783C577.665 153.166 577.546 153.604 577.546 154.097V161H575.87ZM587.553 161.227C586.502 161.227 585.595 160.995 584.833 160.531C584.076 160.062 583.491 159.409 583.079 158.571C582.672 157.728 582.468 156.748 582.468 155.631C582.468 154.513 582.672 153.528 583.079 152.676C583.491 151.819 584.064 151.152 584.798 150.673C585.536 150.19 586.398 149.949 587.383 149.949C587.951 149.949 588.512 150.044 589.066 150.233C589.62 150.422 590.124 150.73 590.579 151.156C591.033 151.578 591.396 152.136 591.665 152.832C591.935 153.528 592.07 154.385 592.07 155.403V156.114H583.661V154.665H590.366C590.366 154.049 590.243 153.5 589.996 153.017C589.755 152.534 589.409 152.153 588.96 151.874C588.514 151.594 587.989 151.455 587.383 151.455C586.715 151.455 586.138 151.62 585.65 151.952C585.167 152.278 584.795 152.705 584.535 153.23C584.274 153.756 584.144 154.319 584.144 154.92V155.886C584.144 156.71 584.286 157.409 584.57 157.982C584.859 158.55 585.259 158.983 585.771 159.281C586.282 159.575 586.876 159.722 587.553 159.722C587.994 159.722 588.391 159.66 588.746 159.537C589.106 159.409 589.416 159.22 589.677 158.969C589.937 158.713 590.138 158.396 590.281 158.017L591.9 158.472C591.729 159.021 591.443 159.504 591.04 159.92C590.638 160.332 590.141 160.654 589.549 160.886C588.957 161.114 588.292 161.227 587.553 161.227ZM602.347 152.534L600.842 152.96C600.747 152.709 600.607 152.465 600.423 152.229C600.243 151.987 599.996 151.788 599.684 151.632C599.371 151.476 598.971 151.398 598.484 151.398C597.816 151.398 597.26 151.552 596.815 151.859C596.374 152.162 596.154 152.548 596.154 153.017C596.154 153.434 596.306 153.763 596.609 154.004C596.912 154.246 597.385 154.447 598.029 154.608L599.648 155.006C600.624 155.242 601.351 155.605 601.829 156.092C602.307 156.575 602.546 157.198 602.546 157.96C602.546 158.585 602.366 159.144 602.006 159.636C601.651 160.129 601.154 160.517 600.515 160.801C599.876 161.085 599.132 161.227 598.285 161.227C597.172 161.227 596.251 160.986 595.522 160.503C594.793 160.02 594.331 159.314 594.137 158.386L595.728 157.989C595.879 158.576 596.166 159.016 596.587 159.31C597.013 159.603 597.57 159.75 598.256 159.75C599.038 159.75 599.658 159.584 600.117 159.253C600.581 158.917 600.813 158.514 600.813 158.045C600.813 157.667 600.681 157.349 600.415 157.094C600.15 156.833 599.743 156.639 599.194 156.511L597.376 156.085C596.377 155.848 595.643 155.482 595.174 154.984C594.71 154.482 594.478 153.855 594.478 153.102C594.478 152.487 594.651 151.942 594.996 151.469C595.347 150.995 595.823 150.624 596.424 150.354C597.03 150.084 597.717 149.949 598.484 149.949C599.563 149.949 600.411 150.186 601.026 150.659C601.647 151.133 602.087 151.758 602.347 152.534ZM612.797 152.534L611.291 152.96C611.196 152.709 611.056 152.465 610.872 152.229C610.692 151.987 610.446 151.788 610.133 151.632C609.821 151.476 609.421 151.398 608.933 151.398C608.265 151.398 607.709 151.552 607.264 151.859C606.824 152.162 606.603 152.548 606.603 153.017C606.603 153.434 606.755 153.763 607.058 154.004C607.361 154.246 607.834 154.447 608.478 154.608L610.098 155.006C611.073 155.242 611.8 155.605 612.278 156.092C612.756 156.575 612.995 157.198 612.995 157.96C612.995 158.585 612.815 159.144 612.456 159.636C612.1 160.129 611.603 160.517 610.964 160.801C610.325 161.085 609.582 161.227 608.734 161.227C607.621 161.227 606.7 160.986 605.971 160.503C605.242 160.02 604.78 159.314 604.586 158.386L606.177 157.989C606.329 158.576 606.615 159.016 607.037 159.31C607.463 159.603 608.019 159.75 608.706 159.75C609.487 159.75 610.107 159.584 610.566 159.253C611.03 158.917 611.262 158.514 611.262 158.045C611.262 157.667 611.13 157.349 610.865 157.094C610.6 156.833 610.192 156.639 609.643 156.511L607.825 156.085C606.826 155.848 606.092 155.482 605.623 154.984C605.159 154.482 604.927 153.855 604.927 153.102C604.927 152.487 605.1 151.942 605.446 151.469C605.796 150.995 606.272 150.624 606.873 150.354C607.479 150.084 608.166 149.949 608.933 149.949C610.012 149.949 610.86 150.186 611.475 150.659C612.096 151.133 612.536 151.758 612.797 152.534Z" fill="black"/>
<path d="M459.403 219L455.426 204.455H457.216L460.256 216.301H460.398L463.494 204.455H465.483L468.58 216.301H468.722L471.761 204.455H473.551L469.574 219H467.756L464.545 207.409H464.432L461.222 219H459.403ZM478.935 219.227C477.95 219.227 477.086 218.993 476.342 218.524C475.604 218.055 475.026 217.4 474.609 216.557C474.197 215.714 473.991 214.729 473.991 213.602C473.991 212.466 474.197 211.474 474.609 210.626C475.026 209.779 475.604 209.121 476.342 208.652C477.086 208.183 477.95 207.949 478.935 207.949C479.92 207.949 480.781 208.183 481.52 208.652C482.263 209.121 482.841 209.779 483.253 210.626C483.67 211.474 483.878 212.466 483.878 213.602C483.878 214.729 483.67 215.714 483.253 216.557C482.841 217.4 482.263 218.055 481.52 218.524C480.781 218.993 479.92 219.227 478.935 219.227ZM478.935 217.722C479.683 217.722 480.298 217.53 480.781 217.146C481.264 216.763 481.622 216.259 481.854 215.634C482.086 215.009 482.202 214.331 482.202 213.602C482.202 212.873 482.086 212.194 481.854 211.564C481.622 210.934 481.264 210.425 480.781 210.037C480.298 209.649 479.683 209.455 478.935 209.455C478.187 209.455 477.571 209.649 477.088 210.037C476.605 210.425 476.248 210.934 476.016 211.564C475.784 212.194 475.668 212.873 475.668 213.602C475.668 214.331 475.784 215.009 476.016 215.634C476.248 216.259 476.605 216.763 477.088 217.146C477.571 217.53 478.187 217.722 478.935 217.722ZM486.436 219V208.091H488.056V209.739H488.169C488.368 209.199 488.728 208.761 489.249 208.425C489.77 208.089 490.357 207.92 491.01 207.92C491.133 207.92 491.287 207.923 491.472 207.928C491.657 207.932 491.796 207.939 491.891 207.949V209.653C491.834 209.639 491.704 209.618 491.5 209.589C491.301 209.556 491.091 209.54 490.868 209.54C490.338 209.54 489.864 209.651 489.448 209.874C489.036 210.091 488.709 210.394 488.468 210.783C488.231 211.166 488.113 211.604 488.113 212.097V219H486.436ZM495.44 215.023L495.412 212.949H495.753L500.526 208.091H502.599L497.514 213.233H497.372L495.44 215.023ZM493.878 219V204.455H495.554V219H493.878ZM500.81 219L496.548 213.602L497.741 212.438L502.94 219H500.81ZM510.382 219V208.091H512.058V219H510.382ZM511.234 206.273C510.907 206.273 510.626 206.161 510.389 205.939C510.157 205.716 510.041 205.449 510.041 205.136C510.041 204.824 510.157 204.556 510.389 204.334C510.626 204.111 510.907 204 511.234 204C511.561 204 511.84 204.111 512.072 204.334C512.309 204.556 512.427 204.824 512.427 205.136C512.427 205.449 512.309 205.716 512.072 205.939C511.84 206.161 511.561 206.273 511.234 206.273ZM516.804 212.438V219H515.128V208.091H516.747V209.795H516.889C517.145 209.241 517.533 208.796 518.054 208.46C518.575 208.119 519.247 207.949 520.071 207.949C520.81 207.949 521.456 208.1 522.01 208.403C522.564 208.702 522.995 209.156 523.303 209.767C523.61 210.373 523.764 211.14 523.764 212.068V219H522.088V212.182C522.088 211.325 521.866 210.657 521.42 210.179C520.975 209.696 520.365 209.455 519.588 209.455C519.053 209.455 518.575 209.571 518.153 209.803C517.737 210.035 517.408 210.373 517.166 210.818C516.925 211.263 516.804 211.803 516.804 212.438ZM532.452 223.091V208.091H534.071V209.824H534.27C534.393 209.634 534.564 209.393 534.782 209.099C535.004 208.801 535.321 208.536 535.733 208.304C536.15 208.067 536.713 207.949 537.424 207.949C538.342 207.949 539.152 208.179 539.853 208.638C540.553 209.097 541.1 209.748 541.493 210.591C541.886 211.434 542.083 212.428 542.083 213.574C542.083 214.729 541.886 215.731 541.493 216.578C541.1 217.421 540.556 218.074 539.86 218.538C539.164 218.998 538.361 219.227 537.452 219.227C536.751 219.227 536.19 219.111 535.769 218.879C535.347 218.643 535.023 218.375 534.796 218.077C534.569 217.774 534.393 217.523 534.27 217.324H534.128V223.091H532.452ZM534.1 213.545C534.1 214.369 534.221 215.096 534.462 215.726C534.703 216.351 535.056 216.841 535.52 217.196C535.984 217.546 536.552 217.722 537.225 217.722C537.926 217.722 538.51 217.537 538.979 217.168C539.453 216.794 539.808 216.292 540.044 215.662C540.286 215.027 540.407 214.322 540.407 213.545C540.407 212.778 540.288 212.087 540.051 211.472C539.819 210.851 539.467 210.361 538.993 210.001C538.525 209.637 537.935 209.455 537.225 209.455C536.543 209.455 535.97 209.627 535.506 209.973C535.042 210.314 534.692 210.792 534.455 211.408C534.218 212.018 534.1 212.731 534.1 213.545ZM544.64 219V208.091H546.259V209.739H546.373C546.571 209.199 546.931 208.761 547.452 208.425C547.973 208.089 548.56 207.92 549.213 207.92C549.337 207.92 549.49 207.923 549.675 207.928C549.86 207.932 549.999 207.939 550.094 207.949V209.653C550.037 209.639 549.907 209.618 549.703 209.589C549.505 209.556 549.294 209.54 549.071 209.54C548.541 209.54 548.068 209.651 547.651 209.874C547.239 210.091 546.912 210.394 546.671 210.783C546.434 211.166 546.316 211.604 546.316 212.097V219H544.64ZM556.181 219.227C555.196 219.227 554.332 218.993 553.588 218.524C552.85 218.055 552.272 217.4 551.855 216.557C551.444 215.714 551.238 214.729 551.238 213.602C551.238 212.466 551.444 211.474 551.855 210.626C552.272 209.779 552.85 209.121 553.588 208.652C554.332 208.183 555.196 207.949 556.181 207.949C557.166 207.949 558.027 208.183 558.766 208.652C559.509 209.121 560.087 209.779 560.499 210.626C560.916 211.474 561.124 212.466 561.124 213.602C561.124 214.729 560.916 215.714 560.499 216.557C560.087 217.4 559.509 218.055 558.766 218.524C558.027 218.993 557.166 219.227 556.181 219.227ZM556.181 217.722C556.929 217.722 557.544 217.53 558.027 217.146C558.51 216.763 558.868 216.259 559.1 215.634C559.332 215.009 559.448 214.331 559.448 213.602C559.448 212.873 559.332 212.194 559.1 211.564C558.868 210.934 558.51 210.425 558.027 210.037C557.544 209.649 556.929 209.455 556.181 209.455C555.433 209.455 554.817 209.649 554.334 210.037C553.851 210.425 553.494 210.934 553.262 211.564C553.03 212.194 552.914 212.873 552.914 213.602C552.914 214.331 553.03 215.009 553.262 215.634C553.494 216.259 553.851 216.763 554.334 217.146C554.817 217.53 555.433 217.722 556.181 217.722ZM568.086 223.318C567.276 223.318 566.58 223.214 565.998 223.006C565.415 222.802 564.93 222.532 564.542 222.196C564.158 221.865 563.853 221.509 563.626 221.131L564.961 220.193C565.112 220.392 565.304 220.619 565.536 220.875C565.768 221.135 566.085 221.36 566.488 221.55C566.895 221.744 567.428 221.841 568.086 221.841C568.967 221.841 569.693 221.628 570.266 221.202C570.839 220.776 571.126 220.108 571.126 219.199V216.983H570.984C570.861 217.182 570.685 217.428 570.458 217.722C570.236 218.01 569.914 218.268 569.492 218.496C569.076 218.718 568.512 218.83 567.802 218.83C566.921 218.83 566.13 218.621 565.43 218.205C564.734 217.788 564.182 217.182 563.775 216.386C563.372 215.591 563.171 214.625 563.171 213.489C563.171 212.371 563.368 211.398 563.761 210.57C564.154 209.736 564.701 209.092 565.401 208.638C566.102 208.179 566.912 207.949 567.83 207.949C568.54 207.949 569.104 208.067 569.521 208.304C569.942 208.536 570.264 208.801 570.487 209.099C570.714 209.393 570.889 209.634 571.012 209.824H571.183V208.091H572.802V219.312C572.802 220.25 572.589 221.012 572.163 221.599C571.741 222.191 571.173 222.625 570.458 222.899C569.748 223.179 568.957 223.318 568.086 223.318ZM568.029 217.324C568.701 217.324 569.27 217.17 569.734 216.862C570.198 216.554 570.55 216.112 570.792 215.534C571.033 214.956 571.154 214.265 571.154 213.46C571.154 212.674 571.036 211.981 570.799 211.379C570.562 210.778 570.212 210.307 569.748 209.966C569.284 209.625 568.711 209.455 568.029 209.455C567.319 209.455 566.727 209.634 566.254 209.994C565.785 210.354 565.432 210.837 565.195 211.443C564.963 212.049 564.847 212.722 564.847 213.46C564.847 214.218 564.966 214.888 565.202 215.47C565.444 216.048 565.799 216.502 566.268 216.834C566.741 217.161 567.328 217.324 568.029 217.324ZM575.87 219V208.091H577.489V209.739H577.603C577.802 209.199 578.162 208.761 578.683 208.425C579.203 208.089 579.79 207.92 580.444 207.92C580.567 207.92 580.721 207.923 580.906 207.928C581.09 207.932 581.23 207.939 581.325 207.949V209.653C581.268 209.639 581.138 209.618 580.934 209.589C580.735 209.556 580.524 209.54 580.302 209.54C579.772 209.54 579.298 209.651 578.881 209.874C578.469 210.091 578.143 210.394 577.901 210.783C577.665 211.166 577.546 211.604 577.546 212.097V219H575.87ZM587.553 219.227C586.502 219.227 585.595 218.995 584.833 218.531C584.076 218.062 583.491 217.409 583.079 216.571C582.672 215.728 582.468 214.748 582.468 213.631C582.468 212.513 582.672 211.528 583.079 210.676C583.491 209.819 584.064 209.152 584.798 208.673C585.536 208.19 586.398 207.949 587.383 207.949C587.951 207.949 588.512 208.044 589.066 208.233C589.62 208.422 590.124 208.73 590.579 209.156C591.033 209.578 591.396 210.136 591.665 210.832C591.935 211.528 592.07 212.385 592.07 213.403V214.114H583.661V212.665H590.366C590.366 212.049 590.243 211.5 589.996 211.017C589.755 210.534 589.409 210.153 588.96 209.874C588.514 209.594 587.989 209.455 587.383 209.455C586.715 209.455 586.138 209.62 585.65 209.952C585.167 210.278 584.795 210.705 584.535 211.23C584.274 211.756 584.144 212.319 584.144 212.92V213.886C584.144 214.71 584.286 215.409 584.57 215.982C584.859 216.55 585.259 216.983 585.771 217.281C586.282 217.575 586.876 217.722 587.553 217.722C587.994 217.722 588.391 217.66 588.746 217.537C589.106 217.409 589.416 217.22 589.677 216.969C589.937 216.713 590.138 216.396 590.281 216.017L591.9 216.472C591.729 217.021 591.443 217.504 591.04 217.92C590.638 218.332 590.141 218.654 589.549 218.886C588.957 219.114 588.292 219.227 587.553 219.227ZM602.347 210.534L600.842 210.96C600.747 210.709 600.607 210.465 600.423 210.229C600.243 209.987 599.996 209.788 599.684 209.632C599.371 209.476 598.971 209.398 598.484 209.398C597.816 209.398 597.26 209.552 596.815 209.859C596.374 210.162 596.154 210.548 596.154 211.017C596.154 211.434 596.306 211.763 596.609 212.004C596.912 212.246 597.385 212.447 598.029 212.608L599.648 213.006C600.624 213.242 601.351 213.605 601.829 214.092C602.307 214.575 602.546 215.198 602.546 215.96C602.546 216.585 602.366 217.144 602.006 217.636C601.651 218.129 601.154 218.517 600.515 218.801C599.876 219.085 599.132 219.227 598.285 219.227C597.172 219.227 596.251 218.986 595.522 218.503C594.793 218.02 594.331 217.314 594.137 216.386L595.728 215.989C595.879 216.576 596.166 217.016 596.587 217.31C597.013 217.603 597.57 217.75 598.256 217.75C599.038 217.75 599.658 217.584 600.117 217.253C600.581 216.917 600.813 216.514 600.813 216.045C600.813 215.667 600.681 215.349 600.415 215.094C600.15 214.833 599.743 214.639 599.194 214.511L597.376 214.085C596.377 213.848 595.643 213.482 595.174 212.984C594.71 212.482 594.478 211.855 594.478 211.102C594.478 210.487 594.651 209.942 594.996 209.469C595.347 208.995 595.823 208.624 596.424 208.354C597.03 208.084 597.717 207.949 598.484 207.949C599.563 207.949 600.411 208.186 601.026 208.659C601.647 209.133 602.087 209.758 602.347 210.534ZM612.797 210.534L611.291 210.96C611.196 210.709 611.056 210.465 610.872 210.229C610.692 209.987 610.446 209.788 610.133 209.632C609.821 209.476 609.421 209.398 608.933 209.398C608.265 209.398 607.709 209.552 607.264 209.859C606.824 210.162 606.603 210.548 606.603 211.017C606.603 211.434 606.755 211.763 607.058 212.004C607.361 212.246 607.834 212.447 608.478 212.608L610.098 213.006C611.073 213.242 611.8 213.605 612.278 214.092C612.756 214.575 612.995 215.198 612.995 215.96C612.995 216.585 612.815 217.144 612.456 217.636C612.1 218.129 611.603 218.517 610.964 218.801C610.325 219.085 609.582 219.227 608.734 219.227C607.621 219.227 606.7 218.986 605.971 218.503C605.242 218.02 604.78 217.314 604.586 216.386L606.177 215.989C606.329 216.576 606.615 217.016 607.037 217.31C607.463 217.603 608.019 217.75 608.706 217.75C609.487 217.75 610.107 217.584 610.566 217.253C611.03 216.917 611.262 216.514 611.262 216.045C611.262 215.667 611.13 215.349 610.865 215.094C610.6 214.833 610.192 214.639 609.643 214.511L607.825 214.085C606.826 213.848 606.092 213.482 605.623 212.984C605.159 212.482 604.927 211.855 604.927 211.102C604.927 210.487 605.1 209.942 605.446 209.469C605.796 208.995 606.272 208.624 606.873 208.354C607.479 208.084 608.166 207.949 608.933 207.949C610.012 207.949 610.86 208.186 611.475 208.659C612.096 209.133 612.536 209.758 612.797 210.534Z" fill="black"/>
<path d="M459.403 277L455.426 262.455H457.216L460.256 274.301H460.398L463.494 262.455H465.483L468.58 274.301H468.722L471.761 262.455H473.551L469.574 277H467.756L464.545 265.409H464.432L461.222 277H459.403ZM478.935 277.227C477.95 277.227 477.086 276.993 476.342 276.524C475.604 276.055 475.026 275.4 474.609 274.557C474.197 273.714 473.991 272.729 473.991 271.602C473.991 270.466 474.197 269.474 474.609 268.626C475.026 267.779 475.604 267.121 476.342 266.652C477.086 266.183 477.95 265.949 478.935 265.949C479.92 265.949 480.781 266.183 481.52 266.652C482.263 267.121 482.841 267.779 483.253 268.626C483.67 269.474 483.878 270.466 483.878 271.602C483.878 272.729 483.67 273.714 483.253 274.557C482.841 275.4 482.263 276.055 481.52 276.524C480.781 276.993 479.92 277.227 478.935 277.227ZM478.935 275.722C479.683 275.722 480.298 275.53 480.781 275.146C481.264 274.763 481.622 274.259 481.854 273.634C482.086 273.009 482.202 272.331 482.202 271.602C482.202 270.873 482.086 270.194 481.854 269.564C481.622 268.934 481.264 268.425 480.781 268.037C480.298 267.649 479.683 267.455 478.935 267.455C478.187 267.455 477.571 267.649 477.088 268.037C476.605 268.425 476.248 268.934 476.016 269.564C475.784 270.194 475.668 270.873 475.668 271.602C475.668 272.331 475.784 273.009 476.016 273.634C476.248 274.259 476.605 274.763 477.088 275.146C477.571 275.53 478.187 275.722 478.935 275.722ZM486.436 277V266.091H488.056V267.739H488.169C488.368 267.199 488.728 266.761 489.249 266.425C489.77 266.089 490.357 265.92 491.01 265.92C491.133 265.92 491.287 265.923 491.472 265.928C491.657 265.932 491.796 265.939 491.891 265.949V267.653C491.834 267.639 491.704 267.618 491.5 267.589C491.301 267.556 491.091 267.54 490.868 267.54C490.338 267.54 489.864 267.651 489.448 267.874C489.036 268.091 488.709 268.394 488.468 268.783C488.231 269.166 488.113 269.604 488.113 270.097V277H486.436ZM495.44 273.023L495.412 270.949H495.753L500.526 266.091H502.599L497.514 271.233H497.372L495.44 273.023ZM493.878 277V262.455H495.554V277H493.878ZM500.81 277L496.548 271.602L497.741 270.438L502.94 277H500.81ZM510.382 277V266.091H512.058V277H510.382ZM511.234 264.273C510.907 264.273 510.626 264.161 510.389 263.939C510.157 263.716 510.041 263.449 510.041 263.136C510.041 262.824 510.157 262.556 510.389 262.334C510.626 262.111 510.907 262 511.234 262C511.561 262 511.84 262.111 512.072 262.334C512.309 262.556 512.427 262.824 512.427 263.136C512.427 263.449 512.309 263.716 512.072 263.939C511.84 264.161 511.561 264.273 511.234 264.273ZM516.804 270.438V277H515.128V266.091H516.747V267.795H516.889C517.145 267.241 517.533 266.796 518.054 266.46C518.575 266.119 519.247 265.949 520.071 265.949C520.81 265.949 521.456 266.1 522.01 266.403C522.564 266.702 522.995 267.156 523.303 267.767C523.61 268.373 523.764 269.14 523.764 270.068V277H522.088V270.182C522.088 269.325 521.866 268.657 521.42 268.179C520.975 267.696 520.365 267.455 519.588 267.455C519.053 267.455 518.575 267.571 518.153 267.803C517.737 268.035 517.408 268.373 517.166 268.818C516.925 269.263 516.804 269.803 516.804 270.438ZM532.452 281.091V266.091H534.071V267.824H534.27C534.393 267.634 534.564 267.393 534.782 267.099C535.004 266.801 535.321 266.536 535.733 266.304C536.15 266.067 536.713 265.949 537.424 265.949C538.342 265.949 539.152 266.179 539.853 266.638C540.553 267.097 541.1 267.748 541.493 268.591C541.886 269.434 542.083 270.428 542.083 271.574C542.083 272.729 541.886 273.731 541.493 274.578C541.1 275.421 540.556 276.074 539.86 276.538C539.164 276.998 538.361 277.227 537.452 277.227C536.751 277.227 536.19 277.111 535.769 276.879C535.347 276.643 535.023 276.375 534.796 276.077C534.569 275.774 534.393 275.523 534.27 275.324H534.128V281.091H532.452ZM534.1 271.545C534.1 272.369 534.221 273.096 534.462 273.726C534.703 274.351 535.056 274.841 535.52 275.196C535.984 275.546 536.552 275.722 537.225 275.722C537.926 275.722 538.51 275.537 538.979 275.168C539.453 274.794 539.808 274.292 540.044 273.662C540.286 273.027 540.407 272.322 540.407 271.545C540.407 270.778 540.288 270.087 540.051 269.472C539.819 268.851 539.467 268.361 538.993 268.001C538.525 267.637 537.935 267.455 537.225 267.455C536.543 267.455 535.97 267.627 535.506 267.973C535.042 268.314 534.692 268.792 534.455 269.408C534.218 270.018 534.1 270.731 534.1 271.545ZM544.64 277V266.091H546.259V267.739H546.373C546.571 267.199 546.931 266.761 547.452 266.425C547.973 266.089 548.56 265.92 549.213 265.92C549.337 265.92 549.49 265.923 549.675 265.928C549.86 265.932 549.999 265.939 550.094 265.949V267.653C550.037 267.639 549.907 267.618 549.703 267.589C549.505 267.556 549.294 267.54 549.071 267.54C548.541 267.54 548.068 267.651 547.651 267.874C547.239 268.091 546.912 268.394 546.671 268.783C546.434 269.166 546.316 269.604 546.316 270.097V277H544.64ZM556.181 277.227C555.196 277.227 554.332 276.993 553.588 276.524C552.85 276.055 552.272 275.4 551.855 274.557C551.444 273.714 551.238 272.729 551.238 271.602C551.238 270.466 551.444 269.474 551.855 268.626C552.272 267.779 552.85 267.121 553.588 266.652C554.332 266.183 555.196 265.949 556.181 265.949C557.166 265.949 558.027 266.183 558.766 266.652C559.509 267.121 560.087 267.779 560.499 268.626C560.916 269.474 561.124 270.466 561.124 271.602C561.124 272.729 560.916 273.714 560.499 274.557C560.087 275.4 559.509 276.055 558.766 276.524C558.027 276.993 557.166 277.227 556.181 277.227ZM556.181 275.722C556.929 275.722 557.544 275.53 558.027 275.146C558.51 274.763 558.868 274.259 559.1 273.634C559.332 273.009 559.448 272.331 559.448 271.602C559.448 270.873 559.332 270.194 559.1 269.564C558.868 268.934 558.51 268.425 558.027 268.037C557.544 267.649 556.929 267.455 556.181 267.455C555.433 267.455 554.817 267.649 554.334 268.037C553.851 268.425 553.494 268.934 553.262 269.564C553.03 270.194 552.914 270.873 552.914 271.602C552.914 272.331 553.03 273.009 553.262 273.634C553.494 274.259 553.851 274.763 554.334 275.146C554.817 275.53 555.433 275.722 556.181 275.722ZM568.086 281.318C567.276 281.318 566.58 281.214 565.998 281.006C565.415 280.802 564.93 280.532 564.542 280.196C564.158 279.865 563.853 279.509 563.626 279.131L564.961 278.193C565.112 278.392 565.304 278.619 565.536 278.875C565.768 279.135 566.085 279.36 566.488 279.55C566.895 279.744 567.428 279.841 568.086 279.841C568.967 279.841 569.693 279.628 570.266 279.202C570.839 278.776 571.126 278.108 571.126 277.199V274.983H570.984C570.861 275.182 570.685 275.428 570.458 275.722C570.236 276.01 569.914 276.268 569.492 276.496C569.076 276.718 568.512 276.83 567.802 276.83C566.921 276.83 566.13 276.621 565.43 276.205C564.734 275.788 564.182 275.182 563.775 274.386C563.372 273.591 563.171 272.625 563.171 271.489C563.171 270.371 563.368 269.398 563.761 268.57C564.154 267.736 564.701 267.092 565.401 266.638C566.102 266.179 566.912 265.949 567.83 265.949C568.54 265.949 569.104 266.067 569.521 266.304C569.942 266.536 570.264 266.801 570.487 267.099C570.714 267.393 570.889 267.634 571.012 267.824H571.183V266.091H572.802V277.312C572.802 278.25 572.589 279.012 572.163 279.599C571.741 280.191 571.173 280.625 570.458 280.899C569.748 281.179 568.957 281.318 568.086 281.318ZM568.029 275.324C568.701 275.324 569.27 275.17 569.734 274.862C570.198 274.554 570.55 274.112 570.792 273.534C571.033 272.956 571.154 272.265 571.154 271.46C571.154 270.674 571.036 269.981 570.799 269.379C570.562 268.778 570.212 268.307 569.748 267.966C569.284 267.625 568.711 267.455 568.029 267.455C567.319 267.455 566.727 267.634 566.254 267.994C565.785 268.354 565.432 268.837 565.195 269.443C564.963 270.049 564.847 270.722 564.847 271.46C564.847 272.218 564.966 272.888 565.202 273.47C565.444 274.048 565.799 274.502 566.268 274.834C566.741 275.161 567.328 275.324 568.029 275.324ZM575.87 277V266.091H577.489V267.739H577.603C577.802 267.199 578.162 266.761 578.683 266.425C579.203 266.089 579.79 265.92 580.444 265.92C580.567 265.92 580.721 265.923 580.906 265.928C581.09 265.932 581.23 265.939 581.325 265.949V267.653C581.268 267.639 581.138 267.618 580.934 267.589C580.735 267.556 580.524 267.54 580.302 267.54C579.772 267.54 579.298 267.651 578.881 267.874C578.469 268.091 578.143 268.394 577.901 268.783C577.665 269.166 577.546 269.604 577.546 270.097V277H575.87ZM587.553 277.227C586.502 277.227 585.595 276.995 584.833 276.531C584.076 276.062 583.491 275.409 583.079 274.571C582.672 273.728 582.468 272.748 582.468 271.631C582.468 270.513 582.672 269.528 583.079 268.676C583.491 267.819 584.064 267.152 584.798 266.673C585.536 266.19 586.398 265.949 587.383 265.949C587.951 265.949 588.512 266.044 589.066 266.233C589.62 266.422 590.124 266.73 590.579 267.156C591.033 267.578 591.396 268.136 591.665 268.832C591.935 269.528 592.07 270.385 592.07 271.403V272.114H583.661V270.665H590.366C590.366 270.049 590.243 269.5 589.996 269.017C589.755 268.534 589.409 268.153 588.96 267.874C588.514 267.594 587.989 267.455 587.383 267.455C586.715 267.455 586.138 267.62 585.65 267.952C585.167 268.278 584.795 268.705 584.535 269.23C584.274 269.756 584.144 270.319 584.144 270.92V271.886C584.144 272.71 584.286 273.409 584.57 273.982C584.859 274.55 585.259 274.983 585.771 275.281C586.282 275.575 586.876 275.722 587.553 275.722C587.994 275.722 588.391 275.66 588.746 275.537C589.106 275.409 589.416 275.22 589.677 274.969C589.937 274.713 590.138 274.396 590.281 274.017L591.9 274.472C591.729 275.021 591.443 275.504 591.04 275.92C590.638 276.332 590.141 276.654 589.549 276.886C588.957 277.114 588.292 277.227 587.553 277.227ZM602.347 268.534L600.842 268.96C600.747 268.709 600.607 268.465 600.423 268.229C600.243 267.987 599.996 267.788 599.684 267.632C599.371 267.476 598.971 267.398 598.484 267.398C597.816 267.398 597.26 267.552 596.815 267.859C596.374 268.162 596.154 268.548 596.154 269.017C596.154 269.434 596.306 269.763 596.609 270.004C596.912 270.246 597.385 270.447 598.029 270.608L599.648 271.006C600.624 271.242 601.351 271.605 601.829 272.092C602.307 272.575 602.546 273.198 602.546 273.96C602.546 274.585 602.366 275.144 602.006 275.636C601.651 276.129 601.154 276.517 600.515 276.801C599.876 277.085 599.132 277.227 598.285 277.227C597.172 277.227 596.251 276.986 595.522 276.503C594.793 276.02 594.331 275.314 594.137 274.386L595.728 273.989C595.879 274.576 596.166 275.016 596.587 275.31C597.013 275.603 597.57 275.75 598.256 275.75C599.038 275.75 599.658 275.584 600.117 275.253C600.581 274.917 600.813 274.514 600.813 274.045C600.813 273.667 600.681 273.349 600.415 273.094C600.15 272.833 599.743 272.639 599.194 272.511L597.376 272.085C596.377 271.848 595.643 271.482 595.174 270.984C594.71 270.482 594.478 269.855 594.478 269.102C594.478 268.487 594.651 267.942 594.996 267.469C595.347 266.995 595.823 266.624 596.424 266.354C597.03 266.084 597.717 265.949 598.484 265.949C599.563 265.949 600.411 266.186 601.026 266.659C601.647 267.133 602.087 267.758 602.347 268.534ZM612.797 268.534L611.291 268.96C611.196 268.709 611.056 268.465 610.872 268.229C610.692 267.987 610.446 267.788 610.133 267.632C609.821 267.476 609.421 267.398 608.933 267.398C608.265 267.398 607.709 267.552 607.264 267.859C606.824 268.162 606.603 268.548 606.603 269.017C606.603 269.434 606.755 269.763 607.058 270.004C607.361 270.246 607.834 270.447 608.478 270.608L610.098 271.006C611.073 271.242 611.8 271.605 612.278 272.092C612.756 272.575 612.995 273.198 612.995 273.96C612.995 274.585 612.815 275.144 612.456 275.636C612.1 276.129 611.603 276.517 610.964 276.801C610.325 277.085 609.582 277.227 608.734 277.227C607.621 277.227 606.7 276.986 605.971 276.503C605.242 276.02 604.78 275.314 604.586 274.386L606.177 273.989C606.329 274.576 606.615 275.016 607.037 275.31C607.463 275.603 608.019 275.75 608.706 275.75C609.487 275.75 610.107 275.584 610.566 275.253C611.03 274.917 611.262 274.514 611.262 274.045C611.262 273.667 611.13 273.349 610.865 273.094C610.6 272.833 610.192 272.639 609.643 272.511L607.825 272.085C606.826 271.848 606.092 271.482 605.623 270.984C605.159 270.482 604.927 269.855 604.927 269.102C604.927 268.487 605.1 267.942 605.446 267.469C605.796 266.995 606.272 266.624 606.873 266.354C607.479 266.084 608.166 265.949 608.933 265.949C610.012 265.949 610.86 266.186 611.475 266.659C612.096 267.133 612.536 267.758 612.797 268.534Z" fill="black"/>
<circle opacity="0.1" cx="178.48" cy="183.48" r="110.656" fill="#6BCCFE"/>
<g filter="url(#filter1_d_2384_59)">
<path d="M77.5451 125.202C75.1537 123.821 72.0855 124.636 70.8042 127.083C56.6798 154.049 53.1633 185.404 61.0735 214.925C69.4161 246.06 89.7853 272.606 117.7 288.722C145.615 304.839 178.789 309.206 209.924 300.864C239.445 292.954 264.841 274.231 281.132 248.516C282.61 246.183 281.782 243.118 279.391 241.737L178.468 183.469L77.5451 125.202Z" fill="url(#paint0_linear_2384_59)"/>
</g>
<g filter="url(#filter2_d_2384_59)">
<path d="M70.2882 245.927C67.8968 247.308 67.0696 250.372 68.5412 252.709C85.9485 280.347 113.175 300.473 144.844 308.958C178.126 317.876 213.587 313.208 243.427 295.98C273.267 278.752 295.04 250.376 303.958 217.094C312.444 185.425 308.628 151.783 293.396 122.889C292.108 120.446 289.041 119.63 286.649 121.011L178.469 183.469L70.2882 245.927Z" fill="url(#paint1_linear_2384_59)"/>
</g>
<g filter="url(#filter3_d_2384_59)">
<path d="M178.479 317.158C178.479 319.92 180.72 322.168 183.48 322.068C218.444 320.808 251.714 306.367 276.54 281.54C302.547 255.533 317.158 220.259 317.158 183.48C317.158 146.7 302.547 111.426 276.54 85.4188C251.714 60.5924 218.444 46.1511 183.48 44.8908C180.72 44.7914 178.48 47.0394 178.48 49.8008L178.48 183.48L178.479 317.158Z" fill="url(#paint2_linear_2384_59)"/>
</g>
<g filter="url(#filter4_d_2384_59)">
<circle cx="178.479" cy="183.481" r="79.0397" fill="white"/>
</g>
<path d="M155.831 200L167.216 177.479V177.28H154.091V174.545H170.398V177.429L159.062 200H155.831ZM183.05 200.348C181.41 200.348 179.947 200.066 178.663 199.503C177.387 198.939 176.372 198.156 175.618 197.154C174.872 196.143 174.466 194.97 174.4 193.636H177.532C177.598 194.457 177.88 195.165 178.377 195.762C178.874 196.35 179.525 196.806 180.328 197.129C181.132 197.452 182.023 197.614 183.001 197.614C184.094 197.614 185.064 197.423 185.909 197.042C186.754 196.661 187.417 196.13 187.898 195.451C188.378 194.772 188.618 193.984 188.618 193.089C188.618 192.153 188.386 191.329 187.922 190.616C187.458 189.895 186.779 189.332 185.884 188.926C184.989 188.52 183.895 188.317 182.603 188.317H180.564V185.582H182.603C183.614 185.582 184.5 185.4 185.263 185.036C186.033 184.671 186.634 184.157 187.065 183.494C187.504 182.831 187.724 182.053 187.724 181.158C187.724 180.296 187.533 179.546 187.152 178.908C186.771 178.27 186.232 177.773 185.536 177.417C184.848 177.06 184.036 176.882 183.1 176.882C182.222 176.882 181.393 177.044 180.614 177.367C179.844 177.682 179.214 178.142 178.725 178.746C178.236 179.343 177.971 180.064 177.93 180.909H174.947C174.996 179.575 175.398 178.407 176.152 177.404C176.906 176.393 177.892 175.606 179.11 175.043C180.337 174.479 181.683 174.197 183.15 174.197C184.724 174.197 186.075 174.516 187.202 175.154C188.328 175.784 189.194 176.617 189.799 177.653C190.404 178.688 190.706 179.807 190.706 181.009C190.706 182.442 190.329 183.664 189.575 184.675C188.83 185.686 187.815 186.386 186.53 186.776V186.974C188.138 187.24 189.393 187.923 190.296 189.025C191.2 190.119 191.651 191.474 191.651 193.089C191.651 194.473 191.274 195.716 190.52 196.818C189.774 197.912 188.755 198.774 187.463 199.403C186.17 200.033 184.699 200.348 183.05 200.348ZM209.71 195.227V193.885C209.71 192.957 209.901 192.108 210.282 191.337C210.672 190.558 211.235 189.937 211.972 189.473C212.718 189 213.621 188.764 214.682 188.764C215.759 188.764 216.662 189 217.392 189.473C218.121 189.937 218.672 190.558 219.045 191.337C219.417 192.108 219.604 192.957 219.604 193.885V195.227C219.604 196.155 219.413 197.009 219.032 197.788C218.659 198.558 218.104 199.18 217.367 199.652C216.637 200.116 215.743 200.348 214.682 200.348C213.605 200.348 212.698 200.116 211.96 199.652C211.223 199.18 210.663 198.558 210.282 197.788C209.901 197.009 209.71 196.155 209.71 195.227ZM212.246 193.885V195.227C212.246 195.998 212.428 196.69 212.793 197.303C213.157 197.908 213.787 198.21 214.682 198.21C215.552 198.21 216.165 197.908 216.521 197.303C216.886 196.69 217.068 195.998 217.068 195.227V193.885C217.068 193.114 216.894 192.427 216.546 191.822C216.198 191.209 215.577 190.902 214.682 190.902C213.812 190.902 213.186 191.209 212.805 191.822C212.432 192.427 212.246 193.114 212.246 193.885ZM197.033 180.661V179.318C197.033 178.39 197.223 177.541 197.605 176.77C197.994 175.991 198.557 175.37 199.295 174.906C200.041 174.434 200.944 174.197 202.004 174.197C203.082 174.197 203.985 174.434 204.714 174.906C205.443 175.37 205.994 175.991 206.367 176.77C206.74 177.541 206.926 178.39 206.926 179.318V180.661C206.926 181.589 206.736 182.442 206.355 183.221C205.982 183.991 205.427 184.613 204.689 185.085C203.96 185.549 203.065 185.781 202.004 185.781C200.927 185.781 200.02 185.549 199.282 185.085C198.545 184.613 197.986 183.991 197.605 183.221C197.223 182.442 197.033 181.589 197.033 180.661ZM199.568 179.318V180.661C199.568 181.431 199.751 182.123 200.115 182.736C200.48 183.341 201.11 183.643 202.004 183.643C202.874 183.643 203.488 183.341 203.844 182.736C204.209 182.123 204.391 181.431 204.391 180.661V179.318C204.391 178.548 204.217 177.86 203.869 177.255C203.521 176.642 202.899 176.335 202.004 176.335C201.134 176.335 200.509 176.642 200.128 177.255C199.755 177.86 199.568 178.548 199.568 179.318ZM197.977 200L215.477 174.545H218.311L200.811 200H197.977Z" fill="#454459"/>
<defs>
<filter id="filter0_d_2384_59" x="0" y="0" width="674" height="395" filterUnits="userSpaceOnUse" color-interpolation-filters="sRGB">
<feFlood flood-opacity="0" result="BackgroundImageFix"/>
<feColorMatrix in="SourceAlpha" type="matrix" values="0 0 0 0 0 0 0 0 0 0 0 0 0 0 0 0 0 0 127 0" result="hardAlpha"/>
<feOffset dy="10"/>
<feGaussianBlur stdDeviation="7.5"/>
<feComposite in2="hardAlpha" operator="out"/>
<feColorMatrix type="matrix" values="0 0 0 0 0.145098 0 0 0 0 0.305882 0 0 0 0 0.423529 0 0 0 0.2 0"/>
<feBlend mode="normal" in2="BackgroundImageFix" result="effect1_dropShadow_2384_59"/>
<feBlend mode="normal" in="SourceGraphic" in2="effect1_dropShadow_2384_59" result="shape"/>
</filter>
<filter id="filter1_d_2384_59" x="36.9316" y="99.5312" width="264.938" height="220.475" filterUnits="userSpaceOnUse" color-interpolation-filters="sRGB">
<feFlood flood-opacity="0" result="BackgroundImageFix"/>
<feColorMatrix in="SourceAlpha" type="matrix" values="0 0 0 0 0 0 0 0 0 0 0 0 0 0 0 0 0 0 127 0" result="hardAlpha"/>
<feOffset dy="-5"/>
<feGaussianBlur stdDeviation="10"/>
<feColorMatrix type="matrix" values="0 0 0 0 0 0 0 0 0 0 0 0 0 0 0 0 0 0 0.12 0"/>
<feBlend mode="normal" in2="BackgroundImageFix" result="effect1_dropShadow_2384_59"/>
<feBlend mode="normal" in="SourceGraphic" in2="effect1_dropShadow_2384_59" result="shape"/>
</filter>
<filter id="filter2_d_2384_59" x="47.8086" y="95.3418" width="280.576" height="233.043" filterUnits="userSpaceOnUse" color-interpolation-filters="sRGB">
<feFlood flood-opacity="0" result="BackgroundImageFix"/>
<feColorMatrix in="SourceAlpha" type="matrix" values="0 0 0 0 0 0 0 0 0 0 0 0 0 0 0 0 0 0 127 0" result="hardAlpha"/>
<feOffset dy="-5"/>
<feGaussianBlur stdDeviation="10"/>
<feColorMatrix type="matrix" values="0 0 0 0 0 0 0 0 0 0 0 0 0 0 0 0 0 0 0.12 0"/>
<feBlend mode="normal" in2="BackgroundImageFix" result="effect1_dropShadow_2384_59"/>
<feBlend mode="normal" in="SourceGraphic" in2="effect1_dropShadow_2384_59" result="shape"/>
</filter>
<filter id="filter3_d_2384_59" x="158.479" y="19.8867" width="178.679" height="317.186" filterUnits="userSpaceOnUse" color-interpolation-filters="sRGB">
<feFlood flood-opacity="0" result="BackgroundImageFix"/>
<feColorMatrix in="SourceAlpha" type="matrix" values="0 0 0 0 0 0 0 0 0 0 0 0 0 0 0 0 0 0 127 0" result="hardAlpha"/>
<feOffset dy="-5"/>
<feGaussianBlur stdDeviation="10"/>
<feColorMatrix type="matrix" values="0 0 0 0 0 0 0 0 0 0 0 0 0 0 0 0 0 0 0.12 0"/>
<feBlend mode="normal" in2="BackgroundImageFix" result="effect1_dropShadow_2384_59"/>
<feBlend mode="normal" in="SourceGraphic" in2="effect1_dropShadow_2384_59" result="shape"/>
</filter>
<filter id="filter4_d_2384_59" x="74.4395" y="84.4414" width="208.079" height="208.08" filterUnits="userSpaceOnUse" color-interpolation-filters="sRGB">
<feFlood flood-opacity="0" result="BackgroundImageFix"/>
<feColorMatrix in="SourceAlpha" type="matrix" values="0 0 0 0 0 0 0 0 0 0 0 0 0 0 0 0 0 0 127 0" result="hardAlpha"/>
<feOffset dy="5"/>
<feGaussianBlur stdDeviation="12.5"/>
<feColorMatrix type="matrix" values="0 0 0 0 0 0 0 0 0 0 0 0 0 0 0 0 0 0 0.1 0"/>
<feBlend mode="normal" in2="BackgroundImageFix" result="effect1_dropShadow_2384_59"/>
<feBlend mode="normal" in="SourceGraphic" in2="effect1_dropShadow_2384_59" result="shape"/>
</filter>
<linearGradient id="paint0_linear_2384_59" x1="117.7" y1="288.722" x2="239.236" y2="78.2165" gradientUnits="userSpaceOnUse">
<stop stop-color="#7AD3FF"/>
<stop offset="1" stop-color="#4FBAF0"/>
</linearGradient>
<linearGradient id="paint1_linear_2384_59" x1="243.427" y1="295.98" x2="113.511" y2="70.9582" gradientUnits="userSpaceOnUse">
<stop stop-color="#FFD572"/>
<stop offset="1" stop-color="#FEBD38"/>
</linearGradient>
<linearGradient id="paint2_linear_2384_59" x1="317.158" y1="183.48" x2="39.8008" y2="183.479" gradientUnits="userSpaceOnUse">
<stop stop-color="#B09FFF"/>
<stop offset="1" stop-color="#8D79F6"/>
</linearGradient>
</defs>
</svg>
