<svg width="500" height="657" viewBox="0 0 500 657" fill="none" xmlns="http://www.w3.org/2000/svg">
<g clip-path="url(#clip0_1462_9092)">
<path d="M385.553 84.3965H30.0841C18.6716 84.3965 9.41992 93.6472 9.41992 105.058V570.422C9.41992 581.833 18.6716 591.084 30.0841 591.084H385.553C396.965 591.084 406.217 581.833 406.217 570.422V105.058C406.217 93.6472 396.965 84.3965 385.553 84.3965Z" fill="#3F3F63"/>
<path d="M376.133 84.3965H20.6642C9.25166 84.3965 0 93.6472 0 105.058V570.422C0 581.833 9.25166 591.084 20.6642 591.084H376.133C387.545 591.084 396.797 581.833 396.797 570.422V105.058C396.797 93.6472 387.545 84.3965 376.133 84.3965Z" fill="#C4A143"/>
<path d="M380.842 84.3965H25.3731C13.9606 84.3965 4.70898 93.6472 4.70898 105.058V570.422C4.70898 581.833 13.9606 591.084 25.3731 591.084H380.842C392.254 591.084 401.506 581.833 401.506 570.422V105.058C401.506 93.6472 392.254 84.3965 380.842 84.3965Z" fill="#80DED9"/>
<path d="M362.097 564.408L32.7285 550.725L50.905 102.536L382.339 118.134L362.097 564.408Z" fill="#3F3F63"/>
<path d="M380.672 549.723L48.2799 564.29L33.3926 118.849L364.259 103.078L380.672 549.723Z" fill="#3F3F63"/>
<path d="M358.433 561.793L29.0664 548.108L47.2429 99.9209L378.677 115.519L358.433 561.793Z" fill="white"/>
<path d="M359.306 561.793L29.9395 548.108L48.116 99.9209L379.55 115.519L359.306 561.793Z" fill="#E7DEC3"/>
<path d="M376.31 547.28L43.9166 561.847L29.0312 116.407L359.897 100.635L376.31 547.28Z" fill="white"/>
<path d="M376.664 547.303L44.7896 561.848L29.9043 116.408L360.239 100.662C360.308 100.658 360.377 100.669 360.442 100.692C360.507 100.715 360.567 100.752 360.618 100.799C360.669 100.845 360.71 100.902 360.739 100.965C360.768 101.028 360.784 101.096 360.786 101.165L377.161 546.761C377.164 546.829 377.154 546.898 377.13 546.962C377.107 547.026 377.071 547.085 377.025 547.135C376.979 547.185 376.923 547.226 376.861 547.255C376.799 547.284 376.732 547.3 376.664 547.303Z" fill="#E7DEC3"/>
<path d="M369.059 108.359C369.059 108.221 369.003 108.088 368.905 107.99C368.807 107.892 368.674 107.836 368.536 107.836H37.6798C37.5411 107.836 37.4082 107.892 37.3102 107.99C37.2121 108.088 37.1568 108.221 37.1562 108.359V554.508H368.536C368.674 554.507 368.807 554.452 368.905 554.354C369.003 554.256 369.059 554.123 369.059 553.984V108.359Z" fill="#FAFAFA"/>
<path d="M368.538 107.836C368.676 107.836 368.808 107.891 368.906 107.988C369.004 108.085 369.06 108.217 369.061 108.355L369.757 231.863C369.059 346.112 287.849 526.86 37.1562 526.86V108.359C37.1568 108.221 37.2121 108.088 37.3102 107.99C37.4082 107.892 37.5411 107.836 37.6798 107.836H368.538Z" fill="white"/>
<path d="M286.088 75.8732C230.395 70.2126 237.321 18.2695 200.491 18.2695C163.661 18.2695 170.584 70.2086 114.894 75.8732H100.299C98.473 75.8764 96.7229 76.6032 95.432 77.8943C94.1412 79.1854 93.4148 80.9355 93.4121 82.7612V111.571C93.4153 113.396 94.1419 115.146 95.4327 116.437C96.7235 117.727 98.4733 118.454 100.299 118.457H300.681C302.508 118.457 304.261 117.732 305.555 116.441C306.848 115.15 307.576 113.398 307.58 111.571V82.7612C307.577 80.9334 306.849 79.1815 305.555 77.89C304.262 76.5985 302.509 75.8732 300.681 75.8732H286.088ZM202.061 63.2272C199.609 63.2272 197.212 62.5002 195.174 61.1381C193.135 59.7759 191.546 57.8399 190.607 55.5747C189.669 53.3096 189.423 50.8171 189.902 48.4124C190.38 46.0078 191.561 43.7989 193.295 42.0653C195.029 40.3316 197.238 39.151 199.643 38.6726C202.048 38.1943 204.54 38.4398 206.806 39.3781C209.071 40.3163 211.007 41.9052 212.37 43.9438C213.732 45.9824 214.459 48.3791 214.459 50.8308C214.459 52.4588 214.138 54.0707 213.515 55.5747C212.892 57.0787 211.979 58.4453 210.828 59.5964C209.677 60.7475 208.31 61.6606 206.806 62.2836C205.302 62.9066 203.689 63.2272 202.061 63.2272Z" fill="#80DED9"/>
<path d="M291.496 75.8731C235.804 70.2126 242.729 18.2695 205.899 18.2695C169.069 18.2695 175.993 70.2085 120.302 75.8731H105.715C104.81 75.8715 103.913 76.0485 103.076 76.394C102.239 76.7395 101.478 77.2466 100.837 77.8864C100.196 78.5262 99.6879 79.2861 99.3412 80.1226C98.9945 80.959 98.8161 81.8557 98.8164 82.7612V111.571C98.8175 112.476 98.9968 113.371 99.3441 114.207C99.6914 115.042 100.2 115.801 100.841 116.439C101.481 117.078 102.242 117.584 103.078 117.929C103.914 118.274 104.811 118.451 105.715 118.449H306.097C307.925 118.449 309.678 117.724 310.971 116.433C312.265 115.142 312.993 113.39 312.996 111.563V82.753C312.993 80.9253 312.265 79.1733 310.972 77.8819C309.678 76.5904 307.925 75.865 306.097 75.865L291.496 75.8731ZM204.503 63.2272C202.051 63.2272 199.654 62.5002 197.615 61.1381C195.577 59.7759 193.988 57.8399 193.049 55.5747C192.111 53.3096 191.865 50.8171 192.344 48.4124C192.822 46.0078 194.003 43.7989 195.737 42.0653C197.47 40.3316 199.68 39.151 202.084 38.6726C204.489 38.1943 206.982 38.4398 209.248 39.3781C211.513 40.3163 213.449 41.9052 214.811 43.9438C216.174 45.9823 216.901 48.3791 216.901 50.8308C216.901 52.4587 216.58 54.0707 215.957 55.5747C215.334 57.0787 214.421 58.4453 213.27 59.5964C212.118 60.7475 210.752 61.6606 209.248 62.2836C207.743 62.9066 206.131 63.2272 204.503 63.2272Z" fill="#80DED9"/>
<path d="M240.865 47.7328C229.959 33.0702 222.768 18.2676 203.11 18.2676C181.421 18.2676 174.906 36.2819 161.843 52.2491C156.902 58.285 151.028 64.0388 143.05 68.3928C133.965 79.8384 129.03 94.0254 129.049 108.637C129.049 108.824 129.049 109.009 129.049 109.193H209.741C209.564 107.25 209.476 105.283 209.476 103.293C209.484 79.722 222.06 59.0884 240.865 47.7328ZM203.11 63.2273C200.656 63.2289 198.256 62.5024 196.214 61.1398C194.172 59.7772 192.581 57.8396 191.64 55.5723C190.7 53.305 190.454 50.8097 190.932 48.4024C191.411 45.995 192.593 43.7836 194.329 42.048C196.064 40.3125 198.276 39.1307 200.684 38.6522C203.091 38.1738 205.587 38.4202 207.854 39.3602C210.122 40.3002 212.06 41.8916 213.422 43.9331C214.785 45.9746 215.512 48.3744 215.51 50.8289C215.51 54.1171 214.204 57.2707 211.878 59.5959C209.553 61.921 206.399 63.2273 203.11 63.2273Z" fill="#80DED9"/>
<path d="M129.049 108.638C129.047 111.922 129.294 115.202 129.787 118.449H102.916C101.09 118.446 99.3393 117.72 98.048 116.429C96.7567 115.138 96.03 113.387 96.0273 111.561V82.7513C96.03 80.9253 96.7567 79.1748 98.048 77.8837C99.3393 76.5925 101.09 75.8659 102.916 75.8632H117.511C128.01 74.7961 136.282 72.0835 143.043 68.3828C133.959 79.8319 129.025 94.0228 129.049 108.638Z" fill="#80DED9"/>
<path d="M96.0273 109.192V111.562C96.0306 113.388 96.7574 115.138 98.0487 116.428C99.3399 117.719 101.09 118.445 102.916 118.448H303.298C305.126 118.448 306.878 117.723 308.172 116.432C309.465 115.141 310.194 113.389 310.197 111.562V109.192H96.0273Z" fill="#80DED9"/>
<path d="M211.267 118.449H129.793C129.765 118.246 129.734 118.043 129.706 117.84C129.659 117.516 129.617 117.191 129.574 116.864C129.531 116.538 129.493 116.197 129.456 115.862C129.438 115.714 129.422 115.568 129.408 115.42C129.385 115.227 129.367 115.034 129.349 114.842C129.306 114.401 129.27 113.959 129.235 113.517C129.235 113.371 129.215 113.229 129.205 113.084L129.174 112.614C129.164 112.454 129.156 112.291 129.148 112.131C129.148 112.003 129.136 111.871 129.128 111.741C129.128 111.538 129.109 111.336 129.101 111.133C129.101 110.974 129.089 110.814 129.085 110.654C129.071 110.171 129.061 109.686 129.059 109.199H209.751C210.032 112.315 210.538 115.406 211.267 118.449Z" fill="#80DED9"/>
<path d="M274.534 118.448H211.266C210.537 115.404 210.03 112.31 209.75 109.192H274.015C274.015 109.497 274.015 109.801 274.015 110.109C274.01 112.897 274.184 115.682 274.534 118.448Z" fill="#80DED9"/>
<path d="M284.14 75.1096C277.672 85.2486 274.165 96.9928 274.015 109.018H209.75C209.573 107.074 209.484 105.108 209.484 103.118C209.484 79.5468 222.065 58.9132 240.866 47.5576C249.812 59.5868 261.256 71.5226 284.14 75.1096Z" fill="#80DED9"/>
<path d="M310.187 109.192V111.56C310.184 113.388 309.456 115.14 308.162 116.431C306.869 117.723 305.116 118.448 303.288 118.448H274.534C274.178 115.683 274 112.898 274 110.109C274 109.803 274 109.501 274 109.192H310.187Z" fill="#80DED9"/>
<path d="M310.188 82.7606V109.193H274.016C274.166 97.1674 277.672 85.4231 284.141 75.2842C285.614 75.5155 287.135 75.7116 288.704 75.8725H303.299C305.126 75.8752 306.876 76.6018 308.167 77.893C309.459 79.1841 310.185 80.9346 310.188 82.7606Z" fill="#80DED9"/>
<path d="M131.079 428.876H75.247C75.0193 428.876 74.801 428.785 74.6401 428.624C74.4791 428.463 74.3887 428.245 74.3887 428.017V372.193C74.3892 371.966 74.4798 371.748 74.6407 371.587C74.8015 371.426 75.0195 371.335 75.247 371.335H131.079C131.307 371.335 131.525 371.425 131.686 371.586C131.847 371.747 131.937 371.966 131.937 372.193V428.017C131.937 428.245 131.847 428.463 131.686 428.624C131.525 428.785 131.307 428.876 131.079 428.876ZM81.7096 421.56H124.619V378.653H81.7076L81.7096 421.56Z" fill="#E7DEC3"/>
<path d="M131.079 512.566H75.249C75.0208 512.566 74.802 512.475 74.6407 512.314C74.4793 512.153 74.3887 511.934 74.3887 511.706V455.884C74.3887 455.656 74.4793 455.437 74.6407 455.275C74.802 455.114 75.0208 455.023 75.249 455.023H131.079C131.192 455.023 131.304 455.046 131.408 455.089C131.512 455.132 131.607 455.196 131.687 455.276C131.767 455.355 131.83 455.45 131.873 455.555C131.916 455.659 131.938 455.771 131.937 455.884V511.706C131.938 511.819 131.916 511.93 131.873 512.035C131.83 512.139 131.767 512.234 131.687 512.314C131.607 512.394 131.512 512.457 131.408 512.5C131.304 512.544 131.192 512.566 131.079 512.566ZM81.7096 505.248H124.619V462.342H81.7076L81.7096 505.248Z" fill="#E7DEC3"/>
<path d="M335.758 217.873H152.869V207.682H335.758V217.873Z" fill="#E7DEC3"/>
<path d="M335.758 229.886H152.869V240.077H335.758V229.886Z" fill="#E7DEC3"/>
<path d="M232.387 261.531H152.869V251.34H232.387V261.531Z" fill="#E7DEC3"/>
<path d="M335.758 300.615H152.869V290.426H335.758V300.615Z" fill="#E7DEC3"/>
<path d="M335.758 312.628H152.869V322.817H335.758V312.628Z" fill="#E7DEC3"/>
<path d="M232.387 344.272H152.869V334.083H232.387V344.272Z" fill="#E7DEC3"/>
<path d="M335.758 381.635H152.869V371.444H335.758V381.635Z" fill="#E7DEC3"/>
<path d="M335.758 393.648H152.869V403.837H335.758V393.648Z" fill="#E7DEC3"/>
<path d="M337.495 465.099H154.605V454.908H337.495V465.099Z" fill="#E7DEC3"/>
<path d="M337.495 477.111H154.605V487.302H337.495V477.111Z" fill="#E7DEC3"/>
<path d="M234.121 508.756H154.605V498.565H234.121V508.756Z" fill="#E7DEC3"/>
<path d="M335.758 371.446V381.635H326.67C328.699 378.254 330.652 374.857 332.528 371.446H335.758Z" fill="#E4D6F6"/>
<path d="M335.759 393.648V403.837H311.893C314.363 400.474 316.745 397.077 319.039 393.648H335.759Z" fill="#E4D6F6"/>
<path d="M232.387 425.293H152.869V415.102H232.387V425.293Z" fill="#E7DEC3"/>
<path d="M337.493 454.908V465.097H250.389C254.93 461.798 259.322 458.402 263.566 454.908H337.493Z" fill="#E4D6F6"/>
<path d="M337.493 477.116V487.307H214.643C220.807 484.061 226.759 480.664 232.498 477.116H337.493Z" fill="#E4D6F6"/>
<path d="M234.12 498.567V508.766H163.021C172.654 505.706 181.895 502.309 190.745 498.578L234.12 498.567Z" fill="#E4D6F6"/>
<path d="M131.079 263.377H75.247C75.0193 263.377 74.801 263.286 74.6401 263.125C74.4791 262.964 74.3887 262.746 74.3887 262.518V206.694C74.3887 206.467 74.4791 206.248 74.6401 206.087C74.801 205.926 75.0193 205.836 75.247 205.836H131.079C131.307 205.836 131.525 205.926 131.686 206.087C131.847 206.248 131.937 206.467 131.937 206.694V262.518C131.937 262.746 131.847 262.964 131.686 263.125C131.525 263.286 131.307 263.377 131.079 263.377ZM81.7096 256.061H124.617V213.16H81.7076L81.7096 256.061Z" fill="#E7DEC3"/>
<path d="M62.1113 220.464L70.5138 211.129L96.7599 234.747L138.912 187.535L148.28 195.898L97.7298 252.514L62.1113 220.464Z" fill="#B5A268"/>
<path d="M139.03 189.625L146.186 196.014L97.6162 250.418L64.2054 220.354L70.6234 213.223L96.8736 236.845L139.03 189.625ZM138.788 185.443L136.814 187.655L96.6382 232.649L72.6078 211.019L70.4083 209.035L68.4259 211.24L62.0079 218.37L60.0234 220.575L62.229 222.557L95.6318 252.621L97.8455 254.612L99.8279 252.392L148.4 197.992L150.374 195.78L148.163 193.806L141.006 187.417L138.788 185.443Z" fill="white"/>
<path d="M131.079 347.019H75.247C75.0193 347.019 74.801 346.929 74.6401 346.768C74.4791 346.607 74.3887 346.389 74.3887 346.161V290.337C74.3887 290.109 74.4791 289.891 74.6401 289.73C74.801 289.569 75.0193 289.479 75.247 289.479H131.079C131.307 289.479 131.525 289.569 131.686 289.73C131.847 289.891 131.937 290.109 131.937 290.337V346.161C131.937 346.389 131.847 346.607 131.686 346.768C131.525 346.929 131.307 347.019 131.079 347.019ZM81.7076 339.701H124.617V296.797H81.7076V339.701Z" fill="#E7DEC3"/>
<path d="M62.1113 304.106L70.5138 294.771L96.7599 318.389L138.912 271.178L148.28 279.541L97.7298 336.156L62.1113 304.106Z" fill="#B5A268"/>
<path d="M139.03 273.272L146.186 279.66L97.6162 334.058L64.2054 303.997L70.6234 296.865L96.8736 320.487L139.03 273.274V273.272ZM138.788 269.084L136.814 271.297L96.6382 316.292L72.6078 294.662L70.4083 292.678L68.4259 294.883L62.0079 302.012L60.0234 304.216L62.229 306.2L95.6379 336.264L97.8516 338.254L99.834 336.035L148.4 281.635L150.374 279.423L148.163 277.449L141.006 271.06L138.788 269.084Z" fill="white"/>
<path d="M232.387 425.293H152.869V415.102H232.387V425.293Z" fill="#E7DEC3"/>
<path d="M307.32 140.652H90.3711V168.012H307.32V140.652Z" fill="#E7DEC3"/>
<path d="M301.779 118.692C305.551 138.009 314.995 154.4 328.157 167.529C339.67 179.021 353.905 187.41 369.536 191.914L369.131 118.692H301.779Z" fill="#FAFAFA"/>
<path d="M403.94 192.23C456.993 192.23 500 149.227 500 96.1796C500 43.1323 456.993 0.128906 403.94 0.128906C350.887 0.128906 307.879 43.1323 307.879 96.1796C307.879 149.227 350.887 192.23 403.94 192.23Z" fill="black"/>
<path d="M403.212 183.101C451.442 183.101 490.54 144.007 490.54 95.7823C490.54 47.5577 451.442 8.46387 403.212 8.46387C354.983 8.46387 315.885 47.5577 315.885 95.7823C315.885 144.007 354.983 183.101 403.212 183.101Z" fill="white"/>
<path d="M496.797 96.1794C496.797 125.957 483.245 152.57 461.97 170.186C461.944 166.59 460.736 163.103 458.532 160.261C456.329 157.419 453.252 155.38 449.775 154.459C466.515 140.577 477.168 119.623 477.168 96.1794C477.194 79.9646 471.987 64.1743 462.321 51.1547C462.745 51.1912 463.173 51.2095 463.608 51.2095C467.021 51.2095 470.333 50.0477 472.997 47.9151C475.662 45.7826 477.522 42.8065 478.27 39.4766C490.335 55.9181 496.827 75.7864 496.797 96.1794Z" fill="#80DED9"/>
<path d="M402.711 195.466V175.076C396.47 174.94 390.264 174.099 384.212 172.568C383.589 175.975 376.876 182.36 376.876 182.36C376.876 182.36 378.528 188.852 376.367 191.678C384.942 194.054 393.401 195.369 402.711 195.466Z" fill="#3F3F63"/>
<path d="M461.972 170.187C445.427 183.87 424.776 191.618 403.313 192.194C381.851 192.77 360.813 186.142 343.559 173.366C343.762 173.366 343.954 173.366 344.153 173.366C348.041 173.369 351.778 171.864 354.578 169.168C357.378 166.472 359.024 162.795 359.168 158.911C372.515 167.908 388.381 172.418 404.465 171.786C420.549 171.155 436.013 165.414 448.612 155.399C449.003 155.086 449.392 154.77 449.779 154.449C453.257 155.372 456.334 157.412 458.538 160.256C460.741 163.1 461.948 166.59 461.972 170.187Z" fill="#80DED9"/>
<path d="M478.28 39.4769C477.532 42.8068 475.673 45.783 473.008 47.9155C470.343 50.048 467.031 51.2099 463.618 51.2098C463.184 51.2098 462.755 51.1916 462.331 51.1551C448.534 32.5585 426.417 20.5029 401.493 20.5029C385.27 20.4792 369.471 25.6921 356.448 35.3664C356.238 31.5298 354.565 27.9196 351.775 25.278C348.984 22.6364 345.288 21.1643 341.445 21.1643C341.205 21.1643 340.964 21.1643 340.727 21.1806C357.745 7.5235 378.921 0.0954362 400.743 0.12902C432.579 0.12902 460.803 15.6194 478.28 39.4769Z" fill="#80DED9"/>
<path d="M481.428 96.1796C481.428 137.974 447.543 171.856 405.744 171.856C405.033 171.856 404.323 171.856 403.619 171.828C444.434 170.702 477.177 137.264 477.177 96.1817C477.177 55.0991 444.434 21.6593 403.619 20.5353C404.323 20.515 405.039 20.5049 405.744 20.5049C447.545 20.5029 481.428 54.385 481.428 96.1796Z" fill="#8383B7"/>
<path d="M359.165 158.921C359.02 162.805 357.375 166.482 354.574 169.178C351.774 171.874 348.037 173.379 344.149 173.376C343.947 173.376 343.744 173.376 343.555 173.376C319.963 155.875 304.676 127.818 304.676 96.1902C304.676 65.8485 318.745 38.7935 340.716 21.191C340.954 21.1809 341.195 21.1748 341.435 21.1748C345.277 21.1748 348.974 22.6469 351.765 25.2885C354.555 27.93 356.227 31.5403 356.438 35.3769C337.853 49.1732 325.798 71.2716 325.798 96.1902C325.811 122.296 339.04 145.321 359.165 158.921Z" fill="#80DED9"/>
<path d="M403.62 171.826C402.914 171.844 402.205 171.853 401.493 171.855C359.694 171.855 325.809 137.972 325.809 96.1777C325.809 54.3831 359.694 20.501 401.493 20.501C402.206 20.501 402.915 20.5111 403.62 20.5314C362.803 21.6554 330.06 55.0932 330.06 96.1777C330.06 137.262 362.799 170.7 403.62 171.826Z" fill="#3F3F63"/>
<path d="M403.62 102.001C406.835 102.001 409.442 99.3949 409.442 96.1802C409.442 92.9654 406.835 90.3594 403.62 90.3594C400.405 90.3594 397.799 92.9654 397.799 96.1802C397.799 99.3949 400.405 102.001 403.62 102.001Z" fill="#5D5D89"/>
<path d="M366.846 72.0605L409.296 103.421C409.595 103.642 409.936 103.8 410.298 103.885C410.66 103.971 411.036 103.982 411.402 103.918C411.768 103.854 412.118 103.717 412.43 103.514C412.742 103.312 413.009 103.048 413.216 102.739C413.423 102.43 413.564 102.082 413.633 101.716C413.701 101.35 413.694 100.975 413.613 100.612C413.532 100.249 413.378 99.906 413.16 99.6042C412.943 99.3024 412.666 99.0478 412.348 98.8558L367.128 71.6365C367.072 71.606 367.006 71.5976 366.944 71.613C366.882 71.6283 366.828 71.6664 366.793 71.7195C366.757 71.7727 366.743 71.8372 366.753 71.9003C366.763 71.9634 366.796 72.0206 366.846 72.0605Z" fill="#5D5D89"/>
<path d="M455.68 65.6799L389.786 101.52C389.514 101.668 389.274 101.87 389.081 102.112C388.888 102.354 388.746 102.633 388.662 102.931C388.579 103.23 388.556 103.542 388.595 103.849C388.634 104.157 388.734 104.453 388.889 104.721C389.044 104.99 389.252 105.224 389.499 105.411C389.747 105.598 390.029 105.733 390.33 105.809C390.63 105.884 390.943 105.899 391.249 105.852C391.556 105.804 391.85 105.696 392.113 105.533L455.881 66.0187C455.903 66.0055 455.923 65.9881 455.938 65.9674C455.954 65.9467 455.965 65.9231 455.972 65.8981C455.978 65.873 455.979 65.8469 455.976 65.8213C455.972 65.7957 455.963 65.7711 455.95 65.7489C455.937 65.7266 455.92 65.7072 455.899 65.6917C455.878 65.6762 455.855 65.6649 455.829 65.6585C455.804 65.6521 455.778 65.6507 455.753 65.6543C455.727 65.658 455.703 65.6667 455.68 65.6799Z" fill="#5D5D89"/>
<path d="M403.864 147.463L404.894 86.1913C404.894 85.6152 404.328 85.1465 403.616 85.1465C402.906 85.1465 402.332 85.6212 402.344 86.1974L403.655 147.469C403.661 147.662 403.86 147.662 403.864 147.463Z" fill="#FF1744"/>
<path d="M405.681 98.2374C406.818 97.1004 406.818 95.257 405.681 94.12C404.544 92.983 402.7 92.983 401.563 94.12C400.426 95.257 400.426 97.1004 401.563 98.2374C402.7 99.3744 404.544 99.3744 405.681 98.2374Z" fill="#F11744"/>
<path d="M403.213 99.0608C404.596 99.0608 405.717 97.771 405.717 96.1798C405.717 94.5887 404.596 93.2988 403.213 93.2988C401.83 93.2988 400.709 94.5887 400.709 96.1798C400.709 97.771 401.83 99.0608 403.213 99.0608Z" fill="#FF1744"/>
<path d="M405.728 27.4017C406.005 26.2283 405.278 25.0525 404.104 24.7756C402.931 24.4986 401.755 25.2253 401.478 26.3988C401.201 27.5722 401.928 28.748 403.101 29.0249C404.275 29.3019 405.451 28.5751 405.728 27.4017Z" fill="#3F3F63"/>
<path d="M404.257 28.9938C405.111 28.9938 405.803 28.0591 405.803 26.9061C405.803 25.7531 405.111 24.8184 404.257 24.8184C403.403 24.8184 402.711 25.7531 402.711 26.9061C402.711 28.0591 403.403 28.9938 404.257 28.9938Z" fill="#5D5D89"/>
<path d="M371.091 36.6839C371.368 35.5105 370.641 34.3347 369.468 34.0578C368.294 33.7808 367.118 34.5075 366.841 35.681C366.564 36.8544 367.291 38.0302 368.465 38.3071C369.638 38.5841 370.814 37.8574 371.091 36.6839Z" fill="#3F3F63"/>
<path d="M369.616 38.276C370.47 38.276 371.163 37.3413 371.163 36.1883C371.163 35.0353 370.47 34.1006 369.616 34.1006C368.763 34.1006 368.07 35.0353 368.07 36.1883C368.07 37.3413 368.763 38.276 369.616 38.276Z" fill="#5D5D89"/>
<path d="M345.793 61.8963C345.986 60.7062 345.178 59.5848 343.988 59.3916C342.797 59.1984 341.676 60.0066 341.483 61.1967C341.289 62.3868 342.098 63.5082 343.288 63.7013C344.478 63.8945 345.6 63.0864 345.793 61.8963Z" fill="#3F3F63"/>
<path d="M344.261 63.6305C345.115 63.6305 345.807 62.6958 345.807 61.5428C345.807 60.3898 345.115 59.4551 344.261 59.4551C343.407 59.4551 342.715 60.3898 342.715 61.5428C342.715 62.6958 343.407 63.6305 344.261 63.6305Z" fill="#5D5D89"/>
<path d="M334.34 98.3632C335.545 98.3632 336.523 97.3858 336.523 96.1801C336.523 94.9745 335.545 93.9971 334.34 93.9971C333.134 93.9971 332.156 94.9745 332.156 96.1801C332.156 97.3858 333.134 98.3632 334.34 98.3632Z" fill="#3F3F63"/>
<path d="M334.978 98.2672C335.832 98.2672 336.524 97.3325 336.524 96.1795C336.524 95.0265 335.832 94.0918 334.978 94.0918C334.124 94.0918 333.432 95.0265 333.432 96.1795C333.432 97.3325 334.124 98.2672 334.978 98.2672Z" fill="#5D5D89"/>
<path d="M345.102 132.358C345.955 131.506 345.955 130.123 345.102 129.271C344.25 128.418 342.867 128.418 342.015 129.271C341.162 130.123 341.162 131.506 342.015 132.358C342.867 133.211 344.25 133.211 345.102 132.358Z" fill="#3F3F63"/>
<path d="M344.195 132.902C345.049 132.902 345.741 131.967 345.741 130.814C345.741 129.661 345.049 128.727 344.195 128.727C343.341 128.727 342.648 129.661 342.648 130.814C342.648 131.967 343.341 132.902 344.195 132.902Z" fill="#5D5D89"/>
<path d="M371.091 156.66C371.368 155.487 370.641 154.311 369.468 154.034C368.294 153.757 367.118 154.484 366.841 155.658C366.564 156.831 367.291 158.007 368.465 158.284C369.638 158.561 370.814 157.834 371.091 156.66Z" fill="#3F3F63"/>
<path d="M369.616 158.259C370.47 158.259 371.163 157.325 371.163 156.172C371.163 155.019 370.47 154.084 369.616 154.084C368.763 154.084 368.07 155.019 368.07 156.172C368.07 157.325 368.763 158.259 369.616 158.259Z" fill="#5D5D89"/>
<path d="M404.456 167.468C405.57 167.007 406.099 165.729 405.637 164.616C405.176 163.502 403.899 162.973 402.785 163.434C401.671 163.895 401.142 165.173 401.603 166.286C402.065 167.4 403.342 167.929 404.456 167.468Z" fill="#3F3F63"/>
<path d="M404.257 167.539C405.111 167.539 405.803 166.604 405.803 165.451C405.803 164.298 405.111 163.363 404.257 163.363C403.403 163.363 402.711 164.298 402.711 165.451C402.711 166.604 403.403 167.539 404.257 167.539Z" fill="#5D5D89"/>
<path d="M438.259 158.354C439.465 158.354 440.443 157.377 440.443 156.171C440.443 154.966 439.465 153.988 438.259 153.988C437.054 153.988 436.076 154.966 436.076 156.171C436.076 157.377 437.054 158.354 438.259 158.354Z" fill="#3F3F63"/>
<path d="M438.896 158.259C439.75 158.259 440.442 157.325 440.442 156.172C440.442 155.019 439.75 154.084 438.896 154.084C438.042 154.084 437.35 155.019 437.35 156.172C437.35 157.325 438.042 158.259 438.896 158.259Z" fill="#5D5D89"/>
<path d="M463.619 132.998C464.825 132.998 465.802 132.021 465.802 130.815C465.802 129.609 464.825 128.632 463.619 128.632C462.413 128.632 461.436 129.609 461.436 130.815C461.436 132.021 462.413 132.998 463.619 132.998Z" fill="#3F3F63"/>
<path d="M464.255 132.902C465.109 132.902 465.801 131.967 465.801 130.814C465.801 129.661 465.109 128.727 464.255 128.727C463.401 128.727 462.709 129.661 462.709 130.814C462.709 131.967 463.401 132.902 464.255 132.902Z" fill="#5D5D89"/>
<path d="M475.074 96.5369C475.267 95.3468 474.459 94.2254 473.269 94.0323C472.079 93.8391 470.957 94.6472 470.764 95.8373C470.571 97.0274 471.379 98.1488 472.569 98.342C473.759 98.5351 474.881 97.727 475.074 96.5369Z" fill="#3F3F63"/>
<path d="M473.536 98.2672C474.39 98.2672 475.083 97.3325 475.083 96.1795C475.083 95.0265 474.39 94.0918 473.536 94.0918C472.682 94.0918 471.99 95.0265 471.99 96.1795C471.99 97.3325 472.682 98.2672 473.536 98.2672Z" fill="#5D5D89"/>
<path d="M463.619 63.7255C464.825 63.7255 465.802 62.7481 465.802 61.5424C465.802 60.3368 464.825 59.3594 463.619 59.3594C462.413 59.3594 461.436 60.3368 461.436 61.5424C461.436 62.7481 462.413 63.7255 463.619 63.7255Z" fill="#3F3F63"/>
<path d="M464.255 63.6305C465.109 63.6305 465.801 62.6958 465.801 61.5428C465.801 60.3898 465.109 59.4551 464.255 59.4551C463.401 59.4551 462.709 60.3898 462.709 61.5428C462.709 62.6958 463.401 63.6305 464.255 63.6305Z" fill="#5D5D89"/>
<path d="M438.259 38.371C439.465 38.371 440.443 37.3936 440.443 36.1879C440.443 34.9823 439.465 34.0049 438.259 34.0049C437.054 34.0049 436.076 34.9823 436.076 36.1879C436.076 37.3936 437.054 38.371 438.259 38.371Z" fill="#3F3F63"/>
<path d="M438.896 38.276C439.75 38.276 440.442 37.3413 440.442 36.1883C440.442 35.0353 439.75 34.1006 438.896 34.1006C438.042 34.1006 437.35 35.0353 437.35 36.1883C437.35 37.3413 438.042 38.276 438.896 38.276Z" fill="#5D5D89"/>
<path d="M38.924 644.196L38.9442 640.589C38.9465 640.189 39.0275 639.794 39.1825 639.425C39.3376 639.057 39.5637 638.723 39.8479 638.442C40.1321 638.161 40.4689 637.938 40.8391 637.788C41.2092 637.637 41.6054 637.56 42.0051 637.563C42.4048 637.565 42.8001 637.646 43.1685 637.801C43.5369 637.956 43.8712 638.182 44.1522 638.466C44.4333 638.75 44.6555 639.087 44.8064 639.457C44.9573 639.827 45.0337 640.223 45.0315 640.623L45.0112 644.23C45.0031 645.621 45.5474 646.957 46.5245 647.947C47.5016 648.936 48.8315 649.496 50.2219 649.506L131.556 649.966C131.715 649.3 132.096 648.707 132.636 648.285C133.176 647.863 133.843 647.637 134.528 647.643C138.745 647.668 142.943 648.223 147.021 649.297C147.84 649.511 148.552 650.017 149.024 650.72C149.496 651.423 149.695 652.273 149.584 653.112C149.473 653.952 149.059 654.721 148.421 655.277C147.782 655.832 146.963 656.136 146.116 656.13L50.1874 655.586C47.1841 655.566 44.3114 654.356 42.1997 652.22C40.088 650.085 38.9099 647.199 38.924 644.196Z" fill="#80DED9"/>
<path d="M28.9978 618.514L28.9007 635.899L18.2096 635.839C17.8136 635.837 17.4346 635.678 17.1561 635.396C16.8776 635.114 16.7223 634.734 16.7246 634.338L16.805 619.933C16.8072 619.537 16.9667 619.158 17.2483 618.88C17.53 618.601 17.9107 618.446 18.3068 618.448L29.0039 618.508L28.9978 618.514Z" fill="#80DED9"/>
<path d="M36.1387 639.971L36.2848 614.42L29.5543 615.522C29.4032 615.547 29.2659 615.625 29.1664 615.741C29.0669 615.858 29.0117 616.005 29.0105 616.159L28.8867 638.152C28.8858 638.305 28.9391 638.453 29.0371 638.571C29.1351 638.689 29.2716 638.768 29.4224 638.795L36.1387 639.971Z" fill="#80DED9"/>
<path d="M36.1368 640.274L36.2849 614.118C36.2862 613.996 36.3217 613.876 36.3873 613.773C36.4529 613.671 36.5461 613.588 36.6562 613.535C38.458 612.671 49.058 610.155 111.426 610.508L240.828 611.241C259.837 611.349 278.815 612.255 297.762 613.957L343.214 618.046L343.09 639.825L297.586 643.398C278.636 644.886 259.649 645.576 240.625 645.468L111.223 644.735C48.853 644.382 38.2835 641.745 36.4919 640.86C36.3839 640.805 36.2934 640.721 36.2306 640.618C36.1679 640.514 36.1354 640.395 36.1368 640.274Z" fill="#0D0D0D"/>
<path d="M111.427 610.508L240.829 611.241C259.838 611.349 278.816 612.255 297.763 613.957L343.215 618.046L343.117 635.376L300.647 638.71C281.696 640.197 262.709 640.888 243.684 640.781L114.282 640.047C93.721 639.931 78.5962 639.47 67.556 638.904C60.5589 638.543 53.9137 635.725 48.7913 630.945C43.6689 626.165 40.3979 619.731 39.5547 612.777C45.5912 611.707 62.7268 610.232 111.427 610.508Z" fill="#282828"/>
<path d="M138.902 625.534C104.217 625.331 84.9975 624.161 74.7689 623.154C71.8593 622.867 69.1587 621.514 67.1871 619.355C65.2155 617.197 64.1123 614.385 64.0898 611.462V610.965C75.0144 610.6 90.2305 610.389 111.43 610.508L240.833 611.241C259.841 611.349 278.819 612.254 297.767 613.957L343.218 618.046L343.192 622.789L325.756 624.156C306.476 625.67 287.158 626.373 267.801 626.264L138.902 625.534Z" fill="#464646"/>
<path d="M36.2605 618.933L29.5321 620.035C29.381 620.06 29.2434 620.137 29.1439 620.253C29.0443 620.369 28.9892 620.517 28.9883 620.67L29.0126 616.156C29.0135 616.003 29.0685 615.854 29.168 615.738C29.2676 615.621 29.4052 615.544 29.5564 615.519L36.2869 614.417L36.2625 618.631L36.2605 618.933Z" fill="#80DED9"/>
<path d="M28.9723 622.978L18.277 622.917C17.8807 622.915 17.4998 623.07 17.2179 623.348C16.936 623.627 16.7761 624.006 16.7734 624.402L16.7998 619.888C16.8006 619.691 16.8401 619.497 16.9161 619.316C16.992 619.136 17.1029 618.971 17.2424 618.833C17.3818 618.695 17.5472 618.586 17.7289 618.512C17.9106 618.438 18.1051 618.401 18.3013 618.402L28.9986 618.463L28.9865 620.673L28.9723 622.978Z" fill="#80DED9"/>
<path d="M174.965 645.173L175.168 610.789C175.168 610.749 175.161 610.708 175.145 610.67C175.13 610.633 175.107 610.598 175.079 610.569C175.05 610.54 175.016 610.517 174.978 610.501C174.941 610.485 174.901 610.477 174.86 610.477L159.66 610.392C159.619 610.391 159.579 610.399 159.541 610.414C159.503 610.429 159.468 610.452 159.439 610.481C159.41 610.509 159.387 610.543 159.371 610.581C159.356 610.619 159.347 610.659 159.347 610.7L159.145 645.083C159.144 645.124 159.152 645.165 159.167 645.203C159.182 645.24 159.205 645.275 159.233 645.304C159.262 645.333 159.296 645.356 159.334 645.372C159.372 645.388 159.412 645.396 159.453 645.396L174.653 645.483C174.694 645.483 174.734 645.475 174.772 645.46C174.81 645.444 174.845 645.422 174.874 645.393C174.903 645.364 174.926 645.33 174.941 645.292C174.957 645.254 174.965 645.213 174.965 645.173Z" fill="#80DED9"/>
<path d="M174.825 614.993L159.625 614.906C159.543 614.906 159.464 614.939 159.405 614.997C159.347 615.055 159.314 615.134 159.312 615.216V615.293L159.339 610.7C159.339 610.659 159.347 610.619 159.363 610.581C159.378 610.543 159.402 610.509 159.431 610.481C159.46 610.452 159.494 610.429 159.532 610.414C159.57 610.399 159.611 610.391 159.651 610.392L174.851 610.477C174.892 610.477 174.932 610.485 174.97 610.501C175.007 610.517 175.042 610.54 175.07 610.569C175.099 610.598 175.121 610.633 175.137 610.67C175.152 610.708 175.16 610.749 175.16 610.789L175.135 615.306C175.136 615.265 175.128 615.224 175.112 615.186C175.097 615.148 175.074 615.114 175.045 615.085C175.016 615.056 174.982 615.033 174.944 615.017C174.906 615.001 174.866 614.993 174.825 614.993Z" fill="#80DED9"/>
<path d="M36.167 635.449L29.4507 634.272C29.2997 634.246 29.163 634.167 29.0649 634.049C28.9668 633.931 28.9137 633.782 28.9151 633.629L28.8887 638.145C28.8878 638.298 28.9412 638.446 29.0392 638.564C29.1373 638.681 29.2737 638.76 29.4244 638.786L36.1406 639.965L36.165 635.751L36.167 635.449Z" fill="#80DED9"/>
<path d="M28.9257 631.324L18.2284 631.263C18.0323 631.262 17.8383 631.222 17.6575 631.146C17.4768 631.07 17.3127 630.959 17.1748 630.82C17.0369 630.681 16.9278 630.515 16.8537 630.334C16.7796 630.152 16.7421 629.958 16.7431 629.762L16.7188 634.278C16.7174 634.474 16.7548 634.669 16.8288 634.85C16.9028 635.032 17.0119 635.197 17.1498 635.337C17.2878 635.476 17.452 635.587 17.6329 635.663C17.8138 635.739 18.0079 635.778 18.2041 635.779L28.8994 635.84L28.9136 633.629L28.9257 631.324Z" fill="#80DED9"/>
<path d="M174.679 640.961L159.479 640.874C159.438 640.874 159.398 640.866 159.36 640.85C159.322 640.834 159.288 640.811 159.259 640.782C159.23 640.753 159.207 640.719 159.192 640.681C159.177 640.643 159.169 640.602 159.169 640.561V640.484L159.143 645.078C159.143 645.16 159.175 645.239 159.233 645.297C159.29 645.356 159.369 645.389 159.451 645.39L174.651 645.475C174.692 645.476 174.732 645.468 174.77 645.453C174.808 645.438 174.842 645.415 174.872 645.386C174.901 645.358 174.924 645.324 174.939 645.286C174.955 645.248 174.963 645.208 174.963 645.167L174.99 640.653C174.989 640.735 174.956 640.813 174.897 640.87C174.839 640.928 174.761 640.961 174.679 640.961Z" fill="#80DED9"/>
<path d="M380.935 626.657L391.658 628.737C391.777 628.759 391.883 628.823 391.959 628.916C392.035 629.01 392.076 629.127 392.073 629.248C392.071 629.368 392.026 629.484 391.946 629.574C391.866 629.664 391.757 629.724 391.638 629.741L380.906 631.64L380.935 626.657Z" fill="#424242"/>
<path d="M343.164 628.934L343.225 618.045L380.94 625.339L380.897 632.957L343.102 639.825L343.164 628.934Z" fill="#80DED9"/>
<path d="M343.226 618.045L380.94 625.349C380.94 625.349 380.924 627.609 380.92 629.263C361.313 624.426 350.567 623.344 343.199 622.567C343.244 620.557 343.226 618.045 343.226 618.045Z" fill="#80DED9"/>
<path d="M343.102 639.818L380.897 632.951C380.897 632.951 380.897 630.693 380.92 629.037C361.262 633.653 350.502 634.61 343.128 635.302C343.148 637.301 343.102 639.818 343.102 639.818Z" fill="#80DED9"/>
</g>
<defs>
<clipPath id="clip0_1462_9092">
<rect width="500" height="656" fill="white" transform="translate(0 0.128906)"/>
</clipPath>
</defs>
</svg>
