<svg width="681" height="405" viewBox="0 0 681 405" fill="none" xmlns="http://www.w3.org/2000/svg">
<g clip-path="url(#clip0_1462_9241)">
<path d="M629.449 206.529H568.939C567.944 206.53 566.959 206.335 566.039 205.956C565.12 205.576 564.284 205.018 563.58 204.315C562.876 203.612 562.318 202.777 561.937 201.858C561.556 200.939 561.359 199.954 561.359 198.959V115.199C561.359 114.204 561.556 113.219 561.937 112.3C562.318 111.381 562.876 110.546 563.58 109.843C564.284 109.14 565.12 108.582 566.039 108.202C566.959 107.822 567.944 107.628 568.939 107.629H607.309L636.999 138.249V198.959C636.999 200.963 636.205 202.886 634.789 204.305C633.374 205.724 631.454 206.524 629.449 206.529Z" fill="#EBEBEB"/>
<path d="M607.311 107.629V131.199C607.311 132.122 607.493 133.037 607.848 133.889C608.203 134.742 608.723 135.516 609.378 136.166C610.034 136.817 610.811 137.332 611.666 137.68C612.521 138.029 613.437 138.206 614.361 138.199H637.001L607.311 107.629Z" fill="#F5F5F5"/>
<path d="M607.619 133.27C607.619 133.27 607.329 138.99 613.829 140.87C614.076 140.937 614.326 140.991 614.579 141.03C617.579 141.56 637.019 145.03 637.019 144.58V138.25H614.359C614.359 138.25 608.699 138.05 607.619 133.27Z" fill="#E0E0E0"/>
<path d="M629.45 206.529C629.45 206.529 629.9 206.529 630.76 206.379C632.019 206.141 633.199 205.591 634.19 204.779C634.986 204.122 635.637 203.308 636.103 202.387C636.569 201.467 636.841 200.46 636.9 199.429C636.9 196.989 636.9 194.159 636.9 190.989C636.9 178.309 636.84 160.169 636.8 138.249L636.87 138.399L607.13 107.799L607.31 107.879H570.64C569.672 107.837 568.703 107.87 567.74 107.979C566.121 108.247 564.639 109.053 563.534 110.267C562.429 111.481 561.765 113.032 561.65 114.669C561.65 116.009 561.65 117.409 561.65 118.769V142.929C561.65 153.399 561.65 163.499 561.65 173.119C561.65 177.939 561.65 182.629 561.65 187.189V193.919C561.65 195.029 561.65 196.119 561.65 197.209C561.6 198.275 561.647 199.343 561.79 200.399C561.994 201.403 562.404 202.353 562.995 203.19C563.585 204.026 564.343 204.731 565.22 205.259C566.071 205.782 567.021 206.122 568.01 206.259C569.008 206.337 570.009 206.364 571.01 206.339H582.43L616.9 206.419H626.27H628.71H629.54H628.71H626.27L616.9 206.469L582.43 206.549H571.01C570.01 206.58 569.008 206.556 568.01 206.479C566.406 206.261 564.91 205.548 563.729 204.441C562.549 203.333 561.741 201.886 561.42 200.299C561.268 199.217 561.214 198.122 561.26 197.029V193.739C561.26 191.533 561.26 189.289 561.26 187.009C561.26 182.449 561.26 177.759 561.26 172.939C561.26 163.319 561.26 153.219 561.26 142.749C561.26 137.509 561.26 132.176 561.26 126.749V118.579C561.26 117.209 561.26 115.859 561.26 114.439C561.386 112.688 562.098 111.029 563.281 109.731C564.463 108.432 566.048 107.569 567.78 107.279C568.776 107.164 569.779 107.127 570.78 107.169H607.56L607.63 107.239L637.18 138.129L637.24 138.199V138.289C637.24 160.209 637.17 178.349 637.15 191.029C637.15 194.199 637.15 197.029 637.09 199.489C636.986 201.2 636.304 202.824 635.155 204.096C634.007 205.368 632.461 206.212 630.77 206.489C630.44 206.551 630.106 206.582 629.77 206.579L629.45 206.529Z" fill="#E0E0E0"/>
<path d="M637 138.25C636.807 138.264 636.613 138.264 636.42 138.25L634.75 138.3L628.61 138.38H619.5H614.12C612.605 138.333 611.143 137.817 609.934 136.903C608.725 135.99 607.829 134.724 607.37 133.28C607.09 132.343 606.978 131.365 607.04 130.39C607.04 128.53 607.04 126.73 607.04 125.01C607.04 121.6 607.04 118.52 607.1 115.91C607.16 113.3 607.16 111.29 607.18 109.77C607.18 109.09 607.18 108.54 607.18 108.1C607.165 107.906 607.165 107.713 607.18 107.52C607.225 107.709 607.246 107.904 607.24 108.1C607.24 108.54 607.24 109.1 607.24 109.77C607.24 111.29 607.24 113.37 607.32 115.91C607.4 118.45 607.32 121.6 607.32 125.01C607.32 126.73 607.32 128.53 607.32 130.39C607.244 131.321 607.355 132.259 607.647 133.147C607.939 134.034 608.406 134.855 609.02 135.56C609.632 136.259 610.38 136.825 611.22 137.222C612.059 137.619 612.972 137.84 613.9 137.87H619.27L628.38 137.93L634.52 138.01L636.19 138.06C636.47 138.071 636.744 138.136 637 138.25Z" fill="#E0E0E0"/>
<path d="M606.17 128.658C606.17 128.808 599.02 128.918 590.17 128.918C581.32 128.918 574.17 128.808 574.17 128.658C574.17 128.508 581.32 128.398 590.17 128.398C599.02 128.398 606.17 128.518 606.17 128.658Z" fill="#E0E0E0"/>
<path d="M621.32 140.418C621.32 140.558 610.78 140.678 597.78 140.678C584.78 140.678 574.24 140.558 574.24 140.418C574.24 140.278 584.78 140.158 597.78 140.158C610.78 140.158 621.32 140.278 621.32 140.418Z" fill="#E0E0E0"/>
<path d="M621.32 152.178C621.32 152.318 610.78 152.438 597.78 152.438C584.78 152.438 574.24 152.318 574.24 152.178C574.24 152.038 584.78 151.918 597.78 151.918C610.78 151.918 621.32 152.038 621.32 152.178Z" fill="#E0E0E0"/>
<path d="M621.32 163.94C621.32 164.08 610.78 164.2 597.78 164.2C584.78 164.2 574.24 164.08 574.24 163.94C574.24 163.8 584.78 163.68 597.78 163.68C610.78 163.68 621.32 163.8 621.32 163.94Z" fill="#E0E0E0"/>
<path d="M621.32 175.698C621.32 175.838 610.78 175.958 597.78 175.958C584.78 175.958 574.24 175.838 574.24 175.698C574.24 175.558 584.78 175.438 597.78 175.438C610.78 175.438 621.32 175.558 621.32 175.698Z" fill="#E0E0E0"/>
<path d="M621.32 190.198C621.32 190.348 610.78 190.458 597.78 190.458C584.78 190.458 574.24 190.348 574.24 190.198C574.24 190.048 584.78 189.938 597.78 189.938C610.78 189.938 621.32 190.058 621.32 190.198Z" fill="#E0E0E0"/>
<path d="M594.969 167.109H552.009C549.678 167.109 547.789 168.999 547.789 171.329V185.989C547.789 188.32 549.678 190.209 552.009 190.209H594.969C597.3 190.209 599.189 188.32 599.189 185.989V171.329C599.189 168.999 597.3 167.109 594.969 167.109Z" fill="#E0E0E0"/>
<path d="M553.75 174.639H557.75C560.61 174.639 562.57 176.359 562.57 178.999C562.57 181.639 560.57 183.369 557.75 183.369H553.75V174.639ZM557.61 181.709C557.979 181.731 558.349 181.678 558.696 181.552C559.044 181.426 559.362 181.231 559.632 180.977C559.901 180.724 560.116 180.418 560.262 180.079C560.409 179.739 560.485 179.373 560.485 179.004C560.485 178.634 560.409 178.268 560.262 177.929C560.116 177.589 559.901 177.283 559.632 177.03C559.362 176.777 559.044 176.581 558.696 176.455C558.349 176.33 557.979 176.276 557.61 176.299H555.77V181.709H557.61Z" fill="black"/>
<path d="M563.499 178.999C563.447 178.044 563.683 177.095 564.176 176.275C564.669 175.456 565.397 174.803 566.265 174.401C567.133 173.999 568.102 173.867 569.046 174.022C569.99 174.177 570.866 174.611 571.56 175.269C572.254 175.927 572.735 176.778 572.941 177.713C573.146 178.647 573.066 179.621 572.712 180.51C572.358 181.399 571.745 182.16 570.953 182.697C570.161 183.233 569.226 183.52 568.269 183.519C567.655 183.554 567.039 183.464 566.461 183.252C565.883 183.041 565.354 182.714 564.907 182.29C564.46 181.867 564.105 181.356 563.863 180.79C563.621 180.224 563.497 179.615 563.499 178.999ZM570.999 178.999C570.985 178.462 570.814 177.941 570.506 177.502C570.197 177.062 569.766 176.723 569.266 176.527C568.767 176.331 568.22 176.287 567.695 176.4C567.17 176.513 566.69 176.779 566.315 177.163C565.941 177.548 565.687 178.034 565.588 178.562C565.488 179.089 565.546 179.634 565.754 180.129C565.963 180.624 566.313 181.046 566.76 181.343C567.207 181.64 567.732 181.799 568.269 181.799C568.637 181.809 569.002 181.743 569.342 181.605C569.683 181.467 569.991 181.26 570.248 180.997C570.504 180.734 570.703 180.421 570.833 180.077C570.962 179.733 571.019 179.366 570.999 178.999Z" fill="black"/>
<path d="M574 179C574.048 178.055 574.375 177.146 574.938 176.386C575.502 175.626 576.277 175.05 577.167 174.729C578.057 174.409 579.022 174.358 579.941 174.584C580.859 174.81 581.69 175.303 582.33 176L581.04 177.19C580.769 176.871 580.432 176.617 580.052 176.444C579.671 176.271 579.258 176.184 578.84 176.19C578.128 176.232 577.458 176.545 576.969 177.065C576.48 177.584 576.207 178.271 576.207 178.985C576.207 179.698 576.48 180.385 576.969 180.904C577.458 181.424 578.128 181.737 578.84 181.78C579.258 181.788 579.673 181.703 580.054 181.53C580.435 181.357 580.772 181.101 581.04 180.78L582.33 181.98C581.69 182.676 580.859 183.169 579.941 183.395C579.022 183.621 578.057 183.57 577.167 183.25C576.277 182.929 575.502 182.353 574.938 181.593C574.375 180.834 574.048 179.924 574 178.98V179Z" fill="black"/>
<path d="M589 183.369L586.9 180.369L584.83 183.369H582.51L585.74 178.929L582.67 174.639H585L587 177.469L589 174.639H591.18L588.18 178.849L591.43 183.369H589Z" fill="black"/>
<path d="M557.62 314.679L511.8 394.829L421.13 396.129C419.741 396.15 418.41 396.697 417.408 397.66C416.406 398.623 415.806 399.931 415.73 401.319L507.93 401.579L511.4 401.459L626.84 401.689L650.17 361.459L680 318.749C680.44 318.114 680.696 317.37 680.742 316.599C680.788 315.828 680.621 315.059 680.26 314.377C679.899 313.694 679.358 313.123 678.695 312.727C678.032 312.33 677.273 312.124 676.5 312.129L561.26 312.569C560.522 312.572 559.797 312.768 559.159 313.138C558.52 313.508 557.99 314.04 557.62 314.679Z" fill="#EBEBEB"/>
<path d="M680 315.129C679.821 315.175 679.635 315.195 679.45 315.189L677.83 315.239L671.59 315.349L648.67 315.529L573 315.729H567.5C566.685 315.654 565.864 315.8 565.125 316.152C564.386 316.504 563.756 317.049 563.3 317.729C561.56 320.856 559.85 323.943 558.17 326.989L548.43 344.549L531.9 374.259L520.66 394.259C519.35 396.549 518.31 398.349 517.56 399.669C517.22 400.229 516.95 400.669 516.72 401.059C516.635 401.221 516.531 401.373 516.41 401.509C516.452 401.329 516.523 401.157 516.62 400.999L517.36 399.549L520.27 394.039C522.9 389.199 526.62 382.329 531.19 373.879L547.52 344.049L557.19 326.459L562.35 317.119C562.913 316.287 563.686 315.619 564.59 315.182C565.495 314.744 566.498 314.554 567.5 314.629H573L648.64 314.789L671.56 314.979L677.8 315.079L679.42 315.139C679.612 315.108 679.807 315.105 680 315.129Z" fill="#E0E0E0"/>
<path d="M598.75 355.449C596.75 357.709 596.66 360.989 598.64 362.769C600.62 364.549 603.88 364.169 605.92 361.909C607.96 359.649 608.01 356.369 606.03 354.589C604.05 352.809 600.79 353.189 598.75 355.449Z" fill="black"/>
<path d="M15.2988 316.188V364.128H7.29883V369.328H15.2988V401.408H164.879V372.207H153.799V365.848H164.879V356.318H169.809V351.978H163.999V316.188H15.2988Z" fill="#F5F5F5"/>
<path d="M125.16 316.328V400.867H164.88V371.677H153.8V365.848L164.88 366.048V356.508L169.9 356.518L169.81 351.587L163.96 351.448V316.188L125.16 316.328Z" fill="#E0E0E0"/>
<path d="M128 368.629C128 368.929 100.93 369.159 67.5496 369.159C34.1696 369.159 7.09961 368.929 7.09961 368.629C7.09961 368.329 34.1496 368.129 67.5396 368.129C100.93 368.129 128 368.339 128 368.629Z" fill="#E0E0E0"/>
<path d="M128 363.759C128 364.059 100.93 364.299 67.5496 364.299C34.1696 364.299 7.09961 364.059 7.09961 363.759C7.09961 363.459 34.1596 363.229 67.5496 363.229C100.94 363.229 128 363.469 128 363.759Z" fill="#E0E0E0"/>
<path d="M135.76 350.659C135.76 350.959 108.69 351.189 75.3096 351.189C41.9296 351.189 14.8496 350.959 14.8496 350.659C14.8496 350.359 41.9196 350.129 75.3096 350.129C108.7 350.129 135.76 350.369 135.76 350.659Z" fill="#E0E0E0"/>
<path d="M136.5 386.368C136.5 386.658 109.44 386.898 76.0496 386.898C42.6596 386.898 15.5996 386.658 15.5996 386.368C15.5996 386.078 42.6596 385.838 76.0496 385.838C109.44 385.838 136.5 386.068 136.5 386.368Z" fill="#E0E0E0"/>
<path d="M514.44 112.179H455.33C453.367 112.179 451.485 111.399 450.097 110.011C448.709 108.623 447.93 106.741 447.93 104.779V22.9586C447.93 20.996 448.709 19.1138 450.097 17.726C451.485 16.3382 453.367 15.5586 455.33 15.5586H492.82L521.82 45.4686V104.779C521.82 106.738 521.043 108.617 519.659 110.004C518.276 111.391 516.399 112.173 514.44 112.179Z" fill="#EBEBEB"/>
<path d="M492.82 15.5586V38.5586C492.82 40.3833 493.545 42.1332 494.835 43.4235C496.126 44.7137 497.876 45.4386 499.7 45.4386H521.84L492.82 15.5586Z" fill="#F5F5F5"/>
<path d="M493.119 40.6094C493.119 40.6094 492.829 46.1994 499.189 48.0294C499.429 48.0994 499.669 48.1494 499.919 48.1994C502.809 48.7094 521.839 52.0994 521.839 51.6594V45.4694H499.699C499.699 45.4694 494.169 45.2894 493.119 40.6094Z" fill="#E0E0E0"/>
<path d="M514.439 112.178C514.439 112.178 514.889 112.178 515.719 112.028C516.95 111.796 518.103 111.256 519.069 110.458C519.848 109.821 520.485 109.028 520.941 108.131C521.398 107.234 521.662 106.253 521.719 105.248C521.719 102.858 521.719 100.088 521.719 96.9979C521.719 84.6079 521.659 66.8879 521.619 45.4679L521.679 45.6279C512.899 36.6279 503.099 26.4979 492.679 15.7379L492.859 15.8079H456.999C456.051 15.7736 455.101 15.8103 454.159 15.9179C452.579 16.1757 451.132 16.9601 450.054 18.1436C448.975 19.3272 448.329 20.8405 448.219 22.4379C448.169 23.7479 448.219 25.1179 448.219 26.4379V50.0479C448.219 60.2779 448.219 70.1479 448.219 79.5479C448.219 84.2145 448.219 88.7912 448.219 93.2779C448.219 95.5045 448.219 97.6979 448.219 99.8579V103.128C448.169 104.167 448.216 105.208 448.359 106.238C448.555 107.218 448.953 108.147 449.528 108.965C450.103 109.783 450.842 110.472 451.699 110.988C452.53 111.506 453.459 111.847 454.429 111.988C455.397 112.065 456.368 112.092 457.339 112.068H468.489L502.169 112.148H511.319H513.699H514.509H513.699H511.319L502.169 112.198L468.489 112.278H457.339C456.338 112.31 455.337 112.287 454.339 112.208C452.777 111.997 451.318 111.306 450.165 110.232C449.012 109.157 448.22 107.751 447.899 106.208C447.75 105.152 447.699 104.084 447.749 103.018V99.8579C447.749 97.6979 447.749 95.5079 447.749 93.2779C447.749 88.8245 447.749 84.2479 447.749 79.5479C447.749 70.1479 447.749 60.2779 447.749 50.0479C447.749 44.9279 447.749 39.7245 447.749 34.4379V26.4379C447.749 25.0979 447.749 23.7779 447.749 22.4379C447.843 21.0329 448.328 19.6821 449.149 18.5379C450.34 16.8835 452.138 15.7687 454.149 15.4379C455.122 15.3321 456.101 15.2953 457.079 15.3279H492.999L493.079 15.4079C503.439 26.1279 513.219 36.2679 521.999 45.3179L522.059 45.3879V45.4679C522.059 66.8879 521.989 84.6079 521.969 96.9979C521.969 100.098 521.969 102.848 521.909 105.258C521.842 106.285 521.562 107.287 521.089 108.2C520.616 109.114 519.959 109.92 519.159 110.568C518.168 111.365 516.985 111.889 515.729 112.088C515.399 112.151 515.064 112.182 514.729 112.178C514.632 112.183 514.535 112.183 514.439 112.178Z" fill="#E0E0E0"/>
<path d="M521.839 45.47C521.653 45.515 521.461 45.5352 521.269 45.53L519.639 45.58L513.639 45.66H504.749H499.489C498.511 45.63 497.549 45.3998 496.664 44.9836C495.778 44.5673 494.987 43.9739 494.339 43.24C493.68 42.495 493.186 41.6192 492.889 40.67C492.619 39.7558 492.507 38.802 492.559 37.85C492.559 36.03 492.559 34.27 492.559 32.6C492.559 29.26 492.559 26.25 492.619 23.7C492.679 21.15 492.679 19.19 492.699 17.7C492.699 17.04 492.699 16.5 492.699 16.07C492.689 15.8786 492.705 15.6866 492.749 15.5C492.787 15.6876 492.804 15.8787 492.799 16.07L492.849 17.7C492.849 19.19 492.899 21.22 492.929 23.7C492.959 26.18 492.929 29.26 492.989 32.6C492.989 34.27 492.989 36.03 492.989 37.85C492.924 38.7516 493.037 39.6573 493.322 40.5152C493.607 41.3731 494.058 42.1665 494.649 42.85C495.249 43.53 495.982 44.0804 496.802 44.4673C497.622 44.8542 498.513 45.0695 499.419 45.1H504.669L513.559 45.16L519.559 45.24H521.189C521.413 45.2965 521.63 45.3735 521.839 45.47Z" fill="#E0E0E0"/>
<path d="M491.7 36.1291C491.7 36.2791 484.7 36.3891 476.11 36.3891C467.52 36.3891 460.51 36.2791 460.51 36.1291C460.51 35.9791 467.51 35.8691 476.11 35.8691C484.71 35.8691 491.7 35.9691 491.7 36.1291Z" fill="#E0E0E0"/>
<path d="M506.5 47.5998C506.5 47.7398 496.2 47.8598 483.5 47.8598C470.8 47.8598 460.5 47.7398 460.5 47.5998C460.5 47.4598 470.8 47.3398 483.5 47.3398C496.2 47.3398 506.5 47.4598 506.5 47.5998Z" fill="#E0E0E0"/>
<path d="M506.5 59.1291C506.5 59.2691 496.2 59.3891 483.5 59.3891C470.8 59.3891 460.5 59.2691 460.5 59.1291C460.5 58.9891 470.8 58.8691 483.5 58.8691C496.2 58.8691 506.5 58.9391 506.5 59.1291Z" fill="#E0E0E0"/>
<path d="M506.5 70.5686C506.5 70.7186 496.2 70.8286 483.5 70.8286C470.8 70.8286 460.5 70.7186 460.5 70.5686C460.5 70.4186 470.8 70.3086 483.5 70.3086C496.2 70.3086 506.5 70.4286 506.5 70.5686Z" fill="#E0E0E0"/>
<path d="M506.5 82.0588C506.5 82.2088 496.2 82.3188 483.5 82.3188C470.8 82.3188 460.5 82.2088 460.5 82.0588C460.5 81.9088 470.8 81.7988 483.5 81.7988C496.2 81.7988 506.5 81.9188 506.5 82.0588Z" fill="#E0E0E0"/>
<path d="M506.5 96.2288C506.5 96.3688 496.2 96.4888 483.5 96.4888C470.8 96.4888 460.5 96.3688 460.5 96.2288C460.5 96.0888 470.8 95.9688 483.5 95.9688C496.2 95.9688 506.5 96.1288 506.5 96.2288Z" fill="#E0E0E0"/>
<path d="M480.67 73.668H438.9C436.569 73.668 434.68 75.5573 434.68 77.888V92.008C434.68 94.3386 436.569 96.228 438.9 96.228H480.67C483 96.228 484.89 94.3386 484.89 92.008V77.888C484.89 75.5573 483 73.668 480.67 73.668Z" fill="#E0E0E0"/>
<path d="M454.309 84.1273C454.309 86.0273 452.879 87.2073 450.599 87.2073H448.889V89.5573H446.889V81.0273H450.569C452.879 81.0273 454.309 82.2073 454.309 84.1273ZM452.309 84.1273C452.309 83.1873 451.699 82.6473 450.499 82.6473H448.889V85.5973H450.499C451.699 85.5873 452.309 85.0473 452.309 84.1273Z" fill="black"/>
<path d="M455.709 81.0273H459.579C462.369 81.0273 464.279 82.7073 464.279 85.2873C464.279 87.8673 462.369 89.5473 459.579 89.5473H455.709V81.0273ZM459.479 87.9273C460.179 87.9273 460.851 87.6492 461.346 87.1541C461.841 86.659 462.119 85.9875 462.119 85.2873C462.119 84.5872 461.841 83.9157 461.346 83.4206C460.851 82.9255 460.179 82.6473 459.479 82.6473H457.679V87.9273H459.479Z" fill="black"/>
<path d="M467.74 82.6073V84.8573H471.68V86.4473H467.74V89.5473H465.74V81.0273H472.19V82.6073H467.74Z" fill="black"/>
<path d="M215.859 76.3281H247.799V21.2881L215.859 21.2881V76.3281Z" fill="#EBEBEB"/>
<path d="M126.77 77.1992H151.99V8.48922H126.77V77.1992Z" fill="#EBEBEB"/>
<path d="M126.48 13.4484C126.48 13.2384 132.24 13.0684 139.36 13.0684C146.48 13.0684 152.24 13.2384 152.24 13.4484C152.24 13.6584 146.47 13.8384 139.36 13.8384C132.25 13.8384 126.48 13.6684 126.48 13.4484Z" fill="#FAFAFA"/>
<path d="M127.869 16.7081C127.869 16.4981 133.329 16.3281 140.059 16.3281C146.789 16.3281 152.239 16.4981 152.239 16.7081C152.239 16.9181 146.779 17.0981 140.059 17.0981C133.339 17.0981 127.869 16.9181 127.869 16.7081Z" fill="#FAFAFA"/>
<path d="M138.659 63.65C138.449 63.65 138.279 54.55 138.279 43.33C138.279 32.11 138.449 23 138.659 23C138.869 23 138.999 32.13 138.999 43.33C138.999 54.53 138.869 63.65 138.659 63.65Z" fill="#FAFAFA"/>
<path d="M126.77 69.9388C126.77 69.7288 132.3 69.5488 139.11 69.5488C145.92 69.5488 151.46 69.7288 151.46 69.9388C151.46 70.1488 145.93 70.3188 139.11 70.3188C132.29 70.3188 126.77 70.1288 126.77 69.9388Z" fill="#FAFAFA"/>
<path d="M126.77 72.888C126.77 72.668 132.44 72.498 139.43 72.498C146.42 72.498 152.08 72.668 152.08 72.888C152.08 73.108 146.42 73.268 139.43 73.268C132.44 73.268 126.77 73.128 126.77 72.888Z" fill="#FAFAFA"/>
<path d="M151.98 77.1992H172.24V1.05922H151.98V77.1992Z" fill="#E0E0E0"/>
<path d="M151.85 36.0273C152.965 36.6501 154.02 37.3767 155 38.1973L162.31 43.7373L169.61 49.3073C170.664 50.0219 171.646 50.8392 172.54 51.7473C171.391 51.1929 170.302 50.5228 169.29 49.7473C167.35 48.4273 164.7 46.5373 161.85 44.3573C159 42.1773 156.46 40.1473 154.66 38.6273C153.634 37.8621 152.692 36.9906 151.85 36.0273Z" fill="#FAFAFA"/>
<path d="M151.759 24.1299C151.889 23.9699 156.539 27.7199 162.119 32.5099C167.699 37.2999 172.119 41.3099 171.989 41.5099C171.859 41.7099 167.209 37.9199 161.629 33.1299C156.049 28.3399 151.619 24.2699 151.759 24.1299Z" fill="#FAFAFA"/>
<path d="M63.9194 77.2578H73.6094L73.6094 4.72781H63.9194L63.9194 77.2578Z" fill="#EBEBEB"/>
<path d="M64.3301 14.5984C64.3301 14.8484 66.3301 15.0584 68.8701 15.0584C71.4101 15.0584 73.4101 14.8484 73.4101 14.5984C73.4101 14.3484 71.4101 14.1484 68.8701 14.1484C66.3301 14.1484 64.3301 14.3484 64.3301 14.5984Z" fill="#FAFAFA"/>
<path d="M64.1289 13.0184C64.1289 13.2784 66.1289 13.4784 68.6689 13.4784C71.2089 13.4784 73.2089 13.2784 73.2089 13.0184C73.2089 12.7584 71.2089 12.5684 68.6689 12.5684C66.1289 12.5684 64.1289 12.7684 64.1289 13.0184Z" fill="#FAFAFA"/>
<path d="M64.3301 71.6475C64.3301 71.8975 66.3301 72.0975 68.8701 72.0975C71.4101 72.0975 73.4101 71.8975 73.4101 71.6475C73.4101 71.3975 71.4101 71.1875 68.8701 71.1875C66.3301 71.1875 64.3301 71.3875 64.3301 71.6475Z" fill="#FAFAFA"/>
<path d="M64.1289 70.0694C64.1289 70.3194 66.1289 70.5194 68.6689 70.5194C71.2089 70.5194 73.2089 70.3194 73.2089 70.0694C73.2089 69.8194 71.2089 69.6094 68.6689 69.6094C66.1289 69.6094 64.1289 69.8194 64.1289 70.0694Z" fill="#FAFAFA"/>
<path d="M69.0594 60.5885C69.3194 60.5885 69.5194 52.2885 69.5194 42.0385C69.5194 31.7885 69.3194 23.4785 69.0594 23.4785C68.7994 23.4785 68.6094 31.7885 68.6094 42.0385C68.6094 52.2885 68.8094 60.5885 69.0594 60.5885Z" fill="#FAFAFA"/>
<path d="M107.35 76.7891H126.73L126.73 4.25906H107.35L107.35 76.7891Z" fill="#E0E0E0"/>
<path d="M121.279 77.7175C121.369 77.5971 121.443 77.4661 121.499 77.3275C121.639 77.0575 121.829 76.6575 122.059 76.1175C122.724 74.5404 123.194 72.8883 123.459 71.1975C123.956 68.4788 123.559 65.6725 122.329 63.1975C121.512 61.6737 120.334 60.3727 118.899 59.4075C117.258 58.3047 115.267 57.8487 113.309 58.1275C112.245 58.2951 111.247 58.7556 110.429 59.4575C109.976 59.8222 109.611 60.2856 109.363 60.8123C109.116 61.3391 108.991 61.9154 108.999 62.4975C109.049 63.0975 109.222 63.6809 109.508 64.2109C109.793 64.7409 110.185 65.2062 110.659 65.5775C111.591 66.3695 112.742 66.858 113.959 66.9775C115.217 67.0782 116.481 66.907 117.667 66.4756C118.852 66.0442 119.931 65.3628 120.829 64.4775C122.782 62.638 123.994 60.1485 124.239 57.4775C124.514 54.74 124.172 51.9758 123.239 49.3875C122.382 46.6168 120.73 44.1586 118.489 42.3175C117.289 41.3683 115.835 40.7944 114.309 40.6675C113.52 40.6022 112.726 40.7088 111.982 40.9798C111.238 41.2509 110.562 41.6799 109.999 42.2375C109.406 42.8508 109.052 43.6558 108.999 44.5075C108.978 45.3502 109.211 46.1799 109.669 46.8875C110.576 48.2498 111.979 49.2042 113.579 49.5475C115.127 49.8529 116.728 49.7497 118.224 49.2482C119.719 48.7467 121.059 47.8642 122.109 46.6875C124.056 44.3892 125.222 41.5317 125.439 38.5275C125.767 35.6766 125.481 32.7885 124.599 30.0575C123.758 27.3812 121.984 25.0959 119.599 23.6175C118.468 22.8901 117.182 22.4387 115.845 22.2997C114.507 22.1608 113.156 22.3381 111.899 22.8175C111.265 23.0564 110.703 23.4524 110.264 23.9684C109.825 24.4844 109.524 25.1035 109.389 25.7675C109.277 26.4059 109.298 27.0608 109.451 27.6908C109.604 28.3207 109.886 28.9121 110.279 29.4275C111.071 30.331 112.116 30.9761 113.278 31.2791C114.441 31.5822 115.667 31.5294 116.799 31.1275C118.842 30.4357 120.646 29.1766 121.999 27.4975C124.354 24.7008 125.712 21.2005 125.859 17.5475C125.925 14.8048 125.285 12.0913 123.999 9.6675C123.231 8.14235 122.218 6.75384 120.999 5.5575C120.682 5.2493 120.349 4.95886 119.999 4.6875C119.885 4.58682 119.757 4.50266 119.619 4.4375C121.302 5.96583 122.685 7.79354 123.699 9.8275C124.874 12.2179 125.425 14.8669 125.299 17.5275C125.113 21.0635 123.763 24.4387 121.459 27.1275C120.19 28.6938 118.506 29.8719 116.599 30.5275C115.602 30.8684 114.526 30.9069 113.506 30.6383C112.487 30.3696 111.57 29.8058 110.869 29.0175C110.547 28.5857 110.316 28.0921 110.192 27.5674C110.068 27.0427 110.054 26.4981 110.149 25.9675C110.265 25.4306 110.514 24.9316 110.874 24.5172C111.234 24.1028 111.694 23.7863 112.209 23.5975C113.357 23.1732 114.588 23.0236 115.803 23.1608C117.019 23.298 118.185 23.7181 119.209 24.3875C121.413 25.7729 123.049 27.9012 123.819 30.3875C124.645 32.996 124.907 35.75 124.589 38.4675C124.373 41.2907 123.266 43.9725 121.429 46.1275C120.483 47.1811 119.281 47.973 117.939 48.4267C116.597 48.8804 115.161 48.9805 113.769 48.7175C112.403 48.4252 111.204 47.6107 110.429 46.4475C110.048 45.9269 109.86 45.2892 109.898 44.6446C109.936 44.0001 110.199 43.3892 110.639 42.9175C111.117 42.4528 111.69 42.0983 112.319 41.8789C112.947 41.6595 113.617 41.5805 114.279 41.6475C115.63 41.7569 116.918 42.2651 117.979 43.1075C120.084 44.8386 121.637 47.1463 122.449 49.7475C123.349 52.2119 123.69 54.8452 123.449 57.4575C123.233 59.9254 122.124 62.2296 120.329 63.9375C119.519 64.7531 118.542 65.3844 117.465 65.7882C116.388 66.192 115.237 66.3589 114.089 66.2775C111.959 66.0975 109.879 64.4775 109.749 62.5175C109.734 62.0382 109.828 61.5617 110.026 61.1247C110.224 60.6878 110.519 60.3021 110.889 59.9975C111.609 59.3703 112.488 58.9549 113.429 58.7975C115.235 58.5325 117.075 58.9496 118.589 59.9675C119.964 60.8623 121.097 62.0815 121.889 63.5175C123.089 65.8617 123.517 68.5257 123.109 71.1275C122.883 72.8005 122.474 74.4437 121.889 76.0275C121.657 76.58 121.454 77.144 121.279 77.7175Z" fill="#FAFAFA"/>
<path d="M73.4698 76.8184H107.09L107.09 10.7584H73.4698V76.8184Z" fill="#FAFAFA"/>
<path d="M74.6191 21.7373C74.6191 21.9873 81.8991 22.1973 90.8891 22.1973C99.8791 22.1973 107.159 21.9873 107.159 21.7373C107.159 21.4873 99.8791 21.2773 90.8891 21.2773C81.8991 21.2773 74.6191 21.4873 74.6191 21.7373Z" fill="#E0E0E0"/>
<path d="M74.1992 26.7491C74.1992 26.9991 81.3892 27.1991 90.2592 27.1991C99.1292 27.1991 106.329 26.9991 106.329 26.7491C106.329 26.4991 99.1392 26.2891 90.2592 26.2891C81.3792 26.2891 74.1992 26.4991 74.1992 26.7491Z" fill="#E0E0E0"/>
<path d="M73.1191 69.3484C73.1191 69.6084 80.6891 69.8084 90.0391 69.8084C99.3891 69.8084 106.949 69.6084 106.949 69.3484C106.949 69.0884 99.3791 68.8984 90.0391 68.8984C80.6991 68.8984 73.1191 69.1284 73.1191 69.3484Z" fill="#E0E0E0"/>
<path d="M73.5703 63.4678C73.5703 63.7178 80.9503 63.9178 90.0503 63.9178C99.1503 63.9178 106.54 63.7178 106.54 63.4678C106.54 63.2178 99.1603 63.0078 90.0503 63.0078C80.9403 63.0078 73.5703 63.2178 73.5703 63.4678Z" fill="#E0E0E0"/>
<path d="M172.21 76.3281H191.59V3.79813H172.21V76.3281Z" fill="#EBEBEB"/>
<path d="M186.15 77.26C186.237 77.1349 186.311 77.0008 186.37 76.86C186.51 76.6 186.7 76.19 186.92 75.65C187.589 74.0772 188.063 72.4282 188.33 70.74C188.825 68.0212 188.428 65.2154 187.2 62.74C186.376 61.2174 185.196 59.917 183.76 58.95C182.126 57.8391 180.138 57.3725 178.18 57.64C177.112 57.8078 176.112 58.2682 175.29 58.97C174.84 59.3398 174.482 59.8082 174.243 60.3389C174.003 60.8696 173.89 61.4482 173.91 62.03C173.957 62.6325 174.128 63.2188 174.412 63.7522C174.695 64.2856 175.086 64.7547 175.56 65.13C176.493 65.9275 177.648 66.4197 178.87 66.54C180.127 66.6374 181.391 66.4647 182.576 66.0335C183.76 65.6023 184.839 64.9226 185.74 64.04C187.684 62.1956 188.892 59.7082 189.14 57.04C189.414 54.3025 189.072 51.5384 188.14 48.95C187.273 46.1839 185.623 43.7282 183.39 41.88C182.186 40.9315 180.728 40.3609 179.2 40.24C178.406 40.1587 177.604 40.2546 176.852 40.5209C176.1 40.7873 175.416 41.2173 174.85 41.78C174.251 42.3892 173.895 43.1966 173.85 44.05C173.822 44.889 174.052 45.7165 174.51 46.42C175.414 47.7995 176.82 48.7718 178.43 49.13C179.987 49.4329 181.597 49.3247 183.099 48.8162C184.602 48.3077 185.947 47.4163 187 46.23C188.944 43.9269 190.106 41.0662 190.32 38.06C190.651 35.2131 190.368 32.3283 189.49 29.6C188.65 26.9229 186.876 24.6371 184.49 23.16C183.363 22.4288 182.078 21.9743 180.742 21.8336C179.406 21.6928 178.055 21.8698 176.8 22.35C176.163 22.599 175.6 23.0044 175.161 23.5287C174.722 24.053 174.423 24.6794 174.29 25.35C174.178 25.9862 174.198 26.6387 174.35 27.2667C174.501 27.8947 174.78 28.4847 175.17 29C175.963 29.9051 177.008 30.5531 178.171 30.8613C179.334 31.1694 180.563 31.1237 181.7 30.73C183.73 30.0255 185.517 28.7557 186.85 27.07C189.191 24.2716 190.538 20.7758 190.68 17.13C190.753 14.903 190.361 12.6853 189.527 10.6189C188.694 8.55249 187.438 6.68294 185.84 5.13C185.523 4.82142 185.189 4.53095 184.84 4.26C184.726 4.16102 184.602 4.07391 184.47 4C186.154 5.53744 187.547 7.36689 188.58 9.4C189.756 11.7864 190.307 14.4325 190.18 17.09C189.984 20.6106 188.631 23.9679 186.33 26.64C185.065 28.2136 183.38 29.396 181.47 30.05C180.474 30.3887 179.4 30.4261 178.382 30.1576C177.365 29.889 176.449 29.3263 175.75 28.54C175.425 28.1093 175.193 27.6158 175.069 27.0907C174.945 26.5656 174.932 26.0205 175.03 25.49C175.144 24.9553 175.392 24.4583 175.75 24.0455C176.109 23.6327 176.566 23.3177 177.08 23.13C178.218 22.7085 179.439 22.5604 180.644 22.6976C181.85 22.8349 183.006 23.2536 184.02 23.92C186.231 25.3002 187.871 27.4301 188.64 29.92C189.466 32.5319 189.728 35.2892 189.41 38.01C189.199 40.8224 188.111 43.4978 186.3 45.66C185.352 46.7119 184.15 47.5018 182.808 47.9537C181.466 48.4057 180.031 48.5042 178.64 48.24C177.276 47.9472 176.079 47.1371 175.3 45.98C174.919 45.4571 174.732 44.8181 174.77 44.1723C174.809 43.5266 175.07 42.9142 175.51 42.44C175.984 41.9712 176.554 41.6112 177.181 41.385C177.807 41.1587 178.476 41.0717 179.14 41.13C180.494 41.2462 181.784 41.7574 182.85 42.6C184.947 44.3339 186.499 46.636 187.32 49.23C188.219 51.6979 188.561 54.3344 188.32 56.95C188.099 59.4167 186.991 61.7194 185.2 63.43C184.393 64.2386 183.422 64.8649 182.352 65.2668C181.283 65.6687 180.14 65.8369 179 65.76C176.87 65.59 174.79 63.96 174.66 62C174.643 61.5215 174.736 61.0455 174.932 60.6086C175.128 60.1718 175.421 59.7856 175.79 59.48C176.516 58.8563 177.397 58.4416 178.34 58.28C180.145 58.0265 181.981 58.4427 183.5 59.45C184.869 60.351 186.001 61.5687 186.8 63C188.003 65.3718 188.424 68.0643 188 70.69C187.773 72.364 187.361 74.0075 186.77 75.59C186.531 76.1341 186.324 76.6918 186.15 77.26Z" fill="#FAFAFA"/>
<path d="M36.9899 76.3281H63.9199L63.9199 0.128128H36.9899L36.9899 76.3281Z" fill="#E0E0E0"/>
<path d="M191.589 76.3281H216.779V8.49812H191.589V76.3281Z" fill="#E0E0E0"/>
<path d="M217.42 42.3183C218.635 43.4237 219.978 44.3805 221.42 45.1683C223.006 45.9511 224.727 46.4261 226.49 46.5683C228.645 46.7334 230.806 46.3588 232.78 45.4783C234.9 44.5683 236.85 43.4083 238.78 42.7183C240.522 42.0202 242.43 41.8464 244.27 42.2183C245.523 42.4857 246.654 43.1566 247.49 44.1283C247.812 44.4625 248.031 44.8827 248.12 45.3383C248.05 45.3383 247.86 44.9183 247.27 44.3383C246.423 43.5132 245.352 42.9565 244.19 42.7383C242.454 42.4625 240.675 42.6844 239.06 43.3783C237.19 44.0583 235.27 45.2283 233.06 46.1783C230.976 47.1013 228.69 47.4765 226.42 47.2683C224.575 47.0849 222.786 46.5305 221.16 45.6383C220.069 45.0462 219.077 44.2871 218.22 43.3883C217.892 43.0817 217.621 42.7194 217.42 42.3183Z" fill="#FAFAFA"/>
<path d="M216.85 49.0284C218.068 50.1307 219.41 51.0872 220.85 51.8784C222.435 52.6647 224.156 53.1431 225.92 53.2884C228.075 53.4449 230.235 53.0671 232.21 52.1884C234.33 51.2784 236.28 50.1184 238.21 49.4384C239.949 48.7298 241.861 48.5557 243.7 48.9384C244.939 49.218 246.055 49.8916 246.88 50.8584C247.205 51.1931 247.421 51.6185 247.5 52.0784C247.44 52.0784 247.25 51.6584 246.65 51.0784C245.806 50.255 244.738 49.6985 243.58 49.4784C241.843 49.2075 240.066 49.4293 238.45 50.1184C236.57 50.8084 234.66 51.9684 232.45 52.9184C230.363 53.8457 228.073 54.2211 225.8 54.0084C223.954 53.8283 222.164 53.2737 220.54 52.3784C219.468 51.7873 218.499 51.0276 217.67 50.1284C217.328 49.8179 217.05 49.4444 216.85 49.0284Z" fill="#FAFAFA"/>
<path d="M217.27 27.308C217.27 27.098 224.2 26.918 232.75 26.918C241.3 26.918 248.24 27.098 248.24 27.308C248.24 27.518 241.31 27.688 232.75 27.688C224.19 27.688 217.27 27.518 217.27 27.308Z" fill="#FAFAFA"/>
<path d="M205.859 19.4176C205.166 19.1309 204.4 19.0679 203.669 19.2376C203.306 19.3392 202.969 19.5177 202.681 19.7609C202.393 20.0042 202.16 20.3066 201.999 20.6476C201.872 21.0769 201.866 21.5329 201.981 21.9655C202.096 22.3982 202.328 22.7908 202.651 23.1006C202.974 23.4104 203.376 23.6252 203.813 23.7217C204.25 23.8182 204.706 23.7926 205.129 23.6476C205.465 23.4671 205.759 23.2165 205.99 22.9129C206.221 22.6093 206.385 22.2597 206.469 21.8876C206.605 21.1514 206.514 20.3913 206.209 19.7076C206.209 19.7076 206.449 19.7976 206.689 20.1776C206.998 20.7272 207.111 21.3655 207.009 21.9876C206.941 22.4642 206.763 22.9185 206.491 23.3156C206.219 23.7127 205.859 24.0418 205.439 24.2776C204.884 24.5079 204.273 24.5711 203.682 24.4594C203.091 24.3476 202.545 24.0659 202.112 23.6486C201.679 23.2314 201.377 22.6968 201.243 22.1105C201.11 21.5241 201.15 20.9115 201.359 20.3476C201.576 19.9195 201.89 19.5476 202.275 19.2613C202.66 18.975 203.107 18.782 203.579 18.6976C204.2 18.57 204.846 18.6582 205.409 18.9476C205.749 19.1776 205.879 19.3876 205.859 19.4176Z" fill="#FAFAFA"/>
<path d="M204.23 69.5286C204.02 69.5286 203.84 60.0286 203.84 48.2986C203.84 36.5686 204.02 27.0586 204.23 27.0586C204.44 27.0586 204.61 36.5686 204.61 48.2986C204.61 60.0286 204.44 69.5286 204.23 69.5286Z" fill="#FAFAFA"/>
<path d="M274.11 75.9375H13.4297V90.8175H274.11V75.9375Z" fill="#EBEBEB"/>
<path d="M274.11 75.9375H251.35V90.8175H274.11V75.9375Z" fill="#E0E0E0"/>
<path d="M287.219 74.7987L285.999 177.209C285.789 194.629 288.999 220.209 316.579 219.339C340.419 216.739 346.749 194.169 346.929 177.919C347.019 170.209 347.109 163.779 347.169 162.989C347.169 162.989 373.269 160.859 375.469 135.079C376.539 122.619 376.639 96.7787 376.469 73.4087C376.371 61.2991 371.717 49.6703 363.435 40.8356C355.152 32.0009 343.847 26.6077 331.769 25.7287L329.289 25.5487C302.259 25.1287 286.869 47.8387 287.219 74.7987Z" fill="#FFBE9D"/>
<path d="M347.12 162.988C347.12 162.988 330.78 162.758 314.25 150.598C314.25 150.598 321.07 170.048 346.98 169.598L347.12 162.988Z" fill="#EB996E"/>
<path d="M332.338 83.9682C331.828 84.4882 328.848 82.0982 324.528 81.9682C320.208 81.8382 316.988 83.9682 316.528 83.4182C316.308 83.1682 316.838 82.2182 318.248 81.2282C320.142 79.9585 322.39 79.3213 324.668 79.4082C326.925 79.465 329.101 80.2548 330.868 81.6582C332.168 82.7582 332.588 83.7382 332.338 83.9682Z" fill="#263238"/>
<path d="M331.43 92.9084C331.37 93.8173 330.959 94.6674 330.283 95.278C329.607 95.8885 328.72 96.2116 327.81 96.1784C327.364 96.1798 326.922 96.0922 326.511 95.9207C326.099 95.7492 325.726 95.4973 325.413 95.1797C325.1 94.8621 324.854 94.4852 324.688 94.0711C324.523 93.6571 324.442 93.2142 324.45 92.7684C324.507 91.8603 324.916 91.0103 325.59 90.3995C326.264 89.7887 327.15 89.4653 328.06 89.4984C328.506 89.4957 328.949 89.5823 329.362 89.7532C329.775 89.9241 330.149 90.1758 330.463 90.4935C330.777 90.8113 331.024 91.1886 331.19 91.6033C331.356 92.018 331.438 92.4618 331.43 92.9084Z" fill="#263238"/>
<path d="M343.158 114.02C343.158 113.79 345.648 113.54 349.678 113.33C350.678 113.33 351.678 113.16 351.898 112.49C352.118 111.82 351.898 110.65 351.438 109.49C350.668 106.97 349.858 104.32 349.008 101.56C345.648 90.2698 343.298 81.0298 343.758 80.8998C344.218 80.7698 347.298 89.7998 350.658 101.09C351.458 103.87 352.225 106.536 352.958 109.09C353.258 110.27 353.818 111.62 353.198 113.09C353.025 113.437 352.774 113.74 352.466 113.976C352.157 114.211 351.799 114.374 351.418 114.45C350.848 114.559 350.268 114.599 349.688 114.57C345.648 114.41 343.158 114.24 343.158 114.02Z" fill="#263238"/>
<path d="M330.5 67.728C330.08 68.728 326.63 67.968 322.5 68.178C318.37 68.388 314.95 69.308 314.5 68.388C314.29 67.948 314.93 67.058 316.34 66.208C318.192 65.1575 320.272 64.5708 322.4 64.498C324.522 64.3871 326.638 64.8028 328.56 65.708C330 66.448 330.68 67.278 330.5 67.728Z" fill="#263238"/>
<path d="M371.519 75.7392C371.069 76.5192 367.699 75.6492 363.609 75.5192C359.519 75.3892 356.139 75.9192 355.709 75.0992C355.519 74.7192 356.189 74.0192 357.619 73.3992C359.522 72.6302 361.57 72.2888 363.619 72.3992C365.702 72.4572 367.748 72.9619 369.619 73.8792C371.069 74.6092 371.719 75.3592 371.519 75.7392Z" fill="#263238"/>
<path d="M287.94 94.0586C287.51 93.8386 270.59 87.5186 269.86 105.199C269.13 122.879 287.04 119.969 287.09 119.459C287.14 118.949 287.94 94.0586 287.94 94.0586Z" fill="#FFBE9D"/>
<path d="M281.999 112.54C281.919 112.48 281.679 112.74 281.149 112.96C280.408 113.26 279.579 113.26 278.839 112.96C276.999 112.2 275.549 109.17 275.599 105.96C275.604 104.444 275.945 102.948 276.599 101.58C276.78 101.03 277.094 100.534 277.513 100.135C277.931 99.7358 278.442 99.4455 278.999 99.2896C279.356 99.2103 279.73 99.2577 280.057 99.4237C280.383 99.5897 280.642 99.864 280.789 100.2C281.009 100.71 280.879 101.06 280.969 101.09C281.059 101.12 281.359 100.81 281.249 100.09C281.164 99.6509 280.935 99.2531 280.599 98.9596C280.126 98.57 279.518 98.3831 278.909 98.4396C278.177 98.5553 277.488 98.8557 276.905 99.3125C276.322 99.7692 275.866 100.367 275.579 101.05C274.77 102.551 274.334 104.225 274.309 105.93C274.309 109.5 275.969 112.93 278.489 113.75C278.958 113.91 279.457 113.962 279.949 113.902C280.441 113.841 280.913 113.669 281.329 113.4C281.919 112.97 281.999 112.57 281.999 112.54Z" fill="#EB996E"/>
<path d="M338.999 126.259C339.189 125.809 335.719 124.779 333.289 121.529C332.274 120.103 331.45 118.55 330.839 116.909C330.329 115.629 329.939 114.819 329.739 114.909C329.539 114.999 329.609 115.829 329.889 117.229C330.263 119.098 331.041 120.863 332.169 122.399C333.332 123.944 334.895 125.14 336.689 125.859C337.999 126.379 338.939 126.409 338.999 126.259Z" fill="#263238"/>
<path d="M410.648 50.2586C410.326 49.2174 409.608 48.3446 408.648 47.8286C406.648 46.6286 404.308 46.8286 402.058 46.7586C395.174 46.623 388.462 44.5806 382.668 40.8586C379.969 36.978 376.959 33.3227 373.668 29.9286C365.848 21.8686 359.418 16.3886 352.768 13.7086C344.168 10.2486 329.768 8.83862 320.768 11.1986C311.768 13.5586 303.768 20.8286 302.498 30.0186C297.498 25.7686 289.908 25.7986 283.788 28.2586L283.628 28.1986C276.868 30.6286 272.998 37.8386 270.998 44.7986C268.998 51.7586 268.128 59.1986 264.438 65.4286C263.668 66.7386 262.758 68.2986 263.438 69.6586C263.746 70.1557 264.198 70.5473 264.734 70.7813C265.27 71.0153 265.864 71.0806 266.438 70.9686C267.587 70.7166 268.671 70.226 269.618 69.5286L267.338 74.9986C269.817 75.4141 272.358 75.2428 274.758 74.4986C276.208 81.0086 277.938 88.4386 279.608 92.8486C282.468 92.8486 285.078 93.0486 286.838 94.6286C289.218 96.7786 290.288 100.819 294.258 99.2886C296.258 98.4986 298.128 94.2886 298.808 92.1986C303.301 78.4794 304.785 63.9529 303.158 49.6086C306 46.5903 309.394 44.146 313.158 42.4086L312.858 42.6786C320.058 40.1786 328.208 37.6786 335.048 41.0986C340.348 43.7186 343.468 49.2286 347.428 53.6186C351.089 57.6705 355.533 60.9395 360.491 63.2286C365.449 65.5178 370.819 66.7798 376.278 66.9386C376.658 74.1986 376.048 84.4586 376.428 91.7186L382.508 80.1286C383.008 79.2786 383.428 78.4186 383.828 77.5586L383.968 77.2986C384.571 75.8739 385.249 74.482 385.998 73.1286L386.068 73.1886C389.998 76.6586 395.798 71.3486 392.688 67.1186C392.073 66.2797 391.334 65.538 390.498 64.9186C391.388 65.7791 392.486 66.3944 393.685 66.7046C394.884 67.0148 396.142 67.0093 397.338 66.6886C398.523 66.3292 399.556 65.5901 400.279 64.5854C401.002 63.5806 401.374 62.3659 401.338 61.1286C401.242 60.2933 400.927 59.4981 400.425 58.8238C399.923 58.1494 399.251 57.6198 398.478 57.2886C401.675 57.5468 404.877 56.8508 407.678 55.2886C409.478 54.2486 411.268 52.5486 410.648 50.2586Z" fill="#263238"/>
<path d="M310.669 32.9785C309.748 33.6962 308.886 34.4853 308.089 35.3385C306.034 37.7991 304.655 40.7528 304.089 43.9085C303.646 46.0636 303.425 48.2584 303.429 50.4585C303.429 52.8385 303.609 55.3785 303.789 58.0585C304.034 60.8715 304.101 63.6971 303.989 66.5185C303.904 68.0178 303.707 69.5086 303.399 70.9785C303.174 72.5542 302.547 74.0454 301.579 75.3085C301.134 75.7973 300.572 76.1655 299.946 76.3788C299.32 76.5921 298.65 76.6436 297.999 76.5285C296.735 76.2882 295.586 75.638 294.729 74.6785C293.069 72.7385 292.659 70.2885 292.239 68.1185L292.789 68.1885C292.005 70.1287 290.947 71.947 289.649 73.5885C288.395 75.1067 286.604 76.0842 284.649 76.3185C283.737 76.4173 282.815 76.2579 281.989 75.8585C281.224 75.4598 280.596 74.8394 280.189 74.0785C279.801 73.3793 279.611 72.5877 279.639 71.7885C279.671 71.0447 279.965 70.3362 280.469 69.7885L280.739 70.0285C279.201 71.7842 277.314 73.2008 275.199 74.1885C274.639 74.4411 274.065 74.6615 273.479 74.8485C273.283 74.9246 273.078 74.975 272.869 74.9985C273.056 74.904 273.25 74.8238 273.449 74.7585C273.829 74.5985 274.399 74.3685 275.109 74.0085C277.157 72.9736 278.976 71.5387 280.459 69.7885L280.729 70.0285C280.309 70.5731 280.067 71.2343 280.036 71.9216C280.006 72.6089 280.189 73.2889 280.559 73.8685C280.935 74.5456 281.506 75.093 282.199 75.4385C282.95 75.7917 283.785 75.9268 284.609 75.8285C286.434 75.5938 288.099 74.6665 289.259 73.2385C290.508 71.6284 291.518 69.8467 292.259 67.9485L292.639 67.1185L292.809 68.0185C293.219 70.1785 293.659 72.5385 295.169 74.2785C295.937 75.1386 296.967 75.7219 298.099 75.9385C298.658 76.0542 299.238 76.0229 299.781 75.8476C300.324 75.6724 300.813 75.3591 301.199 74.9385C302.083 73.7659 302.661 72.3909 302.879 70.9385C303.18 69.4981 303.374 68.0375 303.459 66.5685C303.573 63.7745 303.52 60.9762 303.299 58.1885C303.129 55.5085 302.959 52.9485 302.989 50.5485C303.005 48.3155 303.253 46.0902 303.729 43.9085C304.336 40.7091 305.785 37.7297 307.929 35.2785C308.703 34.3592 309.63 33.581 310.669 32.9785Z" fill="#455A64"/>
<path d="M390.448 58.0685C390.448 58.0685 390.388 58.1385 390.248 58.2485L389.598 58.7185C389.251 58.9762 388.887 59.2101 388.508 59.4185C388.003 59.7247 387.478 59.9985 386.938 60.2385C383.494 61.8057 379.714 62.493 375.938 62.2385C370.305 61.8652 364.901 59.8681 360.378 56.4885C355.228 52.7885 350.698 47.3285 347.008 41.0785C345.128 37.9585 343.598 34.7585 341.918 31.7985C340.378 28.921 338.435 26.2778 336.148 23.9485C334.087 21.8479 331.533 20.2974 328.718 19.4385C327.443 19.0848 326.12 18.933 324.798 18.9885C323.579 19.053 322.374 19.2852 321.218 19.6785C317.671 20.8835 314.711 23.3836 312.928 26.6785C312.337 27.9126 311.89 29.2113 311.598 30.5485C311.587 30.4588 311.587 30.3681 311.598 30.2785C311.598 30.0585 311.668 29.7985 311.718 29.4885C311.933 28.4784 312.268 27.4979 312.718 26.5685C313.458 25.1136 314.434 23.7922 315.608 22.6585C317.166 21.1454 319.032 19.9858 321.078 19.2585C322.272 18.8426 323.517 18.5903 324.778 18.5085C326.153 18.4399 327.53 18.5884 328.858 18.9485C331.764 19.8077 334.405 21.3865 336.538 23.5385C338.881 25.9036 340.866 28.5988 342.428 31.5385C344.138 34.5385 345.668 37.7085 347.528 40.7985C351.188 46.9985 355.648 52.3985 360.708 56.0685C365.138 59.4124 370.434 61.415 375.968 61.8385C379.695 62.1408 383.439 61.5334 386.878 60.0685C388.107 59.4728 389.299 58.805 390.448 58.0685Z" fill="#455A64"/>
<path d="M392.8 46.7388C392.525 46.9942 392.215 47.2097 391.88 47.3788C391.006 47.916 390.089 48.3809 389.14 48.7688C387.737 49.3706 386.285 49.8491 384.8 50.1988C382.98 50.6136 381.125 50.858 379.26 50.9288C377.388 50.9816 375.517 50.8544 373.67 50.5488C372.169 50.2973 370.694 49.9159 369.26 49.4088C368.288 49.076 367.342 48.6715 366.43 48.1988C366.071 48.0519 365.735 47.8567 365.43 47.6188C365.43 47.5088 366.9 48.2488 369.35 49.0088C370.78 49.4481 372.241 49.7823 373.72 50.0088C375.535 50.2629 377.367 50.37 379.2 50.3288C381.028 50.2567 382.848 50.0326 384.64 49.6588C386.102 49.3374 387.539 48.9096 388.94 48.3788C391.37 47.4588 392.74 46.6388 392.8 46.7388Z" fill="#455A64"/>
<path d="M371.719 85.599C371.199 86.119 368.229 83.719 363.909 83.599C359.589 83.479 356.359 85.599 355.909 85.049C355.689 84.799 356.219 83.839 357.629 82.859C359.521 81.5845 361.769 80.9437 364.049 81.029C366.303 81.0929 368.475 81.8859 370.239 83.289C371.539 84.379 371.999 85.369 371.719 85.599Z" fill="#263238"/>
<path d="M367.309 94.1282C367.252 95.0381 366.841 95.8896 366.165 96.5007C365.488 97.1118 364.6 97.434 363.689 97.3982C363.243 97.401 362.802 97.3146 362.39 97.1442C361.979 96.9738 361.606 96.7228 361.292 96.406C360.979 96.0892 360.733 95.713 360.567 95.2995C360.402 94.886 360.321 94.4436 360.329 93.9982C360.395 93.0848 360.817 92.2336 361.502 91.6264C362.188 91.0192 363.084 90.704 363.999 90.7482C364.885 90.7588 365.732 91.1205 366.352 91.7541C366.973 92.3877 367.317 93.2415 367.309 94.1282Z" fill="#263238"/>
<path d="M528.42 188.448C528.42 180.958 521.26 180.958 521.26 180.958C518.53 177.368 515.46 178.678 515.46 178.678L503.87 186.488C502.17 189.418 490.92 200.488 490.92 200.488C487.85 198.208 487.85 193.648 484.18 188.108C480.51 182.568 472.18 183.228 472.18 183.228C472.18 183.228 478.66 197.878 479.34 206.998C480.02 216.118 474.34 241.558 474.34 241.558L507.11 250.768C507.11 250.768 509.18 236.768 512.85 235.688C517.27 234.328 519.73 227.808 519.73 227.808C524.5 218.138 534.2 204.068 535.57 196.908C536.94 189.748 528.42 188.448 528.42 188.448Z" fill="#FFBE9D"/>
<path d="M284.75 172.25C305.62 185.36 326.65 190.25 347.95 181.8L379.95 189.98L411.45 400.48L226.76 402.13L235.86 353.24L258.76 177.59L284.75 172.25Z" fill="#455A64"/>
<path d="M380 189.979C380 189.979 404.9 200.329 414.41 218.439C423.92 236.549 439.19 287.439 439.19 287.439L467.34 235.759L519.55 249.129C519.55 249.129 480.67 356.369 470.91 366.129C460.22 376.819 431.1 387.599 416.84 379.279C402.58 370.958 399.68 339.389 399.68 339.389L380 189.979Z" fill="#455A64"/>
<path d="M381.69 278.018C381.55 278.018 381.43 268.678 381.43 257.148C381.43 245.618 381.55 236.258 381.69 236.258C381.83 236.258 381.95 245.608 381.95 257.148C381.95 268.688 381.84 278.018 381.69 278.018Z" fill="#263238"/>
<path d="M391.439 202.008C391.11 203.182 390.706 204.335 390.229 205.458C389.449 207.568 388.399 210.458 387.389 213.788C386.379 217.118 385.569 220.088 385.019 222.268C384.782 223.464 384.468 224.643 384.079 225.798C384.061 225.461 384.095 225.124 384.179 224.798C384.269 224.178 384.439 223.278 384.669 222.168C385.119 219.958 385.869 216.918 386.889 213.618C387.909 210.318 389.009 207.388 389.889 205.308C390.319 204.308 390.689 203.428 390.969 202.858C391.09 202.556 391.248 202.271 391.439 202.008Z" fill="#263238"/>
<path d="M255.379 256.359L261.159 177.049C261.159 177.049 217.679 181.049 203.289 211.759C191.169 237.609 157.699 315.379 154.119 326.019C143.599 357.239 159.999 400.129 227.729 397.679L235.449 355.229L255.379 256.359Z" fill="#455A64"/>
<path d="M206.699 364.129C206.789 363.864 206.906 363.609 207.049 363.369L208.149 361.239C209.149 359.349 210.569 356.689 212.299 353.429L213.689 350.849C214.164 349.864 214.846 348.994 215.689 348.299C216.665 347.605 217.843 347.254 219.039 347.299C220.258 347.354 221.467 347.552 222.639 347.889C225.156 348.548 227.596 349.47 229.919 350.639C231.158 351.252 232.328 351.996 233.409 352.859L233.809 353.209C233.964 353.361 234.084 353.545 234.159 353.749C234.275 354.102 234.348 354.468 234.379 354.839C234.424 355.558 234.424 356.279 234.379 356.999C234.245 359.774 233.971 362.541 233.559 365.289C233.199 367.959 232.789 370.509 232.379 372.949C231.559 377.819 230.749 382.179 230.039 385.849C229.329 389.519 228.759 392.419 228.349 394.519C228.149 395.519 227.999 396.289 227.879 396.879C227.836 397.155 227.78 397.428 227.709 397.699C227.697 397.417 227.72 397.135 227.779 396.859C227.849 396.309 227.969 395.509 228.149 394.479L229.679 385.779C230.339 382.109 231.119 377.779 231.909 372.869C232.299 370.439 232.699 367.869 233.059 365.219C233.419 362.569 233.759 359.809 233.859 356.979C233.904 356.286 233.904 355.591 233.859 354.899C233.837 354.559 233.773 354.223 233.669 353.899C233.628 353.773 233.556 353.659 233.459 353.569L233.079 353.229C232.026 352.387 230.886 351.659 229.679 351.059C227.393 349.901 224.994 348.983 222.519 348.319C221.383 347.985 220.212 347.787 219.029 347.729C217.937 347.668 216.855 347.966 215.949 348.579C215.155 349.239 214.511 350.06 214.059 350.989L212.639 353.549L208.349 361.269L207.159 363.359C207.025 363.626 206.871 363.884 206.699 364.129Z" fill="#263238"/>
<path d="M175.25 326.399C175.423 326.382 175.597 326.382 175.77 326.399L177.23 326.449C178.49 326.519 180.32 326.619 182.58 326.829C185.233 327.06 187.871 327.444 190.48 327.979C193.688 328.632 196.807 329.666 199.77 331.059C202.722 332.483 205.47 334.296 207.94 336.449C209.98 338.212 211.676 340.338 212.94 342.719C213.77 344.33 214.279 346.085 214.44 347.889C214.478 348.379 214.478 348.87 214.44 349.359C214.458 349.526 214.458 349.693 214.44 349.859C214.38 349.859 214.44 349.159 214.25 347.859C214.014 346.108 213.462 344.413 212.62 342.859C211.347 340.553 209.671 338.493 207.67 336.779C205.219 334.674 202.502 332.899 199.59 331.499C196.668 330.117 193.594 329.083 190.43 328.419C187.843 327.87 185.23 327.453 182.6 327.169C180.35 326.909 178.52 326.749 177.26 326.629L175.81 326.469C175.621 326.475 175.432 326.451 175.25 326.399Z" fill="#263238"/>
<path d="M221.779 322.398C221.506 323.467 221.145 324.51 220.699 325.518C219.949 327.418 218.839 330.008 217.569 332.838C216.299 335.668 215.199 338.128 214.309 340.128C213.899 341.157 213.425 342.159 212.889 343.128C213.149 342.053 213.51 341.005 213.969 339.998C214.709 338.108 215.819 335.518 217.089 332.678C218.359 329.838 219.459 327.418 220.359 325.428C220.756 324.385 221.231 323.372 221.779 322.398Z" fill="#263238"/>
<path d="M245.84 259.98C245.69 259.98 245.58 254.98 245.58 248.75C245.58 242.52 245.69 237.52 245.84 237.52C245.99 237.52 246.1 242.52 246.1 248.75C246.1 254.98 246 259.98 245.84 259.98Z" fill="#263238"/>
<g opacity="0.3">
<path opacity="0.3" d="M214.389 349.848C202.949 353.848 195.219 364.218 192.089 375.928C191.769 377.148 191.549 378.598 192.369 379.568C192.844 380.018 193.458 380.294 194.111 380.348C194.764 380.403 195.415 380.233 195.959 379.868C197.024 379.097 197.896 378.091 198.509 376.928C204.019 368.118 209.399 359.928 214.389 349.848Z" fill="black"/>
</g>
<g opacity="0.3">
<path opacity="0.3" d="M200.199 327.228C194.199 323.898 187.339 322.478 180.509 322.058C177.823 321.932 175.132 322.168 172.509 322.758C168.939 323.508 164.829 325.318 164.049 327.878C172.259 325.308 184.349 326.998 192.749 328.878C196.906 329.74 200.84 331.45 204.306 333.902C207.771 336.354 210.693 339.495 212.889 343.128C210.744 336.456 206.23 330.8 200.199 327.228Z" fill="black"/>
</g>
<path d="M239.438 226.198C239.268 225.794 239.134 225.376 239.038 224.948C238.828 224.138 238.478 222.948 238.038 221.538C236.802 217.824 235.184 214.248 233.208 210.868C231.204 207.5 228.858 204.346 226.208 201.458C225.208 200.348 224.338 199.458 223.738 198.898C223.4 198.599 223.095 198.263 222.828 197.898C223.19 198.132 223.525 198.403 223.828 198.708C224.478 199.248 225.378 200.088 226.438 201.168C231.975 206.852 236.057 213.789 238.338 221.388C238.69 222.529 238.984 223.688 239.218 224.858C239.341 225.296 239.415 225.745 239.438 226.198Z" fill="#263238"/>
<path d="M255.409 402.049L206.999 285.129C204.789 279.789 207.559 275.469 213.199 275.469H222.939C226.939 275.469 229.629 273.279 229.889 269.859L230.209 265.559C230.469 262.139 233.209 259.949 237.209 259.949H283.529C287.568 260.137 291.392 261.827 294.249 264.689L298.009 268.329C300.833 271.2 304.628 272.912 308.649 273.129H367.649C373.279 273.129 379.589 277.449 381.739 282.789L429.739 402.069L255.409 402.049Z" fill="#80DED9"/>
<g opacity="0.3">
<path opacity="0.3" d="M255.409 402.049L206.999 285.129C204.789 279.789 207.559 275.469 213.199 275.469H222.939C226.939 275.469 229.629 273.279 229.889 269.859L230.209 265.559C230.469 262.139 233.209 259.949 237.209 259.949H283.529C287.568 260.137 291.392 261.827 294.249 264.689L298.009 268.329C300.833 271.2 304.628 272.912 308.649 273.129H367.649C373.279 273.129 379.589 277.449 381.739 282.789L429.739 402.069L255.409 402.049Z" fill="black"/>
</g>
<path d="M247.399 362.349L229.129 291.699C227.929 287.049 230.979 282.379 235.219 282.379H378.439C379.897 282.449 381.289 283.005 382.395 283.958C383.5 284.912 384.255 286.207 384.539 287.639L411.139 393.979C412.309 398.649 410.439 401.449 406.199 401.399H262.089C260.653 401.313 259.286 400.754 258.201 399.81C257.115 398.865 256.373 397.589 256.089 396.179L247.399 362.349Z" fill="#E0E0E0"/>
<path d="M257.299 398.849L249.519 287.599C249.453 286.665 249.58 285.728 249.892 284.846C250.204 283.964 250.694 283.155 251.332 282.47C251.969 281.786 252.741 281.239 253.599 280.866C254.457 280.492 255.383 280.299 256.319 280.299H404.729V398.849H257.299Z" fill="#EBEBEB"/>
<path d="M255.639 401.398L273.299 286.698C273.712 284.87 274.737 283.239 276.205 282.075C277.673 280.911 279.495 280.284 281.369 280.298H431.489C432.841 280.277 434.177 280.595 435.374 281.222C436.572 281.849 437.595 282.766 438.348 283.889C439.101 285.012 439.562 286.305 439.688 287.652C439.813 288.998 439.601 290.355 439.069 291.598L406.649 396.598L255.639 401.398Z" fill="#FAFAFA"/>
<path d="M255.408 401.999L291.818 294.579C292.516 292.425 293.876 290.545 295.703 289.207C297.531 287.87 299.734 287.143 301.998 287.129H456.708C457.89 287.165 459.048 287.478 460.086 288.044C461.125 288.609 462.017 289.41 462.689 290.383C463.362 291.356 463.796 292.474 463.957 293.645C464.119 294.817 464.003 296.01 463.618 297.129L429.758 402.049L255.408 401.999Z" fill="#80DED9"/>
<g opacity="0.3">
<path opacity="0.3" d="M330.239 384.008C330.239 384.008 324.399 384.278 321.699 384.458C308.809 385.327 295.903 383.037 284.099 377.788C280.459 376.168 276.609 373.878 275.499 370.048C274.269 365.758 277.049 361.288 280.439 358.378C283.829 355.468 287.949 353.378 290.889 350.038C293.829 346.698 295.219 341.248 292.319 337.848L291.519 338.438C289.429 343.738 283.599 346.298 278.769 349.338C269.733 355.063 263.033 363.82 259.869 374.038C258.169 379.598 257.719 386.038 261.089 390.818C263.479 394.188 267.399 396.098 271.269 397.528C282.979 401.868 295.489 402.038 307.979 402.048C311.919 402.048 323.979 401.888 323.979 401.888C327.789 400.888 329.039 398.888 331.339 395.658C333.489 392.708 332.999 386.318 330.239 384.008Z" fill="black"/>
</g>
<path d="M330.239 384.009L289.879 377.939L274.199 368.939C273.174 368.361 272.309 367.537 271.681 366.543C271.052 365.548 270.681 364.413 270.599 363.239C270.604 363.196 270.604 363.152 270.599 363.109C270.559 361.654 270.962 360.222 271.755 359.002C272.548 357.782 273.693 356.832 275.039 356.279C280.039 354.189 287.889 351.399 291.249 345.509C296.069 337.059 291.249 335.299 291.249 335.299L257.539 348.779L233.679 365.019L228.869 392.129L262.159 402.999C262.159 402.999 299.259 405.089 309.499 403.939C319.739 402.789 319.729 398.029 319.729 398.029C321.629 397.429 325.479 394.029 325.479 390.909C330.479 386.249 330.239 384.049 330.239 384.049" fill="#FFBE9D"/>
<path d="M278.609 395.668C279.173 395.712 279.73 395.819 280.269 395.988C281.329 396.238 282.859 396.578 284.759 396.988C294.678 398.965 304.849 399.35 314.889 398.128C316.819 397.898 318.369 397.678 319.439 397.498C319.994 397.376 320.561 397.316 321.129 397.318C320.598 397.518 320.049 397.669 319.489 397.768C318.429 398.018 316.879 398.308 314.959 398.608C304.874 400.098 294.599 399.698 284.659 397.428C282.759 396.978 281.239 396.568 280.199 396.228C279.652 396.095 279.119 395.907 278.609 395.668Z" fill="#EB996E"/>
<path d="M282.299 389.43C282.872 389.475 283.439 389.582 283.989 389.75C285.059 390.01 286.619 390.35 288.549 390.75C293.58 391.709 298.679 392.274 303.799 392.44C308.926 392.58 314.057 392.343 319.149 391.73C321.149 391.5 322.679 391.27 323.769 391.1C324.331 390.98 324.904 390.913 325.479 390.9C324.943 391.11 324.387 391.264 323.819 391.36C322.739 391.62 321.169 391.91 319.209 392.21C314.103 392.974 308.939 393.278 303.779 393.12C298.621 392.965 293.488 392.329 288.449 391.22C286.519 390.79 284.969 390.38 283.919 390.04C283.359 389.893 282.816 389.689 282.299 389.43Z" fill="#EB996E"/>
<path d="M520.359 240.129L448.639 254.299C446.264 254.767 443.801 254.276 441.788 252.932C439.775 251.588 438.377 249.501 437.899 247.129L418.289 147.859C417.818 145.479 418.313 143.009 419.663 140.993C421.013 138.977 423.109 137.58 425.489 137.109L470.999 128.129L513.369 157.469L527.589 229.419C528.047 231.798 527.543 234.261 526.188 236.268C524.832 238.276 522.736 239.664 520.359 240.129Z" fill="#EBEBEB"/>
<path d="M471 128.129L476.52 156.069C476.735 157.166 477.165 158.21 477.784 159.141C478.404 160.072 479.201 160.872 480.13 161.494C481.059 162.116 482.101 162.549 483.198 162.768C484.294 162.987 485.423 162.987 486.52 162.769L513.38 157.469L471 128.129Z" fill="#F5F5F5"/>
<path d="M477.35 158.409C477.35 158.409 478.35 165.249 486.49 165.959C486.79 165.959 487.1 165.959 487.41 165.959C491.04 165.899 514.94 165.439 514.84 164.959C514.74 164.479 513.35 157.459 513.35 157.459L486.49 162.759C486.49 162.759 479.74 163.829 477.35 158.409Z" fill="#E0E0E0"/>
<path d="M520.359 240.129L520.749 240.019C521.135 239.926 521.513 239.802 521.879 239.649C523.77 238.904 525.357 237.546 526.385 235.793C527.413 234.04 527.823 231.993 527.549 229.979C527.029 227.069 526.319 223.729 525.549 219.979L513.109 157.489L513.199 157.619L470.809 128.319H470.999L444.749 133.519L431.019 136.229L427.539 136.919C426.377 137.104 425.231 137.374 424.109 137.729C423.01 138.135 422.002 138.755 421.144 139.553C420.286 140.351 419.594 141.312 419.109 142.379C418.425 143.862 418.176 145.509 418.389 147.129C418.639 148.739 419.009 150.389 419.319 152.009L421.229 161.689C422.489 168.102 423.733 174.412 424.959 180.619L432.019 216.409C433.139 222.122 434.233 227.679 435.299 233.079C435.829 235.779 436.349 238.449 436.869 241.079C437.129 242.389 437.379 243.689 437.639 244.979C437.823 246.255 438.128 247.51 438.549 248.729C439.028 249.879 439.739 250.917 440.64 251.777C441.54 252.638 442.609 253.302 443.779 253.729C444.915 254.141 446.123 254.314 447.329 254.239C448.526 254.103 449.714 253.903 450.889 253.639L464.429 250.979L505.289 242.979L516.409 240.839L519.299 240.289L520.299 240.119C520.299 240.119 519.969 240.209 519.299 240.349L516.409 240.939L505.309 243.179L464.479 251.329L450.999 254.019C449.812 254.295 448.61 254.502 447.399 254.639C445.456 254.76 443.524 254.27 441.873 253.239C440.222 252.208 438.934 250.687 438.189 248.889C437.737 247.646 437.403 246.364 437.189 245.059C436.939 243.769 436.679 242.469 436.419 241.159C435.899 238.539 435.373 235.872 434.839 233.159L431.539 216.499L424.449 180.709C423.229 174.509 421.983 168.199 420.709 161.779L418.879 152.129C418.569 150.499 418.199 148.899 417.939 147.219C417.726 145.514 417.989 143.783 418.699 142.219C419.21 141.093 419.937 140.08 420.84 139.236C421.742 138.391 422.802 137.733 423.959 137.299C425.106 136.932 426.28 136.655 427.469 136.469L430.949 135.779L444.679 133.069L470.929 127.889H471.029L471.119 127.949L513.479 157.319H513.549V157.399C518.639 183.399 522.859 204.909 525.799 219.939C526.519 223.699 527.219 227.029 527.719 229.939C527.995 231.986 527.568 234.067 526.507 235.841C525.446 237.614 523.814 238.974 521.879 239.699C521.51 239.845 521.128 239.959 520.739 240.039L520.359 240.129Z" fill="#263238"/>
<path d="M513.349 157.428C513.128 157.508 512.901 157.568 512.669 157.608L510.669 158.048L503.409 159.568L492.629 161.748L486.249 163.008C484.456 163.31 482.613 163.046 480.976 162.252C479.34 161.458 477.992 160.174 477.119 158.578C476.572 157.539 476.21 156.412 476.049 155.248C475.619 153.038 475.199 150.908 474.809 148.868C474.029 144.818 473.329 141.158 472.729 138.068L471.379 130.778C471.229 129.958 471.119 129.298 471.029 128.778C470.978 128.548 470.951 128.314 470.949 128.078C471.034 128.298 471.098 128.526 471.139 128.758L471.569 130.758C471.939 132.528 472.459 134.998 473.089 138.018C473.719 141.038 474.459 144.758 475.279 148.798C475.689 150.798 476.109 152.958 476.549 155.168C476.698 156.277 477.037 157.353 477.549 158.348C478.106 159.356 478.865 160.238 479.779 160.938C480.676 161.625 481.704 162.12 482.799 162.393C483.895 162.667 485.035 162.713 486.149 162.528L492.519 161.298L503.319 159.228L510.619 157.868L512.619 157.528C512.858 157.468 513.103 157.435 513.349 157.428Z" fill="#263238"/>
<path d="M474.55 153.289C474.55 153.429 466.13 155.219 455.68 157.289C445.23 159.359 436.74 160.909 436.68 160.769C436.62 160.629 445.1 158.839 455.55 156.769C466 154.699 474.52 153.129 474.55 153.289Z" fill="#263238"/>
<path d="M495.249 163.678C495.249 163.818 482.809 166.398 467.409 169.438C452.009 172.478 439.489 174.838 439.409 174.698C439.329 174.558 451.849 171.978 467.259 168.928C482.669 165.878 495.219 163.538 495.249 163.678Z" fill="#263238"/>
<path d="M497.999 177.62C497.999 177.76 485.559 180.34 470.159 183.38C454.759 186.42 442.239 188.78 442.159 188.64C442.079 188.5 454.599 185.91 470.009 182.87C485.419 179.83 497.999 177.47 497.999 177.62Z" fill="#263238"/>
<path d="M445 202.569C445 202.429 457.44 199.849 472.84 196.809C488.24 193.769 500.76 191.409 500.79 191.549C500.82 191.689 488.35 194.269 472.94 197.319C457.53 200.369 445 202.709 445 202.569Z" fill="#263238"/>
<path d="M503.509 205.488C503.509 205.628 491.069 208.208 475.669 211.248C460.269 214.288 447.749 216.648 447.719 216.508C447.689 216.368 460.159 213.788 475.559 210.738C490.959 207.688 503.479 205.348 503.509 205.488Z" fill="#263238"/>
<path d="M506.259 219.428C506.259 219.568 493.819 222.148 478.419 225.188C463.019 228.228 450.499 230.588 450.469 230.448C450.439 230.308 462.909 227.718 478.319 224.678C493.729 221.638 506.229 219.288 506.259 219.428Z" fill="#263238"/>
<path d="M471.131 201.332L418.497 211.725C416.211 212.177 414.723 214.397 415.175 216.683L418.945 235.774C419.396 238.061 421.616 239.548 423.902 239.097L476.536 228.704C478.822 228.252 480.31 226.033 479.859 223.746L476.089 204.655C475.637 202.368 473.418 200.881 471.131 201.332Z" fill="#80DED9"/>
<path d="M431.049 218.479L435.749 217.549C439.129 216.879 441.849 218.459 442.469 221.549C443.089 224.639 441.169 227.179 437.789 227.849L433.089 228.779L431.049 218.479ZM437.279 225.949C437.717 225.884 438.137 225.731 438.513 225.499C438.89 225.268 439.216 224.962 439.472 224.6C439.727 224.239 439.906 223.83 439.999 223.397C440.091 222.964 440.095 222.517 440.009 222.083C439.924 221.649 439.751 221.237 439.502 220.871C439.253 220.506 438.932 220.194 438.559 219.957C438.186 219.719 437.768 219.559 437.332 219.487C436.895 219.415 436.448 219.433 436.019 219.539L433.829 219.969L435.099 226.379L437.279 225.949Z" fill="black"/>
<path d="M443.619 221.359C443.333 220.238 443.39 219.057 443.782 217.969C444.174 216.881 444.883 215.935 445.819 215.255C446.754 214.574 447.872 214.19 449.028 214.152C450.184 214.113 451.325 214.423 452.304 215.04C453.282 215.657 454.053 216.554 454.516 217.614C454.979 218.674 455.114 219.848 454.902 220.986C454.69 222.123 454.142 223.17 453.329 223.993C452.516 224.815 451.474 225.375 450.339 225.599C449.619 225.786 448.867 225.823 448.132 225.709C447.396 225.594 446.692 225.33 446.062 224.933C445.432 224.536 444.891 224.014 444.47 223.399C444.05 222.784 443.761 222.09 443.619 221.359ZM452.519 219.609C452.371 218.98 452.04 218.408 451.569 217.965C451.098 217.521 450.507 217.226 449.87 217.116C449.233 217.006 448.577 217.085 447.985 217.345C447.392 217.604 446.889 218.032 446.538 218.574C446.186 219.117 446.002 219.751 446.008 220.398C446.014 221.045 446.21 221.675 446.571 222.212C446.932 222.748 447.443 223.166 448.04 223.415C448.637 223.663 449.294 223.731 449.929 223.609C450.373 223.537 450.796 223.374 451.172 223.128C451.549 222.883 451.869 222.561 452.113 222.184C452.357 221.807 452.52 221.383 452.589 220.94C452.659 220.496 452.636 220.043 452.519 219.609Z" fill="black"/>
<path d="M456.089 218.898C455.937 217.771 456.119 216.624 456.614 215.599C457.108 214.575 457.893 213.719 458.87 213.137C459.847 212.555 460.974 212.273 462.11 212.327C463.246 212.38 464.341 212.767 465.259 213.438L463.999 215.128C463.608 214.808 463.15 214.579 462.658 214.458C462.167 214.337 461.655 214.326 461.159 214.428C460.725 214.514 460.311 214.684 459.943 214.93C459.574 215.176 459.257 215.492 459.011 215.86C458.764 216.228 458.593 216.642 458.506 217.076C458.419 217.511 458.418 217.958 458.504 218.393C458.59 218.827 458.761 219.241 459.007 219.609C459.253 219.978 459.569 220.295 459.937 220.541C460.305 220.788 460.718 220.959 461.153 221.046C461.587 221.133 462.035 221.134 462.469 221.048C462.967 220.953 463.437 220.748 463.844 220.447C464.251 220.145 464.584 219.756 464.819 219.308L466.639 220.418C466.047 221.388 465.181 222.163 464.152 222.646C463.122 223.129 461.972 223.299 460.847 223.133C459.722 222.968 458.67 222.476 457.822 221.717C456.974 220.959 456.368 219.968 456.079 218.868L456.089 218.898Z" fill="black"/>
<path d="M509.079 166.249C509.079 166.249 514.38 159.549 518.46 163.249C522.54 166.949 521.36 168.929 517.46 174.849C517.46 174.849 526.12 174.399 523.34 183.289C523.34 183.289 531.97 182.289 531.14 189.619C531.14 189.619 537.66 195.989 534.27 200.099C530.88 204.209 518.589 211.629 515.489 210.349C512.389 209.069 512.359 204.679 512.359 204.679C512.359 204.679 508.669 203.019 507.649 201.069C506.629 199.119 508.379 196.399 508.379 196.399C508.379 196.399 505.269 193.219 504.499 192.329C503.729 191.439 504.92 187.329 504.92 187.329L509.92 182.509C509.92 182.509 503.079 185.509 501.649 184.349C500.219 183.189 498.65 182.229 500.14 180.169C501.63 178.109 507.14 173.469 507.14 173.469L509.079 166.249Z" fill="#FFBE9D"/>
<path d="M513.068 205.238C513.749 204.276 514.501 203.367 515.318 202.518C517.087 200.249 519.224 198.292 521.638 196.728C524.106 195.368 526.478 193.841 528.738 192.158C530.388 190.788 531.038 189.588 531.158 189.668C531.278 189.748 530.758 191.048 529.158 192.588C527.558 194.128 524.908 195.708 522.158 197.418C519.812 198.961 517.681 200.807 515.818 202.908C515.036 203.83 514.107 204.618 513.068 205.238Z" fill="#EB996E"/>
<path d="M508.279 197.728C508.119 197.568 511.279 194.138 515.379 190.068C517.379 188.068 519.189 186.068 520.699 184.918C521.445 184.183 522.358 183.641 523.359 183.338C523.419 183.448 522.429 184.058 521.089 185.338C519.749 186.618 518.039 188.598 515.959 190.628C511.879 194.718 508.439 197.888 508.279 197.728Z" fill="#EB996E"/>
<path d="M509.91 182.548C509.75 182.338 511.71 180.778 513.91 178.708C516.11 176.638 517.21 174.438 517.42 174.518C517.63 174.598 516.81 177.128 514.49 179.298C512.17 181.468 510 182.698 509.91 182.548Z" fill="#EB996E"/>
<path d="M509.08 166.229C509.078 166.399 509.051 166.567 509 166.729L508.66 168.139C508.32 169.473 507.853 171.269 507.26 173.529C506.26 174.409 505.13 175.419 503.92 176.529C502.571 177.73 501.336 179.052 500.23 180.479C499.974 180.845 499.841 181.283 499.85 181.729C499.931 182.185 500.168 182.599 500.52 182.899C500.905 183.257 501.313 183.591 501.74 183.899C501.941 184.033 502.166 184.126 502.403 184.172C502.64 184.218 502.883 184.217 503.12 184.169C505.439 183.777 507.695 183.078 509.83 182.089L511.43 181.429L510.19 182.639L505.24 187.469L505.32 187.369C504.938 188.141 504.717 188.982 504.673 189.842C504.628 190.702 504.76 191.562 505.06 192.369C506.087 193.95 507.42 195.31 508.98 196.369L509.32 196.619L509 197.129C507.91 198.409 507.15 200.429 508.56 201.669C509.95 202.977 511.535 204.06 513.26 204.879L512.67 205.199V205.079C512.78 205.199 512.44 204.789 512.91 205.429C514.03 204.899 513.23 205.209 513.48 205.129V205.729C513.491 206 513.518 206.271 513.56 206.539C513.638 207.086 513.786 207.62 514 208.129C514.204 208.623 514.503 209.071 514.88 209.449C515.221 209.819 515.668 210.074 516.16 210.179C517.283 210.209 518.4 209.99 519.43 209.539C520.542 209.121 521.628 208.633 522.68 208.079C524.681 207.035 526.615 205.866 528.47 204.579C530.284 203.36 531.979 201.97 533.53 200.429C534.27 199.748 534.735 198.82 534.84 197.819C534.897 196.821 534.716 195.823 534.31 194.909C533.488 193.048 532.333 191.353 530.9 189.909L530.78 189.779V189.589C530.904 188.633 530.805 187.661 530.49 186.749C530.149 185.888 529.534 185.164 528.74 184.689C527.103 183.831 525.246 183.483 523.41 183.689H522.91L523.03 183.199C523.16 182.659 523.31 182.129 523.42 181.599C523.512 181.074 523.555 180.542 523.55 180.009C523.581 178.996 523.267 178.001 522.66 177.189C521.999 176.498 521.194 175.96 520.302 175.615C519.411 175.269 518.454 175.124 517.5 175.189H516.92L517.23 174.709C518.235 173.234 519.16 171.705 520 170.129C520.367 169.423 520.607 168.658 520.71 167.869C520.77 167.143 520.614 166.416 520.26 165.779C519.585 164.591 518.656 163.567 517.54 162.779C517.053 162.5 516.513 162.326 515.955 162.27C515.397 162.213 514.833 162.274 514.3 162.449C512.796 162.982 511.429 163.843 510.3 164.969C509.89 165.339 509.6 165.649 509.4 165.849C509.2 166.049 509.1 166.159 509.08 166.149C509.143 166.017 509.228 165.895 509.33 165.789C509.51 165.569 509.78 165.239 510.17 164.789C510.655 164.294 511.176 163.836 511.73 163.419C512.48 162.832 513.325 162.379 514.23 162.079C514.807 161.875 515.421 161.795 516.031 161.845C516.641 161.895 517.234 162.073 517.77 162.369L518.6 162.979L519.35 163.699C519.879 164.223 520.336 164.815 520.71 165.459C521.12 166.178 521.305 167.004 521.24 167.829C521.149 168.681 520.901 169.508 520.51 170.269C519.676 171.871 518.752 173.424 517.74 174.919L517.47 174.449C518.487 174.422 519.501 174.567 520.47 174.879C521.521 175.197 522.456 175.816 523.16 176.659C523.862 177.581 524.235 178.711 524.22 179.869C524.226 180.449 524.182 181.027 524.09 181.599C523.98 182.159 523.82 182.719 523.69 183.299L523.31 182.839C525.309 182.607 527.331 182.987 529.11 183.929C530.047 184.484 530.772 185.336 531.17 186.349C531.538 187.377 531.662 188.476 531.53 189.559L531.42 189.239C532.927 190.737 534.144 192.5 535.01 194.439C535.478 195.47 535.684 196.6 535.61 197.729C535.555 198.317 535.392 198.89 535.13 199.419C534.855 199.922 534.519 200.389 534.13 200.809C532.546 202.398 530.811 203.828 528.95 205.079C527.067 206.39 525.103 207.579 523.07 208.639C521.989 209.208 520.873 209.709 519.73 210.139C518.57 210.641 517.312 210.876 516.05 210.829C515.414 210.66 514.828 210.34 514.342 209.896C513.857 209.452 513.485 208.897 513.26 208.279C513.024 207.712 512.859 207.117 512.77 206.509C512.77 206.209 512.7 205.909 512.69 205.609V204.859C512.93 204.769 512.14 205.079 513.26 204.549C513.73 205.189 513.39 204.779 513.49 204.899V205.139L513.43 205.739L512.91 205.459C511.099 204.594 509.439 203.447 507.99 202.059C507.616 201.673 507.326 201.213 507.14 200.709C506.986 200.189 506.965 199.639 507.08 199.109C507.3 198.127 507.764 197.215 508.43 196.459L508.49 197.039C506.832 195.909 505.426 194.448 504.36 192.749C503.92 191.84 503.76 190.82 503.9 189.819C503.998 188.873 504.245 187.949 504.63 187.079V187.019H504.68L509.68 182.219L510.04 182.759C507.837 183.767 505.505 184.464 503.11 184.829C502.482 184.931 501.84 184.784 501.32 184.419C500.882 184.088 500.465 183.73 500.07 183.349C499.625 182.956 499.335 182.417 499.25 181.829C499.229 181.264 499.398 180.708 499.73 180.249C500.879 178.796 502.165 177.457 503.57 176.249C504.81 175.129 505.95 174.139 506.97 173.249L506.92 173.339C507.58 171.049 508.11 169.259 508.48 167.959C508.66 167.399 508.8 166.959 508.91 166.579C508.956 166.458 509.013 166.341 509.08 166.229Z" fill="#EB996E"/>
<path d="M144.891 220.129H83.1907C82.1765 220.13 81.1721 219.932 80.2348 219.544C79.2976 219.157 78.446 218.588 77.7289 217.871C77.0118 217.154 76.4432 216.302 76.0557 215.365C75.6682 214.428 75.4694 213.423 75.4707 212.409V127.009C75.4707 124.962 76.2841 122.998 77.7318 121.55C79.1796 120.102 81.1432 119.289 83.1907 119.289H122.321L152.611 150.509V212.409C152.611 214.457 151.797 216.42 150.35 217.868C148.902 219.316 146.938 220.129 144.891 220.129Z" fill="#EBEBEB"/>
<path d="M122.32 119.328V143.328C122.32 145.232 123.077 147.059 124.423 148.405C125.77 149.752 127.596 150.508 129.5 150.508H152.61L122.32 119.328Z" fill="#F5F5F5"/>
<path d="M122.631 145.469C122.631 145.469 122.331 151.299 128.971 153.219C129.221 153.291 129.474 153.347 129.731 153.389C132.731 153.929 152.611 157.469 152.611 157.009V150.549H129.501C129.501 150.549 123.731 150.349 122.631 145.469Z" fill="#E0E0E0"/>
<path d="M144.891 220.128C144.891 220.128 145.351 220.128 146.221 219.978C147.507 219.739 148.711 219.178 149.721 218.348C150.534 217.68 151.199 216.85 151.676 215.912C152.152 214.975 152.43 213.948 152.491 212.898C152.491 210.408 152.491 207.518 152.491 204.288C152.491 191.358 152.491 172.858 152.401 150.508L152.461 150.658L122.151 119.458L122.331 119.538H84.9311C83.9297 119.497 82.9267 119.534 81.9311 119.648C80.2812 119.924 78.772 120.746 77.6457 121.983C76.5195 123.22 75.8417 124.799 75.7211 126.468C75.7211 127.838 75.7211 129.268 75.7211 130.658C75.7211 133.445 75.7211 136.221 75.7211 138.988V155.268C75.7211 165.948 75.7211 176.268 75.7211 186.058C75.7211 190.965 75.7211 195.745 75.7211 200.398V210.618C75.6608 211.703 75.7077 212.792 75.8611 213.868C76.0626 214.898 76.4771 215.875 77.0781 216.736C77.6791 217.597 78.4533 218.323 79.3511 218.868C80.2225 219.393 81.1926 219.734 82.2011 219.868C83.1986 219.953 84.2004 219.98 85.2011 219.948H96.8411L131.991 220.028L141.551 220.078H144.031H144.881H144.031H141.551L131.991 220.128L96.8411 220.208H85.2011C84.1704 220.236 83.1389 220.209 82.1111 220.128C80.4758 219.909 78.9496 219.185 77.7451 218.058C76.5406 216.93 75.7177 215.455 75.3911 213.838C75.2418 212.731 75.1916 211.613 75.2411 210.498C75.2411 209.388 75.2411 208.278 75.2411 207.148V200.278C75.2411 195.611 75.2411 190.831 75.2411 185.938C75.2411 176.128 75.2411 165.828 75.2411 155.148V130.708C75.2411 129.298 75.2411 127.918 75.2411 126.478C75.3424 125.014 75.8517 123.607 76.7111 122.418C77.3178 121.563 78.0879 120.836 78.9769 120.28C79.866 119.724 80.8565 119.349 81.8911 119.178C82.9033 119.062 83.9231 119.025 84.9411 119.068H122.431L122.511 119.138L152.781 150.388L152.841 150.448V150.538C152.841 172.888 152.771 191.388 152.741 204.318C152.741 207.558 152.741 210.428 152.741 212.938C152.636 214.682 151.94 216.339 150.768 217.635C149.595 218.931 148.016 219.789 146.291 220.068C145.962 220.134 145.627 220.164 145.291 220.158C145.157 220.157 145.024 220.147 144.891 220.128Z" fill="#263238"/>
<path d="M152.61 150.548C152.416 150.593 152.218 150.61 152.02 150.598L150.31 150.648L144.05 150.728L134.77 150.788H129.28C127.738 150.738 126.249 150.213 125.017 149.284C123.785 148.354 122.871 147.067 122.4 145.598C122.121 144.641 122.006 143.644 122.06 142.648C122.06 140.748 122.06 138.918 122.06 137.168C122.06 133.688 122.06 130.548 122.06 127.878C122.06 125.208 122.13 123.168 122.15 121.618V119.918C122.122 119.722 122.122 119.524 122.15 119.328C122.188 119.522 122.205 119.72 122.2 119.918C122.2 120.368 122.2 120.918 122.2 121.618C122.2 123.168 122.2 125.288 122.28 127.878C122.36 130.468 122.28 133.688 122.34 137.168C122.34 138.918 122.34 140.748 122.34 142.648C122.283 143.59 122.394 144.535 122.67 145.438C122.955 146.36 123.436 147.209 124.08 147.928C124.706 148.643 125.474 149.221 126.334 149.625C127.195 150.03 128.129 150.252 129.08 150.278H134.56H143.84L150.1 150.368L151.81 150.418C152.082 150.409 152.354 150.453 152.61 150.548Z" fill="#263238"/>
<path d="M121.152 140.78C121.152 140.92 113.862 141.04 104.882 141.04C95.9016 141.04 88.6016 140.92 88.6016 140.78C88.6016 140.64 95.8816 140.52 104.882 140.52C113.882 140.52 121.152 140.63 121.152 140.78Z" fill="#263238"/>
<path d="M136.602 152.768C136.602 152.908 125.852 153.028 112.602 153.028C99.3516 153.028 88.6016 152.908 88.6016 152.768C88.6016 152.628 99.3416 152.508 112.602 152.508C125.862 152.508 136.602 152.618 136.602 152.768Z" fill="#263238"/>
<path d="M136.602 164.76C136.602 164.9 125.852 165.02 112.602 165.02C99.3516 165.02 88.6016 164.9 88.6016 164.76C88.6016 164.62 99.3416 164.5 112.602 164.5C125.862 164.5 136.602 164.61 136.602 164.76Z" fill="#263238"/>
<path d="M136.602 176.748C136.602 176.888 125.852 177.008 112.602 177.008C99.3516 177.008 88.6016 176.888 88.6016 176.748C88.6016 176.608 99.3416 176.488 112.602 176.488C125.862 176.488 136.602 176.598 136.602 176.748Z" fill="#263238"/>
<path d="M136.602 188.739C136.602 188.879 125.852 188.999 112.602 188.999C99.3516 188.999 88.6016 188.879 88.6016 188.739C88.6016 188.599 99.3416 188.479 112.602 188.479C125.862 188.479 136.602 188.599 136.602 188.739Z" fill="#263238"/>
<path d="M136.602 200.729C136.602 200.869 125.852 200.989 112.602 200.989C99.3516 200.989 88.6016 200.869 88.6016 200.729C88.6016 200.589 99.3416 200.469 112.602 200.469C125.862 200.469 136.602 200.589 136.602 200.729Z" fill="#263238"/>
<path d="M109.821 179.979H65.8509C63.5202 179.979 61.6309 181.868 61.6309 184.199V199.309C61.6309 201.639 63.5202 203.529 65.8509 203.529H109.821C112.152 203.529 114.041 201.639 114.041 199.309V184.199C114.041 181.868 112.152 179.979 109.821 179.979Z" fill="#80DED9"/>
<path d="M82.1516 190.868C82.1516 192.868 80.6616 194.088 78.2916 194.088H76.4916V196.538H74.4316V187.648H78.2916C80.6616 187.648 82.1516 188.878 82.1516 190.868ZM80.0616 190.868C80.0616 189.868 79.4316 189.318 78.1716 189.318H76.4916V192.408H78.1716C79.4316 192.408 80.0616 191.838 80.0616 190.868Z" fill="black"/>
<path d="M83.6113 187.648H87.6113C90.5213 187.648 92.5213 189.398 92.5213 192.098C92.5213 194.798 90.5213 196.538 87.6113 196.538H83.6113V187.648ZM87.5513 194.848C87.9271 194.871 88.3035 194.817 88.6574 194.688C89.0114 194.56 89.3353 194.361 89.6094 194.103C89.8834 193.845 90.1018 193.533 90.2511 193.188C90.4004 192.842 90.4774 192.47 90.4774 192.093C90.4774 191.717 90.4004 191.345 90.2511 190.999C90.1018 190.653 89.8834 190.342 89.6094 190.084C89.3353 189.826 89.0114 189.627 88.6574 189.498C88.3035 189.37 87.9271 189.316 87.5513 189.338H85.6713V194.848H87.5513Z" fill="black"/>
<path d="M96.1713 189.298V191.648H100.281V193.298H96.1713V196.538H94.1113V187.648H100.831V189.298H96.1713Z" fill="black"/>
<path d="M105.591 360.899H44.5909C42.5673 360.899 40.6266 360.095 39.1957 358.664C37.7648 357.233 36.9609 355.293 36.9609 353.269V268.769C36.9583 266.752 37.7541 264.816 39.1745 263.385C40.5949 261.953 42.5243 261.142 44.5409 261.129H83.2609L113.261 292.019V353.269C113.26 354.274 113.06 355.269 112.674 356.196C112.287 357.124 111.722 357.967 111.009 358.675C110.297 359.384 109.451 359.945 108.522 360.327C107.592 360.708 106.596 360.903 105.591 360.899Z" fill="#EBEBEB"/>
<path d="M83.2598 261.129V284.909C83.2585 285.842 83.4411 286.766 83.7974 287.629C84.1536 288.492 84.6763 289.275 85.3358 289.936C85.9952 290.596 86.7783 291.12 87.6404 291.478C88.5025 291.835 89.4265 292.019 90.3598 292.019H113.23L83.2598 261.129Z" fill="#F5F5F5"/>
<path d="M83.5705 286.998C83.5705 286.998 83.2705 292.768 89.8305 294.658C90.0789 294.735 90.333 294.792 90.5905 294.828C93.5905 295.368 113.23 298.828 113.23 298.408V292.018H90.3605C90.3605 292.018 84.6505 291.828 83.5705 286.998Z" fill="#E0E0E0"/>
<path d="M105.591 360.899C105.591 360.899 106.051 360.899 106.911 360.749C108.184 360.512 109.375 359.954 110.371 359.129C111.173 358.469 111.83 357.651 112.3 356.725C112.77 355.799 113.043 354.785 113.101 353.749C113.101 351.279 113.101 348.419 113.101 345.229C113.101 332.439 113.101 314.139 113.011 292.019L113.071 292.169L83.0711 261.309L83.2511 261.379H46.2511C45.2731 261.344 44.2938 261.381 43.3211 261.489C41.388 261.816 39.6626 262.895 38.5211 264.489C37.7317 265.593 37.2643 266.895 37.1711 268.249C37.1711 269.599 37.1711 271.019 37.1711 272.389V327.209V341.389V351.499C37.119 352.574 37.1693 353.653 37.3211 354.719C37.6202 356.233 38.3855 357.616 39.5098 358.674C40.6341 359.732 42.0612 360.412 43.5911 360.619C44.5886 360.705 45.5904 360.732 46.5911 360.699H58.1211L92.8911 360.779L102.341 360.829H104.801H105.641H104.801H102.341H92.8911L58.0711 361.129H46.5411C45.5206 361.165 44.4989 361.141 43.4811 361.059C42.4235 360.933 41.4026 360.593 40.4811 360.059C39.5433 359.495 38.7329 358.743 38.1011 357.849C37.4693 356.956 37.0301 355.941 36.8111 354.869C36.6616 353.775 36.6114 352.671 36.6611 351.569V327.209V296.739V272.389C36.6611 270.999 36.6611 269.639 36.6611 268.209C36.7895 266.442 37.5081 264.769 38.7014 263.46C39.8948 262.15 41.4936 261.28 43.2411 260.989C44.2369 260.876 45.2395 260.836 46.2411 260.869H83.3611L83.4411 260.949L113.381 291.859L113.441 291.919V292.009C113.441 314.129 113.371 332.429 113.351 345.219C113.351 348.419 113.351 351.219 113.351 353.749C113.279 354.809 112.989 355.844 112.499 356.787C112.008 357.73 111.328 358.561 110.501 359.229C109.482 360.052 108.265 360.594 106.971 360.799C106.642 360.865 106.307 360.895 105.971 360.889L105.591 360.899Z" fill="#263238"/>
<path d="M113.231 292.019C113.037 292.062 112.839 292.079 112.641 292.069L111.001 292.129L104.811 292.209L95.6208 292.269H90.1408C89.1335 292.241 88.1427 292.006 87.2306 291.578C86.3185 291.149 85.5049 290.537 84.8408 289.779C84.1583 289.016 83.6469 288.116 83.3408 287.139C83.0629 286.192 82.9479 285.204 83.0008 284.219C83.0008 282.339 83.0008 280.529 83.0008 278.789C83.0008 275.349 83.0008 272.239 83.0008 269.609C83.0008 266.979 83.0708 264.949 83.0908 263.409C83.0908 262.729 83.0908 262.169 83.0908 261.729C83.0859 261.53 83.1061 261.332 83.1508 261.139C83.1715 261.335 83.1715 261.533 83.1508 261.729C83.1508 262.169 83.1508 262.729 83.1508 263.409C83.1508 264.949 83.1508 267.049 83.2308 269.609C83.3108 272.169 83.2308 275.349 83.2908 278.789C83.2908 280.529 83.2908 282.339 83.2908 284.219C83.2357 285.15 83.344 286.084 83.6108 286.979C84.0448 288.331 84.8859 289.515 86.019 290.371C87.152 291.227 88.5218 291.711 89.9408 291.759H95.3508L104.541 291.819L110.731 291.899H112.421C112.695 291.899 112.968 291.939 113.231 292.019Z" fill="#263238"/>
<path d="M82.1004 282.349C82.1004 282.499 74.8904 282.609 66.0004 282.609C57.1104 282.609 49.9004 282.499 49.9004 282.349C49.9004 282.199 57.1104 282.129 66.0004 282.129C74.8904 282.129 82.1004 282.209 82.1004 282.349Z" fill="#263238"/>
<path d="M97.3804 294.219C97.3804 294.359 86.7504 294.479 73.6404 294.479C60.5304 294.479 49.9004 294.359 49.9004 294.219C49.9004 294.079 60.5304 293.959 73.6404 293.959C86.7504 293.959 97.3804 294.069 97.3804 294.219Z" fill="#263238"/>
<path d="M97.3804 306.129C97.3804 306.269 86.7504 306.389 73.6404 306.389C60.5304 306.389 49.9004 306.219 49.9004 306.129C49.9004 306.039 60.5304 305.869 73.6404 305.869C86.7504 305.869 97.3804 305.929 97.3804 306.129Z" fill="#263238"/>
<path d="M97.3804 317.94C97.3804 318.08 86.7504 318.2 73.6404 318.2C60.5304 318.2 49.9004 318.13 49.9004 317.94C49.9004 317.75 60.5304 317.68 73.6404 317.68C86.7504 317.68 97.3804 317.8 97.3804 317.94Z" fill="#263238"/>
<path d="M97.3804 329.799C97.3804 329.949 86.7504 330.059 73.6404 330.059C60.5304 330.059 49.9004 329.949 49.9004 329.799C49.9004 329.649 60.5304 329.539 73.6404 329.539C86.7504 329.539 97.3804 329.659 97.3804 329.799Z" fill="#263238"/>
<path d="M97.3804 341.67C97.3804 341.81 86.7504 341.93 73.6404 341.93C60.5304 341.93 49.9004 341.81 49.9004 341.67C49.9004 341.53 60.5304 341.41 73.6404 341.41C86.7504 341.41 97.3804 341.52 97.3804 341.67Z" fill="#263238"/>
<path d="M70.8507 321.139H27.4407C25.1101 321.139 23.2207 323.028 23.2207 325.359V340.219C23.2207 342.549 25.1101 344.439 27.4407 344.439H70.8507C73.1813 344.439 75.0707 342.549 75.0707 340.219V325.359C75.0707 323.028 73.1813 321.139 70.8507 321.139Z" fill="#80DED9"/>
<path d="M43.5099 331.919C43.5099 333.919 42.0399 335.099 39.6899 335.099H37.9199V337.529H35.9199V328.729H39.7299C41.9999 328.729 43.5099 329.949 43.5099 331.919ZM41.4499 331.919C41.4499 330.919 40.8199 330.389 39.5799 330.389H37.9199V333.439H39.5799C40.8199 333.439 41.4499 332.879 41.4499 331.919Z" fill="black"/>
<path d="M52.59 331.919C52.59 333.919 51.12 335.099 48.77 335.099H47V337.529H45V328.729H48.81C51.12 328.729 52.59 329.949 52.59 331.919ZM50.53 331.919C50.53 330.919 49.9 330.389 48.66 330.389H47V333.439H48.66C49.9 333.439 50.53 332.879 50.53 331.919Z" fill="black"/>
<path d="M55.6208 330.389H52.8008V328.729H60.4708V330.389H57.6608V337.529H55.6608L55.6208 330.389Z" fill="black"/>
<path d="M225.62 119.538H165C162.987 119.538 161.057 118.739 159.633 117.315C158.21 115.892 157.41 113.961 157.41 111.948V27.9484C157.421 25.9424 158.225 24.0221 159.647 22.6073C161.07 21.1926 162.994 20.3984 165 20.3984H203.47L233.21 51.1284V111.988C233.2 113.994 232.395 115.915 230.973 117.33C229.551 118.744 227.626 119.538 225.62 119.538Z" fill="#EBEBEB"/>
<path d="M203.43 20.3984V44.0284C203.425 44.9589 203.603 45.8813 203.956 46.7425C204.308 47.6036 204.827 48.3867 205.483 49.0465C206.14 49.7063 206.92 50.2299 207.779 50.5872C208.638 50.9445 209.559 51.1285 210.49 51.1284H233.21L203.43 20.3984Z" fill="#F5F5F5"/>
<path d="M203.74 46.1289C203.74 46.1289 203.44 51.8689 209.97 53.7489C210.21 53.8189 210.46 53.8689 210.71 53.9189C213.71 54.4489 233.21 57.9189 233.21 57.4689V51.1289H210.49C210.49 51.1289 204.82 50.8989 203.74 46.1289Z" fill="#E0E0E0"/>
<path d="M225.621 119.539C225.621 119.539 226.071 119.539 226.931 119.379C228.193 119.141 229.376 118.591 230.371 117.779C231.167 117.119 231.819 116.303 232.287 115.381C232.755 114.459 233.028 113.451 233.091 112.419C233.091 109.979 233.091 107.139 233.091 103.959C233.091 91.249 233.041 73.069 233.001 51.089L233.061 51.239L203.261 20.579L203.441 20.649H166.681C165.706 20.6144 164.73 20.6511 163.761 20.759C162.808 20.9198 161.897 21.2677 161.08 21.7827C160.263 22.2976 159.557 22.9693 159.001 23.759C158.215 24.853 157.751 26.145 157.661 27.489C157.661 28.829 157.661 30.239 157.661 31.609V55.809C157.661 66.299 157.661 76.429 157.661 86.069C157.661 90.889 157.661 95.599 157.661 100.169V106.919C157.661 108.029 157.661 109.129 157.661 110.219C157.611 111.284 157.658 112.352 157.801 113.409C158.103 114.914 158.867 116.287 159.985 117.339C161.103 118.391 162.52 119.069 164.041 119.279C165.039 119.358 166.04 119.382 167.041 119.349H178.491L213.041 119.429H222.431H224.881H225.711H224.881H222.431L213.041 119.479L178.491 119.559H167.041C166.04 119.585 165.038 119.559 164.041 119.479C162.984 119.35 161.963 119.01 161.041 118.479C160.109 117.919 159.304 117.171 158.677 116.282C158.051 115.394 157.616 114.385 157.401 113.319C157.248 112.236 157.195 111.142 157.241 110.049V106.749C157.241 104.529 157.241 102.279 157.241 99.999C157.241 95.429 157.241 90.719 157.241 85.899C157.241 76.259 157.241 66.129 157.241 55.639C157.241 50.3923 157.241 45.059 157.241 39.639V31.589C157.241 30.199 157.241 28.849 157.241 27.429C157.336 25.987 157.835 24.601 158.681 23.429C159.279 22.5887 160.038 21.8752 160.913 21.3294C161.788 20.7837 162.763 20.4165 163.781 20.249C164.776 20.1349 165.779 20.0948 166.781 20.129H203.641L203.711 20.209L233.461 50.919L233.521 50.989V51.129C233.521 73.129 233.451 91.289 233.431 103.999C233.431 107.179 233.431 109.999 233.381 112.479C233.313 113.533 233.026 114.56 232.539 115.497C232.051 116.434 231.374 117.259 230.551 117.919C229.536 118.737 228.327 119.278 227.041 119.489C226.71 119.546 226.376 119.576 226.041 119.579L225.621 119.539Z" fill="#263238"/>
<path d="M233.211 51.1284C233.017 51.1742 232.819 51.1943 232.621 51.1884H230.951L224.801 51.2784L215.671 51.3284H210.271C209.269 51.3025 208.284 51.0697 207.377 50.6446C206.47 50.2196 205.661 49.6114 205.001 48.8584C204.327 48.0946 203.819 47.199 203.511 46.2284C203.23 45.2888 203.119 44.307 203.181 43.3284C203.181 41.4584 203.181 39.6584 203.181 37.9384C203.181 34.5184 203.181 31.4284 203.241 28.8084C203.301 26.1884 203.301 24.1784 203.321 22.6584C203.321 21.9784 203.321 21.4284 203.321 20.9884C203.309 20.7904 203.326 20.5917 203.371 20.3984C203.399 20.5941 203.399 20.7928 203.371 20.9884C203.371 21.4284 203.371 21.9884 203.421 22.6584C203.421 24.1784 203.471 26.2684 203.501 28.8084C203.531 31.3484 203.501 34.5184 203.561 37.9384C203.561 39.6584 203.561 41.4584 203.561 43.3284C203.502 44.2529 203.607 45.1805 203.871 46.0684C204.304 47.4108 205.14 48.587 206.265 49.437C207.391 50.287 208.751 50.7693 210.161 50.8184H215.541L224.671 50.8784L230.821 50.9584H232.491C232.736 50.9919 232.977 51.0488 233.211 51.1284Z" fill="#263238"/>
<path d="M202.281 41.4885C202.281 41.6285 195.121 41.7485 186.281 41.7485C177.441 41.7485 170.281 41.6285 170.281 41.4885C170.281 41.3485 177.451 41.2285 186.281 41.2285C195.111 41.2285 202.281 41.3385 202.281 41.4885Z" fill="#263238"/>
<path d="M217.471 53.2678C217.471 53.4178 206.901 53.5278 193.881 53.5278C180.861 53.5278 170.281 53.4178 170.281 53.2678C170.281 53.1178 180.841 53.0078 193.881 53.0078C206.921 53.0078 217.471 53.1278 217.471 53.2678Z" fill="#263238"/>
<path d="M217.471 65.0588C217.471 65.1988 206.901 65.3188 193.881 65.3188C180.861 65.3188 170.281 65.1988 170.281 65.0588C170.281 64.9188 180.841 64.7988 193.881 64.7988C206.921 64.7988 217.471 64.9188 217.471 65.0588Z" fill="#263238"/>
<path d="M217.471 76.8498C217.471 76.9898 206.901 77.1098 193.881 77.1098C180.861 77.1098 170.281 76.9898 170.281 76.8498C170.281 76.7098 180.841 76.5898 193.881 76.5898C206.921 76.5898 217.471 76.6998 217.471 76.8498Z" fill="#263238"/>
<path d="M217.471 88.6291C217.471 88.7791 206.901 88.8891 193.881 88.8891C180.861 88.8891 170.281 88.7791 170.281 88.6291C170.281 88.4791 180.841 88.3691 193.881 88.3691C206.921 88.3691 217.471 88.4891 217.471 88.6291Z" fill="#263238"/>
<path d="M217.471 100.42C217.471 100.57 206.901 100.68 193.881 100.68C180.861 100.68 170.281 100.56 170.281 100.42C170.281 100.28 180.841 100.16 193.881 100.16C206.921 100.16 217.471 100.28 217.471 100.42Z" fill="#263238"/>
<path d="M191.071 80.0195H147.991C145.661 80.0195 143.771 81.9089 143.771 84.2395V98.9495C143.771 101.28 145.661 103.17 147.991 103.17H191.071C193.402 103.17 195.291 101.28 195.291 98.9495V84.2395C195.291 81.9089 193.402 80.0195 191.071 80.0195Z" fill="#80DED9"/>
<path d="M161.881 96.2988L159.771 93.2988L157.691 96.2988H155.371L158.601 91.8488L155.531 87.5488H157.831L159.831 90.3888L161.831 87.5488H164.001L161.001 91.7688L164.261 96.2988H161.881Z" fill="black"/>
<path d="M165 87.5488H167V94.6488H171.38V96.2988H165V87.5488Z" fill="black"/>
<path d="M171.82 95.4392L172.51 93.9092C173.356 94.4975 174.36 94.8149 175.39 94.8192C176.59 94.8192 177.08 94.4192 177.08 93.8892C177.08 92.2492 171.99 93.3692 171.99 90.1192C171.99 88.6392 173.19 87.3992 175.68 87.3992C176.733 87.3822 177.77 87.6518 178.68 88.1792L178.05 89.7092C177.316 89.2766 176.483 89.0391 175.63 89.0192C174.43 89.0192 173.97 89.4792 173.97 90.0192C173.97 91.6392 179.05 90.5192 179.05 93.7392C179.05 95.1992 177.84 96.4492 175.34 96.4492C174.092 96.474 172.865 96.122 171.82 95.4392Z" fill="black"/>
<path d="M600.801 372.759H539.181C537.136 372.759 535.175 371.947 533.729 370.501C532.283 369.055 531.471 367.094 531.471 365.049V279.749C531.471 277.704 532.283 275.743 533.729 274.297C535.175 272.851 537.136 272.039 539.181 272.039H578.261L608.511 303.219V365.049C608.511 367.094 607.698 369.055 606.253 370.501C604.807 371.947 602.846 372.759 600.801 372.759Z" fill="#EBEBEB"/>
<path d="M578.262 272.039V296.039C578.262 297.941 579.017 299.764 580.362 301.109C581.706 302.454 583.53 303.209 585.432 303.209H608.512L578.262 272.039Z" fill="#F5F5F5"/>
<path d="M578.57 298.129C578.57 298.129 578.27 303.959 584.9 305.869C585.147 305.941 585.397 305.998 585.65 306.039C588.65 306.579 608.51 310.109 608.51 309.649V303.199H585.43C585.43 303.199 579.66 303.029 578.57 298.129Z" fill="#E0E0E0"/>
<path d="M600.8 372.76C600.8 372.76 601.26 372.76 602.13 372.6C603.415 372.359 604.618 371.798 605.63 370.97C606.439 370.302 607.102 369.474 607.577 368.538C608.052 367.602 608.329 366.578 608.39 365.53C608.39 363.04 608.39 360.16 608.39 356.94C608.39 344.02 608.39 325.55 608.3 303.22L608.36 303.37L578.09 272.22L578.27 272.29H540.92C539.918 272.253 538.916 272.29 537.92 272.4C535.973 272.721 534.233 273.799 533.08 275.4C532.28 276.512 531.805 277.824 531.71 279.19C531.71 280.56 531.71 281.99 531.71 283.38C531.71 286.173 531.71 288.947 531.71 291.7V307.96C531.71 318.62 531.71 328.91 531.71 338.71C531.71 343.61 531.71 348.383 531.71 353.03V359.89C531.71 361.01 531.71 362.13 531.71 363.24C531.658 364.322 531.708 365.407 531.86 366.48C532.162 368.013 532.933 369.415 534.068 370.49C535.202 371.565 536.642 372.26 538.19 372.48C539.19 372.6 540.19 372.54 541.19 372.56H552.83L587.93 372.65H597.47H599.95H600.8H599.95H597.47L587.93 372.7L552.83 372.78H541.19C540.162 372.808 539.134 372.781 538.11 372.7C536.477 372.482 534.952 371.76 533.749 370.634C532.546 369.509 531.725 368.035 531.4 366.42C531.246 365.317 531.195 364.202 531.25 363.09C531.25 361.98 531.25 360.86 531.25 359.74V352.88C531.25 348.213 531.25 343.44 531.25 338.56C531.25 328.76 531.25 318.47 531.25 307.81V283.41C531.25 282 531.25 280.63 531.25 279.19C531.347 277.727 531.853 276.32 532.71 275.13C533.942 273.411 535.804 272.25 537.89 271.9C538.886 271.788 539.888 271.748 540.89 271.78H578.33L578.4 271.86L608.63 303.06L608.69 303.13V303.21C608.69 325.54 608.62 344.01 608.6 356.93C608.6 360.15 608.6 363.02 608.6 365.53C608.531 366.6 608.24 367.645 607.746 368.597C607.252 369.548 606.565 370.387 605.73 371.06C604.699 371.895 603.469 372.446 602.16 372.66C601.829 372.716 601.495 372.746 601.16 372.75L600.8 372.76Z" fill="#263238"/>
<path d="M608.511 303.22C608.314 303.265 608.113 303.285 607.911 303.28H606.211L599.961 303.37L590.691 303.42H585.211C583.67 303.377 582.18 302.856 580.949 301.927C579.717 300.999 578.806 299.71 578.341 298.24C578.062 297.286 577.947 296.292 578.001 295.3C578.001 293.4 578.001 291.57 578.001 289.82C578.001 286.35 578.001 283.21 578.051 280.55C578.101 277.89 578.111 275.84 578.131 274.3C578.131 273.6 578.131 273.04 578.181 272.6C578.176 272.398 578.196 272.197 578.241 272C578.256 272.2 578.256 272.4 578.241 272.6L578.291 274.3C578.291 275.84 578.291 277.96 578.371 280.55C578.451 283.14 578.371 286.35 578.431 289.82C578.431 291.57 578.431 293.4 578.431 295.3C578.376 296.238 578.485 297.179 578.751 298.08C579.045 298.998 579.525 299.846 580.161 300.57C580.79 301.282 581.558 301.857 582.418 302.259C583.278 302.662 584.212 302.883 585.161 302.91H590.631L599.901 302.97L606.151 303.05L607.851 303.1C608.074 303.122 608.295 303.162 608.511 303.22Z" fill="#263238"/>
<path d="M577.09 293.459C577.09 293.609 569.81 293.719 560.84 293.719C551.87 293.719 544.58 293.609 544.58 293.459C544.58 293.309 551.86 293.199 560.84 293.199C569.82 293.199 577.09 293.319 577.09 293.459Z" fill="#263238"/>
<path d="M592.521 305.44C592.521 305.58 581.781 305.7 568.521 305.7C555.261 305.7 544.521 305.58 544.521 305.44C544.521 305.3 555.251 305.18 568.521 305.18C581.791 305.18 592.521 305.29 592.521 305.44Z" fill="#263238"/>
<path d="M592.521 317.408C592.521 317.558 581.781 317.668 568.521 317.668C555.261 317.668 544.521 317.558 544.521 317.408C544.521 317.258 555.251 317.148 568.521 317.148C581.791 317.148 592.521 317.268 592.521 317.408Z" fill="#263238"/>
<path d="M592.521 329.389C592.521 329.529 581.781 329.649 568.521 329.649C555.261 329.649 544.521 329.529 544.521 329.389C544.521 329.249 555.251 329.129 568.521 329.129C581.791 329.129 592.521 329.239 592.521 329.389Z" fill="#263238"/>
<path d="M592.521 341.36C592.521 341.51 581.781 341.62 568.521 341.62C555.261 341.62 544.521 341.51 544.521 341.36C544.521 341.21 555.251 341.1 568.521 341.1C581.791 341.1 592.521 341.22 592.521 341.36Z" fill="#263238"/>
<path d="M592.521 356.129C592.521 356.279 581.781 356.389 568.521 356.389C555.261 356.389 544.521 356.279 544.521 356.129C544.521 355.979 555.251 355.869 568.521 355.869C581.791 355.869 592.521 355.989 592.521 356.129Z" fill="#263238"/>
<path d="M565.77 332.609H521.87C519.54 332.609 517.65 334.499 517.65 336.829V351.909C517.65 354.24 519.54 356.129 521.87 356.129H565.77C568.101 356.129 569.99 354.24 569.99 351.909V336.829C569.99 334.499 568.101 332.609 565.77 332.609Z" fill="#80DED9"/>
<path d="M523.711 340.279H527.711C530.621 340.279 532.611 342.029 532.611 344.729C532.611 347.429 530.611 349.169 527.711 349.169H523.711V340.279ZM527.651 347.479C528.027 347.502 528.403 347.447 528.757 347.319C529.111 347.191 529.435 346.992 529.709 346.734C529.983 346.476 530.201 346.164 530.351 345.819C530.5 345.473 530.577 345.101 530.577 344.724C530.577 344.348 530.5 343.975 530.351 343.63C530.201 343.284 529.983 342.973 529.709 342.715C529.435 342.457 529.111 342.258 528.757 342.129C528.403 342.001 528.027 341.947 527.651 341.969H525.771V347.479H527.651Z" fill="black"/>
<path d="M533.641 344.728C533.585 343.755 533.822 342.787 534.323 341.949C534.823 341.112 535.563 340.445 536.447 340.033C537.331 339.622 538.319 339.485 539.281 339.641C540.244 339.797 541.138 340.238 541.847 340.908C542.556 341.577 543.047 342.444 543.258 343.396C543.468 344.349 543.388 345.342 543.028 346.248C542.667 347.154 542.043 347.931 541.236 348.479C540.429 349.026 539.476 349.319 538.501 349.318C537.876 349.353 537.251 349.261 536.663 349.046C536.075 348.832 535.537 348.499 535.082 348.07C534.627 347.64 534.265 347.122 534.017 346.548C533.769 345.973 533.641 345.354 533.641 344.728ZM541.281 344.728C541.269 344.181 541.096 343.65 540.783 343.2C540.471 342.751 540.033 342.404 539.524 342.203C539.015 342.002 538.458 341.955 537.923 342.069C537.387 342.183 536.898 342.452 536.515 342.843C536.132 343.235 535.873 343.73 535.771 344.267C535.668 344.805 535.727 345.361 535.939 345.865C536.151 346.37 536.507 346.801 536.963 347.103C537.419 347.406 537.954 347.568 538.501 347.568C538.873 347.577 539.244 347.509 539.589 347.368C539.934 347.228 540.247 347.018 540.507 346.752C540.768 346.485 540.971 346.168 541.104 345.82C541.237 345.472 541.297 345.1 541.281 344.728Z" fill="black"/>
<path d="M544.352 344.729C544.417 343.775 544.759 342.86 545.338 342.099C545.916 341.337 546.705 340.762 547.606 340.443C548.508 340.124 549.483 340.076 550.411 340.304C551.34 340.533 552.181 341.028 552.832 341.729L551.512 342.949C551.234 342.628 550.89 342.372 550.503 342.199C550.116 342.026 549.695 341.941 549.272 341.949C548.546 341.992 547.865 342.31 547.366 342.839C546.868 343.368 546.59 344.067 546.59 344.794C546.59 345.52 546.868 346.22 547.366 346.748C547.865 347.277 548.546 347.596 549.272 347.639C549.7 347.642 550.123 347.549 550.511 347.367C550.898 347.186 551.24 346.92 551.512 346.589L552.832 347.799C552.185 348.509 551.343 349.012 550.412 349.246C549.481 349.48 548.501 349.434 547.596 349.114C546.69 348.793 545.9 348.213 545.323 347.446C544.746 346.678 544.408 345.757 544.352 344.799V344.729Z" fill="black"/>
<path d="M559.63 349.128L557.49 346.128L555.38 349.128H553L556.28 344.608L553.16 340.238H555.5L557.5 343.118L559.5 340.238H561.72L558.62 344.528L562 349.128H559.63Z" fill="black"/>
<path d="M667.72 402.049C667.72 402.189 518.24 402.309 333.88 402.309C149.52 402.309 0 402.189 0 402.049C0 401.909 149.45 401.789 333.88 401.789C518.31 401.789 667.72 401.909 667.72 402.049Z" fill="#263238"/>
</g>
<defs>
<clipPath id="clip0_1462_9241">
<rect width="680.74" height="404.12" fill="white" transform="translate(0 0.128906)"/>
</clipPath>
</defs>
</svg>
