<svg width="593" height="483" viewBox="0 0 593 483" fill="none" xmlns="http://www.w3.org/2000/svg">
<g filter="url(#filter0_d_2384_61)">
<rect x="15.1719" y="5.5" width="562" height="452" rx="10" fill="#3C3C3C"/>
</g>
<path d="M60.5753 252.5V216.136H64.9787V232.33H84.3679V216.136H88.7713V252.5H84.3679V236.236H64.9787V252.5H60.5753ZM108.098 253.068C105.636 253.068 103.476 252.482 101.618 251.31C99.771 250.138 98.3268 248.499 97.2852 246.392C96.2553 244.285 95.7404 241.823 95.7404 239.006C95.7404 236.165 96.2553 233.685 97.2852 231.566C98.3268 229.447 99.771 227.802 101.618 226.63C103.476 225.458 105.636 224.872 108.098 224.872C110.56 224.872 112.715 225.458 114.561 226.63C116.42 227.802 117.864 229.447 118.894 231.566C119.935 233.685 120.456 236.165 120.456 239.006C120.456 241.823 119.935 244.285 118.894 246.392C117.864 248.499 116.42 250.138 114.561 251.31C112.715 252.482 110.56 253.068 108.098 253.068ZM108.098 249.304C109.969 249.304 111.507 248.825 112.715 247.866C113.922 246.907 114.816 245.646 115.396 244.084C115.976 242.521 116.266 240.829 116.266 239.006C116.266 237.183 115.976 235.484 115.396 233.91C114.816 232.335 113.922 231.063 112.715 230.092C111.507 229.122 109.969 228.636 108.098 228.636C106.228 228.636 104.689 229.122 103.482 230.092C102.275 231.063 101.381 232.335 100.801 233.91C100.221 235.484 99.9308 237.183 99.9308 239.006C99.9308 240.829 100.221 242.521 100.801 244.084C101.381 245.646 102.275 246.907 103.482 247.866C104.689 248.825 106.228 249.304 108.098 249.304ZM132.104 252.5L123.794 225.227H128.198L134.093 246.108H134.377L140.201 225.227H144.675L150.428 246.037H150.712L156.607 225.227H161.01L152.701 252.5H148.581L142.615 231.548H142.189L136.223 252.5H132.104ZM192.473 225.227V228.778H178.34V225.227H192.473ZM182.459 218.693H186.65V244.688C186.65 245.871 186.821 246.759 187.164 247.351C187.52 247.931 187.969 248.321 188.514 248.523C189.07 248.712 189.656 248.807 190.272 248.807C190.733 248.807 191.112 248.783 191.408 248.736C191.704 248.677 191.941 248.629 192.118 248.594L192.971 252.358C192.686 252.464 192.29 252.571 191.781 252.678C191.272 252.796 190.627 252.855 189.846 252.855C188.662 252.855 187.502 252.601 186.365 252.092C185.241 251.583 184.306 250.807 183.56 249.766C182.826 248.724 182.459 247.41 182.459 245.824V218.693ZM209.563 253.068C207.101 253.068 204.941 252.482 203.082 251.31C201.236 250.138 199.792 248.499 198.75 246.392C197.72 244.285 197.205 241.823 197.205 239.006C197.205 236.165 197.72 233.685 198.75 231.566C199.792 229.447 201.236 227.802 203.082 226.63C204.941 225.458 207.101 224.872 209.563 224.872C212.025 224.872 214.18 225.458 216.026 226.63C217.885 227.802 219.329 229.447 220.359 231.566C221.4 233.685 221.921 236.165 221.921 239.006C221.921 241.823 221.4 244.285 220.359 246.392C219.329 248.499 217.885 250.138 216.026 251.31C214.18 252.482 212.025 253.068 209.563 253.068ZM209.563 249.304C211.433 249.304 212.972 248.825 214.18 247.866C215.387 246.907 216.281 245.646 216.861 244.084C217.441 242.521 217.731 240.829 217.731 239.006C217.731 237.183 217.441 235.484 216.861 233.91C216.281 232.335 215.387 231.063 214.18 230.092C212.972 229.122 211.433 228.636 209.563 228.636C207.693 228.636 206.154 229.122 204.947 230.092C203.739 231.063 202.846 232.335 202.266 233.91C201.686 235.484 201.396 237.183 201.396 239.006C201.396 240.829 201.686 242.521 202.266 244.084C202.846 245.646 203.739 246.907 204.947 247.866C206.154 248.825 207.693 249.304 209.563 249.304ZM254.525 225.227V228.778H239.823V225.227H254.525ZM244.227 252.5V221.463C244.227 219.901 244.594 218.598 245.328 217.557C246.061 216.515 247.014 215.734 248.186 215.213C249.358 214.692 250.595 214.432 251.897 214.432C252.927 214.432 253.767 214.515 254.419 214.68C255.07 214.846 255.555 215 255.874 215.142L254.667 218.764C254.454 218.693 254.158 218.604 253.779 218.498C253.412 218.391 252.927 218.338 252.323 218.338C250.938 218.338 249.938 218.687 249.323 219.386C248.719 220.084 248.417 221.108 248.417 222.457V252.5H244.227ZM260.398 252.5V225.227H264.588V252.5H260.398ZM262.528 220.682C261.712 220.682 261.007 220.404 260.415 219.847C259.835 219.291 259.545 218.622 259.545 217.841C259.545 217.06 259.835 216.391 260.415 215.835C261.007 215.278 261.712 215 262.528 215C263.345 215 264.044 215.278 264.624 215.835C265.215 216.391 265.511 217.06 265.511 217.841C265.511 218.622 265.215 219.291 264.624 219.847C264.044 220.404 263.345 220.682 262.528 220.682ZM276.453 216.136V252.5H272.263V216.136H276.453ZM295.563 253.068C292.935 253.068 290.668 252.488 288.762 251.328C286.868 250.156 285.407 248.523 284.377 246.428C283.359 244.321 282.85 241.87 282.85 239.077C282.85 236.283 283.359 233.821 284.377 231.69C285.407 229.548 286.839 227.879 288.674 226.683C290.52 225.476 292.675 224.872 295.137 224.872C296.557 224.872 297.96 225.109 299.345 225.582C300.73 226.056 301.99 226.825 303.127 227.891C304.263 228.944 305.169 230.341 305.843 232.081C306.518 233.821 306.855 235.964 306.855 238.509V240.284H285.833V236.662H302.594C302.594 235.123 302.286 233.75 301.671 232.543C301.067 231.335 300.203 230.382 299.078 229.684C297.966 228.986 296.652 228.636 295.137 228.636C293.468 228.636 292.024 229.051 290.804 229.879C289.597 230.696 288.668 231.761 288.017 233.075C287.366 234.389 287.04 235.798 287.04 237.301V239.716C287.04 241.776 287.395 243.522 288.105 244.954C288.828 246.374 289.828 247.457 291.106 248.203C292.385 248.937 293.87 249.304 295.563 249.304C296.664 249.304 297.658 249.15 298.546 248.842C299.445 248.523 300.221 248.049 300.872 247.422C301.523 246.783 302.026 245.99 302.381 245.043L306.429 246.179C306.003 247.552 305.287 248.759 304.281 249.801C303.275 250.831 302.032 251.636 300.552 252.216C299.073 252.784 297.409 253.068 295.563 253.068ZM332.264 216.136V252.5H327.86V216.136H332.264ZM339.104 220.043V216.136H366.377V220.043H354.942V252.5H350.539V220.043H339.104ZM373.173 252.5V216.136H385.46C388.301 216.136 390.633 216.622 392.456 217.592C394.279 218.551 395.628 219.871 396.504 221.552C397.38 223.233 397.818 225.144 397.818 227.287C397.818 229.429 397.38 231.329 396.504 232.987C395.628 234.644 394.284 235.946 392.473 236.893C390.662 237.828 388.348 238.295 385.531 238.295H375.588V234.318H385.389C387.33 234.318 388.893 234.034 390.076 233.466C391.272 232.898 392.136 232.093 392.669 231.051C393.213 229.998 393.485 228.743 393.485 227.287C393.485 225.831 393.213 224.558 392.669 223.469C392.124 222.38 391.254 221.54 390.059 220.948C388.863 220.344 387.283 220.043 385.318 220.043H377.576V252.5H373.173ZM390.289 236.165L399.238 252.5H394.125L385.318 236.165H390.289ZM410.056 242.273V242.06C410.08 239.799 410.316 238 410.766 236.662C411.216 235.324 411.855 234.241 412.684 233.413C413.512 232.584 414.507 231.821 415.667 231.122C416.365 230.696 416.992 230.193 417.549 229.613C418.105 229.021 418.543 228.34 418.863 227.571C419.194 226.802 419.36 225.949 419.36 225.014C419.36 223.854 419.088 222.848 418.543 221.996C417.999 221.143 417.271 220.487 416.359 220.025C415.448 219.563 414.436 219.332 413.323 219.332C412.352 219.332 411.417 219.534 410.518 219.936C409.618 220.339 408.866 220.972 408.263 221.836C407.659 222.7 407.31 223.83 407.215 225.227H402.741C402.835 223.215 403.356 221.493 404.303 220.06C405.262 218.628 406.523 217.533 408.085 216.776C409.659 216.018 411.405 215.639 413.323 215.639C415.406 215.639 417.217 216.054 418.756 216.882C420.307 217.711 421.502 218.847 422.343 220.291C423.195 221.735 423.621 223.381 423.621 225.227C423.621 226.529 423.42 227.707 423.018 228.761C422.627 229.814 422.059 230.755 421.313 231.584C420.579 232.412 419.691 233.146 418.65 233.786C417.608 234.437 416.773 235.123 416.146 235.845C415.519 236.555 415.063 237.402 414.779 238.384C414.495 239.367 414.341 240.592 414.317 242.06V242.273H410.056ZM412.329 252.784C411.453 252.784 410.701 252.47 410.074 251.843C409.446 251.216 409.133 250.464 409.133 249.588C409.133 248.712 409.446 247.96 410.074 247.333C410.701 246.706 411.453 246.392 412.329 246.392C413.205 246.392 413.956 246.706 414.584 247.333C415.211 247.96 415.525 248.712 415.525 249.588C415.525 250.168 415.377 250.701 415.081 251.186C414.797 251.671 414.412 252.062 413.927 252.358C413.453 252.642 412.921 252.784 412.329 252.784Z" fill="white"/>
<path d="M60.5753 289.5L56.598 274.955H58.3878L61.4276 286.801H61.5696L64.6662 274.955H66.6548L69.7514 286.801H69.8935L72.9332 274.955H74.723L70.7457 289.5H68.9276L65.7173 277.909H65.6037L62.3935 289.5H60.5753ZM80.2486 289.727C79.1974 289.727 78.2907 289.495 77.5284 289.031C76.7708 288.562 76.1861 287.909 75.7741 287.071C75.367 286.228 75.1634 285.248 75.1634 284.131C75.1634 283.013 75.367 282.028 75.7741 281.176C76.1861 280.319 76.759 279.652 77.4929 279.173C78.2315 278.69 79.0933 278.449 80.0781 278.449C80.6463 278.449 81.2074 278.544 81.7614 278.733C82.3153 278.922 82.8196 279.23 83.2741 279.656C83.7287 280.078 84.0909 280.636 84.3608 281.332C84.6307 282.028 84.7656 282.885 84.7656 283.903V284.614H76.3565V283.165H83.0611C83.0611 282.549 82.938 282 82.6918 281.517C82.4503 281.034 82.1046 280.653 81.6548 280.374C81.2098 280.094 80.6842 279.955 80.0781 279.955C79.4105 279.955 78.8329 280.12 78.3452 280.452C77.8622 280.778 77.4905 281.205 77.2301 281.73C76.9697 282.256 76.8395 282.819 76.8395 283.42V284.386C76.8395 285.21 76.9815 285.909 77.2656 286.482C77.5545 287.05 77.9545 287.483 78.4659 287.781C78.9773 288.075 79.5715 288.222 80.2486 288.222C80.6889 288.222 81.0866 288.16 81.4418 288.037C81.8016 287.909 82.1117 287.72 82.3722 287.469C82.6326 287.213 82.8338 286.896 82.9759 286.517L84.5952 286.972C84.4247 287.521 84.1383 288.004 83.7358 288.42C83.3333 288.832 82.8362 289.154 82.2443 289.386C81.6525 289.614 80.9872 289.727 80.2486 289.727ZM97.3722 289.727C96.3494 289.727 95.4688 289.486 94.7301 289.003C93.9915 288.52 93.4233 287.855 93.0256 287.007C92.6278 286.16 92.429 285.191 92.429 284.102C92.429 282.994 92.6326 282.017 93.0398 281.169C93.4517 280.317 94.0246 279.652 94.7585 279.173C95.4972 278.69 96.3589 278.449 97.3438 278.449C98.1108 278.449 98.8021 278.591 99.4176 278.875C100.033 279.159 100.537 279.557 100.93 280.068C101.323 280.58 101.567 281.176 101.662 281.858H99.9858C99.858 281.361 99.5739 280.92 99.1335 280.537C98.6979 280.149 98.1108 279.955 97.3722 279.955C96.7188 279.955 96.1458 280.125 95.6534 280.466C95.1657 280.802 94.7846 281.278 94.5099 281.893C94.2401 282.504 94.1051 283.222 94.1051 284.045C94.1051 284.888 94.2377 285.622 94.5028 286.247C94.7727 286.872 95.1515 287.357 95.6392 287.703C96.1316 288.049 96.7093 288.222 97.3722 288.222C97.8078 288.222 98.2031 288.146 98.5582 287.994C98.9134 287.843 99.214 287.625 99.4602 287.341C99.7064 287.057 99.8816 286.716 99.9858 286.318H101.662C101.567 286.962 101.333 287.542 100.959 288.058C100.589 288.57 100.099 288.977 99.4886 289.28C98.8826 289.578 98.1771 289.727 97.3722 289.727ZM107.322 289.756C106.631 289.756 106.004 289.625 105.44 289.365C104.877 289.1 104.429 288.719 104.098 288.222C103.767 287.72 103.601 287.114 103.601 286.403C103.601 285.778 103.724 285.272 103.97 284.884C104.216 284.491 104.545 284.183 104.957 283.96C105.369 283.738 105.824 283.572 106.321 283.463C106.823 283.349 107.327 283.259 107.834 283.193C108.497 283.108 109.034 283.044 109.446 283.001C109.863 282.954 110.166 282.876 110.355 282.767C110.549 282.658 110.646 282.469 110.646 282.199V282.142C110.646 281.441 110.455 280.897 110.071 280.509C109.692 280.12 109.117 279.926 108.345 279.926C107.545 279.926 106.918 280.101 106.463 280.452C106.009 280.802 105.689 281.176 105.504 281.574L103.913 281.006C104.197 280.343 104.576 279.827 105.05 279.457C105.528 279.083 106.049 278.823 106.612 278.676C107.18 278.525 107.739 278.449 108.288 278.449C108.639 278.449 109.041 278.491 109.496 278.577C109.955 278.657 110.398 278.825 110.824 279.081C111.255 279.337 111.612 279.723 111.896 280.239C112.18 280.755 112.322 281.446 112.322 282.312V289.5H110.646V288.023H110.561C110.447 288.259 110.258 288.513 109.993 288.783C109.728 289.053 109.375 289.282 108.935 289.472C108.494 289.661 107.957 289.756 107.322 289.756ZM107.578 288.25C108.241 288.25 108.8 288.12 109.254 287.859C109.714 287.599 110.059 287.263 110.291 286.851C110.528 286.439 110.646 286.006 110.646 285.551V284.017C110.575 284.102 110.419 284.18 110.178 284.251C109.941 284.318 109.666 284.377 109.354 284.429C109.046 284.476 108.745 284.519 108.452 284.557C108.163 284.59 107.929 284.618 107.749 284.642C107.313 284.699 106.906 284.791 106.527 284.919C106.153 285.042 105.85 285.229 105.618 285.48C105.391 285.726 105.277 286.062 105.277 286.489C105.277 287.071 105.492 287.511 105.923 287.81C106.359 288.103 106.911 288.25 107.578 288.25ZM117.058 282.938V289.5H115.382V278.591H117.001V280.295H117.143C117.399 279.741 117.787 279.296 118.308 278.96C118.829 278.619 119.501 278.449 120.325 278.449C121.064 278.449 121.71 278.6 122.264 278.903C122.818 279.202 123.249 279.656 123.556 280.267C123.864 280.873 124.018 281.64 124.018 282.568V289.5H122.342V282.682C122.342 281.825 122.119 281.157 121.674 280.679C121.229 280.196 120.618 279.955 119.842 279.955C119.307 279.955 118.829 280.071 118.407 280.303C117.991 280.535 117.662 280.873 117.42 281.318C117.179 281.763 117.058 282.303 117.058 282.938ZM134.382 282.938V289.5H132.706V274.955H134.382V280.295H134.524C134.78 279.732 135.163 279.285 135.675 278.953C136.191 278.617 136.877 278.449 137.734 278.449C138.478 278.449 139.129 278.598 139.688 278.896C140.246 279.19 140.679 279.642 140.987 280.253C141.3 280.859 141.456 281.631 141.456 282.568V289.5H139.78V282.682C139.78 281.815 139.555 281.145 139.105 280.672C138.66 280.194 138.042 279.955 137.251 279.955C136.702 279.955 136.21 280.071 135.774 280.303C135.343 280.535 135.002 280.873 134.751 281.318C134.505 281.763 134.382 282.303 134.382 282.938ZM149.096 289.727C148.045 289.727 147.138 289.495 146.376 289.031C145.618 288.562 145.034 287.909 144.622 287.071C144.215 286.228 144.011 285.248 144.011 284.131C144.011 283.013 144.215 282.028 144.622 281.176C145.034 280.319 145.607 279.652 146.341 279.173C147.079 278.69 147.941 278.449 148.926 278.449C149.494 278.449 150.055 278.544 150.609 278.733C151.163 278.922 151.667 279.23 152.122 279.656C152.576 280.078 152.939 280.636 153.208 281.332C153.478 282.028 153.613 282.885 153.613 283.903V284.614H145.204V283.165H151.909C151.909 282.549 151.786 282 151.539 281.517C151.298 281.034 150.952 280.653 150.502 280.374C150.057 280.094 149.532 279.955 148.926 279.955C148.258 279.955 147.681 280.12 147.193 280.452C146.71 280.778 146.338 281.205 146.078 281.73C145.817 282.256 145.687 282.819 145.687 283.42V284.386C145.687 285.21 145.829 285.909 146.113 286.482C146.402 287.05 146.802 287.483 147.314 287.781C147.825 288.075 148.419 288.222 149.096 288.222C149.537 288.222 149.934 288.16 150.289 288.037C150.649 287.909 150.959 287.72 151.22 287.469C151.48 287.213 151.681 286.896 151.824 286.517L153.443 286.972C153.272 287.521 152.986 288.004 152.583 288.42C152.181 288.832 151.684 289.154 151.092 289.386C150.5 289.614 149.835 289.727 149.096 289.727ZM157.839 274.955V289.5H156.163V274.955H157.839ZM160.909 293.591V278.591H162.528V280.324H162.727C162.85 280.134 163.021 279.893 163.239 279.599C163.461 279.301 163.778 279.036 164.19 278.804C164.607 278.567 165.17 278.449 165.881 278.449C166.799 278.449 167.609 278.679 168.31 279.138C169.01 279.597 169.557 280.248 169.95 281.091C170.343 281.934 170.54 282.928 170.54 284.074C170.54 285.229 170.343 286.231 169.95 287.078C169.557 287.921 169.013 288.574 168.317 289.038C167.621 289.498 166.818 289.727 165.909 289.727C165.208 289.727 164.647 289.611 164.226 289.379C163.804 289.143 163.48 288.875 163.253 288.577C163.026 288.274 162.85 288.023 162.727 287.824H162.585V293.591H160.909ZM162.557 284.045C162.557 284.869 162.678 285.596 162.919 286.226C163.161 286.851 163.513 287.341 163.977 287.696C164.441 288.046 165.009 288.222 165.682 288.222C166.383 288.222 166.967 288.037 167.436 287.668C167.91 287.294 168.265 286.792 168.501 286.162C168.743 285.527 168.864 284.822 168.864 284.045C168.864 283.278 168.745 282.587 168.509 281.972C168.277 281.351 167.924 280.861 167.45 280.501C166.982 280.137 166.392 279.955 165.682 279.955C165 279.955 164.427 280.127 163.963 280.473C163.499 280.814 163.149 281.292 162.912 281.908C162.675 282.518 162.557 283.231 162.557 284.045ZM179.801 293.591C179.517 293.591 179.264 293.567 179.041 293.52C178.819 293.477 178.665 293.435 178.58 293.392L179.006 291.915C179.413 292.019 179.773 292.057 180.085 292.028C180.398 292 180.675 291.86 180.916 291.609C181.162 291.363 181.387 290.963 181.591 290.409L181.903 289.557L177.869 278.591H179.688L182.699 287.284H182.812L185.824 278.591H187.642L183.011 291.091C182.803 291.654 182.545 292.121 182.237 292.49C181.929 292.864 181.572 293.141 181.165 293.321C180.762 293.501 180.308 293.591 179.801 293.591ZM193.896 289.727C192.911 289.727 192.047 289.493 191.303 289.024C190.565 288.555 189.987 287.9 189.57 287.057C189.158 286.214 188.952 285.229 188.952 284.102C188.952 282.966 189.158 281.974 189.57 281.126C189.987 280.279 190.565 279.621 191.303 279.152C192.047 278.683 192.911 278.449 193.896 278.449C194.88 278.449 195.742 278.683 196.481 279.152C197.224 279.621 197.802 280.279 198.214 281.126C198.63 281.974 198.839 282.966 198.839 284.102C198.839 285.229 198.63 286.214 198.214 287.057C197.802 287.9 197.224 288.555 196.481 289.024C195.742 289.493 194.88 289.727 193.896 289.727ZM193.896 288.222C194.644 288.222 195.259 288.03 195.742 287.646C196.225 287.263 196.583 286.759 196.815 286.134C197.047 285.509 197.163 284.831 197.163 284.102C197.163 283.373 197.047 282.694 196.815 282.064C196.583 281.434 196.225 280.925 195.742 280.537C195.259 280.149 194.644 279.955 193.896 279.955C193.147 279.955 192.532 280.149 192.049 280.537C191.566 280.925 191.209 281.434 190.977 282.064C190.745 282.694 190.629 283.373 190.629 284.102C190.629 284.831 190.745 285.509 190.977 286.134C191.209 286.759 191.566 287.263 192.049 287.646C192.532 288.03 193.147 288.222 193.896 288.222ZM208.272 285.04V278.591H209.949V289.5H208.272V287.653H208.159C207.903 288.207 207.505 288.679 206.966 289.067C206.426 289.45 205.744 289.642 204.92 289.642C204.238 289.642 203.632 289.493 203.102 289.195C202.572 288.892 202.155 288.437 201.852 287.831C201.549 287.22 201.397 286.451 201.397 285.523V278.591H203.074V285.409C203.074 286.205 203.296 286.839 203.741 287.312C204.191 287.786 204.764 288.023 205.46 288.023C205.877 288.023 206.3 287.916 206.731 287.703C207.167 287.49 207.531 287.163 207.825 286.723C208.123 286.283 208.272 285.722 208.272 285.04ZM221.115 289.5L217.791 278.591H219.553L221.911 286.943H222.024L224.354 278.591H226.143L228.445 286.915H228.558L230.916 278.591H232.678L229.354 289.5H227.706L225.32 281.119H225.149L222.763 289.5H221.115ZM234.893 289.5V278.591H236.57V289.5H234.893ZM235.746 276.773C235.419 276.773 235.137 276.661 234.901 276.439C234.669 276.216 234.553 275.949 234.553 275.636C234.553 275.324 234.669 275.056 234.901 274.834C235.137 274.611 235.419 274.5 235.746 274.5C236.072 274.5 236.352 274.611 236.584 274.834C236.821 275.056 236.939 275.324 236.939 275.636C236.939 275.949 236.821 276.216 236.584 276.439C236.352 276.661 236.072 276.773 235.746 276.773ZM244.384 278.591V280.011H238.73V278.591H244.384ZM240.378 275.977H242.054V286.375C242.054 286.848 242.123 287.204 242.26 287.44C242.402 287.672 242.582 287.829 242.8 287.909C243.023 287.985 243.257 288.023 243.503 288.023C243.688 288.023 243.839 288.013 243.958 287.994C244.076 287.971 244.171 287.952 244.242 287.938L244.583 289.443C244.469 289.486 244.31 289.528 244.107 289.571C243.903 289.618 243.645 289.642 243.333 289.642C242.859 289.642 242.395 289.54 241.941 289.337C241.491 289.133 241.117 288.823 240.819 288.406C240.525 287.99 240.378 287.464 240.378 286.83V275.977ZM248.816 282.938V289.5H247.14V274.955H248.816V280.295H248.958C249.213 279.732 249.597 279.285 250.108 278.953C250.624 278.617 251.311 278.449 252.168 278.449C252.911 278.449 253.562 278.598 254.121 278.896C254.68 279.19 255.113 279.642 255.421 280.253C255.733 280.859 255.89 281.631 255.89 282.568V289.5H254.213V282.682C254.213 281.815 253.989 281.145 253.539 280.672C253.094 280.194 252.476 279.955 251.685 279.955C251.136 279.955 250.643 280.071 250.208 280.303C249.777 280.535 249.436 280.873 249.185 281.318C248.939 281.763 248.816 282.303 248.816 282.938ZM269.325 278.591V280.011H263.672V278.591H269.325ZM265.32 275.977H266.996V286.375C266.996 286.848 267.064 287.204 267.202 287.44C267.344 287.672 267.524 287.829 267.741 287.909C267.964 287.985 268.198 288.023 268.445 288.023C268.629 288.023 268.781 288.013 268.899 287.994C269.018 287.971 269.112 287.952 269.183 287.938L269.524 289.443C269.411 289.486 269.252 289.528 269.048 289.571C268.845 289.618 268.587 289.642 268.274 289.642C267.801 289.642 267.337 289.54 266.882 289.337C266.432 289.133 266.058 288.823 265.76 288.406C265.466 287.99 265.32 287.464 265.32 286.83V275.977ZM273.757 282.938V289.5H272.081V274.955H273.757V280.295H273.899C274.155 279.732 274.538 279.285 275.05 278.953C275.566 278.617 276.252 278.449 277.109 278.449C277.853 278.449 278.504 278.598 279.062 278.896C279.621 279.19 280.054 279.642 280.362 280.253C280.675 280.859 280.831 281.631 280.831 282.568V289.5H279.155V282.682C279.155 281.815 278.93 281.145 278.48 280.672C278.035 280.194 277.417 279.955 276.626 279.955C276.077 279.955 275.585 280.071 275.149 280.303C274.718 280.535 274.377 280.873 274.126 281.318C273.88 281.763 273.757 282.303 273.757 282.938ZM287.108 289.756C286.416 289.756 285.789 289.625 285.225 289.365C284.662 289.1 284.215 288.719 283.883 288.222C283.552 287.72 283.386 287.114 283.386 286.403C283.386 285.778 283.509 285.272 283.755 284.884C284.002 284.491 284.331 284.183 284.743 283.96C285.154 283.738 285.609 283.572 286.106 283.463C286.608 283.349 287.112 283.259 287.619 283.193C288.282 283.108 288.819 283.044 289.231 283.001C289.648 282.954 289.951 282.876 290.14 282.767C290.334 282.658 290.431 282.469 290.431 282.199V282.142C290.431 281.441 290.24 280.897 289.856 280.509C289.477 280.12 288.902 279.926 288.13 279.926C287.33 279.926 286.703 280.101 286.248 280.452C285.794 280.802 285.474 281.176 285.289 281.574L283.699 281.006C283.983 280.343 284.361 279.827 284.835 279.457C285.313 279.083 285.834 278.823 286.397 278.676C286.966 278.525 287.524 278.449 288.074 278.449C288.424 278.449 288.826 278.491 289.281 278.577C289.74 278.657 290.183 278.825 290.609 279.081C291.04 279.337 291.397 279.723 291.681 280.239C291.966 280.755 292.108 281.446 292.108 282.312V289.5H290.431V288.023H290.346C290.233 288.259 290.043 288.513 289.778 288.783C289.513 289.053 289.16 289.282 288.72 289.472C288.279 289.661 287.742 289.756 287.108 289.756ZM287.363 288.25C288.026 288.25 288.585 288.12 289.039 287.859C289.499 287.599 289.844 287.263 290.076 286.851C290.313 286.439 290.431 286.006 290.431 285.551V284.017C290.36 284.102 290.204 284.18 289.963 284.251C289.726 284.318 289.451 284.377 289.139 284.429C288.831 284.476 288.53 284.519 288.237 284.557C287.948 284.59 287.714 284.618 287.534 284.642C287.098 284.699 286.691 284.791 286.312 284.919C285.938 285.042 285.635 285.229 285.403 285.48C285.176 285.726 285.062 286.062 285.062 286.489C285.062 287.071 285.278 287.511 285.708 287.81C286.144 288.103 286.696 288.25 287.363 288.25ZM299.911 278.591V280.011H294.258V278.591H299.911ZM295.906 275.977H297.582V286.375C297.582 286.848 297.65 287.204 297.788 287.44C297.93 287.672 298.11 287.829 298.327 287.909C298.55 287.985 298.784 288.023 299.031 288.023C299.215 288.023 299.367 288.013 299.485 287.994C299.603 287.971 299.698 287.952 299.769 287.938L300.11 289.443C299.996 289.486 299.838 289.528 299.634 289.571C299.431 289.618 299.173 289.642 298.86 289.642C298.387 289.642 297.923 289.54 297.468 289.337C297.018 289.133 296.644 288.823 296.346 288.406C296.052 287.99 295.906 287.464 295.906 286.83V275.977ZM304.933 287.511L304.819 288.278C304.738 288.818 304.615 289.396 304.45 290.011C304.289 290.627 304.121 291.207 303.945 291.751C303.77 292.296 303.626 292.729 303.512 293.051H302.234C302.295 292.748 302.376 292.348 302.475 291.851C302.575 291.354 302.674 290.797 302.773 290.182C302.878 289.571 302.963 288.946 303.029 288.307L303.114 287.511H304.933ZM316.873 289.756C316.182 289.756 315.555 289.625 314.991 289.365C314.428 289.1 313.98 288.719 313.649 288.222C313.317 287.72 313.152 287.114 313.152 286.403C313.152 285.778 313.275 285.272 313.521 284.884C313.767 284.491 314.096 284.183 314.508 283.96C314.92 283.738 315.375 283.572 315.872 283.463C316.374 283.349 316.878 283.259 317.385 283.193C318.047 283.108 318.585 283.044 318.997 283.001C319.413 282.954 319.717 282.876 319.906 282.767C320.1 282.658 320.197 282.469 320.197 282.199V282.142C320.197 281.441 320.005 280.897 319.622 280.509C319.243 280.12 318.668 279.926 317.896 279.926C317.096 279.926 316.468 280.101 316.014 280.452C315.559 280.802 315.24 281.176 315.055 281.574L313.464 281.006C313.748 280.343 314.127 279.827 314.6 279.457C315.079 279.083 315.6 278.823 316.163 278.676C316.731 278.525 317.29 278.449 317.839 278.449C318.19 278.449 318.592 278.491 319.047 278.577C319.506 278.657 319.949 278.825 320.375 279.081C320.806 279.337 321.163 279.723 321.447 280.239C321.731 280.755 321.873 281.446 321.873 282.312V289.5H320.197V288.023H320.112C319.998 288.259 319.809 288.513 319.544 288.783C319.279 289.053 318.926 289.282 318.485 289.472C318.045 289.661 317.508 289.756 316.873 289.756ZM317.129 288.25C317.792 288.25 318.35 288.12 318.805 287.859C319.264 287.599 319.61 287.263 319.842 286.851C320.079 286.439 320.197 286.006 320.197 285.551V284.017C320.126 284.102 319.97 284.18 319.728 284.251C319.492 284.318 319.217 284.377 318.904 284.429C318.597 284.476 318.296 284.519 318.002 284.557C317.714 284.59 317.479 284.618 317.299 284.642C316.864 284.699 316.457 284.791 316.078 284.919C315.704 285.042 315.401 285.229 315.169 285.48C314.941 285.726 314.828 286.062 314.828 286.489C314.828 287.071 315.043 287.511 315.474 287.81C315.91 288.103 316.461 288.25 317.129 288.25ZM326.609 274.955V289.5H324.933V274.955H326.609ZM331.355 274.955V289.5H329.679V274.955H331.355ZM341.129 293.591C340.845 293.591 340.592 293.567 340.369 293.52C340.147 293.477 339.993 293.435 339.908 293.392L340.334 291.915C340.741 292.019 341.101 292.057 341.413 292.028C341.726 292 342.003 291.86 342.244 291.609C342.491 291.363 342.715 290.963 342.919 290.409L343.232 289.557L339.197 278.591H341.016L344.027 287.284H344.141L347.152 278.591H348.97L344.339 291.091C344.131 291.654 343.873 292.121 343.565 292.49C343.258 292.864 342.9 293.141 342.493 293.321C342.09 293.501 341.636 293.591 341.129 293.591ZM355.224 289.727C354.239 289.727 353.375 289.493 352.631 289.024C351.893 288.555 351.315 287.9 350.898 287.057C350.487 286.214 350.281 285.229 350.281 284.102C350.281 282.966 350.487 281.974 350.898 281.126C351.315 280.279 351.893 279.621 352.631 279.152C353.375 278.683 354.239 278.449 355.224 278.449C356.209 278.449 357.07 278.683 357.809 279.152C358.552 279.621 359.13 280.279 359.542 281.126C359.959 281.974 360.167 282.966 360.167 284.102C360.167 285.229 359.959 286.214 359.542 287.057C359.13 287.9 358.552 288.555 357.809 289.024C357.07 289.493 356.209 289.727 355.224 289.727ZM355.224 288.222C355.972 288.222 356.587 288.03 357.07 287.646C357.553 287.263 357.911 286.759 358.143 286.134C358.375 285.509 358.491 284.831 358.491 284.102C358.491 283.373 358.375 282.694 358.143 282.064C357.911 281.434 357.553 280.925 357.07 280.537C356.587 280.149 355.972 279.955 355.224 279.955C354.476 279.955 353.86 280.149 353.377 280.537C352.894 280.925 352.537 281.434 352.305 282.064C352.073 282.694 351.957 283.373 351.957 284.102C351.957 284.831 352.073 285.509 352.305 286.134C352.537 286.759 352.894 287.263 353.377 287.646C353.86 288.03 354.476 288.222 355.224 288.222ZM369.6 285.04V278.591H371.277V289.5H369.6V287.653H369.487C369.231 288.207 368.833 288.679 368.294 289.067C367.754 289.45 367.072 289.642 366.248 289.642C365.566 289.642 364.96 289.493 364.43 289.195C363.9 288.892 363.483 288.437 363.18 287.831C362.877 287.22 362.725 286.451 362.725 285.523V278.591H364.402V285.409C364.402 286.205 364.624 286.839 365.069 287.312C365.519 287.786 366.092 288.023 366.788 288.023C367.205 288.023 367.628 287.916 368.059 287.703C368.495 287.49 368.859 287.163 369.153 286.723C369.451 286.283 369.6 285.722 369.6 285.04ZM381.648 282.938V289.5H379.972V278.591H381.591V280.295H381.733C381.989 279.741 382.377 279.296 382.898 278.96C383.419 278.619 384.091 278.449 384.915 278.449C385.653 278.449 386.3 278.6 386.854 278.903C387.408 279.202 387.839 279.656 388.146 280.267C388.454 280.873 388.608 281.64 388.608 282.568V289.5H386.932V282.682C386.932 281.825 386.709 281.157 386.264 280.679C385.819 280.196 385.208 279.955 384.432 279.955C383.897 279.955 383.419 280.071 382.997 280.303C382.58 280.535 382.251 280.873 382.01 281.318C381.768 281.763 381.648 282.303 381.648 282.938ZM396.245 289.727C395.194 289.727 394.287 289.495 393.525 289.031C392.767 288.562 392.182 287.909 391.77 287.071C391.363 286.228 391.159 285.248 391.159 284.131C391.159 283.013 391.363 282.028 391.77 281.176C392.182 280.319 392.755 279.652 393.489 279.173C394.228 278.69 395.089 278.449 396.074 278.449C396.642 278.449 397.203 278.544 397.757 278.733C398.311 278.922 398.816 279.23 399.27 279.656C399.725 280.078 400.087 280.636 400.357 281.332C400.627 282.028 400.762 282.885 400.762 283.903V284.614H392.353V283.165H399.057C399.057 282.549 398.934 282 398.688 281.517C398.446 281.034 398.101 280.653 397.651 280.374C397.206 280.094 396.68 279.955 396.074 279.955C395.407 279.955 394.829 280.12 394.341 280.452C393.858 280.778 393.487 281.205 393.226 281.73C392.966 282.256 392.836 282.819 392.836 283.42V284.386C392.836 285.21 392.978 285.909 393.262 286.482C393.551 287.05 393.951 287.483 394.462 287.781C394.973 288.075 395.568 288.222 396.245 288.222C396.685 288.222 397.083 288.16 397.438 288.037C397.798 287.909 398.108 287.72 398.368 287.469C398.629 287.213 398.83 286.896 398.972 286.517L400.591 286.972C400.421 287.521 400.134 288.004 399.732 288.42C399.329 288.832 398.832 289.154 398.24 289.386C397.649 289.614 396.983 289.727 396.245 289.727ZM407.885 289.727C406.834 289.727 405.927 289.495 405.165 289.031C404.408 288.562 403.823 287.909 403.411 287.071C403.004 286.228 402.8 285.248 402.8 284.131C402.8 283.013 403.004 282.028 403.411 281.176C403.823 280.319 404.396 279.652 405.13 279.173C405.868 278.69 406.73 278.449 407.715 278.449C408.283 278.449 408.844 278.544 409.398 278.733C409.952 278.922 410.456 279.23 410.911 279.656C411.365 280.078 411.728 280.636 411.998 281.332C412.267 282.028 412.402 282.885 412.402 283.903V284.614H403.993V283.165H410.698C410.698 282.549 410.575 282 410.328 281.517C410.087 281.034 409.741 280.653 409.292 280.374C408.846 280.094 408.321 279.955 407.715 279.955C407.047 279.955 406.47 280.12 405.982 280.452C405.499 280.778 405.127 281.205 404.867 281.73C404.606 282.256 404.476 282.819 404.476 283.42V284.386C404.476 285.21 404.618 285.909 404.902 286.482C405.191 287.05 405.591 287.483 406.103 287.781C406.614 288.075 407.208 288.222 407.885 288.222C408.326 288.222 408.723 288.16 409.078 288.037C409.438 287.909 409.748 287.72 410.009 287.469C410.269 287.213 410.471 286.896 410.613 286.517L412.232 286.972C412.061 287.521 411.775 288.004 411.373 288.42C410.97 288.832 410.473 289.154 409.881 289.386C409.289 289.614 408.624 289.727 407.885 289.727ZM419.071 289.727C418.162 289.727 417.36 289.498 416.664 289.038C415.968 288.574 415.423 287.921 415.03 287.078C414.637 286.231 414.441 285.229 414.441 284.074C414.441 282.928 414.637 281.934 415.03 281.091C415.423 280.248 415.97 279.597 416.671 279.138C417.372 278.679 418.181 278.449 419.1 278.449C419.81 278.449 420.371 278.567 420.783 278.804C421.2 279.036 421.517 279.301 421.735 279.599C421.957 279.893 422.13 280.134 422.253 280.324H422.395V274.955H424.071V289.5H422.452V287.824H422.253C422.13 288.023 421.955 288.274 421.728 288.577C421.5 288.875 421.176 289.143 420.755 289.379C420.333 289.611 419.772 289.727 419.071 289.727ZM419.299 288.222C419.971 288.222 420.539 288.046 421.003 287.696C421.467 287.341 421.82 286.851 422.061 286.226C422.303 285.596 422.424 284.869 422.424 284.045C422.424 283.231 422.305 282.518 422.069 281.908C421.832 281.292 421.481 280.814 421.017 280.473C420.553 280.127 419.98 279.955 419.299 279.955C418.588 279.955 417.997 280.137 417.523 280.501C417.054 280.861 416.702 281.351 416.465 281.972C416.233 282.587 416.117 283.278 416.117 284.045C416.117 284.822 416.235 285.527 416.472 286.162C416.713 286.792 417.069 287.294 417.537 287.668C418.011 288.037 418.598 288.222 419.299 288.222ZM437.743 278.591V280.011H432.09V278.591H437.743ZM433.738 275.977H435.414V286.375C435.414 286.848 435.482 287.204 435.62 287.44C435.762 287.672 435.942 287.829 436.159 287.909C436.382 287.985 436.616 288.023 436.863 288.023C437.047 288.023 437.199 288.013 437.317 287.994C437.435 287.971 437.53 287.952 437.601 287.938L437.942 289.443C437.828 289.486 437.67 289.528 437.466 289.571C437.263 289.618 437.005 289.642 436.692 289.642C436.219 289.642 435.755 289.54 435.3 289.337C434.85 289.133 434.476 288.823 434.178 288.406C433.884 287.99 433.738 287.464 433.738 286.83V275.977ZM444.579 289.727C443.594 289.727 442.73 289.493 441.987 289.024C441.248 288.555 440.671 287.9 440.254 287.057C439.842 286.214 439.636 285.229 439.636 284.102C439.636 282.966 439.842 281.974 440.254 281.126C440.671 280.279 441.248 279.621 441.987 279.152C442.73 278.683 443.594 278.449 444.579 278.449C445.564 278.449 446.426 278.683 447.164 279.152C447.908 279.621 448.485 280.279 448.897 281.126C449.314 281.974 449.522 282.966 449.522 284.102C449.522 285.229 449.314 286.214 448.897 287.057C448.485 287.9 447.908 288.555 447.164 289.024C446.426 289.493 445.564 289.727 444.579 289.727ZM444.579 288.222C445.327 288.222 445.943 288.03 446.426 287.646C446.909 287.263 447.266 286.759 447.498 286.134C447.73 285.509 447.846 284.831 447.846 284.102C447.846 283.373 447.73 282.694 447.498 282.064C447.266 281.434 446.909 280.925 446.426 280.537C445.943 280.149 445.327 279.955 444.579 279.955C443.831 279.955 443.216 280.149 442.733 280.537C442.25 280.925 441.892 281.434 441.66 282.064C441.428 282.694 441.312 283.373 441.312 284.102C441.312 284.831 441.428 285.509 441.66 286.134C441.892 286.759 442.25 287.263 442.733 287.646C443.216 288.03 443.831 288.222 444.579 288.222ZM461.825 289.727C460.916 289.727 460.114 289.498 459.418 289.038C458.722 288.574 458.177 287.921 457.784 287.078C457.391 286.231 457.195 285.229 457.195 284.074C457.195 282.928 457.391 281.934 457.784 281.091C458.177 280.248 458.724 279.597 459.425 279.138C460.125 278.679 460.935 278.449 461.854 278.449C462.564 278.449 463.125 278.567 463.537 278.804C463.954 279.036 464.271 279.301 464.489 279.599C464.711 279.893 464.884 280.134 465.007 280.324H465.149V274.955H466.825V289.5H465.206V287.824H465.007C464.884 288.023 464.709 288.274 464.482 288.577C464.254 288.875 463.93 289.143 463.509 289.379C463.087 289.611 462.526 289.727 461.825 289.727ZM462.053 288.222C462.725 288.222 463.293 288.046 463.757 287.696C464.221 287.341 464.574 286.851 464.815 286.226C465.057 285.596 465.178 284.869 465.178 284.045C465.178 283.231 465.059 282.518 464.822 281.908C464.586 281.292 464.235 280.814 463.771 280.473C463.307 280.127 462.734 279.955 462.053 279.955C461.342 279.955 460.75 280.137 460.277 280.501C459.808 280.861 459.455 281.351 459.219 281.972C458.987 282.587 458.871 283.278 458.871 284.045C458.871 284.822 458.989 285.527 459.226 286.162C459.467 286.792 459.822 287.294 460.291 287.668C460.765 288.037 461.352 288.222 462.053 288.222ZM474.56 289.727C473.575 289.727 472.711 289.493 471.967 289.024C471.229 288.555 470.651 287.9 470.234 287.057C469.822 286.214 469.616 285.229 469.616 284.102C469.616 282.966 469.822 281.974 470.234 281.126C470.651 280.279 471.229 279.621 471.967 279.152C472.711 278.683 473.575 278.449 474.56 278.449C475.545 278.449 476.406 278.683 477.145 279.152C477.888 279.621 478.466 280.279 478.878 281.126C479.295 281.974 479.503 282.966 479.503 284.102C479.503 285.229 479.295 286.214 478.878 287.057C478.466 287.9 477.888 288.555 477.145 289.024C476.406 289.493 475.545 289.727 474.56 289.727ZM474.56 288.222C475.308 288.222 475.923 288.03 476.406 287.646C476.889 287.263 477.247 286.759 477.479 286.134C477.711 285.509 477.827 284.831 477.827 284.102C477.827 283.373 477.711 282.694 477.479 282.064C477.247 281.434 476.889 280.925 476.406 280.537C475.923 280.149 475.308 279.955 474.56 279.955C473.812 279.955 473.196 280.149 472.713 280.537C472.23 280.925 471.873 281.434 471.641 282.064C471.409 282.694 471.293 283.373 471.293 284.102C471.293 284.831 471.409 285.509 471.641 286.134C471.873 286.759 472.23 287.263 472.713 287.646C473.196 288.03 473.812 288.222 474.56 288.222ZM57.706 313.5V302.591H59.3821V313.5H57.706ZM58.5582 300.773C58.2315 300.773 57.9498 300.661 57.7131 300.439C57.4811 300.216 57.3651 299.949 57.3651 299.636C57.3651 299.324 57.4811 299.056 57.7131 298.834C57.9498 298.611 58.2315 298.5 58.5582 298.5C58.8849 298.5 59.1643 298.611 59.3963 298.834C59.633 299.056 59.7514 299.324 59.7514 299.636C59.7514 299.949 59.633 300.216 59.3963 300.439C59.1643 300.661 58.8849 300.773 58.5582 300.773ZM70.1793 305.034L68.6737 305.46C68.579 305.209 68.4393 304.965 68.2546 304.729C68.0747 304.487 67.8285 304.288 67.516 304.132C67.2035 303.976 66.8034 303.898 66.3157 303.898C65.6481 303.898 65.0917 304.052 64.6467 304.359C64.2063 304.662 63.9862 305.048 63.9862 305.517C63.9862 305.934 64.1377 306.263 64.4407 306.504C64.7437 306.746 65.2172 306.947 65.8612 307.108L67.4805 307.506C68.4558 307.742 69.1826 308.105 69.6609 308.592C70.1391 309.075 70.3782 309.698 70.3782 310.46C70.3782 311.085 70.1983 311.644 69.8384 312.136C69.4833 312.629 68.9862 313.017 68.3469 313.301C67.7077 313.585 66.9644 313.727 66.1168 313.727C65.0041 313.727 64.0832 313.486 63.354 313.003C62.6249 312.52 62.1632 311.814 61.9691 310.886L63.56 310.489C63.7115 311.076 63.998 311.516 64.4194 311.81C64.8455 312.103 65.4019 312.25 66.0884 312.25C66.8697 312.25 67.4899 312.084 67.9492 311.753C68.4132 311.417 68.6452 311.014 68.6452 310.545C68.6452 310.167 68.5127 309.849 68.2475 309.594C67.9824 309.333 67.5752 309.139 67.0259 309.011L65.2077 308.585C64.2087 308.348 63.4748 307.982 63.006 307.484C62.542 306.982 62.31 306.355 62.31 305.602C62.31 304.987 62.4828 304.442 62.8285 303.969C63.1789 303.495 63.6547 303.124 64.256 302.854C64.8621 302.584 65.5487 302.449 66.3157 302.449C67.3952 302.449 68.2428 302.686 68.8583 303.159C69.4786 303.633 69.9189 304.258 70.1793 305.034ZM83.2706 302.591V304.011H77.6172V302.591H83.2706ZM79.2649 299.977H80.9411V310.375C80.9411 310.848 81.0097 311.204 81.147 311.44C81.2891 311.672 81.469 311.829 81.6868 311.909C81.9093 311.985 82.1437 312.023 82.3899 312.023C82.5746 312.023 82.7261 312.013 82.8445 311.994C82.9628 311.971 83.0575 311.952 83.1286 311.938L83.4695 313.443C83.3558 313.486 83.1972 313.528 82.9936 313.571C82.79 313.618 82.532 313.642 82.2195 313.642C81.746 313.642 81.282 313.54 80.8274 313.337C80.3776 313.133 80.0036 312.823 79.7053 312.406C79.4117 311.99 79.2649 311.464 79.2649 310.83V299.977ZM90.1065 313.727C89.1217 313.727 88.2576 313.493 87.5142 313.024C86.7756 312.555 86.1979 311.9 85.7812 311.057C85.3693 310.214 85.1634 309.229 85.1634 308.102C85.1634 306.966 85.3693 305.974 85.7812 305.126C86.1979 304.279 86.7756 303.621 87.5142 303.152C88.2576 302.683 89.1217 302.449 90.1065 302.449C91.0914 302.449 91.9531 302.683 92.6918 303.152C93.4351 303.621 94.0128 304.279 94.4247 305.126C94.8414 305.974 95.0497 306.966 95.0497 308.102C95.0497 309.229 94.8414 310.214 94.4247 311.057C94.0128 311.9 93.4351 312.555 92.6918 313.024C91.9531 313.493 91.0914 313.727 90.1065 313.727ZM90.1065 312.222C90.8546 312.222 91.4702 312.03 91.9531 311.646C92.4361 311.263 92.7936 310.759 93.0256 310.134C93.2576 309.509 93.3736 308.831 93.3736 308.102C93.3736 307.373 93.2576 306.694 93.0256 306.064C92.7936 305.434 92.4361 304.925 91.9531 304.537C91.4702 304.149 90.8546 303.955 90.1065 303.955C89.3584 303.955 88.7429 304.149 88.2599 304.537C87.777 304.925 87.4195 305.434 87.1875 306.064C86.9555 306.694 86.8395 307.373 86.8395 308.102C86.8395 308.831 86.9555 309.509 87.1875 310.134C87.4195 310.759 87.777 311.263 88.2599 311.646C88.7429 312.03 89.3584 312.222 90.1065 312.222ZM106.444 313.756C105.752 313.756 105.125 313.625 104.561 313.365C103.998 313.1 103.551 312.719 103.219 312.222C102.888 311.72 102.722 311.114 102.722 310.403C102.722 309.778 102.845 309.272 103.091 308.884C103.337 308.491 103.667 308.183 104.078 307.96C104.49 307.738 104.945 307.572 105.442 307.463C105.944 307.349 106.448 307.259 106.955 307.193C107.618 307.108 108.155 307.044 108.567 307.001C108.984 306.954 109.287 306.876 109.476 306.767C109.67 306.658 109.767 306.469 109.767 306.199V306.142C109.767 305.441 109.576 304.897 109.192 304.509C108.813 304.12 108.238 303.926 107.466 303.926C106.666 303.926 106.039 304.101 105.584 304.452C105.13 304.802 104.81 305.176 104.625 305.574L103.034 305.006C103.319 304.343 103.697 303.827 104.171 303.457C104.649 303.083 105.17 302.823 105.733 302.676C106.301 302.525 106.86 302.449 107.409 302.449C107.76 302.449 108.162 302.491 108.617 302.577C109.076 302.657 109.519 302.825 109.945 303.081C110.376 303.337 110.733 303.723 111.017 304.239C111.301 304.755 111.444 305.446 111.444 306.312V313.5H109.767V312.023H109.682C109.569 312.259 109.379 312.513 109.114 312.783C108.849 313.053 108.496 313.282 108.056 313.472C107.615 313.661 107.078 313.756 106.444 313.756ZM106.699 312.25C107.362 312.25 107.921 312.12 108.375 311.859C108.835 311.599 109.18 311.263 109.412 310.851C109.649 310.439 109.767 310.006 109.767 309.551V308.017C109.696 308.102 109.54 308.18 109.299 308.251C109.062 308.318 108.787 308.377 108.475 308.429C108.167 308.476 107.866 308.519 107.573 308.557C107.284 308.59 107.05 308.618 106.87 308.642C106.434 308.699 106.027 308.791 105.648 308.919C105.274 309.042 104.971 309.229 104.739 309.48C104.512 309.726 104.398 310.062 104.398 310.489C104.398 311.071 104.614 311.511 105.044 311.81C105.48 312.103 106.032 312.25 106.699 312.25ZM119.247 302.591V304.011H113.594V302.591H119.247ZM115.241 299.977H116.918V310.375C116.918 310.848 116.986 311.204 117.124 311.44C117.266 311.672 117.446 311.829 117.663 311.909C117.886 311.985 118.12 312.023 118.366 312.023C118.551 312.023 118.703 312.013 118.821 311.994C118.939 311.971 119.034 311.952 119.105 311.938L119.446 313.443C119.332 313.486 119.174 313.528 118.97 313.571C118.767 313.618 118.509 313.642 118.196 313.642C117.723 313.642 117.259 313.54 116.804 313.337C116.354 313.133 115.98 312.823 115.682 312.406C115.388 311.99 115.241 311.464 115.241 310.83V299.977ZM126.513 302.591V304.011H120.859V302.591H126.513ZM122.507 299.977H124.183V310.375C124.183 310.848 124.252 311.204 124.389 311.44C124.531 311.672 124.711 311.829 124.929 311.909C125.152 311.985 125.386 312.023 125.632 312.023C125.817 312.023 125.968 312.013 126.087 311.994C126.205 311.971 126.3 311.952 126.371 311.938L126.712 313.443C126.598 313.486 126.439 313.528 126.236 313.571C126.032 313.618 125.774 313.642 125.462 313.642C124.988 313.642 124.524 313.54 124.07 313.337C123.62 313.133 123.246 312.823 122.947 312.406C122.654 311.99 122.507 311.464 122.507 310.83V299.977ZM133.491 313.727C132.44 313.727 131.533 313.495 130.771 313.031C130.013 312.562 129.428 311.909 129.016 311.071C128.609 310.228 128.406 309.248 128.406 308.131C128.406 307.013 128.609 306.028 129.016 305.176C129.428 304.319 130.001 303.652 130.735 303.173C131.474 302.69 132.335 302.449 133.32 302.449C133.888 302.449 134.45 302.544 135.004 302.733C135.558 302.922 136.062 303.23 136.516 303.656C136.971 304.078 137.333 304.636 137.603 305.332C137.873 306.028 138.008 306.885 138.008 307.903V308.614H129.599V307.165H136.303C136.303 306.549 136.18 306 135.934 305.517C135.692 305.034 135.347 304.653 134.897 304.374C134.452 304.094 133.926 303.955 133.32 303.955C132.653 303.955 132.075 304.12 131.587 304.452C131.104 304.778 130.733 305.205 130.472 305.73C130.212 306.256 130.082 306.819 130.082 307.42V308.386C130.082 309.21 130.224 309.909 130.508 310.482C130.797 311.05 131.197 311.483 131.708 311.781C132.219 312.075 132.814 312.222 133.491 312.222C133.931 312.222 134.329 312.16 134.684 312.037C135.044 311.909 135.354 311.72 135.614 311.469C135.875 311.213 136.076 310.896 136.218 310.517L137.837 310.972C137.667 311.521 137.38 312.004 136.978 312.42C136.576 312.832 136.078 313.154 135.487 313.386C134.895 313.614 134.229 313.727 133.491 313.727ZM142.234 306.938V313.5H140.558V302.591H142.177V304.295H142.319C142.575 303.741 142.963 303.296 143.484 302.96C144.004 302.619 144.677 302.449 145.501 302.449C146.239 302.449 146.886 302.6 147.44 302.903C147.994 303.202 148.424 303.656 148.732 304.267C149.04 304.873 149.194 305.64 149.194 306.568V313.5H147.518V306.682C147.518 305.825 147.295 305.157 146.85 304.679C146.405 304.196 145.794 303.955 145.018 303.955C144.483 303.955 144.004 304.071 143.583 304.303C143.166 304.535 142.837 304.873 142.596 305.318C142.354 305.763 142.234 306.303 142.234 306.938ZM156.376 313.727C155.467 313.727 154.664 313.498 153.968 313.038C153.272 312.574 152.728 311.921 152.335 311.078C151.942 310.231 151.745 309.229 151.745 308.074C151.745 306.928 151.942 305.934 152.335 305.091C152.728 304.248 153.275 303.597 153.975 303.138C154.676 302.679 155.486 302.449 156.404 302.449C157.115 302.449 157.676 302.567 158.088 302.804C158.504 303.036 158.822 303.301 159.039 303.599C159.262 303.893 159.435 304.134 159.558 304.324H159.7V298.955H161.376V313.5H159.757V311.824H159.558C159.435 312.023 159.26 312.274 159.032 312.577C158.805 312.875 158.481 313.143 158.059 313.379C157.638 313.611 157.077 313.727 156.376 313.727ZM156.603 312.222C157.276 312.222 157.844 312.046 158.308 311.696C158.772 311.341 159.125 310.851 159.366 310.226C159.608 309.596 159.728 308.869 159.728 308.045C159.728 307.231 159.61 306.518 159.373 305.908C159.136 305.292 158.786 304.814 158.322 304.473C157.858 304.127 157.285 303.955 156.603 303.955C155.893 303.955 155.301 304.137 154.828 304.501C154.359 304.861 154.006 305.351 153.77 305.972C153.538 306.587 153.422 307.278 153.422 308.045C153.422 308.822 153.54 309.527 153.777 310.162C154.018 310.792 154.373 311.294 154.842 311.668C155.315 312.037 155.903 312.222 156.603 312.222ZM175.048 302.591V304.011H169.395V302.591H175.048ZM171.042 299.977H172.718V310.375C172.718 310.848 172.787 311.204 172.924 311.44C173.066 311.672 173.246 311.829 173.464 311.909C173.687 311.985 173.921 312.023 174.167 312.023C174.352 312.023 174.503 312.013 174.622 311.994C174.74 311.971 174.835 311.952 174.906 311.938L175.247 313.443C175.133 313.486 174.975 313.528 174.771 313.571C174.567 313.618 174.309 313.642 173.997 313.642C173.523 313.642 173.059 313.54 172.605 313.337C172.155 313.133 171.781 312.823 171.483 312.406C171.189 311.99 171.042 311.464 171.042 310.83V299.977ZM179.48 306.938V313.5H177.804V298.955H179.48V304.295H179.622C179.877 303.732 180.261 303.285 180.772 302.953C181.288 302.617 181.975 302.449 182.832 302.449C183.575 302.449 184.226 302.598 184.785 302.896C185.344 303.19 185.777 303.642 186.085 304.253C186.397 304.859 186.554 305.631 186.554 306.568V313.5H184.877V306.682C184.877 305.815 184.653 305.145 184.203 304.672C183.758 304.194 183.14 303.955 182.349 303.955C181.8 303.955 181.307 304.071 180.872 304.303C180.441 304.535 180.1 304.873 179.849 305.318C179.603 305.763 179.48 306.303 179.48 306.938ZM189.62 313.5V302.591H191.296V313.5H189.62ZM190.472 300.773C190.146 300.773 189.864 300.661 189.627 300.439C189.395 300.216 189.279 299.949 189.279 299.636C189.279 299.324 189.395 299.056 189.627 298.834C189.864 298.611 190.146 298.5 190.472 298.5C190.799 298.5 191.078 298.611 191.31 298.834C191.547 299.056 191.665 299.324 191.665 299.636C191.665 299.949 191.547 300.216 191.31 300.439C191.078 300.661 190.799 300.773 190.472 300.773ZM202.093 305.034L200.588 305.46C200.493 305.209 200.353 304.965 200.169 304.729C199.989 304.487 199.743 304.288 199.43 304.132C199.118 303.976 198.717 303.898 198.23 303.898C197.562 303.898 197.006 304.052 196.561 304.359C196.12 304.662 195.9 305.048 195.9 305.517C195.9 305.934 196.052 306.263 196.355 306.504C196.658 306.746 197.131 306.947 197.775 307.108L199.395 307.506C200.37 307.742 201.097 308.105 201.575 308.592C202.053 309.075 202.292 309.698 202.292 310.46C202.292 311.085 202.112 311.644 201.752 312.136C201.397 312.629 200.9 313.017 200.261 313.301C199.622 313.585 198.878 313.727 198.031 313.727C196.918 313.727 195.997 313.486 195.268 313.003C194.539 312.52 194.077 311.814 193.883 310.886L195.474 310.489C195.626 311.076 195.912 311.516 196.333 311.81C196.76 312.103 197.316 312.25 198.002 312.25C198.784 312.25 199.404 312.084 199.863 311.753C200.327 311.417 200.559 311.014 200.559 310.545C200.559 310.167 200.427 309.849 200.162 309.594C199.896 309.333 199.489 309.139 198.94 309.011L197.122 308.585C196.123 308.348 195.389 307.982 194.92 307.484C194.456 306.982 194.224 306.355 194.224 305.602C194.224 304.987 194.397 304.442 194.743 303.969C195.093 303.495 195.569 303.124 196.17 302.854C196.776 302.584 197.463 302.449 198.23 302.449C199.309 302.449 200.157 302.686 200.772 303.159C201.393 303.633 201.833 304.258 202.093 305.034ZM215.298 302.591V304.011H209.418V302.591H215.298ZM211.179 313.5V301.085C211.179 300.46 211.326 299.939 211.619 299.523C211.913 299.106 212.294 298.794 212.763 298.585C213.232 298.377 213.726 298.273 214.247 298.273C214.659 298.273 214.995 298.306 215.256 298.372C215.516 298.438 215.71 298.5 215.838 298.557L215.355 300.006C215.27 299.977 215.152 299.942 215 299.899C214.853 299.857 214.659 299.835 214.418 299.835C213.864 299.835 213.464 299.975 213.217 300.254C212.976 300.534 212.855 300.943 212.855 301.483V313.5H211.179ZM217.647 313.5V302.591H219.267V304.239H219.38C219.579 303.699 219.939 303.261 220.46 302.925C220.981 302.589 221.568 302.42 222.221 302.42C222.344 302.42 222.498 302.423 222.683 302.428C222.868 302.432 223.007 302.439 223.102 302.449V304.153C223.045 304.139 222.915 304.118 222.711 304.089C222.512 304.056 222.302 304.04 222.079 304.04C221.549 304.04 221.075 304.151 220.659 304.374C220.247 304.591 219.92 304.894 219.679 305.283C219.442 305.666 219.324 306.104 219.324 306.597V313.5H217.647ZM229.331 313.727C228.279 313.727 227.373 313.495 226.61 313.031C225.853 312.562 225.268 311.909 224.856 311.071C224.449 310.228 224.245 309.248 224.245 308.131C224.245 307.013 224.449 306.028 224.856 305.176C225.268 304.319 225.841 303.652 226.575 303.173C227.314 302.69 228.175 302.449 229.16 302.449C229.728 302.449 230.289 302.544 230.843 302.733C231.397 302.922 231.902 303.23 232.356 303.656C232.811 304.078 233.173 304.636 233.443 305.332C233.713 306.028 233.848 306.885 233.848 307.903V308.614H225.439V307.165H232.143C232.143 306.549 232.02 306 231.774 305.517C231.532 305.034 231.187 304.653 230.737 304.374C230.292 304.094 229.766 303.955 229.16 303.955C228.493 303.955 227.915 304.12 227.427 304.452C226.944 304.778 226.573 305.205 226.312 305.73C226.052 306.256 225.922 306.819 225.922 307.42V308.386C225.922 309.21 226.064 309.909 226.348 310.482C226.636 311.05 227.037 311.483 227.548 311.781C228.059 312.075 228.654 312.222 229.331 312.222C229.771 312.222 230.169 312.16 230.524 312.037C230.884 311.909 231.194 311.72 231.454 311.469C231.715 311.213 231.916 310.896 232.058 310.517L233.677 310.972C233.507 311.521 233.22 312.004 232.818 312.42C232.415 312.832 231.918 313.154 231.326 313.386C230.734 313.614 230.069 313.727 229.331 313.727ZM240.971 313.727C239.92 313.727 239.013 313.495 238.251 313.031C237.493 312.562 236.909 311.909 236.497 311.071C236.09 310.228 235.886 309.248 235.886 308.131C235.886 307.013 236.09 306.028 236.497 305.176C236.909 304.319 237.482 303.652 238.216 303.173C238.954 302.69 239.816 302.449 240.801 302.449C241.369 302.449 241.93 302.544 242.484 302.733C243.038 302.922 243.542 303.23 243.997 303.656C244.451 304.078 244.814 304.636 245.083 305.332C245.353 306.028 245.488 306.885 245.488 307.903V308.614H237.079V307.165H243.784C243.784 306.549 243.661 306 243.414 305.517C243.173 305.034 242.827 304.653 242.377 304.374C241.932 304.094 241.407 303.955 240.801 303.955C240.133 303.955 239.556 304.12 239.068 304.452C238.585 304.778 238.213 305.205 237.953 305.73C237.692 306.256 237.562 306.819 237.562 307.42V308.386C237.562 309.21 237.704 309.909 237.988 310.482C238.277 311.05 238.677 311.483 239.189 311.781C239.7 312.075 240.294 312.222 240.971 312.222C241.412 312.222 241.809 312.16 242.164 312.037C242.524 311.909 242.834 311.72 243.095 311.469C243.355 311.213 243.556 310.896 243.699 310.517L245.318 310.972C245.147 311.521 244.861 312.004 244.458 312.42C244.056 312.832 243.559 313.154 242.967 313.386C242.375 313.614 241.71 313.727 240.971 313.727ZM256.532 313.5L252.555 298.955H254.345L257.385 310.801H257.527L260.623 298.955H262.612L265.708 310.801H265.85L268.89 298.955H270.68L266.703 313.5H264.885L261.674 301.909H261.561L258.35 313.5H256.532ZM276.206 313.727C275.154 313.727 274.248 313.495 273.485 313.031C272.728 312.562 272.143 311.909 271.731 311.071C271.324 310.228 271.12 309.248 271.12 308.131C271.12 307.013 271.324 306.028 271.731 305.176C272.143 304.319 272.716 303.652 273.45 303.173C274.189 302.69 275.05 302.449 276.035 302.449C276.603 302.449 277.164 302.544 277.718 302.733C278.272 302.922 278.777 303.23 279.231 303.656C279.686 304.078 280.048 304.636 280.318 305.332C280.588 306.028 280.723 306.885 280.723 307.903V308.614H272.314V307.165H279.018C279.018 306.549 278.895 306 278.649 305.517C278.407 305.034 278.062 304.653 277.612 304.374C277.167 304.094 276.641 303.955 276.035 303.955C275.368 303.955 274.79 304.12 274.302 304.452C273.819 304.778 273.448 305.205 273.187 305.73C272.927 306.256 272.797 306.819 272.797 307.42V308.386C272.797 309.21 272.939 309.909 273.223 310.482C273.511 311.05 273.912 311.483 274.423 311.781C274.934 312.075 275.529 312.222 276.206 312.222C276.646 312.222 277.044 312.16 277.399 312.037C277.759 311.909 278.069 311.72 278.329 311.469C278.59 311.213 278.791 310.896 278.933 310.517L280.552 310.972C280.382 311.521 280.095 312.004 279.693 312.42C279.29 312.832 278.793 313.154 278.201 313.386C277.609 313.614 276.944 313.727 276.206 313.727ZM283.5 313.5V298.955H285.176V304.324H285.318C285.441 304.134 285.611 303.893 285.829 303.599C286.052 303.301 286.369 303.036 286.781 302.804C287.198 302.567 287.761 302.449 288.471 302.449C289.39 302.449 290.199 302.679 290.9 303.138C291.601 303.597 292.148 304.248 292.541 305.091C292.934 305.934 293.13 306.928 293.13 308.074C293.13 309.229 292.934 310.231 292.541 311.078C292.148 311.921 291.603 312.574 290.907 313.038C290.211 313.498 289.409 313.727 288.5 313.727C287.799 313.727 287.238 313.611 286.816 313.379C286.395 313.143 286.071 312.875 285.843 312.577C285.616 312.274 285.441 312.023 285.318 311.824H285.119V313.5H283.5ZM285.147 308.045C285.147 308.869 285.268 309.596 285.51 310.226C285.751 310.851 286.104 311.341 286.568 311.696C287.032 312.046 287.6 312.222 288.272 312.222C288.973 312.222 289.558 312.037 290.027 311.668C290.5 311.294 290.855 310.792 291.092 310.162C291.333 309.527 291.454 308.822 291.454 308.045C291.454 307.278 291.336 306.587 291.099 305.972C290.867 305.351 290.514 304.861 290.041 304.501C289.572 304.137 288.983 303.955 288.272 303.955C287.591 303.955 287.018 304.127 286.554 304.473C286.09 304.814 285.739 305.292 285.502 305.908C285.266 306.518 285.147 307.231 285.147 308.045ZM295.694 313.5V302.591H297.37V313.5H295.694ZM296.547 300.773C296.22 300.773 295.938 300.661 295.701 300.439C295.469 300.216 295.353 299.949 295.353 299.636C295.353 299.324 295.469 299.056 295.701 298.834C295.938 298.611 296.22 298.5 296.547 298.5C296.873 298.5 297.153 298.611 297.385 298.834C297.621 299.056 297.74 299.324 297.74 299.636C297.74 299.949 297.621 300.216 297.385 300.439C297.153 300.661 296.873 300.773 296.547 300.773ZM302.116 306.938V313.5H300.44V302.591H302.06V304.295H302.202C302.457 303.741 302.846 303.296 303.366 302.96C303.887 302.619 304.56 302.449 305.384 302.449C306.122 302.449 306.768 302.6 307.322 302.903C307.876 303.202 308.307 303.656 308.615 304.267C308.923 304.873 309.077 305.64 309.077 306.568V313.5H307.401V306.682C307.401 305.825 307.178 305.157 306.733 304.679C306.288 304.196 305.677 303.955 304.901 303.955C304.366 303.955 303.887 304.071 303.466 304.303C303.049 304.535 302.72 304.873 302.479 305.318C302.237 305.763 302.116 306.303 302.116 306.938ZM315.35 313.756C314.658 313.756 314.031 313.625 313.468 313.365C312.904 313.1 312.457 312.719 312.125 312.222C311.794 311.72 311.628 311.114 311.628 310.403C311.628 309.778 311.751 309.272 311.998 308.884C312.244 308.491 312.573 308.183 312.985 307.96C313.397 307.738 313.851 307.572 314.348 307.463C314.85 307.349 315.355 307.259 315.861 307.193C316.524 307.108 317.061 307.044 317.473 307.001C317.89 306.954 318.193 306.876 318.382 306.767C318.577 306.658 318.674 306.469 318.674 306.199V306.142C318.674 305.441 318.482 304.897 318.098 304.509C317.72 304.12 317.144 303.926 316.373 303.926C315.572 303.926 314.945 304.101 314.49 304.452C314.036 304.802 313.716 305.176 313.532 305.574L311.941 305.006C312.225 304.343 312.604 303.827 313.077 303.457C313.555 303.083 314.076 302.823 314.64 302.676C315.208 302.525 315.766 302.449 316.316 302.449C316.666 302.449 317.069 302.491 317.523 302.577C317.982 302.657 318.425 302.825 318.851 303.081C319.282 303.337 319.64 303.723 319.924 304.239C320.208 304.755 320.35 305.446 320.35 306.312V313.5H318.674V312.023H318.588C318.475 312.259 318.285 312.513 318.02 312.783C317.755 313.053 317.402 313.282 316.962 313.472C316.522 313.661 315.984 313.756 315.35 313.756ZM315.605 312.25C316.268 312.25 316.827 312.12 317.282 311.859C317.741 311.599 318.087 311.263 318.319 310.851C318.555 310.439 318.674 310.006 318.674 309.551V308.017C318.603 308.102 318.446 308.18 318.205 308.251C317.968 308.318 317.694 308.377 317.381 308.429C317.073 308.476 316.773 308.519 316.479 308.557C316.19 308.59 315.956 308.618 315.776 308.642C315.34 308.699 314.933 308.791 314.554 308.919C314.18 309.042 313.877 309.229 313.645 309.48C313.418 309.726 313.304 310.062 313.304 310.489C313.304 311.071 313.52 311.511 313.951 311.81C314.386 312.103 314.938 312.25 315.605 312.25ZM323.409 313.5V302.591H325.028V304.239H325.142C325.341 303.699 325.701 303.261 326.222 302.925C326.742 302.589 327.33 302.42 327.983 302.42C328.106 302.42 328.26 302.423 328.445 302.428C328.629 302.432 328.769 302.439 328.864 302.449V304.153C328.807 304.139 328.677 304.118 328.473 304.089C328.274 304.056 328.063 304.04 327.841 304.04C327.311 304.04 326.837 304.151 326.42 304.374C326.009 304.591 325.682 304.894 325.44 305.283C325.204 305.666 325.085 306.104 325.085 306.597V313.5H323.409ZM333.066 298.955L332.924 309.409H331.277L331.135 298.955H333.066ZM332.1 313.614C331.75 313.614 331.449 313.488 331.199 313.237C330.948 312.986 330.822 312.686 330.822 312.335C330.822 311.985 330.948 311.684 331.199 311.433C331.449 311.182 331.75 311.057 332.1 311.057C332.451 311.057 332.752 311.182 333.002 311.433C333.253 311.684 333.379 311.985 333.379 312.335C333.379 312.567 333.32 312.78 333.201 312.974C333.088 313.169 332.934 313.325 332.74 313.443C332.55 313.557 332.337 313.614 332.1 313.614ZM338.633 298.955L338.491 309.409H336.843L336.701 298.955H338.633ZM337.667 313.614C337.317 313.614 337.016 313.488 336.765 313.237C336.514 312.986 336.388 312.686 336.388 312.335C336.388 311.985 336.514 311.684 336.765 311.433C337.016 311.182 337.317 311.057 337.667 311.057C338.017 311.057 338.318 311.182 338.569 311.433C338.82 311.684 338.945 311.985 338.945 312.335C338.945 312.567 338.886 312.78 338.768 312.974C338.654 313.169 338.5 313.325 338.306 313.443C338.117 313.557 337.904 313.614 337.667 313.614ZM344.199 298.955L344.057 309.409H342.409L342.267 298.955H344.199ZM343.233 313.614C342.883 313.614 342.582 313.488 342.331 313.237C342.08 312.986 341.955 312.686 341.955 312.335C341.955 311.985 342.08 311.684 342.331 311.433C342.582 311.182 342.883 311.057 343.233 311.057C343.584 311.057 343.884 311.182 344.135 311.433C344.386 311.684 344.512 311.985 344.512 312.335C344.512 312.567 344.453 312.78 344.334 312.974C344.221 313.169 344.067 313.325 343.873 313.443C343.683 313.557 343.47 313.614 343.233 313.614Z" fill="white"/>
<g filter="url(#filter1_d_2384_61)">
<rect x="56.1719" y="362.5" width="224" height="60" rx="30" fill="white"/>
</g>
<path d="M80.5298 386.955L84.848 399.199H85.0185L89.3366 386.955H91.1832L85.8423 401.5H84.0241L78.6832 386.955H80.5298ZM95.2102 386.955V401.5H93.4489V386.955H95.2102ZM98.7418 401.5V386.955H107.52V388.517H100.503V393.432H107.066V394.994H100.503V399.938H107.634V401.5H98.7418ZM113.337 401.5L109.36 386.955H111.15L114.189 398.801H114.331L117.428 386.955H119.417L122.513 398.801H122.655L125.695 386.955H127.485L123.507 401.5H121.689L118.479 389.909H118.365L115.155 401.5H113.337ZM139.793 401.5H135.304V386.955H139.992C141.403 386.955 142.61 387.246 143.614 387.828C144.618 388.406 145.387 389.237 145.922 390.321C146.457 391.401 146.725 392.693 146.725 394.199C146.725 395.714 146.455 397.018 145.915 398.112C145.375 399.201 144.589 400.039 143.557 400.626C142.525 401.209 141.27 401.5 139.793 401.5ZM137.066 399.938H139.679C140.882 399.938 141.879 399.705 142.669 399.241C143.46 398.777 144.05 398.117 144.438 397.26C144.826 396.403 145.02 395.383 145.02 394.199C145.02 393.025 144.828 392.014 144.445 391.166C144.061 390.314 143.489 389.661 142.726 389.206C141.964 388.747 141.015 388.517 139.878 388.517H137.066V399.938ZM149.679 401.5V386.955H158.458V388.517H151.441V393.432H158.003V394.994H151.441V399.938H158.571V401.5H149.679ZM160.837 388.517V386.955H171.746V388.517H167.172V401.5H165.411V388.517H160.837ZM173.362 401.5H171.515L176.856 386.955H178.674L184.015 401.5H182.169L177.822 389.256H177.708L173.362 401.5ZM174.044 395.818H181.487V397.381H174.044V395.818ZM188.042 386.955V401.5H186.281V386.955H188.042ZM191.574 401.5V386.955H193.335V399.938H200.097V401.5H191.574ZM210.778 390.591C210.693 389.871 210.348 389.312 209.741 388.915C209.135 388.517 208.392 388.318 207.511 388.318C206.867 388.318 206.304 388.422 205.821 388.631C205.343 388.839 204.969 389.125 204.699 389.49C204.434 389.855 204.301 390.269 204.301 390.733C204.301 391.121 204.393 391.455 204.578 391.734C204.768 392.009 205.009 392.239 205.303 392.423C205.596 392.603 205.904 392.752 206.226 392.871C206.548 392.984 206.844 393.077 207.114 393.148L208.591 393.545C208.97 393.645 209.391 393.782 209.855 393.957C210.324 394.133 210.771 394.372 211.197 394.675C211.628 394.973 211.983 395.357 212.263 395.825C212.542 396.294 212.682 396.869 212.682 397.551C212.682 398.337 212.476 399.047 212.064 399.682C211.657 400.316 211.06 400.821 210.274 401.195C209.493 401.569 208.544 401.756 207.426 401.756C206.384 401.756 205.482 401.588 204.72 401.251C203.963 400.915 203.366 400.446 202.93 399.845C202.5 399.244 202.256 398.545 202.199 397.75H204.017C204.064 398.299 204.249 398.754 204.571 399.114C204.898 399.469 205.31 399.734 205.807 399.909C206.309 400.08 206.848 400.165 207.426 400.165C208.098 400.165 208.702 400.056 209.237 399.838C209.772 399.616 210.196 399.308 210.509 398.915C210.821 398.517 210.977 398.053 210.977 397.523C210.977 397.04 210.842 396.647 210.572 396.344C210.303 396.041 209.947 395.795 209.507 395.605C209.067 395.416 208.591 395.25 208.08 395.108L206.29 394.597C205.153 394.27 204.254 393.804 203.591 393.197C202.928 392.591 202.597 391.798 202.597 390.818C202.597 390.004 202.817 389.294 203.257 388.688C203.702 388.077 204.299 387.603 205.047 387.267C205.8 386.926 206.64 386.756 207.568 386.756C208.506 386.756 209.339 386.924 210.068 387.26C210.797 387.591 211.375 388.046 211.801 388.624C212.232 389.201 212.459 389.857 212.483 390.591H210.778Z" fill="black"/>
<path d="M102.172 156.562C127.75 156.562 148.484 135.828 148.484 110.25C148.484 84.6723 127.75 63.9375 102.172 63.9375C76.5942 63.9375 55.8594 84.6723 55.8594 110.25C55.8594 135.828 76.5942 156.562 102.172 156.562Z" fill="#80DED9"/>
<path d="M96.0781 63.9375V51.75H109.484V63.9375" fill="#B7B7B7"/>
<path d="M102.172 142.913C120.211 142.913 134.835 128.289 134.835 110.25C134.835 92.2114 120.211 77.5879 102.172 77.5879C84.1333 77.5879 69.5098 92.2114 69.5098 110.25C69.5098 128.289 84.1333 142.913 102.172 142.913Z" fill="white"/>
<path d="M102.172 156.562C127.75 156.562 148.484 135.828 148.484 110.25C148.484 84.6723 127.75 63.9375 102.172 63.9375C76.5942 63.9375 55.8594 84.6723 55.8594 110.25C55.8594 135.828 76.5942 156.562 102.172 156.562Z" stroke="#2C3E50" stroke-width="2" stroke-miterlimit="10" stroke-linecap="round" stroke-linejoin="round"/>
<path d="M102.172 148.031C123.038 148.031 139.953 131.116 139.953 110.25C139.953 89.384 123.038 72.4688 102.172 72.4688C81.3059 72.4688 64.3906 89.384 64.3906 110.25C64.3906 131.116 81.3059 148.031 102.172 148.031Z" stroke="#2C3E50" stroke-width="2" stroke-linecap="round" stroke-linejoin="round" stroke-dasharray="0.1 8.01"/>
<path d="M116.797 42H87.5469V51.75H116.797V42Z" fill="#969696"/>
<path d="M116.797 42H87.5469V51.75H116.797V42Z" stroke="#2C3E50" stroke-width="2" stroke-miterlimit="10" stroke-linecap="round" stroke-linejoin="round"/>
<path d="M96.0781 63.9375V51.75H109.484V63.9375" stroke="#2C3E50" stroke-width="2" stroke-miterlimit="10" stroke-linecap="round" stroke-linejoin="round"/>
<path d="M132.153 74.4187L137.76 67.5938" stroke="#2C3E50" stroke-width="2" stroke-miterlimit="10" stroke-linecap="round" stroke-linejoin="round"/>
<path d="M132.153 63.207L142.878 71.007" stroke="#2C3E50" stroke-width="2" stroke-miterlimit="10" stroke-linecap="round" stroke-linejoin="round"/>
<path d="M72.1902 74.4187L66.584 67.5938" stroke="#2C3E50" stroke-width="2" stroke-miterlimit="10" stroke-linecap="round" stroke-linejoin="round"/>
<path d="M72.1908 63.207L61.4658 71.007" stroke="#2C3E50" stroke-width="2" stroke-miterlimit="10" stroke-linecap="round" stroke-linejoin="round"/>
<path d="M102.172 110.251L121.184 91.2383" stroke="#2C3E50" stroke-width="2" stroke-miterlimit="10" stroke-linecap="round" stroke-linejoin="round"/>
<path d="M203.797 150.5H199.757V137.409H203.976C205.246 137.409 206.332 137.671 207.236 138.195C208.139 138.715 208.832 139.463 209.313 140.439C209.795 141.411 210.036 142.574 210.036 143.929C210.036 145.293 209.793 146.467 209.307 147.451C208.821 148.431 208.114 149.185 207.185 149.714C206.256 150.238 205.126 150.5 203.797 150.5ZM201.342 149.094H203.695C204.777 149.094 205.674 148.885 206.386 148.467C207.097 148.05 207.628 147.455 207.977 146.684C208.327 145.913 208.501 144.994 208.501 143.929C208.501 142.872 208.329 141.962 207.984 141.2C207.638 140.433 207.123 139.844 206.437 139.435C205.751 139.022 204.896 138.815 203.874 138.815H201.342V149.094ZM212.616 150.5H210.954L215.761 137.409H217.398L222.204 150.5H220.542L216.631 139.48H216.528L212.616 150.5ZM213.23 145.386H219.929V146.793H213.23V145.386ZM221.782 137.409H223.598L227.229 143.52H227.382L231.013 137.409H232.828L228.098 145.105V150.5H226.513V145.105L221.782 137.409ZM242.037 140.682C241.961 140.034 241.65 139.531 241.104 139.173C240.559 138.815 239.89 138.636 239.097 138.636C238.517 138.636 238.01 138.73 237.576 138.918C237.145 139.105 236.809 139.363 236.566 139.691C236.327 140.019 236.208 140.392 236.208 140.81C236.208 141.159 236.291 141.46 236.457 141.711C236.627 141.958 236.845 142.165 237.109 142.331C237.373 142.493 237.65 142.627 237.94 142.734C238.23 142.836 238.496 142.919 238.739 142.983L240.069 143.341C240.409 143.43 240.789 143.554 241.206 143.712C241.628 143.869 242.031 144.085 242.414 144.357C242.802 144.626 243.122 144.971 243.373 145.393C243.625 145.815 243.75 146.332 243.75 146.946C243.75 147.653 243.565 148.293 243.194 148.864C242.828 149.435 242.291 149.888 241.583 150.225C240.88 150.562 240.026 150.73 239.02 150.73C238.083 150.73 237.271 150.579 236.585 150.276C235.903 149.974 235.366 149.552 234.974 149.011C234.586 148.469 234.367 147.841 234.316 147.125H235.952C235.995 147.619 236.161 148.028 236.451 148.352C236.745 148.672 237.115 148.911 237.563 149.068C238.015 149.222 238.5 149.298 239.02 149.298C239.625 149.298 240.169 149.2 240.65 149.004C241.132 148.804 241.513 148.527 241.794 148.173C242.076 147.815 242.216 147.398 242.216 146.92C242.216 146.486 242.095 146.132 241.852 145.859C241.609 145.587 241.289 145.365 240.893 145.195C240.497 145.024 240.069 144.875 239.608 144.747L237.998 144.287C236.975 143.993 236.165 143.573 235.569 143.028C234.972 142.482 234.674 141.768 234.674 140.886C234.674 140.153 234.872 139.514 235.268 138.969C235.669 138.419 236.206 137.993 236.879 137.69C237.556 137.384 238.313 137.23 239.148 137.23C239.992 137.23 240.742 137.381 241.398 137.684C242.054 137.982 242.574 138.391 242.958 138.911C243.346 139.431 243.55 140.021 243.571 140.682H242.037Z" fill="white"/>
<path d="M303.757 150.5V137.409H305.342V143.239H312.322V137.409H313.908V150.5H312.322V144.645H305.342V150.5H303.757ZM317.081 150.5V137.409H321.505C322.527 137.409 323.367 137.584 324.023 137.933C324.679 138.278 325.165 138.754 325.48 139.359C325.796 139.964 325.953 140.652 325.953 141.423C325.953 142.195 325.796 142.879 325.48 143.475C325.165 144.072 324.681 144.54 324.029 144.881C323.377 145.218 322.544 145.386 321.53 145.386H317.951V143.955H321.479C322.178 143.955 322.74 143.852 323.167 143.648C323.597 143.443 323.908 143.153 324.1 142.778C324.296 142.399 324.394 141.947 324.394 141.423C324.394 140.899 324.296 140.441 324.1 140.049C323.904 139.657 323.591 139.354 323.16 139.141C322.73 138.924 322.161 138.815 321.453 138.815H318.667V150.5H317.081ZM323.243 144.619L326.465 150.5H324.624L321.453 144.619H323.243ZM335.754 140.682C335.677 140.034 335.366 139.531 334.821 139.173C334.275 138.815 333.606 138.636 332.814 138.636C332.234 138.636 331.727 138.73 331.292 138.918C330.862 139.105 330.525 139.363 330.282 139.691C330.044 140.019 329.925 140.392 329.925 140.81C329.925 141.159 330.008 141.46 330.174 141.711C330.344 141.958 330.562 142.165 330.826 142.331C331.09 142.493 331.367 142.627 331.657 142.734C331.947 142.836 332.213 142.919 332.456 142.983L333.785 143.341C334.126 143.43 334.506 143.554 334.923 143.712C335.345 143.869 335.748 144.085 336.131 144.357C336.519 144.626 336.839 144.971 337.09 145.393C337.341 145.815 337.467 146.332 337.467 146.946C337.467 147.653 337.282 148.293 336.911 148.864C336.545 149.435 336.008 149.888 335.3 150.225C334.597 150.562 333.743 150.73 332.737 150.73C331.8 150.73 330.988 150.579 330.302 150.276C329.62 149.974 329.083 149.552 328.691 149.011C328.303 148.469 328.084 147.841 328.032 147.125H329.669C329.711 147.619 329.878 148.028 330.167 148.352C330.461 148.672 330.832 148.911 331.28 149.068C331.731 149.222 332.217 149.298 332.737 149.298C333.342 149.298 333.885 149.2 334.367 149.004C334.849 148.804 335.23 148.527 335.511 148.173C335.792 147.815 335.933 147.398 335.933 146.92C335.933 146.486 335.812 146.132 335.569 145.859C335.326 145.587 335.006 145.365 334.61 145.195C334.214 145.024 333.785 144.875 333.325 144.747L331.714 144.287C330.692 143.993 329.882 143.573 329.285 143.028C328.689 142.482 328.39 141.768 328.39 140.886C328.39 140.153 328.589 139.514 328.985 138.969C329.385 138.419 329.922 137.993 330.596 137.69C331.273 137.384 332.03 137.23 332.865 137.23C333.709 137.23 334.459 137.381 335.115 137.684C335.771 137.982 336.291 138.391 336.675 138.911C337.062 139.431 337.267 140.021 337.288 140.682H335.754Z" fill="white"/>
<path d="M393.757 137.409H395.649L400.098 148.276H400.251L404.7 137.409H406.592V150.5H405.109V140.554H404.982L400.891 150.5H399.459L395.368 140.554H395.24V150.5H393.757V137.409ZM420.151 137.409V150.5H418.617L411.484 140.222H411.356V150.5H409.771V137.409H411.305L418.464 147.713H418.592V137.409H420.151ZM422.608 138.815V137.409H432.426V138.815H428.309V150.5H426.724V138.815H422.608ZM442.031 140.682C441.955 140.034 441.644 139.531 441.098 139.173C440.553 138.815 439.884 138.636 439.091 138.636C438.512 138.636 438.004 138.73 437.57 138.918C437.139 139.105 436.803 139.363 436.56 139.691C436.321 140.019 436.202 140.392 436.202 140.81C436.202 141.159 436.285 141.46 436.451 141.711C436.622 141.958 436.839 142.165 437.103 142.331C437.367 142.493 437.644 142.627 437.934 142.734C438.224 142.836 438.49 142.919 438.733 142.983L440.063 143.341C440.404 143.43 440.783 143.554 441.2 143.712C441.622 143.869 442.025 144.085 442.409 144.357C442.796 144.626 443.116 144.971 443.367 145.393C443.619 145.815 443.744 146.332 443.744 146.946C443.744 147.653 443.559 148.293 443.188 148.864C442.822 149.435 442.285 149.888 441.578 150.225C440.874 150.562 440.02 150.73 439.014 150.73C438.077 150.73 437.265 150.579 436.579 150.276C435.897 149.974 435.36 149.552 434.968 149.011C434.58 148.469 434.361 147.841 434.31 147.125H435.946C435.989 147.619 436.155 148.028 436.445 148.352C436.739 148.672 437.11 148.911 437.557 149.068C438.009 149.222 438.494 149.298 439.014 149.298C439.619 149.298 440.163 149.2 440.644 149.004C441.126 148.804 441.507 148.527 441.789 148.173C442.07 147.815 442.21 147.398 442.21 146.92C442.21 146.486 442.089 146.132 441.846 145.859C441.603 145.587 441.284 145.365 440.887 145.195C440.491 145.024 440.063 144.875 439.602 144.747L437.992 144.287C436.969 143.993 436.159 143.573 435.563 143.028C434.966 142.482 434.668 141.768 434.668 140.886C434.668 140.153 434.866 139.514 435.262 138.969C435.663 138.419 436.2 137.993 436.873 137.69C437.551 137.384 438.307 137.23 439.142 137.23C439.986 137.23 440.736 137.381 441.392 137.684C442.048 137.982 442.568 138.391 442.952 138.911C443.34 139.431 443.544 140.021 443.566 140.682H442.031Z" fill="white"/>
<path d="M500.916 140.682C500.839 140.034 500.528 139.531 499.983 139.173C499.438 138.815 498.768 138.636 497.976 138.636C497.396 138.636 496.889 138.73 496.455 138.918C496.024 139.105 495.688 139.363 495.445 139.691C495.206 140.019 495.087 140.392 495.087 140.81C495.087 141.159 495.17 141.46 495.336 141.711C495.506 141.958 495.724 142.165 495.988 142.331C496.252 142.493 496.529 142.627 496.819 142.734C497.109 142.836 497.375 142.919 497.618 142.983L498.947 143.341C499.288 143.43 499.668 143.554 500.085 143.712C500.507 143.869 500.91 144.085 501.293 144.357C501.681 144.626 502.001 144.971 502.252 145.393C502.504 145.815 502.629 146.332 502.629 146.946C502.629 147.653 502.444 148.293 502.073 148.864C501.707 149.435 501.17 149.888 500.462 150.225C499.759 150.562 498.905 150.73 497.899 150.73C496.962 150.73 496.15 150.579 495.464 150.276C494.782 149.974 494.245 149.552 493.853 149.011C493.465 148.469 493.246 147.841 493.195 147.125H494.831C494.874 147.619 495.04 148.028 495.33 148.352C495.624 148.672 495.994 148.911 496.442 149.068C496.893 149.222 497.379 149.298 497.899 149.298C498.504 149.298 499.048 149.2 499.529 149.004C500.011 148.804 500.392 148.527 500.673 148.173C500.955 147.815 501.095 147.398 501.095 146.92C501.095 146.486 500.974 146.132 500.731 145.859C500.488 145.587 500.168 145.365 499.772 145.195C499.376 145.024 498.947 144.875 498.487 144.747L496.876 144.287C495.854 143.993 495.044 143.573 494.447 143.028C493.851 142.482 493.553 141.768 493.553 140.886C493.553 140.153 493.751 139.514 494.147 138.969C494.548 138.419 495.085 137.993 495.758 137.69C496.435 137.384 497.192 137.23 498.027 137.23C498.871 137.23 499.621 137.381 500.277 137.684C500.933 137.982 501.453 138.391 501.837 138.911C502.224 139.431 502.429 140.021 502.45 140.682H500.916ZM505.236 150.5V137.409H513.136V138.815H506.821V143.239H512.727V144.645H506.821V149.094H513.238V150.5H505.236ZM526.528 141.5H524.942C524.849 141.044 524.684 140.643 524.45 140.298C524.22 139.953 523.939 139.663 523.606 139.429C523.278 139.19 522.914 139.011 522.513 138.892C522.113 138.773 521.695 138.713 521.26 138.713C520.468 138.713 519.75 138.913 519.106 139.314C518.467 139.714 517.958 140.305 517.579 141.085C517.204 141.864 517.016 142.821 517.016 143.955C517.016 145.088 517.204 146.045 517.579 146.825C517.958 147.604 518.467 148.195 519.106 148.595C519.75 148.996 520.468 149.196 521.26 149.196C521.695 149.196 522.113 149.136 522.513 149.017C522.914 148.898 523.278 148.721 523.606 148.487C523.939 148.248 524.22 147.956 524.45 147.611C524.684 147.261 524.849 146.861 524.942 146.409H526.528C526.408 147.078 526.191 147.677 525.876 148.205C525.56 148.734 525.168 149.183 524.699 149.554C524.231 149.92 523.704 150.2 523.121 150.391C522.541 150.583 521.921 150.679 521.26 150.679C520.144 150.679 519.151 150.406 518.282 149.861C517.412 149.315 516.729 148.54 516.23 147.534C515.731 146.528 515.482 145.335 515.482 143.955C515.482 142.574 515.731 141.381 516.23 140.375C516.729 139.369 517.412 138.594 518.282 138.048C519.151 137.503 520.144 137.23 521.26 137.23C521.921 137.23 522.541 137.326 523.121 137.518C523.704 137.71 524.231 137.991 524.699 138.362C525.168 138.728 525.56 139.175 525.876 139.704C526.191 140.228 526.408 140.827 526.528 141.5ZM536.248 140.682C536.172 140.034 535.86 139.531 535.315 139.173C534.77 138.815 534.1 138.636 533.308 138.636C532.728 138.636 532.221 138.73 531.787 138.918C531.356 139.105 531.02 139.363 530.777 139.691C530.538 140.019 530.419 140.392 530.419 140.81C530.419 141.159 530.502 141.46 530.668 141.711C530.838 141.958 531.056 142.165 531.32 142.331C531.584 142.493 531.861 142.627 532.151 142.734C532.441 142.836 532.707 142.919 532.95 142.983L534.279 143.341C534.62 143.43 535 143.554 535.417 143.712C535.839 143.869 536.242 144.085 536.625 144.357C537.013 144.626 537.333 144.971 537.584 145.393C537.836 145.815 537.961 146.332 537.961 146.946C537.961 147.653 537.776 148.293 537.405 148.864C537.039 149.435 536.502 149.888 535.794 150.225C535.091 150.562 534.237 150.73 533.231 150.73C532.294 150.73 531.482 150.579 530.796 150.276C530.114 149.974 529.577 149.552 529.185 149.011C528.797 148.469 528.578 147.841 528.527 147.125H530.163C530.206 147.619 530.372 148.028 530.662 148.352C530.956 148.672 531.326 148.911 531.774 149.068C532.225 149.222 532.711 149.298 533.231 149.298C533.836 149.298 534.38 149.2 534.861 149.004C535.343 148.804 535.724 148.527 536.005 148.173C536.287 147.815 536.427 147.398 536.427 146.92C536.427 146.486 536.306 146.132 536.063 145.859C535.82 145.587 535.5 145.365 535.104 145.195C534.708 145.024 534.279 144.875 533.819 144.747L532.208 144.287C531.186 143.993 530.376 143.573 529.779 143.028C529.183 142.482 528.885 141.768 528.885 140.886C528.885 140.153 529.083 139.514 529.479 138.969C529.88 138.419 530.417 137.993 531.09 137.69C531.767 137.384 532.524 137.23 533.359 137.23C534.203 137.23 534.953 137.381 535.609 137.684C536.265 137.982 536.785 138.391 537.169 138.911C537.556 139.431 537.761 140.021 537.782 140.682H536.248Z" fill="white"/>
<path d="M208.172 108.977C205.604 108.977 203.416 108.278 201.609 106.881C199.803 105.472 198.422 103.432 197.467 100.761C196.513 98.0795 196.036 94.8409 196.036 91.0455C196.036 87.2727 196.513 84.0511 197.467 81.3807C198.433 78.6989 199.82 76.6534 201.626 75.2443C203.445 73.8239 205.626 73.1136 208.172 73.1136C210.717 73.1136 212.893 73.8239 214.7 75.2443C216.518 76.6534 217.905 78.6989 218.859 81.3807C219.825 84.0511 220.308 87.2727 220.308 91.0455C220.308 94.8409 219.831 98.0795 218.876 100.761C217.922 103.432 216.541 105.472 214.734 106.881C212.928 108.278 210.74 108.977 208.172 108.977ZM208.172 105.227C210.717 105.227 212.695 104 214.104 101.545C215.513 99.0909 216.217 95.5909 216.217 91.0455C216.217 88.0227 215.893 85.4489 215.246 83.3239C214.609 81.1989 213.689 79.5795 212.484 78.4659C211.291 77.3523 209.854 76.7955 208.172 76.7955C205.649 76.7955 203.678 78.0398 202.257 80.5284C200.837 83.0057 200.126 86.5114 200.126 91.0455C200.126 94.0682 200.445 96.6364 201.081 98.75C201.717 100.864 202.632 102.472 203.825 103.574C205.03 104.676 206.479 105.227 208.172 105.227ZM239.058 73.5909V108.5H234.831V78.0227H234.626L226.104 83.6818V79.3864L234.831 73.5909H239.058ZM300.984 108.977C298.416 108.977 296.229 108.278 294.422 106.881C292.615 105.472 291.234 103.432 290.28 100.761C289.325 98.0795 288.848 94.8409 288.848 91.0455C288.848 87.2727 289.325 84.0511 290.28 81.3807C291.246 78.6989 292.632 76.6534 294.439 75.2443C296.257 73.8239 298.439 73.1136 300.984 73.1136C303.53 73.1136 305.706 73.8239 307.513 75.2443C309.331 76.6534 310.717 78.6989 311.672 81.3807C312.638 84.0511 313.121 87.2727 313.121 91.0455C313.121 94.8409 312.643 98.0795 311.689 100.761C310.734 103.432 309.354 105.472 307.547 106.881C305.74 108.278 303.553 108.977 300.984 108.977ZM300.984 105.227C303.53 105.227 305.507 104 306.916 101.545C308.325 99.0909 309.03 95.5909 309.03 91.0455C309.03 88.0227 308.706 85.4489 308.058 83.3239C307.422 81.1989 306.501 79.5795 305.297 78.4659C304.104 77.3523 302.666 76.7955 300.984 76.7955C298.462 76.7955 296.49 78.0398 295.07 80.5284C293.649 83.0057 292.939 86.5114 292.939 91.0455C292.939 94.0682 293.257 96.6364 293.893 98.75C294.53 100.864 295.445 102.472 296.638 103.574C297.842 104.676 299.291 105.227 300.984 105.227ZM318.78 101.341V97.8636L334.121 73.5909H336.643V78.9773H334.939L323.348 97.3182V97.5909H344.007V101.341H318.78ZM335.212 108.5V100.284V98.6648V73.5909H339.234V108.5H335.212ZM402.69 108.977C400.44 108.977 398.435 108.591 396.673 107.818C394.923 107.045 393.531 105.972 392.497 104.597C391.474 103.21 390.918 101.602 390.827 99.7727H395.122C395.213 100.898 395.599 101.869 396.281 102.688C396.963 103.494 397.855 104.119 398.957 104.562C400.06 105.006 401.281 105.227 402.622 105.227C404.122 105.227 405.452 104.966 406.611 104.443C407.77 103.92 408.679 103.193 409.338 102.261C409.997 101.33 410.327 100.25 410.327 99.0227C410.327 97.7386 410.009 96.608 409.372 95.6307C408.736 94.642 407.804 93.8693 406.577 93.3125C405.349 92.7557 403.849 92.4773 402.077 92.4773H399.281V88.7273H402.077C403.463 88.7273 404.679 88.4773 405.724 87.9773C406.781 87.4773 407.605 86.7727 408.196 85.8636C408.798 84.9545 409.099 83.8864 409.099 82.6591C409.099 81.4773 408.838 80.4489 408.315 79.5739C407.793 78.6989 407.054 78.017 406.099 77.5284C405.156 77.0398 404.043 76.7955 402.759 76.7955C401.554 76.7955 400.418 77.017 399.349 77.4602C398.293 77.892 397.429 78.5227 396.759 79.3523C396.088 80.1705 395.724 81.1591 395.668 82.3182H391.577C391.645 80.4886 392.196 78.8864 393.23 77.5114C394.264 76.125 395.616 75.0455 397.287 74.2727C398.969 73.5 400.815 73.1136 402.827 73.1136C404.986 73.1136 406.838 73.5511 408.384 74.4261C409.929 75.2898 411.116 76.4318 411.946 77.8523C412.776 79.2727 413.19 80.8068 413.19 82.4545C413.19 84.4205 412.673 86.0966 411.639 87.483C410.616 88.8693 409.224 89.8295 407.463 90.3636V90.6364C409.668 91 411.389 91.9375 412.628 93.4489C413.866 94.9489 414.486 96.8068 414.486 99.0227C414.486 100.92 413.969 102.625 412.935 104.136C411.912 105.636 410.514 106.818 408.741 107.682C406.969 108.545 404.952 108.977 402.69 108.977ZM432.844 108.977C430.276 108.977 428.088 108.278 426.281 106.881C424.474 105.472 423.094 103.432 422.139 100.761C421.185 98.0795 420.707 94.8409 420.707 91.0455C420.707 87.2727 421.185 84.0511 422.139 81.3807C423.105 78.6989 424.491 76.6534 426.298 75.2443C428.116 73.8239 430.298 73.1136 432.844 73.1136C435.389 73.1136 437.565 73.8239 439.372 75.2443C441.19 76.6534 442.577 78.6989 443.531 81.3807C444.497 84.0511 444.98 87.2727 444.98 91.0455C444.98 94.8409 444.503 98.0795 443.548 100.761C442.594 103.432 441.213 105.472 439.406 106.881C437.599 108.278 435.412 108.977 432.844 108.977ZM432.844 105.227C435.389 105.227 437.366 104 438.776 101.545C440.185 99.0909 440.889 95.5909 440.889 91.0455C440.889 88.0227 440.565 85.4489 439.918 83.3239C439.281 81.1989 438.361 79.5795 437.156 78.4659C435.963 77.3523 434.526 76.7955 432.844 76.7955C430.321 76.7955 428.349 78.0398 426.929 80.5284C425.509 83.0057 424.798 86.5114 424.798 91.0455C424.798 94.0682 425.116 96.6364 425.753 98.75C426.389 100.864 427.304 102.472 428.497 103.574C429.702 104.676 431.151 105.227 432.844 105.227ZM491.139 101.341V97.8636L506.48 73.5909H509.003V78.9773H507.298L495.707 97.3182V97.5909H516.366V101.341H491.139ZM507.571 108.5V100.284V98.6648V73.5909H511.594V108.5H507.571ZM534.141 108.977C531.572 108.977 529.385 108.278 527.578 106.881C525.771 105.472 524.391 103.432 523.436 100.761C522.482 98.0795 522.004 94.8409 522.004 91.0455C522.004 87.2727 522.482 84.0511 523.436 81.3807C524.402 78.6989 525.788 76.6534 527.595 75.2443C529.413 73.8239 531.595 73.1136 534.141 73.1136C536.686 73.1136 538.862 73.8239 540.669 75.2443C542.487 76.6534 543.874 78.6989 544.828 81.3807C545.794 84.0511 546.277 87.2727 546.277 91.0455C546.277 94.8409 545.8 98.0795 544.845 100.761C543.891 103.432 542.51 105.472 540.703 106.881C538.896 108.278 536.709 108.977 534.141 108.977ZM534.141 105.227C536.686 105.227 538.663 104 540.072 101.545C541.482 99.0909 542.186 95.5909 542.186 91.0455C542.186 88.0227 541.862 85.4489 541.214 83.3239C540.578 81.1989 539.658 79.5795 538.453 78.4659C537.26 77.3523 535.822 76.7955 534.141 76.7955C531.618 76.7955 529.646 78.0398 528.226 80.5284C526.805 83.0057 526.095 86.5114 526.095 91.0455C526.095 94.0682 526.413 96.6364 527.05 98.75C527.686 100.864 528.601 102.472 529.794 103.574C530.999 104.676 532.447 105.227 534.141 105.227Z" fill="white"/>
<g clip-path="url(#clip0_2384_61)">
<mask id="mask0_2384_61" style="mask-type:alpha" maskUnits="userSpaceOnUse" x="228" y="383" width="26" height="25">
<path d="M241.172 383.5L239.015 385.615L247.549 394H228.937V397H247.549L239.015 405.385L241.172 407.5L253.407 395.5L241.172 383.5Z" fill="white"/>
</mask>
<g mask="url(#mask0_2384_61)">
<mask id="mask1_2384_61" style="mask-type:alpha" maskUnits="userSpaceOnUse" x="202" y="358" width="78" height="75">
<path d="M279.407 358H202.937V433H279.407V358Z" fill="white"/>
</mask>
<g mask="url(#mask1_2384_61)">
<path d="M279.407 358H202.937V433H279.407V358Z" fill="black"/>
</g>
</g>
</g>
<defs>
<filter id="filter0_d_2384_61" x="0.171875" y="0.5" width="592" height="482" filterUnits="userSpaceOnUse" color-interpolation-filters="sRGB">
<feFlood flood-opacity="0" result="BackgroundImageFix"/>
<feColorMatrix in="SourceAlpha" type="matrix" values="0 0 0 0 0 0 0 0 0 0 0 0 0 0 0 0 0 0 127 0" result="hardAlpha"/>
<feOffset dy="10"/>
<feGaussianBlur stdDeviation="7.5"/>
<feComposite in2="hardAlpha" operator="out"/>
<feColorMatrix type="matrix" values="0 0 0 0 0 0 0 0 0 0 0 0 0 0 0 0 0 0 0.2 0"/>
<feBlend mode="normal" in2="BackgroundImageFix" result="effect1_dropShadow_2384_61"/>
<feBlend mode="normal" in="SourceGraphic" in2="effect1_dropShadow_2384_61" result="shape"/>
</filter>
<filter id="filter1_d_2384_61" x="36.1719" y="342.5" width="264" height="100" filterUnits="userSpaceOnUse" color-interpolation-filters="sRGB">
<feFlood flood-opacity="0" result="BackgroundImageFix"/>
<feColorMatrix in="SourceAlpha" type="matrix" values="0 0 0 0 0 0 0 0 0 0 0 0 0 0 0 0 0 0 127 0" result="hardAlpha"/>
<feOffset/>
<feGaussianBlur stdDeviation="10"/>
<feComposite in2="hardAlpha" operator="out"/>
<feColorMatrix type="matrix" values="0 0 0 0 0 0 0 0 0 0 0 0 0 0 0 0 0 0 0.15 0"/>
<feBlend mode="normal" in2="BackgroundImageFix" result="effect1_dropShadow_2384_61"/>
<feBlend mode="normal" in="SourceGraphic" in2="effect1_dropShadow_2384_61" result="shape"/>
</filter>
<clipPath id="clip0_2384_61">
<rect width="26" height="24" fill="white" transform="translate(228.172 383.5)"/>
</clipPath>
</defs>
</svg>
