<svg width="36" height="33" viewBox="0 0 36 33" fill="none" xmlns="http://www.w3.org/2000/svg">
<path d="M10.4102 6.87442C10.4098 7.60377 10.0933 8.3031 9.53042 8.81856C8.96753 9.33403 8.20431 9.62341 7.40866 9.62305C6.61301 9.62268 5.8501 9.3326 5.28778 8.81662C4.72545 8.30064 4.40976 7.60102 4.41016 6.87167C4.41055 6.14233 4.72701 5.443 5.2899 4.92753C5.85279 4.41206 6.61601 4.12268 7.41166 4.12305C8.20731 4.12341 8.97021 4.41349 9.53254 4.92948C10.0949 5.44546 10.4106 6.14508 10.4102 6.87442ZM10.5002 11.6594H4.50016V28.8744H10.5002V11.6594ZM19.9802 11.6594H14.0102V28.8744H19.9202V19.8407C19.9202 14.8082 27.0752 14.3407 27.0752 19.8407V28.8744H33.0002V17.9707C33.0002 9.48692 22.4102 9.80317 19.9202 13.9694L19.9802 11.6594Z" fill="white"/>
</svg>
