<svg width="36" height="35" viewBox="0 0 36 35" fill="none" xmlns="http://www.w3.org/2000/svg">
<path d="M12 4.375C7.8645 4.375 4.5 7.64604 4.5 11.6667V23.3333C4.5 27.354 7.8645 30.625 12 30.625H24C28.1355 30.625 31.5 27.354 31.5 23.3333V11.6667C31.5 7.64604 28.1355 4.375 24 4.375H12ZM12 7.29167H24C26.481 7.29167 28.5 9.25458 28.5 11.6667V23.3333C28.5 25.7454 26.481 27.7083 24 27.7083H12C9.519 27.7083 7.5 25.7454 7.5 23.3333V11.6667C7.5 9.25458 9.519 7.29167 12 7.29167ZM25.5 8.75C25.1022 8.75 24.7206 8.90365 24.4393 9.17714C24.158 9.45063 24 9.82156 24 10.2083C24 10.5951 24.158 10.966 24.4393 11.2395C24.7206 11.513 25.1022 11.6667 25.5 11.6667C25.8978 11.6667 26.2794 11.513 26.5607 11.2395C26.842 10.966 27 10.5951 27 10.2083C27 9.82156 26.842 9.45063 26.5607 9.17714C26.2794 8.90365 25.8978 8.75 25.5 8.75ZM18 10.2083C13.8645 10.2083 10.5 13.4794 10.5 17.5C10.5 21.5206 13.8645 24.7917 18 24.7917C22.1355 24.7917 25.5 21.5206 25.5 17.5C25.5 13.4794 22.1355 10.2083 18 10.2083ZM18 13.125C20.481 13.125 22.5 15.0879 22.5 17.5C22.5 19.9121 20.481 21.875 18 21.875C15.519 21.875 13.5 19.9121 13.5 17.5C13.5 15.0879 15.519 13.125 18 13.125Z" fill="white"/>
</svg>
