<svg width="24" height="23" viewBox="0 0 24 23" fill="none" xmlns="http://www.w3.org/2000/svg">
    <path
        d="M23.2711 8.73605C22.3683 7.25777 21.2296 5.9373 19.9001 4.82705L22.7001 2.02705C22.8822 1.83845 22.983 1.58584 22.9807 1.32365C22.9784 1.06145 22.8733 0.810638 22.6879 0.62523C22.5025 0.439822 22.2516 0.334653 21.9895 0.332374C21.7273 0.330096 21.4747 0.43089 21.2861 0.613048L18.2411 3.66205C16.3534 2.54087 14.1955 1.95651 12.0001 1.97205C5.80905 1.97205 2.28105 6.21005 0.729051 8.73605C0.249579 9.51155 -0.00439453 10.4053 -0.00439453 11.317C-0.00439453 12.2288 0.249579 13.1225 0.729051 13.898C1.63181 15.3763 2.77054 16.6968 4.10005 17.807L1.30005 20.607C1.20454 20.6993 1.12836 20.8096 1.07595 20.9316C1.02354 21.0536 0.995955 21.1849 0.994801 21.3176C0.993647 21.4504 1.01895 21.5821 1.06923 21.705C1.11951 21.8279 1.19376 21.9396 1.28766 22.0334C1.38155 22.1273 1.4932 22.2016 1.6161 22.2519C1.73899 22.3022 1.87067 22.3275 2.00345 22.3263C2.13623 22.3251 2.26745 22.2976 2.38946 22.2451C2.51146 22.1927 2.6218 22.1166 2.71405 22.021L5.76605 18.969C7.65132 20.09 9.80672 20.6754 12.0001 20.662C18.1911 20.662 21.7191 16.424 23.2711 13.898C23.7505 13.1225 24.0045 12.2288 24.0045 11.317C24.0045 10.4053 23.7505 9.51155 23.2711 8.73605ZM2.43305 12.851C2.14819 12.3901 1.9973 11.8589 1.9973 11.317C1.9973 10.7752 2.14819 10.244 2.43305 9.78305C3.76705 7.61705 6.78205 3.97205 12.0001 3.97205C13.6603 3.96275 15.2973 4.36289 16.7661 5.13705L14.7531 7.15005C13.793 6.51265 12.642 6.22704 11.4953 6.34169C10.3486 6.45634 9.27692 6.96419 8.46205 7.77905C7.64719 8.59391 7.13935 9.66561 7.0247 10.8123C6.91005 11.959 7.19565 13.11 7.83305 14.07L5.52305 16.38C4.29815 15.3898 3.25289 14.196 2.43305 12.851ZM15.0001 11.317C15.0001 12.1127 14.684 12.8758 14.1214 13.4384C13.5588 14.001 12.7957 14.317 12.0001 14.317C11.5546 14.3153 11.1152 14.2128 10.7151 14.017L14.7001 10.032C14.8958 10.4322 14.9983 10.8716 15.0001 11.317ZM9.00005 11.317C9.00005 10.5214 9.31612 9.75834 9.87873 9.19573C10.4413 8.63312 11.2044 8.31705 12.0001 8.31705C12.4455 8.31877 12.8849 8.42134 13.2851 8.61705L9.30005 12.602C9.10434 12.2018 9.00178 11.7625 9.00005 11.317ZM21.5671 12.851C20.2331 15.017 17.2181 18.662 12.0001 18.662C10.3398 18.6714 8.70282 18.2712 7.23405 17.497L9.24705 15.484C10.2071 16.1214 11.3581 16.4071 12.5048 16.2924C13.6515 16.1778 14.7232 15.6699 15.538 14.855C16.3529 14.0402 16.8608 12.9685 16.9754 11.8218C17.0901 10.6751 16.8044 9.52412 16.1671 8.56405L18.4771 6.25405C19.7019 7.24433 20.7472 8.4381 21.5671 9.78305C21.8519 10.244 22.0028 10.7752 22.0028 11.317C22.0028 11.8589 21.8519 12.3901 21.5671 12.851Z"
        fill="#707070" />
</svg>