<svg width="118" height="97" viewBox="0 0 118 97" fill="none" xmlns="http://www.w3.org/2000/svg">
<g clip-path="url(#clip0_1462_196)">
<path d="M88.2 0.102539L78.2 10.1025C77.7 10.0025 77.2 10.0025 76.7 9.90254C73.1 8.50254 66.8 7.40254 59.3 13.2025L59.1 13.4025L56.7 15.9025C47.5 9.60254 40.2 13.5025 38.1 14.9025L28.9 5.70254L0 34.5025L11 45.5025C11.1 50.4025 12.8 55.5025 16.2 60.5025C17.6 62.6025 19.2 64.5025 21 66.3025C23.3 68.6025 25.6 70.9025 27.8 73.1025C25.3 76.7025 26.4 79.7025 29 82.4025C31.7 85.2025 34.1 85.5025 37.7 84.5025H37.8C40.4 88.4025 42.8 90.3025 45.4 90.5025C46.5 91.5025 47.5 92.6025 48.6 93.6025C51.8 96.7025 56.7 97.4025 60.5 95.2025C62.2 94.2025 62.4 93.5025 63.3 92.1025C69.8 97.6025 74.2 97.7025 79.3 90.0025H79.4C83 91.0025 85.5 90.7025 88.1 87.9025C90.8 85.1025 91.9 81.9025 88.8 78.0025L88 77.0025C90.2 77.1025 91.9 75.7025 92.8 74.5025C95.3 71.2025 95.2 67.8025 92.5 64.5025C93.7 63.3025 94.9 62.1025 96.1 60.9025C97.9 59.1025 99.5 57.2025 100.9 55.1025C104.3 50.0025 106 45.0025 106.1 40.1025L117.1 29.1025L88.2 0.102539ZM22.8 62.1025C19.5 58.6025 17 54.7025 15.9 50.3025C15.7 49.3025 15.5 48.3025 15.4 47.3025C15.3 46.5025 15.3 45.6025 15.3 44.7025L4.1 33.6025L28 9.70254L35.7 17.4025L36.2 17.9025V18.0025L39.9 18.3025L40.1 17.7025C41.6 16.7025 47.6 13.3025 55.7 19.5025L66.4 30.3025C66.9 30.8025 67.2 31.6025 67.2 32.3025C67.2 33.1025 66.9 33.8025 66.4 34.3025L65.7 35.0025C64.6 36.1025 62.8 36.1025 61.6 35.0025L50.6 24.0025L48 25.8025L51 29.3025L52.3 30.6025C51 31.9025 49.8 33.1025 48.5 34.4025C48.2 34.7025 48 35.1025 47.9 35.4025C47.8 35.5025 47.8 35.5025 47.7 35.6025C40.4 42.9025 33 50.3025 25.7 57.7025C24.2 59.2025 23.2 60.7025 22.8 62.1025ZM58.3 92.0025C57.5 92.8025 56.6 93.3025 55.3 93.2025C53.6 93.1025 52.3 91.7025 51.5 90.9025C51 90.4025 50.5 89.9025 50 89.4025C51.2 88.7025 52.5 87.8025 53.9 86.7025C54.8 88.1025 55 88.8025 56.7 89.8025C57.4 90.2025 58.2 90.5025 59 90.8025C58.8 91.2025 58.6 91.7025 58.3 92.0025ZM74 90.5025C72.4 92.4025 70.5 92.6025 68.1 90.4025C67.7 90.1025 67.4 89.7025 67 89.4025C67.5 89.1025 68 88.7025 68.5 88.2025C69.9 86.9025 71.2 85.5025 72.6 84.2025C72.7 84.3025 72.9 84.5025 73 84.6025C75.3 86.8025 75.6 88.7025 74 90.5025ZM85.5 84.5025C83.8 86.8025 81.3 86.8025 79 84.6025C77.9 83.5025 76.7 82.3025 75.6 81.2025C77.5 79.4025 79.3 77.6025 81.2 75.7025C82.2 76.7025 83.3 77.8025 84.3 78.8025C86.4 80.9025 86.7 82.8025 85.5 84.5025ZM90.1 71.1025C89.3 73.2025 86.8 74.2025 84.8 73.1025C84.6 73.0025 84.4 72.9025 84.2 72.7025C86 70.9025 87.8 69.1025 89.6 67.3025C90.3 68.4025 90.7 69.6025 90.1 71.1025ZM101.9 39.3025C101.9 40.2025 101.9 41.0025 101.8 41.9025C101.7 42.9025 101.5 43.9025 101.3 44.9025C100.2 49.3025 97.7 53.2025 94.3 56.7025C89.8 61.5025 85 66.1025 80.3 70.7025C75.4 75.6025 70.5 80.5025 65.6 85.4025C64.8 86.2025 63.5 87.6025 61.8 87.7025C60.5 87.8025 59.7 87.3025 58.8 86.5025C58 85.8025 57.8 84.0025 58.1 82.8025C58.4 81.6025 59.5 80.5025 60.5 79.5025C62.7 77.2025 65 75.0025 67.3 72.7025C68.4 71.6025 69.5 70.5025 70.6 69.4025C71.8 68.2025 75.1 65.7025 73.2 63.9025C71.5 62.3025 69 65.4025 67.9 66.5025C66.8 67.6025 65.7 68.7025 64.6 69.8025C59.4 74.8025 54.3 80.0025 49 84.9025C46.6 87.1025 44.7 87.0025 43.1 85.0025C41.5 83.2025 41.8 81.3025 44.1 79.1025C50 73.2025 55.8 67.4025 61.7 61.5025C62.5 60.7025 63.2 60.1025 63.4 58.9025C63.5 58.0025 63.2 57.1025 62.2 57.0025C60.6 56.8025 59.9 57.4025 58.8 58.4025C51.9 65.3025 45 72.2025 38.1 79.1025C35.8 81.4025 33.3 81.3025 31.6 79.0025C30.4 77.3025 30.7 75.4025 32.7 73.4025C39.7 66.4025 46.7 59.3025 53.8 52.3025C54.9 51.2025 55.8 49.9025 54.4 48.6025C53.1 47.3025 51.9 48.5025 50.9 49.5025C45.5 54.9025 40.1 60.3025 34.7 65.7025C34 66.4025 33.2 67.2025 32.3 67.6025C30.3 68.7025 27.8 67.7025 27 65.6025C26.1 63.4025 27.2 62.1025 28.6 60.7025C37.6 51.7025 46.6 42.8025 55.5 33.8025L59.2 37.5025C60.5 38.8025 62.1 39.4025 63.7 39.4025C65.3 39.4025 67 38.8025 68.2 37.5025L68.9 36.8025C70.1 35.6025 70.8 34.0025 70.8 32.3025C70.8 30.7025 70.2 29.2025 69.1 28.0025L61 19.7025L59.4 18.1025L61.6 15.9025C65 13.3025 68 12.4025 70.5 12.3025C75 11.9025 79.1 14.3025 79.1 14.3025L81.5 11.9025L89.2 4.20254L113 28.1025L101.9 39.3025Z" fill="#272525"/>
</g>
<defs>
<clipPath id="clip0_1462_196">
<rect width="117.1" height="96.4" fill="white" transform="translate(0 0.102539)"/>
</clipPath>
</defs>
</svg>
