<svg width="44" height="44" viewBox="0 0 44 44" fill="none" xmlns="http://www.w3.org/2000/svg">
<g clip-path="url(#clip0_1462_751)">
<path d="M22 0C9.85 0 0 9.85 0 22C0 34.15 9.85 44 22 44C34.15 44 44 34.15 44 22C44 9.85 34.15 0 22 0ZM40.281 16.888L30.211 18.327C29.455 16.639 28.193 15.231 26.62 14.286L28.087 4.017C33.991 6.022 38.59 10.848 40.281 16.888ZM22 28C18.691 28 16 25.309 16 22C16 18.691 18.691 16 22 16C25.309 16 28 18.691 28 22C28 25.309 25.309 28 22 28ZM16.63 3.785L18.076 13.91C16.222 14.811 14.728 16.325 13.853 18.194L3.753 16.751C5.547 10.531 10.428 5.617 16.63 3.785ZM4.062 28.205L14.357 26.734C15.278 28.218 16.616 29.412 18.211 30.154L16.768 40.25C10.824 38.543 6.077 34.014 4.062 28.205ZM27.951 40.031L26.488 29.793C27.821 29.023 28.934 27.924 29.723 26.604L39.988 28.071C38.08 33.707 33.604 38.16 27.951 40.031Z" fill="#80DED9"/>
</g>
<defs>
<clipPath id="clip0_1462_751">
<rect width="44" height="44" fill="white"/>
</clipPath>
</defs>
</svg>
