<svg width="75" height="117" viewBox="0 0 75 117" fill="none" xmlns="http://www.w3.org/2000/svg">
<g clip-path="url(#clip0_1462_135)">
<path d="M74.9004 109.403C74.9004 108.903 75.2004 97.4029 67.9004 90.7029C67.2004 90.0029 66.1004 90.0029 65.3004 90.6029C65.0004 90.8029 57.3004 96.5029 50.1004 90.6029C49.3004 90.0029 48.3004 90.0029 47.5004 90.6029C47.4004 90.7029 46.5004 91.5029 45.3004 93.1029C44.2004 91.4029 42.9004 89.7029 41.3004 88.3029C40.6004 87.6029 39.5004 87.6029 38.7004 88.2029C38.2004 88.6029 26.8004 97.1029 15.9004 88.2029C15.1004 87.6029 14.1004 87.6029 13.3004 88.2029C12.9004 88.6029 3.20039 97.2029 2.90039 114.203C2.90039 114.703 3.10039 115.303 3.50039 115.603C3.90039 116.003 4.40039 116.203 4.90039 116.203H48.9004C50.0004 116.203 50.9004 115.303 50.9004 114.303C50.9004 114.103 50.9004 113.003 50.8004 111.203H72.7004C74.0004 111.303 74.8004 110.503 74.9004 109.403ZM7.10039 112.303C7.80039 101.603 12.7004 94.9029 14.9004 92.4029C25.3004 99.6029 35.9004 94.6029 39.7004 92.3029C45.6004 98.6029 46.7004 108.203 46.9004 112.303H7.10039ZM50.5004 107.303C50.0004 104.303 49.2004 100.603 47.5004 97.1029C48.1004 96.2029 48.7004 95.4029 49.1004 94.8029C55.5004 99.0029 62.4004 97.0029 66.2004 94.8029C69.6004 98.8029 70.5004 104.403 70.7004 107.403L50.5004 107.303Z" fill="#272525"/>
<path d="M54.1996 38.7025H38.5996V43.6025C38.5996 46.1025 40.5996 48.1025 42.9996 48.1025H56.8996L60.7996 52.6025C61.0996 52.9025 61.4996 53.1025 61.8996 53.1025C62.0996 53.1025 62.2996 53.1025 62.4996 53.0025C63.0996 52.8025 63.4996 52.1025 63.3996 51.5025L63.0996 48.1025H70.1996C72.6996 48.1025 74.5996 46.1025 74.5996 43.6025V26.0025C74.5996 23.5025 72.5996 21.6025 70.1996 21.6025H60.4996V32.3025C60.5996 35.8025 57.6996 38.7025 54.1996 38.7025ZM60.9996 32.3025V24.5025H70.3996C71.1996 24.5025 71.7996 25.2025 71.7996 25.9025V43.5025C71.7996 44.3025 71.0996 45.0025 70.3996 45.0025H61.5996C61.1996 45.0025 60.7996 45.2025 60.4996 45.5025C60.1996 45.8025 60.0996 46.2025 60.0996 46.6025V47.1025L58.6996 45.5025C58.3996 45.2025 57.9996 45.0025 57.5996 45.0025H42.9996C42.1996 45.0025 41.5996 44.3025 41.5996 43.5025V38.8025H54.3996C57.9996 38.9025 60.9996 36.0025 60.9996 32.3025Z" fill="#272525"/>
<path d="M0 32.2027C0 35.8027 2.9 38.6027 6.4 38.6027H23.7L23.2 44.8027C23.1 45.5027 23.6 46.2027 24.3 46.5027C24.5 46.6027 24.7 46.6027 25 46.6027C25.5 46.6027 26 46.4027 26.3 46.0027L32.8 38.5027H38.6H54.2C57.8 38.5027 60.6 35.6027 60.6 32.1027V21.6027V6.60271C60.6 3.00271 57.7 0.202707 54.2 0.202707H6.4C2.9 0.102707 0 3.00271 0 6.50271V32.2027ZM3.5 6.50271C3.5 4.90271 4.8 3.50271 6.5 3.50271H54.2C55.8 3.50271 57.2 4.80271 57.2 6.50271V32.2027C57.2 33.8027 55.9 35.2027 54.2 35.2027H32C31.5 35.2027 31 35.4027 30.7 35.8027L27.1 39.9027L27.3 37.1027C27.3 36.6027 27.2 36.1027 26.8 35.8027C26.5 35.4027 26 35.2027 25.5 35.2027H6.4C4.8 35.2027 3.4 33.9027 3.4 32.2027V6.50271H3.5Z" fill="#272525"/>
<path d="M57.5002 90.6029C61.2002 90.6029 64.6002 89.2029 67.2002 86.6029C69.8002 84.0029 71.2002 80.5029 71.2002 76.9029C71.2002 69.3029 65.0002 63.1029 57.4002 63.1029C53.7002 63.1029 50.3002 64.5029 47.7002 67.1029C46.9002 67.9029 46.2002 68.8029 45.7002 69.7029C45.8002 69.1029 45.8002 68.5029 45.8002 67.8029C45.8002 57.4029 37.3002 49.0029 27.0002 49.0029C22.0002 49.0029 17.2002 51.0029 13.7002 54.5029C10.1002 58.1029 8.2002 62.8029 8.2002 67.8029C8.2002 78.2029 16.7002 86.6029 27.0002 86.6029C32.0002 86.6029 36.7002 84.6029 40.3002 81.1029C41.7002 79.7029 42.8002 78.1029 43.7002 76.4029C43.7002 76.5029 43.7002 76.7029 43.7002 76.8029C43.7002 84.4029 49.9002 90.6029 57.5002 90.6029ZM50.6002 69.9029C52.4002 68.1029 54.9002 67.0029 57.5002 67.0029C62.9002 67.0029 67.3002 71.4029 67.3002 76.8029C67.3002 79.4029 66.3002 81.9029 64.4002 83.7029C62.6002 85.5029 60.1002 86.6029 57.5002 86.6029C52.1002 86.6029 47.7002 82.2029 47.7002 76.8029C47.7002 74.2029 48.8002 71.8029 50.6002 69.9029ZM37.5002 78.3029C34.7002 81.1029 31.0002 82.6029 27.0002 82.6029C18.8002 82.6029 12.2002 76.0029 12.2002 67.8029C12.2002 63.8029 13.7002 60.1029 16.5002 57.3029C19.3002 54.5029 23.0002 53.0029 27.0002 53.0029C35.2002 53.0029 41.8002 59.7029 41.8002 67.8029C41.8002 71.8029 40.3002 75.5029 37.5002 78.3029Z" fill="#272525"/>
</g>
<defs>
<clipPath id="clip0_1462_135">
<rect width="74.9" height="116.2" fill="white" transform="translate(0 0.102539)"/>
</clipPath>
</defs>
</svg>
