<svg width="100" height="100" viewBox="0 0 100 100" fill="none" xmlns="http://www.w3.org/2000/svg">
<g clip-path="url(#clip0_1462_453)">
<path d="M47.1 99.4025H51.9C78.6 98.3025 99.5 76.5025 99.5 49.7025C99.4 23.0025 78.5 1.20254 51.8 0.102539H47.1C20.7 1.50254 0 23.3025 0 49.8025C0 76.3025 20.7 98.0025 47.1 99.4025ZM17 81.9025C20.2 79.6025 23.6 77.6025 27.2 76.1025C30.6 83.2025 35.4 89.6025 41.4 94.9025C32.2 93.2025 23.6 88.6025 17 81.9025ZM47.8 95.2025C40.5 89.7025 34.7 82.7025 30.8 74.7025C36.3 72.7025 42 71.6025 47.8 71.3025V95.2025ZM47.8 67.4025C41.4 67.7025 35.2 68.9025 29.2 71.1025C26.9 65.5025 25.6 59.5025 25.2 53.3025H47.7V67.4025H47.8ZM47.8 49.5025H25.1C25.1 43.2025 26.2 37.0025 28.2 31.1025C34.4 33.6025 41 35.0025 47.8 35.2025V49.5025ZM57.4 95.0025C63.7 89.4025 68.6 82.9025 72 75.4025C75.9 77.0025 79.5 79.0025 82.9 81.3025C76.1 88.5025 67.2 93.3025 57.4 95.0025ZM85.5 78.4025C81.8 75.8025 77.8 73.6025 73.5 71.8025C75.8 65.9025 77.1 59.7025 77.5 53.3025H95.4C94.7 62.5025 91.3 71.2025 85.5 78.4025ZM87 23.0025C92.6 30.7025 95.6 39.9025 95.6 49.4025H77.6C77.6 42.9025 76.5 36.4025 74.5 30.3025C78.9 28.4025 83.1 26.0025 87 23.0025ZM84.6 20.0025C81 22.7025 77.2 24.9025 73.1 26.7025C69.7 18.3025 64.3 10.7025 57.4 4.50254C68 6.30254 77.6 11.8025 84.6 20.0025ZM51.6 4.80254C59.6 11.0025 65.8 19.0025 69.5 28.2025C63.7 30.3025 57.7 31.4025 51.6 31.5025V4.80254ZM51.6 35.3025C58.2 35.2025 64.6 34.0025 70.8 31.8025C72.7 37.5025 73.7 43.5025 73.7 49.5025H51.6V35.3025ZM51.6 53.3025H73.6C73.2 59.2025 72 65.0025 69.9 70.5025C64 68.5025 57.9 67.5025 51.6 67.4025V53.3025ZM51.6 71.2025C57.3 71.3025 63 72.3025 68.4 74.0025C64.6 82.0025 58.8 89.2025 51.6 94.7025V71.2025ZM47.8 4.40254V31.4025C41.5 31.1025 35.4 29.8025 29.6 27.5025C33.5 18.4025 39.7 10.4025 47.8 4.40254ZM41.4 4.70254C34.8 10.6025 29.5 17.9025 26.1 26.0025C22.3 24.2025 18.7 22.0025 15.4 19.4025C22.2 11.7025 31.4 6.50254 41.4 4.70254ZM13 22.3025C16.6 25.2025 20.6 27.6025 24.7 29.5025C22.5 35.9025 21.3 42.6025 21.3 49.4025H3.9C3.9 39.6025 7.1 30.2025 13 22.3025ZM4 53.3025H21.4C21.8 60.0025 23.2 66.4025 25.6 72.5025C21.6 74.3025 17.9 76.4025 14.4 79.0025C8.3 71.7025 4.7 62.8025 4 53.3025Z" fill="#272525"/>
</g>
<defs>
<clipPath id="clip0_1462_453">
<rect width="99.4" height="99.3" fill="white" transform="translate(0 0.102539)"/>
</clipPath>
</defs>
</svg>
