<svg width="124" height="130" viewBox="0 0 124 130" fill="none" xmlns="http://www.w3.org/2000/svg">
<g clip-path="url(#clip0_1462_216)">
<path d="M124 0H0V130H124V0Z" fill="white"/>
<path d="M87.1115 101.81H36.8893C36.4449 101.81 36.2227 101.344 36.2227 101.111V65.6989C36.2227 65.233 36.6671 65 36.8893 65C37.3338 65 37.556 65.466 37.556 65.6989C37.556 67.7957 39.1115 69.1936 40.8893 69.1936C41.556 69.1936 42.0004 68.9606 42.6671 68.7276C42.8893 68.4946 43.1115 68.4946 43.3338 68.7276C43.556 68.9606 43.7782 69.1935 43.7782 69.4265V93.8889H80.0004V69.4265C80.0004 69.1935 80.2227 68.9606 80.4449 68.7276C80.6671 68.4946 80.8893 68.4946 81.1115 68.7276C81.556 68.9606 82.2227 69.1936 82.8893 69.1936C84.8893 69.1936 86.2227 67.5627 86.2227 65.6989C86.2227 65.233 86.6671 65 86.8893 65C87.3338 65 87.556 65.466 87.556 65.6989V100.878C87.7782 101.344 87.556 101.81 87.1115 101.81ZM37.556 100.179H86.2227V69.4265C85.3338 70.3584 84.2227 70.8244 82.8893 70.8244C82.4449 70.8244 82.0004 70.8244 81.556 70.5914V94.5878C81.556 95.0538 81.1116 95.2867 80.8893 95.2867H43.1115C42.6671 95.2867 42.4449 94.8208 42.4449 94.5878V70.5914C42.0004 70.8244 41.556 70.8244 41.1115 70.8244C39.7782 70.8244 38.6671 70.3584 37.7782 69.4265L37.556 100.179Z" fill="black"/>
<path d="M80.8888 95.5197H43.111C42.6666 95.5197 42.4443 95.0538 42.4443 94.8208V69.4265C42.4443 69.1935 42.6666 68.9606 42.8888 68.7276C43.9999 68.0287 44.6666 66.8638 44.6666 65.6989C44.6666 65.233 45.111 65 45.3332 65C45.7777 65 45.9999 65.466 45.9999 65.6989C45.9999 67.7957 47.5554 69.1936 49.3332 69.1936C51.3332 69.1936 52.6666 67.5627 52.6666 65.6989C52.6666 65.233 53.111 65 53.3332 65C53.7777 65 53.9999 65.466 53.9999 65.6989C53.9999 67.7957 55.5554 69.1936 57.3332 69.1936C59.111 69.1936 60.6666 67.5627 60.6666 65.6989C60.6666 65.233 61.111 65 61.3332 65C61.5554 65 61.9999 65.466 61.9999 65.6989C61.9999 67.7957 63.5554 69.1936 65.3332 69.1936C67.3332 69.1936 68.6666 67.5627 68.6666 65.6989C68.6666 65.233 69.111 65 69.3332 65C69.5554 65 71.111 65.233 71.111 65.6989C71.111 67.7957 72.6666 69.1936 74.4443 69.1936C76.4443 69.1936 77.7777 67.5627 77.7777 65.6989C77.7777 65.233 78.2221 65 78.4443 65C78.8888 65 79.111 65.466 79.111 65.6989C79.111 67.0968 79.7777 68.2616 80.8888 68.7276C81.111 68.9606 81.3332 69.1935 81.3332 69.4265V94.5878C81.5554 95.0538 81.3332 95.5197 80.8888 95.5197ZM43.7777 93.8889H79.9999V69.8925C79.5554 69.4265 78.8888 68.9606 78.6666 68.4946C77.7777 69.8925 76.2221 70.8244 74.4443 70.8244C72.6666 70.8244 71.111 69.8925 70.2221 68.4946C69.3332 69.8925 67.7777 70.8244 65.9999 70.8244C64.2221 70.8244 62.6666 69.8925 61.7777 68.4946C60.8888 69.8925 59.3332 70.8244 57.5554 70.8244C55.7777 70.8244 54.2221 69.8925 53.3332 68.4946C52.4443 69.8925 50.8888 70.8244 49.111 70.8244C47.3332 70.8244 45.7777 69.8925 44.8888 68.4946C44.4443 68.9606 43.9999 69.6595 43.5554 69.8925V93.8889H43.7777Z" fill="black"/>
<path d="M91.334 70.8244C89.5562 70.8244 88.0007 69.8925 87.1118 68.4946C86.2229 69.8925 84.6673 70.8244 82.8895 70.8244C81.1118 70.8244 79.5562 69.8925 78.6673 68.4946C77.7784 69.8925 76.2229 70.8244 74.4451 70.8244C72.6673 70.8244 71.1118 69.8925 70.2229 68.4946C69.334 69.8925 67.7784 70.8244 66.0007 70.8244C64.2229 70.8244 62.6673 69.8925 61.7784 68.4946C60.8895 69.8925 59.334 70.8244 57.5562 70.8244C55.7784 70.8244 54.2229 69.8925 53.334 68.4946C52.4451 69.8925 50.8895 70.8244 49.1118 70.8244C47.334 70.8244 45.7784 69.8925 44.8895 68.4946C44.0007 69.8925 42.4451 70.8244 40.6673 70.8244C38.8895 70.8244 37.334 69.8925 36.4451 68.4946C35.5562 69.8925 34.0007 70.8244 32.2229 70.8244C29.5562 70.8244 27.334 68.4946 27.334 65.6989V65.466L35.7784 46.129C36.0007 45.8961 36.2229 45.6631 36.4451 45.6631H86.6673C86.8895 45.6631 87.334 45.8961 87.334 46.129L95.7784 65.466V65.6989C96.2229 68.4946 94.0007 70.8244 91.334 70.8244ZM87.7784 65.6989C87.7784 67.7957 89.334 69.1935 91.1118 69.1935C92.8895 69.1935 94.4451 67.5627 94.4451 65.6989L86.6673 47.0609H37.334L29.334 65.9319C29.334 67.7957 30.8895 69.4265 32.6673 69.4265C34.6673 69.4265 36.0007 67.7957 36.0007 65.9319C36.0007 65.4659 36.4451 65.233 36.6673 65.233C37.1118 65.233 37.334 65.6989 37.334 65.9319C37.334 68.0287 38.8895 69.4265 40.6673 69.4265C42.6673 69.4265 44.0007 67.7957 44.0007 65.9319C44.0007 65.4659 44.4451 65.233 44.6673 65.233C45.1118 65.233 45.334 65.6989 45.334 65.9319C45.334 68.0287 46.8895 69.4265 48.6673 69.4265C50.6673 69.4265 52.0007 67.7957 52.0007 65.9319C52.0007 65.4659 52.4451 65.233 52.6673 65.233C53.1118 65.233 53.334 65.6989 53.334 65.9319C53.334 68.0287 54.8895 69.4265 56.6673 69.4265C58.6673 69.4265 60.0007 67.7957 60.0007 65.9319C60.0007 65.4659 60.4451 65.233 60.6673 65.233C61.1118 65.233 61.334 65.6989 61.334 65.9319C61.334 68.0287 62.8895 69.4265 64.6673 69.4265C66.6673 69.4265 68.0007 67.7957 68.0007 65.9319C68.0007 65.4659 68.4451 65.233 68.6673 65.233C69.1118 65.233 69.334 65.6989 69.334 65.9319C69.334 68.0287 70.8895 69.4265 72.6673 69.4265C74.4451 69.4265 76.0007 67.7957 76.0007 65.9319C76.0007 65.4659 76.4451 65.233 76.6673 65.233C77.1118 65.233 77.334 65.6989 77.334 65.9319C77.334 68.0287 78.8895 69.4265 80.6673 69.4265C82.6673 69.4265 84.0007 67.7957 84.0007 65.9319C84.0007 65.4659 84.4451 65.233 84.6673 65.233C87.5562 65 87.7784 65.233 87.7784 65.6989Z" fill="black"/>
<path d="M36.8893 66.3986C36.4449 66.3986 36.2227 66.1656 36.2227 65.6996V59.6423C36.2227 59.1763 36.6671 58.9434 36.8893 58.9434C37.3338 58.9434 37.556 59.4093 37.556 59.6423V65.6996C37.556 66.1656 37.3338 66.3986 36.8893 66.3986Z" fill="black"/>
<path d="M45.3337 66.3986C44.8892 66.3986 44.667 66.1656 44.667 65.6996V59.6423C44.667 59.1763 45.1114 58.9434 45.3337 58.9434C45.5559 58.9434 46.0003 59.4093 46.0003 59.6423V65.6996C46.0003 66.1656 45.5559 66.3986 45.3337 66.3986Z" fill="black"/>
<path d="M53.5553 66.3986C53.1109 66.3986 52.8887 66.1656 52.8887 65.6996V59.6423C52.8887 59.1763 53.3331 58.9434 53.5553 58.9434C53.9998 58.9434 54.222 59.4093 54.222 59.6423V65.6996C54.4442 66.1656 53.9998 66.3986 53.5553 66.3986Z" fill="black"/>
<path d="M61.9997 66.3986C61.5552 66.3986 61.333 66.1656 61.333 65.6996V59.6423C61.333 59.1763 61.7774 58.9434 61.9997 58.9434C62.2219 58.9434 62.6663 59.4093 62.6663 59.6423V65.6996C62.6663 66.1656 62.4441 66.3986 61.9997 66.3986Z" fill="black"/>
<path d="M70.444 66.3986C69.9996 66.3986 69.7773 66.1656 69.7773 65.6996V59.6423C69.7773 59.1763 70.2218 58.9434 70.444 58.9434C70.8885 58.9434 71.1107 59.4093 71.1107 59.6423V65.6996C71.1107 66.1656 70.6662 66.3986 70.444 66.3986Z" fill="black"/>
<path d="M78.6667 66.3986C78.2222 66.3986 78 66.1656 78 65.6996V59.6423C78 59.1763 78.4444 58.9434 78.6667 58.9434C79.1111 58.9434 79.3333 59.4093 79.3333 59.6423V65.6996C79.5556 66.1656 79.1111 66.3986 78.6667 66.3986Z" fill="black"/>
<path d="M87.111 66.3986C86.6666 66.3986 86.4443 66.1656 86.4443 65.6996V59.6423C86.4443 59.1763 86.8888 58.9434 87.111 58.9434C87.5554 58.9434 87.7777 59.4093 87.7777 59.6423V65.6996C87.7777 66.1656 87.5554 66.3986 87.111 66.3986Z" fill="black"/>
<path d="M69.3339 95.5199H54.445C54.0005 95.5199 53.7783 95.0539 53.7783 94.8209V79.2116C53.7783 78.7457 54.2228 78.5127 54.445 78.5127H69.3339C69.7783 78.5127 70.0005 78.9786 70.0005 79.2116V94.8209C70.2228 95.0539 69.7783 95.5199 69.3339 95.5199ZM55.3339 93.889H68.6672V79.9105H55.3339V93.889Z" fill="black"/>
<path d="M85.7779 47.0606H38.2223C37.7779 47.0606 37.5557 46.5946 37.5557 46.3616V35.4118C37.5557 34.9459 38.0001 34.7129 38.2223 34.7129H86.0001C86.4446 34.7129 86.6668 35.1788 86.6668 35.4118V46.3616C86.6668 46.5946 86.2223 47.0606 85.7779 47.0606ZM38.889 45.4297H85.1112V36.1107H38.889V45.4297Z" fill="black"/>
<path d="M85.7779 36.1106H38.2223C37.7779 36.1106 37.5557 35.8776 37.5557 35.4117C37.5557 34.9457 37.5557 34.7128 38.0001 34.4798L50.0001 28.1895H50.2223H74.0001C74.2223 28.1895 74.2223 28.1895 74.2223 28.1895L86.2223 34.4798C86.4445 34.7128 86.6668 34.9457 86.6668 35.4117C86.4445 35.8776 86.2223 36.1106 85.7779 36.1106ZM41.3334 34.4798H82.6668L73.7779 29.8203H50.2223L41.3334 34.4798Z" fill="black"/>
<path d="M91.7779 101.81H32.2223C31.7779 101.81 31.5557 101.344 31.5557 101.111C31.5557 100.645 32.0001 100.412 32.2223 100.412H91.7779C92.2223 100.412 92.4445 100.878 92.4445 101.111C92.4445 101.344 92.2223 101.81 91.7779 101.81Z" fill="black"/>
<path d="M63.5556 87.598H60.6667C60.2222 87.598 60 87.1321 60 86.8991C60 86.4332 60.4444 86.2002 60.6667 86.2002H63.5556C64 86.2002 64.2222 86.6661 64.2222 86.8991C64.2222 87.3651 63.7778 87.598 63.5556 87.598Z" fill="black"/>
<path d="M79.7775 47.0613H43.9997C43.5552 47.0613 43.333 46.5953 43.333 46.3623V41.7028C43.333 41.2369 43.7775 41.0039 43.9997 41.0039H79.7775C80.2219 41.0039 80.4441 41.4699 80.4441 41.7028V46.3623C80.6663 46.5953 80.2219 47.0613 79.7775 47.0613ZM44.8886 45.4304H79.1108V42.4018H44.8886V45.4304Z" fill="black"/>
</g>
<defs>
<clipPath id="clip0_1462_216">
<rect width="124" height="130" fill="white"/>
</clipPath>
</defs>
</svg>
