<svg width="85" height="95" viewBox="0 0 85 95" fill="none" xmlns="http://www.w3.org/2000/svg">
<g clip-path="url(#clip0_1462_210)">
<path d="M19.5 84.6025C23.3 84.6025 26.4 81.7025 26.4 78.1025V30.6025C26.4 27.0025 23.3 24.1025 19.5 24.1025H6.9C3.1 24.1025 0 27.0025 0 30.6025V78.2025C0 81.8025 3.1 84.7025 6.9 84.7025H19.5V84.6025ZM3.5 78.2025V30.6025C3.5 28.9025 5.1 27.6025 7 27.6025H19.6C21.5 27.6025 23.1 29.0025 23.1 30.6025V78.2025C23.1 79.9025 21.5 81.2025 19.6 81.2025H6.9C5 81.2025 3.5 79.8025 3.5 78.2025Z" fill="#272525"/>
<path d="M65.4 0.102539C61.6 0.102539 58.5 3.90254 58.5 8.60254V76.2025C58.5 80.9025 61.6 84.7025 65.4 84.7025H78C81.8 84.7025 84.9 80.9025 84.9 76.2025V8.60254C84.9 3.90254 81.8 0.102539 78 0.102539H65.4ZM81.4 8.60254V76.2025C81.4 78.9025 79.8 81.2025 77.9 81.2025H65.4C63.5 81.2025 61.9 78.9025 61.9 76.2025V8.60254C61.9 5.90254 63.5 3.60254 65.4 3.60254H78C79.8 3.60254 81.4 5.90254 81.4 8.60254Z" fill="#272525"/>
<path d="M35.6998 84.6023H48.2998C52.1998 84.6023 55.1998 82.5023 55.1998 79.7023V48.3023C55.1998 45.6023 52.1998 43.4023 48.2998 43.4023H35.6998C31.7998 43.4023 28.7998 45.5023 28.7998 48.3023V79.7023C28.7998 82.5023 31.8998 84.6023 35.6998 84.6023ZM32.2998 48.3023C32.2998 47.9023 33.5998 46.9023 35.7998 46.9023H48.3998C50.5998 46.9023 51.8998 47.9023 51.8998 48.3023V79.7023C51.8998 80.1023 50.5998 81.1023 48.3998 81.1023H35.6998C33.4998 81.1023 32.1998 80.1023 32.1998 79.7023V48.3023H32.2998Z" fill="#272525"/>
<path d="M3 90.9022C3 92.6022 4.6 94.1021 6.5 94.1021H79.7C81.6 94.1021 83.2 92.7022 83.2 90.9022C83.2 89.2022 81.6 87.7021 79.7 87.7021H6.5C4.6 87.7021 3 89.2022 3 90.9022Z" fill="#272525"/>
</g>
<defs>
<clipPath id="clip0_1462_210">
<rect width="84.9" height="94" fill="white" transform="translate(0 0.102539)"/>
</clipPath>
</defs>
</svg>
