<svg width="122" height="119" viewBox="0 0 122 119" fill="none" xmlns="http://www.w3.org/2000/svg">
<g clip-path="url(#clip0_1462_206)">
<path d="M47.7 118.102C74 118.102 95.4 96.7021 95.4 70.4022C95.4 58.0022 90.6 46.6021 82.8 38.2021L91.8 29.2021C92.1 29.6021 92.6 30.0021 93.2 30.0021L112 32.1021C112.1 32.1021 112.1 32.1021 112.2 32.1021C113.2 32.1021 114.1 31.3021 114.2 30.3021C114.3 29.2021 113.5 28.2021 112.4 28.1021L94.8 26.2021L100 21.0021C100.1 21.0021 100.2 21.0021 100.3 21.1021L119.1 23.2021C119.2 23.2021 119.2 23.2021 119.3 23.2021C120.3 23.2021 121.2 22.4021 121.3 21.4021C121.4 20.3021 120.6 19.3021 119.5 19.2021L103.6 17.5021L113.2 7.90215C114 7.10215 114 5.90215 113.2 5.10215C112.4 4.30215 111.2 4.30215 110.4 5.10215L100.5 15.0021L95.2 1.40215C94.8 0.402147 93.6 -0.0978531 92.6 0.302147C91.6 0.702147 91.1 1.90215 91.5 2.90215L97.3 17.8021C97.3 17.9021 97.4 17.9021 97.4 17.9021L93.1 22.2021L87.9 8.20215C87.5 7.20215 86.4 6.60215 85.3 7.00215C84.3 7.40215 83.7 8.50215 84.1 9.60215L89.9 25.1021C89.9 25.2021 90 25.2021 90 25.3021L79.9 35.3021C71.4 27.5021 60.1 22.7021 47.7 22.7021C21.4 22.7021 0 44.1022 0 70.4022C0 96.7021 21.4 118.102 47.7 118.102ZM47.7 26.7021C59 26.7021 69.4 31.0021 77.1 38.1021L67.7 47.5021C62.4 42.8021 55.4 40.0021 47.7 40.0021C31 40.0021 17.4 53.6021 17.4 70.3021C17.4 87.0022 31 100.602 47.7 100.602C64.4 100.602 78 87.0022 78 70.3021C78 62.7021 75.1 55.7021 70.5 50.3021L79.9 40.9021C87 48.8021 91.3 59.1022 91.3 70.4022C91.3 94.5022 71.7 114.102 47.6 114.102C23.6 114.102 4 94.5022 4 70.4022C4 46.3022 23.6 26.7021 47.7 26.7021ZM46.3 71.8021C46.7 72.2021 47.2 72.4022 47.7 72.4022C48.2 72.4022 48.7 72.2021 49.1 71.8021L55.3 65.6021C56.2 67.0022 56.7 68.6021 56.7 70.3021C56.7 75.2021 52.7 79.2021 47.7 79.2021C42.8 79.2021 38.8 75.2021 38.8 70.3021C38.8 65.4021 42.8 61.4021 47.7 61.4021C49.4 61.4021 51.1 61.9021 52.4 62.8021L46.2 69.0022C45.5 69.8022 45.5 71.1021 46.3 71.8021ZM55.3 60.0021C53.2 58.4021 50.5 57.5021 47.7 57.5021C40.6 57.5021 34.8 63.3022 34.8 70.4022C34.8 77.5022 40.6 83.3021 47.7 83.3021C54.8 83.3021 60.7 77.5022 60.7 70.4022C60.7 67.6021 59.8 64.9021 58.2 62.8021L67.7 53.3021C71.7 57.9021 74.1 63.9022 74.1 70.4022C74.1 84.9022 62.3 96.7021 47.8 96.7021C33.3 96.7021 21.5 84.9022 21.5 70.4022C21.3 55.9022 33.1 44.1021 47.7 44.1021C54.2 44.1021 60.2 46.5021 64.8 50.5021L55.3 60.0021Z" fill="#272525"/>
</g>
<defs>
<clipPath id="clip0_1462_206">
<rect width="121.1" height="118" fill="white" transform="translate(0 0.102539)"/>
</clipPath>
</defs>
</svg>
