<svg width="122" height="126" viewBox="0 0 122 126" fill="none" xmlns="http://www.w3.org/2000/svg">
<g clip-path="url(#clip0_1462_141)">
<path d="M122 0H0V126H122V0Z" fill="white"/>
<path d="M56.6268 97.7744H36.0749C35.6376 97.7744 35.4189 97.3227 35.4189 97.0969V28.9034C35.4189 28.6776 35.6376 28.4518 35.6376 28.226C35.8562 28.0002 36.0749 28.0002 36.2935 28.226L65.591 40.4195C65.8096 40.6453 66.0283 40.8712 66.0283 41.097V49.4518C66.0283 49.6776 65.8096 49.9034 65.591 50.1292L57.0641 55.097V97.0969C57.2827 97.5486 57.0641 97.7744 56.6268 97.7744ZM36.7308 96.1937H55.7523V54.6453C55.7523 54.4195 55.9709 54.1937 56.1896 53.9679L64.7164 49.0002V41.5486L36.9494 30.0324V96.1937H36.7308Z" fill="black"/>
<path d="M87.4546 97.7737H56.6266C56.1893 97.7737 55.9707 97.3221 55.9707 97.0963V54.6447C55.9707 54.4189 56.1893 54.1931 56.408 53.9673L87.2359 35.9028C87.4546 35.6769 87.6732 35.6769 87.8919 35.9028C88.1105 36.1286 88.3291 36.3544 88.3291 36.5802V97.0963C88.1105 97.5479 87.6732 97.7737 87.4546 97.7737ZM57.2825 96.1931H86.58V37.7092L57.2825 55.0963V96.1931Z" fill="black"/>
<path d="M74.1189 44.7103C73.6817 44.7103 73.463 44.2587 73.463 44.0329V35.4522L55.972 31.1619V36.3555C55.972 36.8071 55.5347 37.0329 55.3161 37.0329C54.8788 37.0329 54.6602 36.5813 54.6602 36.3555V30.2587C54.6602 30.0329 54.6602 29.8071 54.8788 29.5813C55.0974 29.3555 55.3161 29.3555 55.5347 29.3555L74.5562 33.8716C74.9935 33.8716 75.2121 34.3232 75.2121 34.549V43.5813C74.9935 44.4845 74.5562 44.7103 74.1189 44.7103Z" fill="black"/>
<path d="M50.7244 39.5166H38.918V42.4521H50.7244V39.5166Z" fill="black"/>
<path d="M50.7244 44.0322H38.918V46.9677H50.7244V44.0322Z" fill="black"/>
<path d="M50.7244 48.5479H38.918V51.4833H50.7244V48.5479Z" fill="black"/>
<path d="M50.7244 53.0645H38.918V55.9999H50.7244V53.0645Z" fill="black"/>
<path d="M50.7244 57.5811H38.918V60.5165H50.7244V57.5811Z" fill="black"/>
<path d="M50.7244 62.3223H38.918V65.2578H50.7244V62.3223Z" fill="black"/>
<path d="M50.7244 66.8389H38.918V69.7744H50.7244V66.8389Z" fill="black"/>
<path d="M50.7244 71.3555H38.918V74.291H50.7244V71.3555Z" fill="black"/>
<path d="M50.7244 75.8711H38.918V78.8066H50.7244V75.8711Z" fill="black"/>
<path d="M50.7244 80.3867H38.918V83.3222H50.7244V80.3867Z" fill="black"/>
<path d="M50.7244 84.9033H38.918V87.8388H50.7244V84.9033Z" fill="black"/>
<path d="M50.7244 89.4189H38.918V92.3544H50.7244V89.4189Z" fill="black"/>
<path d="M62.312 56.2256H59.4697V62.3224H62.312V56.2256Z" fill="black"/>
<path d="M66.6851 56.2256H63.8428V62.3224H66.6851V56.2256Z" fill="black"/>
<path d="M71.0581 56.2256H68.2158V62.3224H71.0581V56.2256Z" fill="black"/>
<path d="M75.6489 56.2256H72.8066V62.3224H75.6489V56.2256Z" fill="black"/>
<path d="M80.021 56.2256H77.1787V62.3224H80.021V56.2256Z" fill="black"/>
<path d="M84.3941 56.2256H81.5518V62.3224H84.3941V56.2256Z" fill="black"/>
<path d="M75.6489 48.5479H72.8066V54.6446H75.6489V48.5479Z" fill="black"/>
<path d="M80.021 48.5479H77.1787V54.6446H80.021V48.5479Z" fill="black"/>
<path d="M84.3941 48.5479H81.5518V54.6446H84.3941V48.5479Z" fill="black"/>
<path d="M62.312 63.6777H59.4697V69.7745H62.312V63.6777Z" fill="black"/>
<path d="M66.6851 63.6777H63.8428V69.7745H66.6851V63.6777Z" fill="black"/>
<path d="M71.0581 63.6777H68.2158V69.7745H71.0581V63.6777Z" fill="black"/>
<path d="M75.6489 63.6777H72.8066V69.7745H75.6489V63.6777Z" fill="black"/>
<path d="M80.021 63.6777H77.1787V69.7745H80.021V63.6777Z" fill="black"/>
<path d="M84.3941 63.6777H81.5518V69.7745H84.3941V63.6777Z" fill="black"/>
<path d="M62.312 71.3555H59.4697V77.4522H62.312V71.3555Z" fill="black"/>
<path d="M66.6851 71.3555H63.8428V77.4522H66.6851V71.3555Z" fill="black"/>
<path d="M71.0581 71.3555H68.2158V77.4522H71.0581V71.3555Z" fill="black"/>
<path d="M75.6489 71.3555H72.8066V77.4522H75.6489V71.3555Z" fill="black"/>
<path d="M80.021 71.3555H77.1787V77.4522H80.021V71.3555Z" fill="black"/>
<path d="M84.3941 71.3555H81.5518V77.4522H84.3941V71.3555Z" fill="black"/>
<path d="M62.312 78.8066H59.4697V84.9034H62.312V78.8066Z" fill="black"/>
<path d="M66.6851 78.8066H63.8428V84.9034H66.6851V78.8066Z" fill="black"/>
<path d="M71.0581 78.8066H68.2158V84.9034H71.0581V78.8066Z" fill="black"/>
<path d="M75.6489 78.8066H72.8066V84.9034H75.6489V78.8066Z" fill="black"/>
<path d="M80.021 78.8066H77.1787V84.9034H80.021V78.8066Z" fill="black"/>
<path d="M84.3941 78.8066H81.5518V84.9034H84.3941V78.8066Z" fill="black"/>
<path d="M62.312 86.4834H59.4697V92.5802H62.312V86.4834Z" fill="black"/>
<path d="M66.6851 86.4834H63.8428V92.5802H66.6851V86.4834Z" fill="black"/>
<path d="M71.0581 86.4834H68.2158V92.5802H71.0581V86.4834Z" fill="black"/>
<path d="M75.6489 86.4834H72.8066V92.5802H75.6489V86.4834Z" fill="black"/>
<path d="M80.021 86.4834H77.1787V92.5802H80.021V86.4834Z" fill="black"/>
<path d="M84.3941 86.4834H81.5518V92.5802H84.3941V86.4834Z" fill="black"/>
<path d="M93.1395 97.7738H28.6413C28.204 97.7738 27.9854 97.3222 27.9854 97.0964C27.9854 96.6448 28.4226 96.4189 28.6413 96.4189H93.1395C93.5767 96.4189 93.7954 96.8706 93.7954 97.0964C94.014 97.548 93.5767 97.7738 93.1395 97.7738Z" fill="black"/>
</g>
<defs>
<clipPath id="clip0_1462_141">
<rect width="122" height="126" fill="white"/>
</clipPath>
</defs>
</svg>
