<svg width="118" height="112" viewBox="0 0 118 112" fill="none" xmlns="http://www.w3.org/2000/svg">
<g clip-path="url(#clip0_1462_200)">
<path d="M101.9 89.9023C101.8 89.9023 101.8 89.9023 101.9 89.9023C101.2 89.3023 100.4 88.9023 99.5002 88.9023H47.9002C47.0002 88.9023 46.1002 89.3023 45.5002 89.9023C44.9002 90.5023 44.5002 91.4023 44.5002 92.3023V96.3023H40.3002C39.3002 96.3023 38.6002 97.1023 38.6002 98.0023V102.002H31.4002C30.4002 102.002 29.7002 102.802 29.7002 103.702V109.402C29.7002 110.402 30.5002 111.102 31.4002 111.102H116C117 111.102 117.7 110.302 117.7 109.402V103.702C117.7 102.702 116.9 102.002 116 102.002H108.8V98.0023C108.8 97.0023 108 96.3023 107.1 96.3023H102.9V92.3023C102.8 91.4023 102.5 90.5023 101.9 89.9023ZM105.3 99.8023V103.802C105.3 104.802 106.1 105.502 107 105.502H114.2V107.802H33.1002V105.502H40.3002C41.3002 105.502 42.0002 104.702 42.0002 103.802V99.8023H46.2002C47.2002 99.8023 47.9002 99.0023 47.9002 98.1023L47.8002 92.4023H99.3002V98.1023C99.3002 99.1023 100.1 99.8023 101 99.8023H105.3Z" fill="#272525"/>
<path d="M61.5 53.7023C59.4 56.2023 59.2 59.9023 61.3 62.5023C62.7 64.3023 64.7 65.2023 66.8 65.2023C68.3 65.2023 69.8 64.7023 71.1 63.7023L90.4 48.7023C91.9 47.6023 92.8 45.9023 93 44.1023C93.2 42.3023 92.7 40.4023 91.6 39.0023C89.8 36.7023 86.7 35.8023 84 36.7023L63.9 10.7023C65.4 8.30233 65.3 5.10233 63.5 2.80233C62.4 1.30233 60.7 0.402333 58.9 0.202333C57 0.00233293 55.2 0.502333 53.8 1.60233L34.5 16.6023C31.5 19.0023 30.9 23.4023 33.3 26.4023C34.7 28.2023 36.7 29.1023 38.8 29.1023C39.9 29.1023 40.9 28.8023 41.9 28.4023L48.3 36.6023L1.2 70.8023C0.5 71.3023 0.1 72.0023 0 72.8023C0 73.1023 0 73.3023 0 73.6023C0.1 74.1023 0.3 74.7023 0.6 75.1023L6.6 82.8023C6.8 83.0023 7 83.2023 7.2 83.3023C7.6 83.6023 8.1 83.8023 8.7 83.9023C8.8 83.9023 8.9 83.9023 9 83.9023C9.7 83.9023 10.4 83.7023 10.9 83.2023L55.6 46.2023L61.5 53.7023ZM84.2 40.2023C84.2 40.2023 84.3 40.2023 84.2 40.2023C84.3 40.2023 84.3 40.2023 84.2 40.2023C84.9 39.8023 85.5 39.7023 86.1 39.7023C87.2 39.7023 88.2 40.2023 88.9 41.0023C90.1 42.5023 89.8 44.7023 88.3 45.9023L69 60.9023C67.5 62.1023 65.2 61.8023 64.1 60.3023C62.9 58.8023 63.2 56.5023 64.7 55.4023L84 40.4023C84 40.3023 84.1 40.3023 84.2 40.2023ZM41.1 24.7023L40.8 24.9023C39.3 26.1023 37 25.8023 35.9 24.3023C34.7 22.8023 35 20.5023 36.5 19.4023L55.8 4.40233C56.4 3.90233 57.2 3.70233 58 3.70233C58.1 3.70233 58.3 3.70233 58.4 3.70233C59.3 3.80233 60.2 4.30233 60.7 5.00233C61.8 6.40233 61.6 8.40233 60.4 9.60233L60.3 9.70233C60.2 9.80233 60.1 9.90233 60 9.90233L41.1 24.7023ZM44.6 26.4023L57.3 16.5023L61.4 13.3023L81 38.3023L64.1 51.4023L44.6 26.4023ZM50.2 46.3023L9.1 80.3023L3.6 73.3023L46.7 41.8023L50.2 39.2023L53.5 43.5023L50.2 46.3023Z" fill="#272525"/>
</g>
<defs>
<clipPath id="clip0_1462_200">
<rect width="117.7" height="111.1" fill="white" transform="translate(0 0.102539)"/>
</clipPath>
</defs>
</svg>
