<svg width="116" height="121" viewBox="0 0 116 121" fill="none" xmlns="http://www.w3.org/2000/svg">
<g clip-path="url(#clip0_1462_304)">
<path d="M116 0H0V121H116V0Z" fill="white"/>
<path d="M64.8597 41.6348H62.1572V45.9717H64.8597V41.6348Z" fill="black"/>
<path d="M69.0179 41.6348H66.3154V45.9717H69.0179V41.6348Z" fill="black"/>
<path d="M64.8597 35.7803H62.1572V40.1172H64.8597V35.7803Z" fill="black"/>
<path d="M73.1761 41.6348H70.4736V45.9717H73.1761V41.6348Z" fill="black"/>
<path d="M64.8597 47.4893H62.1572V51.8262H64.8597V47.4893Z" fill="black"/>
<path d="M69.0179 47.4893H66.3154V51.8262H69.0179V47.4893Z" fill="black"/>
<path d="M73.1761 47.4893H70.4736V51.8262H73.1761V47.4893Z" fill="black"/>
<path d="M77.3334 47.4893H74.6309V51.8262H77.3334V47.4893Z" fill="black"/>
<path d="M81.6996 47.4893H78.9971V51.8262H81.6996V47.4893Z" fill="black"/>
<path d="M85.8568 47.4893H83.1543V51.8262H85.8568V47.4893Z" fill="black"/>
<path d="M64.8597 53.127H62.1572V57.4639H64.8597V53.127Z" fill="black"/>
<path d="M69.0179 53.127H66.3154V57.4639H69.0179V53.127Z" fill="black"/>
<path d="M73.1761 53.127H70.4736V57.4639H73.1761V53.127Z" fill="black"/>
<path d="M77.3334 53.127H74.6309V57.4639H77.3334V53.127Z" fill="black"/>
<path d="M81.6996 53.127H78.9971V57.4639H81.6996V53.127Z" fill="black"/>
<path d="M85.8568 53.127H83.1543V57.4639H85.8568V53.127Z" fill="black"/>
<path d="M64.8597 58.9824H62.1572V63.3193H64.8597V58.9824Z" fill="black"/>
<path d="M69.0179 58.9824H66.3154V63.3193H69.0179V58.9824Z" fill="black"/>
<path d="M73.1761 58.9824H70.4736V63.3193H73.1761V58.9824Z" fill="black"/>
<path d="M77.3334 58.9824H74.6309V63.3193H77.3334V58.9824Z" fill="black"/>
<path d="M81.6996 58.9824H78.9971V63.3193H81.6996V58.9824Z" fill="black"/>
<path d="M85.8568 58.9824H83.1543V63.3193H85.8568V58.9824Z" fill="black"/>
<path d="M64.8597 64.8369H62.1572V69.1738H64.8597V64.8369Z" fill="black"/>
<path d="M69.0179 64.8369H66.3154V69.1738H69.0179V64.8369Z" fill="black"/>
<path d="M73.1761 64.8369H70.4736V69.1738H73.1761V64.8369Z" fill="black"/>
<path d="M77.3334 64.8369H74.6309V69.1738H77.3334V64.8369Z" fill="black"/>
<path d="M81.6996 64.8369H78.9971V69.1738H81.6996V64.8369Z" fill="black"/>
<path d="M85.8568 64.8369H83.1543V69.1738H85.8568V64.8369Z" fill="black"/>
<path d="M64.8597 70.6924H62.1572V75.0293H64.8597V70.6924Z" fill="black"/>
<path d="M69.0179 70.6924H66.3154V75.0293H69.0179V70.6924Z" fill="black"/>
<path d="M73.1761 70.6924H70.4736V75.0293H73.1761V70.6924Z" fill="black"/>
<path d="M77.3334 70.6924H74.6309V75.0293H77.3334V70.6924Z" fill="black"/>
<path d="M81.6996 70.6924H78.9971V75.0293H81.6996V70.6924Z" fill="black"/>
<path d="M85.8568 70.6924H83.1543V75.0293H85.8568V70.6924Z" fill="black"/>
<path d="M64.8597 76.5469H62.1572V80.8838H64.8597V76.5469Z" fill="black"/>
<path d="M69.0179 76.5469H66.3154V80.8838H69.0179V76.5469Z" fill="black"/>
<path d="M73.1761 76.5469H70.4736V80.8838H73.1761V76.5469Z" fill="black"/>
<path d="M77.3334 76.5469H74.6309V80.8838H77.3334V76.5469Z" fill="black"/>
<path d="M81.6996 76.5469H78.9971V80.8838H81.6996V76.5469Z" fill="black"/>
<path d="M85.8568 76.5469H83.1543V80.8838H85.8568V76.5469Z" fill="black"/>
<path d="M76.0853 94.761H69.0172C68.6014 94.761 68.3936 94.3274 68.3936 94.1105V85.4367C68.3936 85.003 68.8093 84.7861 69.0172 84.7861H76.0853C76.5011 84.7861 76.709 85.2198 76.709 85.4367V94.1105C76.709 94.3274 76.5011 94.761 76.0853 94.761ZM69.8487 93.2431H75.4617V85.8704H69.8487V93.2431Z" fill="black"/>
<path d="M56.5453 53.127H53.8428V57.4639H56.5453V53.127Z" fill="black"/>
<path d="M56.5453 47.4893H53.8428V51.8262H56.5453V47.4893Z" fill="black"/>
<path d="M52.3871 53.127H49.6846V57.4639H52.3871V53.127Z" fill="black"/>
<path d="M48.2289 53.127H45.5264V57.4639H48.2289V53.127Z" fill="black"/>
<path d="M43.8636 53.127H41.1611V57.4639H43.8636V53.127Z" fill="black"/>
<path d="M39.7054 53.127H37.0029V57.4639H39.7054V53.127Z" fill="black"/>
<path d="M35.5482 53.127H32.8457V57.4639H35.5482V53.127Z" fill="black"/>
<path d="M56.5453 58.9824H53.8428V63.3193H56.5453V58.9824Z" fill="black"/>
<path d="M52.3871 58.9824H49.6846V63.3193H52.3871V58.9824Z" fill="black"/>
<path d="M48.2289 58.9824H45.5264V63.3193H48.2289V58.9824Z" fill="black"/>
<path d="M43.8636 58.9824H41.1611V63.3193H43.8636V58.9824Z" fill="black"/>
<path d="M39.7054 58.9824H37.0029V63.3193H39.7054V58.9824Z" fill="black"/>
<path d="M35.5482 58.9824H32.8457V63.3193H35.5482V58.9824Z" fill="black"/>
<path d="M56.5453 64.8369H53.8428V69.1738H56.5453V64.8369Z" fill="black"/>
<path d="M52.3871 64.8369H49.6846V69.1738H52.3871V64.8369Z" fill="black"/>
<path d="M48.2289 64.8369H45.5264V69.1738H48.2289V64.8369Z" fill="black"/>
<path d="M43.8636 64.8369H41.1611V69.1738H43.8636V64.8369Z" fill="black"/>
<path d="M39.7054 64.8369H37.0029V69.1738H39.7054V64.8369Z" fill="black"/>
<path d="M35.5482 64.8369H32.8457V69.1738H35.5482V64.8369Z" fill="black"/>
<path d="M56.5453 70.6924H53.8428V75.0293H56.5453V70.6924Z" fill="black"/>
<path d="M52.3871 70.6924H49.6846V75.0293H52.3871V70.6924Z" fill="black"/>
<path d="M48.2289 70.6924H45.5264V75.0293H48.2289V70.6924Z" fill="black"/>
<path d="M43.8636 70.6924H41.1611V75.0293H43.8636V70.6924Z" fill="black"/>
<path d="M39.7054 70.6924H37.0029V75.0293H39.7054V70.6924Z" fill="black"/>
<path d="M35.5482 70.6924H32.8457V75.0293H35.5482V70.6924Z" fill="black"/>
<path d="M56.5453 76.5469H53.8428V80.8838H56.5453V76.5469Z" fill="black"/>
<path d="M52.3871 76.5469H49.6846V80.8838H52.3871V76.5469Z" fill="black"/>
<path d="M48.2289 76.5469H45.5264V80.8838H48.2289V76.5469Z" fill="black"/>
<path d="M43.8636 76.5469H41.1611V80.8838H43.8636V76.5469Z" fill="black"/>
<path d="M39.7054 76.5469H37.0029V80.8838H39.7054V76.5469Z" fill="black"/>
<path d="M35.5482 76.5469H32.8457V80.8838H35.5482V76.5469Z" fill="black"/>
<path d="M49.6849 94.762H42.6168C42.201 94.762 41.9932 94.3283 41.9932 94.1115V85.4377C41.9932 85.004 42.4089 84.7871 42.6168 84.7871H49.6849C50.1007 84.7871 50.3086 85.2208 50.3086 85.4377V94.1115C50.3086 94.3283 50.1007 94.762 49.6849 94.762ZM43.2405 93.2441H48.8534V85.8713H43.2405V93.2441Z" fill="black"/>
<path d="M88.5595 94.7611H69.0183C68.6025 94.7611 68.3946 94.3274 68.3946 94.1105V86.0872H59.2477C58.8319 86.0872 58.624 85.8704 58.624 85.4367V27.1052C58.624 26.8883 58.8319 26.6715 59.0398 26.4546C59.2477 26.2378 59.4556 26.2378 59.6635 26.4546L88.9753 43.8023C89.1832 44.0191 89.391 44.236 89.391 44.4528V93.8937C89.391 94.3274 88.9753 94.7611 88.5595 94.7611ZM69.8498 93.2432H87.9359V44.8865L60.0792 28.1894V84.5693H69.2262C69.6419 84.5693 69.8498 85.003 69.8498 85.2199V93.2432Z" fill="black"/>
<path d="M49.6854 94.7619H30.1442C29.7284 94.7619 29.5205 94.3282 29.5205 94.1113V50.3085C29.5205 50.0916 29.7284 49.6579 29.9363 49.6579L59.2481 37.9482C59.456 37.9482 59.6639 37.9482 59.8718 37.9482C60.0797 38.1651 60.0797 38.3819 60.0797 38.5988V85.2206C60.0797 85.6543 59.6639 85.8712 59.456 85.8712H50.309V93.8945C50.309 94.3282 50.1012 94.7619 49.6854 94.7619ZM30.7678 93.2439H48.8538V85.2206C48.8538 84.7869 49.2696 84.5701 49.4775 84.5701H58.6245V39.683L30.7678 50.7421V93.2439Z" fill="black"/>
<path d="M69.2254 94.762H49.6842C49.2684 94.762 49.0605 94.3283 49.0605 94.1115V85.4377C49.0605 85.004 49.4763 84.7871 49.6842 84.7871H69.2254C69.6412 84.7871 69.8491 85.2208 69.8491 85.4377V94.1115C69.8491 94.3283 69.4333 94.762 69.2254 94.762ZM50.3079 93.2441H68.3939V85.8713H50.3079V93.2441Z" fill="black"/>
<path d="M41.993 35.1289H34.9249C33.4697 35.1289 32.2224 33.8278 32.2224 32.3099H29.5199C28.0647 32.3099 26.8174 31.0088 26.8174 29.4909C26.8174 27.973 28.0647 26.6719 29.5199 26.6719H36.588C38.0432 26.6719 39.2905 27.973 39.2905 29.4909H41.993C43.4482 29.4909 44.6955 30.7919 44.6955 32.3099C44.6955 33.6109 43.4482 35.1289 41.993 35.1289ZM29.312 27.7561C28.4805 27.7561 27.8568 28.4066 27.8568 29.274C27.8568 30.1414 28.4805 30.7919 29.312 30.7919H32.8461C33.0539 30.7919 33.2618 31.0088 33.4697 31.0088C33.6776 31.2256 33.6776 31.4425 33.4697 31.6593C33.4697 31.8762 33.4697 31.8762 33.4697 32.093C33.4697 32.9604 34.0934 33.6109 34.9249 33.6109H41.993C42.8246 33.6109 43.4482 32.9604 43.4482 32.093C43.4482 31.2256 42.8246 30.5751 41.993 30.5751H38.459C38.2511 30.5751 38.0432 30.3583 37.8353 30.3583C37.6274 30.1414 37.6274 29.9246 37.8353 29.7077C37.8353 29.4909 37.8353 29.4909 37.8353 29.274C37.8353 28.4066 37.2116 27.7561 36.3801 27.7561H29.312Z" fill="black"/>
</g>
<defs>
<clipPath id="clip0_1462_304">
<rect width="116" height="121" fill="white"/>
</clipPath>
</defs>
</svg>
