<svg width="582" height="482" viewBox="0 0 582 482" fill="none" xmlns="http://www.w3.org/2000/svg">
<g clip-path="url(#clip0_1953_52)">
<path fill-rule="evenodd" clip-rule="evenodd" d="M110.5 0C49.477 0 0 49.477 0 110.5C0 171.523 49.477 221 110.5 221C171.523 221 221 171.523 221 110.5C221 49.477 171.523 0 110.5 0Z" fill="#C6A84D"/>
<path fill-rule="evenodd" clip-rule="evenodd" d="M110.5 14.5615C57.5315 14.5615 14.5615 57.5315 14.5615 110.5C14.5615 163.469 57.5315 206.439 110.5 206.439C163.469 206.439 206.439 163.469 206.439 110.5C206.439 57.5315 163.508 14.5615 110.5 14.5615Z" fill="#E7DEC3"/>
<path fill-rule="evenodd" clip-rule="evenodd" d="M108.357 39.6367V111.69H112.643V39.6367C112.643 38.4464 111.69 37.4941 110.5 37.4941C109.349 37.4941 108.357 38.4861 108.357 39.6367Z" fill="black"/>
<path fill-rule="evenodd" clip-rule="evenodd" d="M46.9377 157.834L111.452 110.301L110.738 109.31L46.2235 156.842C45.9458 157.041 45.9061 157.438 46.1045 157.715C46.3028 157.993 46.6996 158.033 46.9377 157.834Z" fill="black"/>
<path fill-rule="evenodd" clip-rule="evenodd" d="M156.247 133.751L122.8 114.428C123.197 113.198 123.435 111.849 123.435 110.5C123.435 103.358 117.642 97.5654 110.5 97.5654C103.358 97.5654 97.5654 103.358 97.5654 110.5C97.5654 117.642 103.358 123.435 110.5 123.435C114.746 123.435 118.475 121.411 120.856 118.277L154.145 137.48C155.176 138.076 156.486 137.718 157.081 136.687C157.636 135.655 157.279 134.346 156.247 133.751Z" fill="black"/>
<path fill-rule="evenodd" clip-rule="evenodd" d="M172.158 74.9098L181.998 73.3624L178.427 67.1729L172.158 74.9098Z" fill="#C6A84D"/>
<path fill-rule="evenodd" clip-rule="evenodd" d="M48.8418 146.13L39.002 147.677L42.5729 153.827L48.8418 146.13Z" fill="#C6A84D"/>
<path fill-rule="evenodd" clip-rule="evenodd" d="M146.09 48.8418L153.827 42.5729L147.677 39.002L146.09 48.8418Z" fill="#C6A84D"/>
<path fill-rule="evenodd" clip-rule="evenodd" d="M74.9098 172.158L67.1729 178.427L73.3624 181.998L74.9098 172.158Z" fill="#C6A84D"/>
<path fill-rule="evenodd" clip-rule="evenodd" d="M48.8418 74.9098L42.5729 67.1729L39.002 73.3624L48.8418 74.9098Z" fill="#C6A84D"/>
<path fill-rule="evenodd" clip-rule="evenodd" d="M172.158 146.13L178.427 153.827L181.998 147.677L172.158 146.13Z" fill="#C6A84D"/>
<path fill-rule="evenodd" clip-rule="evenodd" d="M74.9098 48.8418L73.3624 39.002L67.1729 42.5729L74.9098 48.8418Z" fill="#C6A84D"/>
<path fill-rule="evenodd" clip-rule="evenodd" d="M146.09 172.158L147.677 181.998L153.827 178.427L146.09 172.158Z" fill="#C6A84D"/>
<path fill-rule="evenodd" clip-rule="evenodd" d="M39.3202 110.5L29.9961 106.929V114.071L39.3202 110.5Z" fill="#C6A84D"/>
<path fill-rule="evenodd" clip-rule="evenodd" d="M181.72 110.5L191.004 114.071V106.929L181.72 110.5Z" fill="#C6A84D"/>
<path fill-rule="evenodd" clip-rule="evenodd" d="M110.5 39.3202L114.071 29.9961H106.929L110.5 39.3202Z" fill="#C6A84D"/>
<path fill-rule="evenodd" clip-rule="evenodd" d="M110.5 181.72L106.929 191.004H114.071L110.5 181.72Z" fill="#C6A84D"/>
</g>
<g clip-path="url(#clip1_1953_52)">
<path fill-rule="evenodd" clip-rule="evenodd" d="M398.018 3H201.712C183.73 3 169 17.9448 169 36.2277V448.772C169 467.055 183.73 482 201.712 482H398.018C416.001 482 430.73 467.055 430.73 448.772V36.2277C430.73 17.9448 416.031 3 398.018 3Z" fill="#94834F"/>
<path fill-rule="evenodd" clip-rule="evenodd" d="M412.288 3H215.982C197.969 3 183.27 17.9448 183.27 36.2277V448.772C183.27 467.055 197.999 482 215.982 482H412.288C430.27 482 445 467.055 445 448.772V36.2277C445 17.9448 430.27 3 412.288 3Z" fill="#C1B07A"/>
<path fill-rule="evenodd" clip-rule="evenodd" d="M413.822 18.1289C423.366 18.1289 431.191 25.9688 431.191 35.4625V446.66C431.191 456.184 423.335 464.024 413.822 464.024H214.417C204.873 464.024 197.018 456.184 197.018 446.66V35.4625C197.048 25.9688 204.904 18.1289 214.417 18.1289H256.489C256.489 23.8863 261.215 28.5719 266.954 28.5719H365.152C370.922 28.5719 375.617 23.8557 375.617 18.1289H413.822Z" fill="#F0E8CF"/>
</g>
<g clip-path="url(#clip2_1953_52)">
<path fill-rule="evenodd" clip-rule="evenodd" d="M505.988 173.818C505.988 173.818 505.845 185.091 505.312 193.431C504.779 201.77 504.21 208.697 504.21 208.697C504.21 208.697 520.387 213.432 521.489 213.432C522.591 213.432 542.501 202.866 543.176 201.629C543.852 200.392 544.954 183.854 544.954 183.854L524.582 168.234L513.596 168.058L505.988 173.818Z" fill="#424242"/>
<path fill-rule="evenodd" clip-rule="evenodd" d="M501.934 219.581C501.934 219.581 507.623 238.805 499.232 255.025C495.89 261.492 483.02 261.669 477.296 262.552C463.11 264.708 458.453 263.012 460.586 254.036C461.226 251.244 469.546 250.573 475.483 249.23C480.603 248.064 485.971 247.216 489.455 240.643C499.481 221.525 495.25 208.697 511.036 199.933C512.814 198.908 507.481 212.478 501.934 219.581Z" fill="#EDB527"/>
<path fill-rule="evenodd" clip-rule="evenodd" d="M507.303 354.573L514.271 460.553C514.022 460.871 513.809 461.189 513.56 461.507C513.382 461.755 513.205 462.002 513.027 462.214C512.6 462.779 512.174 463.31 511.747 463.804C511.569 464.016 511.356 464.264 511.178 464.476C508.014 467.939 503.925 468.787 500.583 469.6C497.988 470.236 495.997 470.554 494.255 473.982C494.184 474.088 494.148 474.194 494.113 474.3C493.757 475.537 494.681 476.844 496.068 476.809L526.75 475.819C528.279 475.784 529.452 474.618 529.63 473.204C529.666 472.992 529.666 472.78 529.63 472.568L527.568 459.246C527.568 459.246 527.568 459.21 527.568 459.175C528.315 433.166 534.216 395.071 529.381 364.68C529.381 364.68 531.479 360.581 534.536 354.538H507.303V354.573Z" fill="#EDB527"/>
<path fill-rule="evenodd" clip-rule="evenodd" d="M538.661 354.573C536.776 359.98 534.323 365.104 535.105 371.854C535.105 400.513 555.335 433.519 562.161 462.461C562.375 463.415 560.668 472.533 560.846 473.487C563.868 476.703 572.543 481.261 573.467 466.384C569.592 441.4 564.792 401.008 554.837 370.617L558.179 354.573H538.661Z" fill="#EDB527"/>
<path fill-rule="evenodd" clip-rule="evenodd" d="M501.508 468.575C501.508 468.575 490.806 471.508 491.304 474.795C492.264 481.403 528.955 477.057 529.168 476.809C530.483 475.219 530.626 467.727 528.884 465.501C527.568 463.84 513.205 472.71 501.508 468.575Z" fill="#1F3E7A"/>
<path fill-rule="evenodd" clip-rule="evenodd" d="M557.611 476.067C557.86 480.308 573.29 479.107 575.601 477.834C579.049 475.926 574.854 462.568 573.539 464.052C573.539 464.052 569.521 470.343 564.757 469.07C559.993 467.798 561.664 466.385 560.846 467.975C559.353 470.979 557.397 472.145 557.611 476.067Z" fill="#1F3E7A"/>
<path fill-rule="evenodd" clip-rule="evenodd" d="M501.437 277.147C495.002 298.385 498.379 339.166 501.721 374.045C525.897 380.229 561.45 378.533 570.339 371.076C564.401 325.561 561.379 281.847 551.922 273.79C531.977 227.461 504.352 265.379 501.437 277.147Z" fill="#3C3C3C"/>
<path fill-rule="evenodd" clip-rule="evenodd" d="M565.396 205.34C571.085 228.381 548.331 231.279 553.486 277.819C536.421 280.187 514.591 281.035 499.943 277.431C502.29 260.291 496.779 232.233 499.374 223.858C502.041 215.235 508.903 200.746 513.276 198.979C533.825 193.29 556.935 192.795 565.396 205.34Z" fill="#606060"/>
<path fill-rule="evenodd" clip-rule="evenodd" d="M520.991 195.445L522.519 200.817L521.951 201.7C519.853 205.87 525.222 211.595 528.635 210.358C537.594 208.167 542.216 198.944 538.412 195.834L536.883 194.915L534.359 187.424C534.821 187.247 537.558 184.384 538.447 183.819C539.336 183.218 540.225 180.886 539.727 178.872C539.229 176.857 536.314 178.412 536.314 178.412C538.554 172.157 541.54 166.715 534.643 163.747C527.746 160.778 514.236 161.874 514.236 161.874L505.81 161.521C507.587 163.853 508.903 172.97 508.583 179.013C508.014 187.565 511.64 193.996 520.991 195.445Z" fill="#EDB527"/>
<path fill-rule="evenodd" clip-rule="evenodd" d="M531.017 189.544C531.017 189.544 528.919 198.202 525.577 199.933C522.235 201.665 523.906 200.64 522.52 200.852L521.026 195.481C523.551 195.127 525.897 194.209 531.017 189.544Z" fill="#DEAB28"/>
<path fill-rule="evenodd" clip-rule="evenodd" d="M525.257 175.196C525.257 175.196 511.818 177.564 506.663 175.232C497.135 172.087 497.206 150.035 520.849 150C539.834 149.965 536.279 172.475 560.775 176.539C578.8 179.508 585.093 190.356 580.649 208.485C580.613 208.52 575.209 197.424 570.374 198.237C578.765 205.128 574.32 217.567 573.183 219.44C567.459 199.898 554.446 194.456 538.021 195.657C528.137 192.159 538.199 173.359 525.257 175.196Z" fill="#383838"/>
<path fill-rule="evenodd" clip-rule="evenodd" d="M558.784 200.074C577.912 206.294 578.196 250.361 575.032 263.86C573.112 271.67 545.878 290.01 537.452 294.746H537.417C528.528 300.152 529.879 302.096 524.938 304.676C524.653 304.817 524.084 304.605 524.12 304.322C524.155 303.934 527.071 301.248 526.644 301.213C526.217 301.177 523.8 303.757 522.378 304.57C521.489 305.064 520.92 304.888 520.671 304.817C520.316 304.711 524.618 300.541 524.226 300.435C523.871 300.329 521.204 302.909 519.782 303.651C518.645 304.252 517.791 303.828 517.471 303.651C517.223 303.545 521.596 299.234 521.347 299.375C520.28 299.905 513.738 304.181 514.449 301.46C514.485 301.283 521.062 296.23 523.48 294.004C523.515 293.827 520.102 292.908 518.716 291.989C516.334 290.399 529.773 289.551 531.23 289.41C531.55 289.127 531.906 288.844 532.297 288.561C534.466 286.017 561.699 260.22 562.019 257.534C562.695 240.183 545.523 208.909 558.784 200.074Z" fill="#EDB527"/>
<path fill-rule="evenodd" clip-rule="evenodd" d="M467.342 263.86C468.088 263.189 467.306 261.493 468.231 260.503C469.582 259.019 472.39 257.217 472.461 256.793C472.604 255.98 468.088 256.687 467.591 256.651C467.164 256.616 471.43 253.294 471.395 252.269C471.466 251.598 471.466 250.785 470.364 251.421C468.977 252.199 466.311 254.001 466.026 254.284C465.92 253.118 470.008 248.206 468.799 246.969C468.231 246.403 464.995 250.962 464.569 250.573C463.822 249.902 466.951 243.93 466.133 242.622C465.422 242.869 463.146 243.859 461.084 249.054C460.978 249.301 459.876 245.697 459.698 245.873C458.738 246.721 457.742 255.026 458.205 256.651C458.916 261.422 464.426 264.284 467.342 263.86Z" fill="#DEAB28"/>
</g>
<g filter="url(#filter0_d_1953_52)">
<path fill-rule="evenodd" clip-rule="evenodd" d="M217.088 31H461.912C468.012 31 473 35.9898 473 42.0922V446.908C473 453.01 468.012 458 461.912 458H217.088C210.988 458 206 453.01 206 446.908V42.0922C206 35.9898 210.988 31 217.088 31Z" fill="white"/>
</g>
<path d="M426.59 206.689C421.366 201.463 414.187 198.26 406.233 198.26C398.279 198.26 391.066 201.496 385.876 206.689C380.652 211.914 377.45 219.096 377.45 227.052C377.45 235.009 380.685 242.224 385.876 247.416C391.1 252.642 398.279 255.845 406.233 255.845C414.187 255.845 421.399 252.608 426.59 247.416C431.814 242.19 435.016 235.009 435.016 227.052C435.049 219.096 431.814 211.881 426.59 206.689ZM406.233 191.247C416.108 191.247 425.039 195.259 431.544 201.732C438.015 208.206 442.026 217.14 442.026 227.052C442.026 236.965 438.015 245.865 431.544 252.372C425.073 258.846 416.142 262.858 406.233 262.858C396.358 262.858 387.426 258.846 380.921 252.372C374.45 245.899 370.439 236.965 370.439 227.052C370.439 217.174 374.45 208.239 380.921 201.732C387.392 195.259 396.358 191.247 406.233 191.247Z" fill="#E7DEC3"/>
<path fill-rule="evenodd" clip-rule="evenodd" d="M404.616 232.11L431.916 206.621C434.039 204.632 437.409 204.767 439.364 206.891C441.353 209.015 441.218 212.387 439.095 214.342L407.75 243.539L407.683 243.607C405.492 245.528 402.155 245.292 400.234 243.101L385.169 225.873C383.248 223.681 383.484 220.343 385.674 218.422C387.865 216.5 391.202 216.736 393.123 218.927L404.616 232.11Z" fill="#B5A268"/>
<path d="M426.59 290.572C421.366 285.346 414.187 282.143 406.233 282.143C398.279 282.143 391.066 285.38 385.876 290.572C380.652 295.798 377.45 302.979 377.45 310.936C377.45 318.892 380.685 326.107 385.876 331.299C391.1 336.525 398.279 339.728 406.233 339.728C414.187 339.728 421.399 336.492 426.59 331.299C431.814 326.074 435.016 318.892 435.016 310.936C435.049 302.979 431.814 295.798 426.59 290.572ZM406.233 275.164C416.108 275.164 425.039 279.176 431.544 285.649C438.015 292.123 442.026 301.057 442.026 310.969C442.026 320.848 438.015 329.782 431.544 336.289C425.073 342.763 416.142 346.775 406.233 346.775C396.358 346.775 387.426 342.763 380.921 336.289C374.45 329.816 370.439 320.882 370.439 310.969C370.439 301.091 374.45 292.156 380.921 285.649C387.392 279.176 396.358 275.164 406.233 275.164Z" fill="#E7DEC3"/>
<path d="M426.59 374.455C421.366 369.229 414.187 366.026 406.233 366.026C398.279 366.026 391.066 369.263 385.876 374.455C380.652 379.68 377.45 386.862 377.45 394.818C377.45 402.775 380.685 409.99 385.876 415.182C391.1 420.408 398.279 423.611 406.233 423.611C414.187 423.611 421.399 420.374 426.59 415.182C431.814 409.956 435.016 402.775 435.016 394.818C435.049 386.895 431.814 379.68 426.59 374.455ZM406.233 359.047C416.108 359.047 425.039 363.059 431.544 369.532C438.015 376.005 442.026 384.94 442.026 394.852C442.026 404.731 438.015 413.665 431.544 420.172C425.073 426.645 416.142 430.657 406.233 430.657C396.358 430.657 387.426 426.645 380.921 420.172C374.45 413.699 370.439 404.764 370.439 394.852C370.439 384.974 374.45 376.039 380.921 369.532C387.392 363.059 396.358 359.047 406.233 359.047Z" fill="#E7DEC3"/>
<path fill-rule="evenodd" clip-rule="evenodd" d="M241.658 204.599H286.518C289.079 204.599 291.203 206.689 291.203 209.285C291.203 211.847 289.113 213.971 286.518 213.971H241.658C239.097 213.971 236.974 211.881 236.974 209.285C236.974 206.723 239.097 204.599 241.658 204.599Z" fill="#B5A268"/>
<path fill-rule="evenodd" clip-rule="evenodd" d="M241.658 224.423H351.667C354.228 224.423 356.352 226.513 356.352 229.109C356.352 231.672 354.262 233.796 351.667 233.796H241.658C239.097 233.796 236.974 231.705 236.974 229.109C236.974 226.513 239.097 224.423 241.658 224.423Z" fill="#E7DEC3"/>
<path fill-rule="evenodd" clip-rule="evenodd" d="M241.658 246.371H336.399C338.961 246.371 341.084 248.461 341.084 251.057C341.084 253.654 338.994 255.744 336.399 255.744H241.658C239.097 255.744 236.974 253.654 236.974 251.057C236.974 248.461 239.097 246.371 241.658 246.371Z" fill="#E7DEC3"/>
<path fill-rule="evenodd" clip-rule="evenodd" d="M241.658 288.515H286.518C289.079 288.515 291.203 290.605 291.203 293.201C291.203 295.763 289.113 297.887 286.518 297.887H241.658C239.097 297.887 236.974 295.797 236.974 293.201C236.974 290.605 239.097 288.515 241.658 288.515Z" fill="#B5A268"/>
<path fill-rule="evenodd" clip-rule="evenodd" d="M241.658 372.397H286.518C289.079 372.397 291.203 374.488 291.203 377.084C291.203 379.646 289.113 381.77 286.518 381.77H241.658C239.097 381.77 236.974 379.68 236.974 377.084C236.974 374.488 239.097 372.397 241.658 372.397Z" fill="#B5A268"/>
<path fill-rule="evenodd" clip-rule="evenodd" d="M241.658 308.306H351.667C354.228 308.306 356.352 310.396 356.352 312.992C356.352 315.554 354.262 317.678 351.667 317.678H241.658C239.097 317.678 236.974 315.588 236.974 312.992C236.974 310.396 239.097 308.306 241.658 308.306Z" fill="#E7DEC3"/>
<path fill-rule="evenodd" clip-rule="evenodd" d="M241.658 392.188H351.667C354.228 392.188 356.352 394.279 356.352 396.875C356.352 399.437 354.262 401.561 351.667 401.561H241.658C239.097 401.561 236.974 399.471 236.974 396.875C236.974 394.312 239.097 392.188 241.658 392.188Z" fill="#E7DEC3"/>
<path fill-rule="evenodd" clip-rule="evenodd" d="M241.658 330.254H336.399C338.961 330.254 341.084 332.344 341.084 334.94C341.084 337.503 338.994 339.627 336.399 339.627H241.658C239.097 339.627 236.974 337.536 236.974 334.94C236.974 332.344 239.097 330.254 241.658 330.254Z" fill="#E7DEC3"/>
<path fill-rule="evenodd" clip-rule="evenodd" d="M241.658 414.137H336.399C338.961 414.137 341.084 416.227 341.084 418.823C341.084 421.385 338.994 423.509 336.399 423.509H241.658C239.097 423.509 236.974 421.419 236.974 418.823C236.974 416.261 239.097 414.137 241.658 414.137Z" fill="#E7DEC3"/>
<path d="M441.993 172.198H236.974V175.03H441.993V172.198Z" fill="#7BA9E3"/>
<path d="M441.993 103.15H236.974V105.982H441.993V103.15Z" fill="#E7DEC3"/>
<path fill-rule="evenodd" clip-rule="evenodd" d="M436.128 123.446H326.154C323.592 123.446 321.469 125.537 321.469 128.133C321.469 130.695 323.558 132.819 326.154 132.819H436.162C438.724 132.819 440.847 130.729 440.847 128.133C440.813 125.537 438.724 123.446 436.128 123.446Z" fill="#E7DEC3"/>
<path fill-rule="evenodd" clip-rule="evenodd" d="M436.128 145.395H341.387C338.825 145.395 336.702 147.485 336.702 150.081C336.702 152.643 338.792 154.767 341.387 154.767H436.128C438.689 154.767 440.813 152.677 440.813 150.081C440.813 147.485 438.723 145.395 436.128 145.395Z" fill="#E7DEC3"/>
<path fill-rule="evenodd" clip-rule="evenodd" d="M404.615 313.295L431.915 287.807C434.039 285.818 437.409 285.953 439.364 288.077C441.352 290.201 441.217 293.572 439.094 295.528L407.75 324.725L407.682 324.792C405.492 326.714 402.155 326.478 400.234 324.286L385.135 306.991C383.214 304.799 383.45 301.461 385.64 299.54C387.831 297.618 391.168 297.854 393.089 300.045L404.615 313.295Z" fill="#B5A268"/>
<path d="M227.875 92V62.9091H240.432C242.591 62.9091 244.48 63.3352 246.099 64.1875C247.719 65.0398 248.978 66.2377 249.878 67.7812C250.777 69.3248 251.227 71.1288 251.227 73.1932C251.227 75.2765 250.763 77.0805 249.835 78.6051C248.917 80.1297 247.624 81.304 245.957 82.1278C244.3 82.9517 242.364 83.3636 240.148 83.3636H232.648V77.2273H238.557C239.485 77.2273 240.276 77.0663 240.929 76.7443C241.592 76.4129 242.098 75.9441 242.449 75.3381C242.809 74.732 242.989 74.017 242.989 73.1932C242.989 72.3598 242.809 71.6496 242.449 71.0625C242.098 70.4659 241.592 70.0114 240.929 69.6989C240.276 69.3769 239.485 69.2159 238.557 69.2159H235.773V92H227.875ZM254.125 92V62.9091H266.682C268.841 62.9091 270.73 63.3021 272.349 64.0881C273.969 64.8741 275.228 66.0057 276.128 67.483C277.027 68.9602 277.477 70.7311 277.477 72.7955C277.477 74.8788 277.013 76.6354 276.085 78.0653C275.167 79.4953 273.874 80.5748 272.207 81.304C270.55 82.0331 268.614 82.3977 266.398 82.3977H258.898V76.2614H264.807C265.735 76.2614 266.526 76.1477 267.179 75.9205C267.842 75.6837 268.348 75.3097 268.699 74.7983C269.059 74.2869 269.239 73.6193 269.239 72.7955C269.239 71.9621 269.059 71.285 268.699 70.7642C268.348 70.2339 267.842 69.8456 267.179 69.5994C266.526 69.3437 265.735 69.2159 264.807 69.2159H262.023V92H254.125ZM271.17 78.6477L278.443 92H269.864L262.761 78.6477H271.17ZM309.026 77.4545C309.026 80.6932 308.396 83.4252 307.136 85.6506C305.877 87.8665 304.177 89.5473 302.037 90.6932C299.897 91.8295 297.51 92.3977 294.878 92.3977C292.226 92.3977 289.83 91.8248 287.69 90.679C285.56 89.5237 283.865 87.8381 282.605 85.6222C281.355 83.3968 280.73 80.6742 280.73 77.4545C280.73 74.2159 281.355 71.4886 282.605 69.2727C283.865 67.0473 285.56 65.3665 287.69 64.2301C289.83 63.0843 292.226 62.5114 294.878 62.5114C297.51 62.5114 299.897 63.0843 302.037 64.2301C304.177 65.3665 305.877 67.0473 307.136 69.2727C308.396 71.4886 309.026 74.2159 309.026 77.4545ZM300.901 77.4545C300.901 75.7121 300.669 74.2443 300.205 73.0511C299.75 71.8485 299.073 70.9394 298.173 70.3239C297.283 69.6989 296.185 69.3864 294.878 69.3864C293.571 69.3864 292.468 69.6989 291.568 70.3239C290.678 70.9394 290.001 71.8485 289.537 73.0511C289.082 74.2443 288.855 75.7121 288.855 77.4545C288.855 79.197 289.082 80.6695 289.537 81.8722C290.001 83.0653 290.678 83.9744 291.568 84.5994C292.468 85.215 293.571 85.5227 294.878 85.5227C296.185 85.5227 297.283 85.215 298.173 84.5994C299.073 83.9744 299.75 83.0653 300.205 81.8722C300.669 80.6695 300.901 79.197 300.901 77.4545ZM312.68 92V62.9091H325.237C327.396 62.9091 329.285 63.3352 330.904 64.1875C332.523 65.0398 333.783 66.2377 334.683 67.7812C335.582 69.3248 336.032 71.1288 336.032 73.1932C336.032 75.2765 335.568 77.0805 334.64 78.6051C333.721 80.1297 332.429 81.304 330.762 82.1278C329.105 82.9517 327.168 83.3636 324.952 83.3636H317.452V77.2273H323.362C324.29 77.2273 325.08 77.0663 325.734 76.7443C326.397 76.4129 326.903 75.9441 327.254 75.3381C327.613 74.732 327.793 74.017 327.793 73.1932C327.793 72.3598 327.613 71.6496 327.254 71.0625C326.903 70.4659 326.397 70.0114 325.734 69.6989C325.08 69.3769 324.29 69.2159 323.362 69.2159H320.577V92H312.68ZM338.93 92V62.9091H359.896V69.2727H346.827V74.2727H358.816V80.6364H346.827V85.6364H359.839V92H338.93ZM363.812 92V62.9091H376.369C378.528 62.9091 380.418 63.3021 382.037 64.0881C383.656 64.8741 384.916 66.0057 385.815 67.483C386.715 68.9602 387.165 70.7311 387.165 72.7955C387.165 74.8788 386.701 76.6354 385.773 78.0653C384.854 79.4953 383.562 80.5748 381.895 81.304C380.238 82.0331 378.301 82.3977 376.085 82.3977H368.585V76.2614H374.494C375.422 76.2614 376.213 76.1477 376.866 75.9205C377.529 75.6837 378.036 75.3097 378.386 74.7983C378.746 74.2869 378.926 73.6193 378.926 72.7955C378.926 71.9621 378.746 71.285 378.386 70.7642C378.036 70.2339 377.529 69.8456 376.866 69.5994C376.213 69.3437 375.422 69.2159 374.494 69.2159H371.71V92H363.812ZM380.858 78.6477L388.131 92H379.551L372.449 78.6477H380.858ZM389.736 69.2727V62.9091H415.02V69.2727H406.27V92H398.486V69.2727H389.736ZM416.799 62.9091H425.606L431.288 74.7273H431.515L437.197 62.9091H446.004L435.322 82.8523V92H427.481V82.8523L416.799 62.9091Z" fill="#B5A268"/>
<defs>
<filter id="filter0_d_1953_52" x="202" y="31" width="275" height="435" filterUnits="userSpaceOnUse" color-interpolation-filters="sRGB">
<feFlood flood-opacity="0" result="BackgroundImageFix"/>
<feColorMatrix in="SourceAlpha" type="matrix" values="0 0 0 0 0 0 0 0 0 0 0 0 0 0 0 0 0 0 127 0" result="hardAlpha"/>
<feOffset dy="4"/>
<feGaussianBlur stdDeviation="2"/>
<feComposite in2="hardAlpha" operator="out"/>
<feColorMatrix type="matrix" values="0 0 0 0 0 0 0 0 0 0 0 0 0 0 0 0 0 0 0.25 0"/>
<feBlend mode="normal" in2="BackgroundImageFix" result="effect1_dropShadow_1953_52"/>
<feBlend mode="normal" in="SourceGraphic" in2="effect1_dropShadow_1953_52" result="shape"/>
</filter>
<clipPath id="clip0_1953_52">
<rect width="221" height="221" fill="white"/>
</clipPath>
<clipPath id="clip1_1953_52">
<rect width="276" height="479" fill="white" transform="translate(169 3)"/>
</clipPath>
<clipPath id="clip2_1953_52">
<rect width="126" height="329" fill="white" transform="translate(456 150)"/>
</clipPath>
</defs>
</svg>
