<svg width="34" height="34" viewBox="0 0 34 34" fill="none" xmlns="http://www.w3.org/2000/svg">
<path d="M17 8.5C11.5613 8.5 7.32461 11.7406 2.125 17C6.60078 21.4957 10.3594 25.5 17 25.5C23.634 25.5 28.5148 20.4266 31.875 17.093C28.4352 13.1883 23.5609 8.5 17 8.5ZM17 23.0629C13.7195 23.0629 11.05 20.3402 11.05 17C11.05 13.6531 13.7195 10.9371 17 10.9371C20.2805 10.9371 22.95 13.6598 22.95 17C22.95 20.3469 20.2805 23.0629 17 23.0629Z" fill="black"/>
<path d="M17.0004 14.8754C17.0004 14.3508 17.193 13.8727 17.5051 13.5008C17.3391 13.4742 17.173 13.4609 17.0004 13.4609C15.0879 13.4609 13.5273 15.048 13.5273 17.0004C13.5273 18.9527 15.0879 20.5398 17.0004 20.5398C18.9129 20.5398 20.4734 18.9527 20.4734 17.0004C20.4734 16.8477 20.4602 16.6949 20.4469 16.5422C20.0816 16.8277 19.6301 17.0004 19.132 17.0004C17.95 17.0004 17.0004 16.0508 17.0004 14.8754Z" fill="black"/>
</svg>
