<svg width="24" height="24" viewBox="0 0 24 24" fill="none" xmlns="http://www.w3.org/2000/svg">
<path d="M20.0293 3.00041C19.8931 2.9965 19.7575 3.02047 19.6309 3.07085C19.5043 3.12122 19.3893 3.19695 19.293 3.29338L17.2578 5.32854C15.6877 4.54601 13.9127 4.00041 12 4.00041C8.66667 4.00041 5.73358 5.63204 3.61914 7.35002C2.56192 8.20901 1.70591 9.09459 1.09375 9.85979C0.78767 10.2424 0.542283 10.5929 0.357422 10.9164C0.172561 11.2399 0 11.4587 0 12.0004C0 12.5421 0.172561 12.7609 0.357422 13.0844C0.542283 13.4079 0.78767 13.7584 1.09375 14.141C1.70591 14.9062 2.56192 15.7918 3.61914 16.6508C4.03176 16.9861 4.48322 17.3141 4.95508 17.6313L3.29297 19.2934C3.10548 19.4809 3.00015 19.7352 3.00015 20.0004C3.00015 20.2656 3.10548 20.5199 3.29297 20.7074C3.4805 20.8949 3.73482 21.0003 4 21.0003C4.26518 21.0003 4.5195 20.8949 4.70703 20.7074L6.74219 18.6723C8.31229 19.4548 10.0873 20.0004 12 20.0004C15.3333 20.0004 18.2664 18.3688 20.3809 16.6508C21.4381 15.7918 22.2941 14.9062 22.9062 14.141C23.2123 13.7584 23.4577 13.4079 23.6426 13.0844C23.8274 12.7609 24 12.5421 24 12.0004C24 11.4587 23.8274 11.2399 23.6426 10.9164C23.4577 10.5929 23.2123 10.2424 22.9062 9.85979C22.2941 9.09459 21.4381 8.20901 20.3809 7.35002C19.9682 7.01477 19.5168 6.68674 19.0449 6.36955L20.707 4.70744C20.8945 4.51991 20.9998 4.26559 20.9998 4.00041C20.9998 3.73523 20.8945 3.48091 20.707 3.29338C20.5268 3.11285 20.2843 3.00804 20.0293 3.00041ZM12 6.00041C13.2968 6.00041 14.5673 6.32771 15.75 6.83635L12.0684 10.518C12.0231 10.3492 12.0001 10.1752 12 10.0004C12.0002 9.61555 12.1114 9.23892 12.3203 8.91569C12.5292 8.59246 12.8269 8.33638 13.1777 8.17815C12.7962 8.06046 12.3992 8.00055 12 8.00041C11.9798 8.00026 11.9596 8.00026 11.9395 8.00041C10.8891 8.01631 9.88719 8.44475 9.15009 9.19318C8.41298 9.94161 7.99988 10.95 8 12.0004C8.00017 12.7149 8.1917 13.4163 8.55469 14.0317L6.39844 16.1879C5.85721 15.8471 5.34745 15.4791 4.88086 15.1C3.93808 14.334 3.16909 13.5321 2.65625 12.891C2.39983 12.5705 2.20772 12.2882 2.0957 12.0922C2.07328 12.053 2.07384 12.0352 2.06055 12.0004C2.07384 11.9656 2.07328 11.9479 2.0957 11.9086C2.20772 11.7126 2.39983 11.4303 2.65625 11.1098C3.16909 10.4687 3.93808 9.66681 4.88086 8.9008C6.76642 7.36878 9.33333 6.00041 12 6.00041ZM17.6016 7.81291C18.1428 8.15372 18.6525 8.5217 19.1191 8.9008C20.0619 9.66681 20.8309 10.4687 21.3438 11.1098C21.6002 11.4303 21.7923 11.7126 21.9043 11.9086C21.9267 11.9479 21.9262 11.9656 21.9395 12.0004C21.9262 12.0352 21.9267 12.053 21.9043 12.0922C21.7923 12.2882 21.6002 12.5705 21.3438 12.891C20.8309 13.5321 20.0619 14.334 19.1191 15.1C17.2336 16.632 14.6667 18.0004 12 18.0004C10.7032 18.0004 9.43271 17.6731 8.25 17.1645L9.96875 15.4457C10.5841 15.8087 11.2855 16.0002 12 16.0004C13.0609 16.0004 14.0783 15.579 14.8284 14.8288C15.5786 14.0787 16 13.0613 16 12.0004C15.9997 11.6018 15.9398 11.2055 15.8223 10.8246C15.6638 11.1751 15.4075 11.4724 15.0843 11.681C14.7611 11.8895 14.3846 12.0004 14 12.0004C13.8252 12.0003 13.6512 11.9774 13.4824 11.9321L17.6016 7.81291Z" fill="black"/>
</svg>
