<svg width="18" height="22" viewBox="0 0 18 22" fill="none" xmlns="http://www.w3.org/2000/svg">
<path d="M9.02949 0.375C4.10077 0.375 0.104492 4.37127 0.104492 9.3C0.104492 11.7493 1.09262 13.9669 2.69062 15.5798L2.68892 15.5815L8.99974 21.8923L14.7011 16.191C16.688 14.5539 17.9545 12.0748 17.9545 9.3C17.9545 4.37127 13.9586 0.375 9.02949 0.375ZM13.3496 14.5509L13.2706 14.6159L13.1983 14.6882L8.99974 18.8871L4.57762 14.465L4.20022 14.0842C2.92947 12.8016 2.22949 11.1024 2.22949 9.3C2.22949 5.55065 5.28014 2.5 9.02949 2.5C12.7788 2.5 15.8295 5.55065 15.8295 9.3C15.8295 11.3387 14.9259 13.2525 13.3496 14.5509Z" fill="black"/>
<path d="M9.02988 5.90039C7.15223 5.90039 5.62988 7.42274 5.62988 9.30039C5.62988 11.178 7.15223 12.7004 9.02988 12.7004C10.9075 12.7004 12.4299 11.178 12.4299 9.30039C12.4299 7.42274 10.9075 5.90039 9.02988 5.90039ZM9.02988 10.5754C8.32693 10.5754 7.75488 10.0033 7.75488 9.30039C7.75488 8.59744 8.32693 8.02539 9.02988 8.02539C9.73283 8.02539 10.3049 8.59744 10.3049 9.30039C10.3049 10.0033 9.73326 10.5754 9.02988 10.5754Z" fill="black"/>
</svg>
