<svg width="32" height="32" viewBox="0 0 32 32" fill="none" xmlns="http://www.w3.org/2000/svg">
<g clip-path="url(#clip0_1462_10067)">
<path d="M24 29H8C6.67392 29 5.40215 28.4732 4.46447 27.5355C3.52678 26.5979 3 25.3261 3 24V10C3 8.67392 3.52678 7.40215 4.46447 6.46447C5.40215 5.52678 6.67392 5 8 5H24C25.3261 5 26.5979 5.52678 27.5355 6.46447C28.4732 7.40215 29 8.67392 29 10V24C29 25.3261 28.4732 26.5979 27.5355 27.5355C26.5979 28.4732 25.3261 29 24 29ZM8 7C7.20435 7 6.44129 7.31607 5.87868 7.87868C5.31607 8.44129 5 9.20435 5 10V24C5 24.7956 5.31607 25.5587 5.87868 26.1213C6.44129 26.6839 7.20435 27 8 27H24C24.7956 27 25.5587 26.6839 26.1213 26.1213C26.6839 25.5587 27 24.7956 27 24V10C27 9.20435 26.6839 8.44129 26.1213 7.87868C25.5587 7.31607 24.7956 7 24 7H8Z" fill="black"/>
<path d="M24 25H20C19.7348 25 19.4804 24.8946 19.2929 24.7071C19.1054 24.5196 19 24.2652 19 24V20C19 19.7348 19.1054 19.4804 19.2929 19.2929C19.4804 19.1054 19.7348 19 20 19H24C24.2652 19 24.5196 19.1054 24.7071 19.2929C24.8946 19.4804 25 19.7348 25 20V24C25 24.2652 24.8946 24.5196 24.7071 24.7071C24.5196 24.8946 24.2652 25 24 25ZM21 23H23V21H21V23Z" fill="black"/>
<path d="M28 13H4C3.73478 13 3.48043 12.8946 3.29289 12.7071C3.10536 12.5196 3 12.2652 3 12C3 11.7348 3.10536 11.4804 3.29289 11.2929C3.48043 11.1054 3.73478 11 4 11H28C28.2652 11 28.5196 11.1054 28.7071 11.2929C28.8946 11.4804 29 11.7348 29 12C29 12.2652 28.8946 12.5196 28.7071 12.7071C28.5196 12.8946 28.2652 13 28 13Z" fill="black"/>
<path d="M11 9C10.7348 9 10.4804 8.89464 10.2929 8.70711C10.1054 8.51957 10 8.26522 10 8V4C10 3.73478 10.1054 3.48043 10.2929 3.29289C10.4804 3.10536 10.7348 3 11 3C11.2652 3 11.5196 3.10536 11.7071 3.29289C11.8946 3.48043 12 3.73478 12 4V8C12 8.26522 11.8946 8.51957 11.7071 8.70711C11.5196 8.89464 11.2652 9 11 9Z" fill="black"/>
<path d="M21 9C20.7348 9 20.4804 8.89464 20.2929 8.70711C20.1054 8.51957 20 8.26522 20 8V4C20 3.73478 20.1054 3.48043 20.2929 3.29289C20.4804 3.10536 20.7348 3 21 3C21.2652 3 21.5196 3.10536 21.7071 3.29289C21.8946 3.48043 22 3.73478 22 4V8C22 8.26522 21.8946 8.51957 21.7071 8.70711C21.5196 8.89464 21.2652 9 21 9Z" fill="black"/>
</g>
<defs>
<clipPath id="clip0_1462_10067">
<rect width="32" height="32" fill="white"/>
</clipPath>
</defs>
</svg>
